<svg width="16" height="21" viewBox="0 0 16 21" fill="none" xmlns="http://www.w3.org/2000/svg">
<path d="M13.988 6.45743C13.7728 4.17581 11.8048 3.40399 9.31715 3.17952V0.0122999H7.3953V3.08727C6.88793 3.08727 6.36826 3.08727 5.85781 3.08727V0H3.92981V3.16722C3.51469 3.16722 3.10264 3.16722 2.69982 3.16722H0.0430495L0.0307497 5.22744C0.0307497 5.22744 1.45446 5.20284 1.42986 5.22744C2.2109 5.22744 2.46612 5.68254 2.53685 6.07306V9.68307C2.60547 9.67918 2.67425 9.67918 2.74287 9.68307H2.5307L2.51532 14.7598C2.49889 14.9369 2.41369 15.1005 2.27802 15.2155C2.14235 15.3305 1.96701 15.3877 1.78963 15.3748C1.81423 15.3964 0.387446 15.3748 0.387446 15.3748L0 17.6811H2.50917H3.88676V20.8852H5.81476V17.718C6.34366 17.718 6.8541 17.7364 7.35225 17.7364V20.8913H9.28025V17.6934C12.5213 17.5458 14.7906 16.734 15.0673 13.6928C15.301 11.2329 14.1448 10.1443 12.2999 9.69537C13.4192 9.1265 14.1202 8.12714 13.9604 6.45436L13.988 6.45743ZM11.2728 13.2992C11.2728 15.6946 7.17082 15.4117 5.86396 15.4087V11.1652C7.17082 11.1652 11.2698 10.8054 11.2636 13.2992H11.2728ZM10.3903 7.31227C10.3903 9.48935 6.96788 9.2249 5.87934 9.2249V5.37504C6.9771 5.37812 10.3965 5.03987 10.3903 7.31227Z" fill="#F4AE45"/>
</svg>
