<svg width="22" height="20" viewBox="0 0 22 20" fill="none" xmlns="http://www.w3.org/2000/svg">
<path d="M13.0538 6.71243V4.05195H19.1354V0H2.5974V4.05195H8.66048V6.70872C3.71057 6.93506 0 7.91466 0 9.0872C0 10.2597 3.71057 11.2393 8.66048 11.4657V20H13.0575V11.4657C17.9889 11.2393 21.6994 10.2597 21.6994 9.0872C21.6994 7.91466 17.9889 6.93878 13.0538 6.71243ZM13.0538 10.7458C12.9276 10.7458 12.2894 10.7904 10.872 10.7904C9.73655 10.7904 8.93877 10.757 8.64564 10.7421C4.27829 10.5529 1.02041 9.79221 1.02041 8.88683C1.02041 7.98145 4.27829 7.21707 8.64564 7.03154V10C8.93135 10 9.75881 10.0668 10.872 10.0668C12.2263 10.0668 12.9091 10.0111 13.0352 10V7.03154C17.3915 7.22449 20.6456 7.98516 20.6456 8.88683C20.6456 9.7885 17.4137 10.5492 13.0575 10.7607L13.0538 10.7458Z" fill="#66CEA2"/>
</svg>
