<svg width="25" height="25" viewBox="0 0 25 25" fill="none" xmlns="http://www.w3.org/2000/svg">
<path d="M8.33433 12.5005C8.33433 10.1993 10.1993 8.33333 12.5005 8.33333C14.8017 8.33333 16.6677 10.1993 16.6677 12.5005C16.6677 14.8017 14.8017 16.6677 12.5005 16.6677C10.1993 16.6677 8.33433 14.8017 8.33433 12.5005ZM6.08164 12.5005C6.08164 16.0456 8.95536 18.9194 12.5005 18.9194C16.0456 18.9194 18.9194 16.0456 18.9194 12.5005C18.9194 8.95536 16.0456 6.08164 12.5005 6.08164C8.95536 6.08164 6.08164 8.95536 6.08164 12.5005ZM17.6734 5.82713C17.6733 6.12382 17.7612 6.41387 17.9259 6.66062C18.0906 6.90737 18.3248 7.09973 18.5989 7.21338C18.8729 7.32702 19.1745 7.35685 19.4655 7.29909C19.7565 7.24132 20.0239 7.09856 20.2337 6.88886C20.4436 6.67916 20.5866 6.41193 20.6446 6.12097C20.7026 5.83001 20.673 5.52838 20.5596 5.25424C20.4461 4.98009 20.254 4.74574 20.0074 4.58081C19.7607 4.41588 19.4708 4.32779 19.1741 4.32767H19.1735C18.7758 4.32786 18.3944 4.48588 18.1132 4.76702C17.8319 5.04817 17.6738 5.42945 17.6734 5.82713ZM7.4503 22.6756C6.23155 22.6201 5.56912 22.4171 5.12891 22.2456C4.54528 22.0184 4.12887 21.7478 3.69105 21.3106C3.25323 20.8733 2.98222 20.4573 2.75601 19.8737C2.5844 19.4337 2.3814 18.7711 2.32599 17.5523C2.26539 16.2346 2.25329 15.8388 2.25329 12.5006C2.25329 9.16237 2.26639 8.76765 2.32599 7.4489C2.3815 6.23015 2.586 5.56882 2.75601 5.1275C2.98322 4.54388 3.25383 4.12747 3.69105 3.68965C4.12827 3.25183 4.54428 2.98082 5.12891 2.75461C5.56892 2.583 6.23155 2.38 7.4503 2.32459C8.76795 2.26399 9.16377 2.25189 12.5005 2.25189C15.8372 2.25189 16.2334 2.26499 17.5522 2.32459C18.771 2.3801 19.4323 2.5846 19.8736 2.75461C20.4572 2.98082 20.8736 3.25243 21.3115 3.68965C21.7493 4.12687 22.0193 4.54388 22.2465 5.1275C22.4181 5.56752 22.6211 6.23015 22.6765 7.4489C22.7371 8.76765 22.7492 9.16237 22.7492 12.5006C22.7492 15.8388 22.7371 16.2336 22.6765 17.5523C22.621 18.7711 22.417 19.4335 22.2465 19.8737C22.0193 20.4573 21.7487 20.8737 21.3115 21.3106C20.8742 21.7474 20.4572 22.0184 19.8736 22.2456C19.4336 22.4172 18.771 22.6202 17.5522 22.6756C16.2346 22.7362 15.8387 22.7483 12.5005 22.7483C9.16227 22.7483 8.76755 22.7362 7.4503 22.6756ZM7.34679 0.075703C6.01604 0.136305 5.1067 0.347314 4.31257 0.656326C3.49014 0.975439 2.79391 1.40356 2.09818 2.09818C1.40246 2.79281 0.975439 3.49014 0.656326 4.31257C0.347314 5.1072 0.136305 6.01604 0.075703 7.34679C0.0141006 8.67965 0 9.10576 0 12.5005C0 15.8952 0.0141006 16.3214 0.075703 17.6542C0.136305 18.9851 0.347314 19.8938 0.656326 20.6884C0.975439 21.5104 1.40256 22.2085 2.09818 22.9028C2.79381 23.5971 3.49014 24.0247 4.31257 24.3447C5.1082 24.6537 6.01604 24.8647 7.34679 24.9253C8.68035 24.9859 9.10576 25.001 12.5005 25.001C15.8952 25.001 16.3214 24.9869 17.6542 24.9253C18.9851 24.8647 19.8938 24.6537 20.6884 24.3447C21.5104 24.0247 22.2071 23.5974 22.9028 22.9028C23.5985 22.2082 24.0247 21.5104 24.3447 20.6884C24.6537 19.8938 24.8657 18.985 24.9253 17.6542C24.9859 16.3204 25 15.8952 25 12.5005C25 9.10576 24.9859 8.67965 24.9253 7.34679C24.8647 6.01594 24.6537 5.1067 24.3447 4.31257C24.0247 3.49064 23.5974 2.79391 22.9028 2.09818C22.2082 1.40246 21.5104 0.975439 20.6894 0.656326C19.8938 0.347314 18.985 0.135305 17.6552 0.075703C16.3224 0.0151006 15.8962 0 12.5015 0C9.10676 0 8.68035 0.0141006 7.34679 0.075703Z" fill="url(#paint0_radial_2650_32808)"/>
<path d="M8.33433 12.5005C8.33433 10.1993 10.1993 8.33333 12.5005 8.33333C14.8017 8.33333 16.6677 10.1993 16.6677 12.5005C16.6677 14.8017 14.8017 16.6677 12.5005 16.6677C10.1993 16.6677 8.33433 14.8017 8.33433 12.5005ZM6.08164 12.5005C6.08164 16.0456 8.95536 18.9194 12.5005 18.9194C16.0456 18.9194 18.9194 16.0456 18.9194 12.5005C18.9194 8.95536 16.0456 6.08164 12.5005 6.08164C8.95536 6.08164 6.08164 8.95536 6.08164 12.5005ZM17.6734 5.82713C17.6733 6.12382 17.7612 6.41387 17.9259 6.66062C18.0906 6.90737 18.3248 7.09973 18.5989 7.21338C18.8729 7.32702 19.1745 7.35685 19.4655 7.29909C19.7565 7.24132 20.0239 7.09856 20.2337 6.88886C20.4436 6.67916 20.5866 6.41193 20.6446 6.12097C20.7026 5.83001 20.673 5.52838 20.5596 5.25424C20.4461 4.98009 20.254 4.74574 20.0074 4.58081C19.7607 4.41588 19.4708 4.32779 19.1741 4.32767H19.1735C18.7758 4.32786 18.3944 4.48588 18.1132 4.76702C17.8319 5.04817 17.6738 5.42945 17.6734 5.82713ZM7.4503 22.6756C6.23155 22.6201 5.56912 22.4171 5.12891 22.2456C4.54528 22.0184 4.12887 21.7478 3.69105 21.3106C3.25323 20.8733 2.98222 20.4573 2.75601 19.8737C2.5844 19.4337 2.3814 18.7711 2.32599 17.5523C2.26539 16.2346 2.25329 15.8388 2.25329 12.5006C2.25329 9.16237 2.26639 8.76765 2.32599 7.4489C2.3815 6.23015 2.586 5.56882 2.75601 5.1275C2.98322 4.54388 3.25383 4.12747 3.69105 3.68965C4.12827 3.25183 4.54428 2.98082 5.12891 2.75461C5.56892 2.583 6.23155 2.38 7.4503 2.32459C8.76795 2.26399 9.16377 2.25189 12.5005 2.25189C15.8372 2.25189 16.2334 2.26499 17.5522 2.32459C18.771 2.3801 19.4323 2.5846 19.8736 2.75461C20.4572 2.98082 20.8736 3.25243 21.3115 3.68965C21.7493 4.12687 22.0193 4.54388 22.2465 5.1275C22.4181 5.56752 22.6211 6.23015 22.6765 7.4489C22.7371 8.76765 22.7492 9.16237 22.7492 12.5006C22.7492 15.8388 22.7371 16.2336 22.6765 17.5523C22.621 18.7711 22.417 19.4335 22.2465 19.8737C22.0193 20.4573 21.7487 20.8737 21.3115 21.3106C20.8742 21.7474 20.4572 22.0184 19.8736 22.2456C19.4336 22.4172 18.771 22.6202 17.5522 22.6756C16.2346 22.7362 15.8387 22.7483 12.5005 22.7483C9.16227 22.7483 8.76755 22.7362 7.4503 22.6756ZM7.34679 0.075703C6.01604 0.136305 5.1067 0.347314 4.31257 0.656326C3.49014 0.975439 2.79391 1.40356 2.09818 2.09818C1.40246 2.79281 0.975439 3.49014 0.656326 4.31257C0.347314 5.1072 0.136305 6.01604 0.075703 7.34679C0.0141006 8.67965 0 9.10576 0 12.5005C0 15.8952 0.0141006 16.3214 0.075703 17.6542C0.136305 18.9851 0.347314 19.8938 0.656326 20.6884C0.975439 21.5104 1.40256 22.2085 2.09818 22.9028C2.79381 23.5971 3.49014 24.0247 4.31257 24.3447C5.1082 24.6537 6.01604 24.8647 7.34679 24.9253C8.68035 24.9859 9.10576 25.001 12.5005 25.001C15.8952 25.001 16.3214 24.9869 17.6542 24.9253C18.9851 24.8647 19.8938 24.6537 20.6884 24.3447C21.5104 24.0247 22.2071 23.5974 22.9028 22.9028C23.5985 22.2082 24.0247 21.5104 24.3447 20.6884C24.6537 19.8938 24.8657 18.985 24.9253 17.6542C24.9859 16.3204 25 15.8952 25 12.5005C25 9.10576 24.9859 8.67965 24.9253 7.34679C24.8647 6.01594 24.6537 5.1067 24.3447 4.31257C24.0247 3.49064 23.5974 2.79391 22.9028 2.09818C22.2082 1.40246 21.5104 0.975439 20.6894 0.656326C19.8938 0.347314 18.985 0.135305 17.6552 0.075703C16.3224 0.0151006 15.8962 0 12.5015 0C9.10676 0 8.68035 0.0141006 7.34679 0.075703Z" fill="url(#paint1_radial_2650_32808)"/>
<defs>
<radialGradient id="paint0_radial_2650_32808" cx="0" cy="0" r="1" gradientUnits="userSpaceOnUse" gradientTransform="translate(3.32153 25.1191) scale(32.6367 32.6367)">
<stop offset="0.09" stop-color="#FA8F21"/>
<stop offset="0.78" stop-color="#D82D7E"/>
</radialGradient>
<radialGradient id="paint1_radial_2650_32808" cx="0" cy="0" r="1" gradientUnits="userSpaceOnUse" gradientTransform="translate(15.162 26.2392) scale(25.7222)">
<stop offset="0.64" stop-color="#8C3AAA" stop-opacity="0"/>
<stop offset="1" stop-color="#8C3AAA"/>
</radialGradient>
</defs>
</svg>
