<svg width="29" height="14" viewBox="0 0 29 14" fill="none" xmlns="http://www.w3.org/2000/svg">
<path fill-rule="evenodd" clip-rule="evenodd" d="M15.0148 0.17575H13.5561C13.3175 0.148525 13.0259 0.148525 12.735 0.122732C12.6555 0.148525 12.6282 0.229484 12.6017 0.337669C12.5897 0.383013 12.5883 0.430517 12.5976 0.476491C12.607 0.522465 12.6267 0.565672 12.6555 0.602758L12.9736 0.629983C13.2722 0.681129 13.5651 0.761028 13.8484 0.868563C13.9442 0.925632 14.0269 1.0024 14.0909 1.0938C14.1548 1.1852 14.1987 1.28913 14.2195 1.39874C14.2814 1.71283 14.2993 2.03403 14.2725 2.35306C14.2453 2.90998 14.2188 3.5727 14.193 4.34122C14.1658 5.11141 14.1135 5.90668 14.0597 6.72845C14.0074 8.00016 13.8928 11.0988 13.5475 12.0152C13.4837 12.2 13.3503 12.3527 13.1756 12.4408C12.9654 12.5366 12.7416 12.5992 12.5122 12.6263L12.0866 12.6793C12.0071 12.7316 11.9806 12.8126 12.0071 12.9451C12.0073 12.9901 12.0168 13.0345 12.035 13.0756C12.0533 13.1166 12.0799 13.1535 12.1131 13.1837C12.4584 13.1572 12.7773 13.1307 13.1226 13.1035H15.2204C15.6187 13.1307 15.9641 13.1572 16.2822 13.1837C16.3231 13.1588 16.3569 13.1238 16.3802 13.082C16.4036 13.0402 16.4157 12.993 16.4154 12.9451C16.4182 12.8957 16.41 12.8463 16.3916 12.8004C16.3731 12.7544 16.3448 12.7131 16.3087 12.6793L15.5657 12.6263C15.3264 12.5991 15.1409 12.5461 15.0083 12.4408C14.9386 12.3828 14.8836 12.3091 14.8478 12.2258C14.6916 11.849 14.6881 11.2106 14.6967 10.8151C14.7131 9.99262 14.7232 9.17156 14.7497 8.34907C14.7762 7.52658 14.8027 6.81013 14.8285 6.19971C14.8543 5.6423 14.9087 5.05839 14.9345 4.4752C14.9603 3.892 14.9875 3.30881 15.0148 2.72561H15.0671C15.282 3.17627 15.4926 3.62692 15.6775 4.13058C15.8924 4.60846 16.1023 5.08562 16.3137 5.53699L18.0905 9.32775C18.25 9.64729 18.4356 10.0454 18.6472 10.5221C18.8865 11.0236 19.1243 11.5029 19.3371 11.9794C19.4489 12.2325 19.5461 12.4713 19.6287 12.6958C19.6495 12.6958 19.7985 13.1844 19.815 13.241C19.8644 13.2902 19.9313 13.3177 20.0009 13.3177C20.0706 13.3177 20.1374 13.2902 20.1869 13.241C20.3516 12.8463 20.5236 12.4465 20.7156 12.0639C21.2171 10.9362 21.7416 9.85936 22.3334 8.77536L24.0571 5.35501C24.1904 5.06198 24.3222 4.74459 24.5078 4.39997C24.6934 4.02885 24.8789 3.68352 25.0387 3.39264C25.1202 3.18225 25.2171 2.97822 25.3289 2.78221H25.3561L25.4098 10.977C25.4302 11.3036 25.4213 11.6314 25.3833 11.9564C25.3618 12.1463 25.3117 12.3268 25.1261 12.4193C25.0193 12.5511 24.8073 12.6041 24.4619 12.6342L23.878 12.6872C23.8243 12.7395 23.7985 12.8205 23.8243 12.953C23.8247 12.9981 23.8344 13.0425 23.8529 13.0836C23.8714 13.1247 23.8983 13.1615 23.9318 13.1916C24.3294 13.1651 24.7535 13.1386 25.1497 13.1114H27.4338L28.6317 13.1837C28.6691 13.157 28.6986 13.1208 28.7173 13.0789C28.7359 13.0369 28.743 12.9907 28.7377 12.9451C28.7497 12.8997 28.7511 12.8522 28.742 12.8061C28.7328 12.76 28.7132 12.7167 28.6847 12.6793L28.0471 12.6263C27.7548 12.5991 27.5422 12.5191 27.4094 12.3863C27.2666 12.2542 27.173 12.0773 27.1444 11.8848C27.1106 11.6028 27.0927 11.3191 27.0906 11.0351C27.0369 10.0492 26.9996 9.04618 26.9738 8.05748C26.9473 6.99569 26.8936 5.98907 26.8678 5.03547V2.50853C26.8601 2.1531 26.8867 1.79776 26.9473 1.44746C26.9964 1.21478 27.1283 1.00781 27.3184 0.86498C27.5047 0.758945 27.82 0.678702 28.2463 0.626401L28.6446 0.599175C28.6983 0.546158 28.7241 0.466631 28.6983 0.334087C28.701 0.254794 28.6724 0.177624 28.6188 0.11915C28.3 0.144943 27.9819 0.144943 27.6874 0.172168H26.2545C26.0145 0.144943 25.7494 0.144943 25.4055 0.11915C25.3833 0.574099 25.2242 1.07562 24.985 1.66096C24.6934 2.26995 24.353 3.01363 23.9232 3.88842L22.0661 7.62689C21.5847 8.64497 21.1462 9.61362 20.5565 10.5787H20.5035C20.0342 9.69314 19.6015 8.77393 19.1759 7.86618L16.9241 3.35753C16.6325 2.72132 16.3674 2.11161 16.1554 1.55493C15.9691 0.99848 15.8896 0.520843 15.9168 0.122016C15.5987 0.147808 15.3064 0.147808 15.0148 0.175034V0.17575ZM4.13395 10.2556C4.14351 10.7708 4.11645 11.286 4.05299 11.7974C3.99997 12.4794 3.55147 12.7023 2.91526 12.746L2.50903 12.8004C2.37792 12.9315 2.38795 13.216 2.53697 13.3141C3.37522 13.2625 4.13323 13.2324 4.97292 13.2324C5.8692 13.2324 6.70459 13.2718 7.59873 13.3141C7.65571 13.2438 7.69326 13.1598 7.70763 13.0705C7.70763 12.9358 7.6804 12.8556 7.62595 12.8004L7.08646 12.746C6.65277 12.7183 6.35496 12.6368 6.19304 12.5016L6.16438 12.4802C6.00031 12.344 5.88353 12.1363 5.8341 11.8139C5.76901 11.3036 5.75102 10.7884 5.78036 10.2749V8.38346C5.2381 8.41331 4.69419 8.38618 4.15759 8.3025L4.13538 10.2577L4.13395 10.2556ZM2.39941 0.37994C2.37218 0.488125 2.4295 0.569084 2.50759 0.65076L3.21115 0.730287C3.50777 0.758467 3.7239 0.839904 3.85955 0.974598C3.99424 1.08207 4.07448 1.27193 4.10242 1.56926C4.13037 1.86659 4.15616 2.30004 4.15616 2.86604V6.86744C4.69674 6.89467 5.23835 6.89467 5.77893 6.86744V1.35074C5.75182 1.17798 5.77034 1.00114 5.83266 0.837755C5.85989 0.756796 5.96807 0.67512 6.10277 0.649327C6.36456 0.622648 6.62786 0.613553 6.89087 0.622102C7.91755 0.649327 8.70135 0.918714 9.2695 1.48615C9.81043 2.05358 10.0798 2.8381 10.0798 3.81176C10.1085 4.67628 9.89353 5.40587 9.435 6.00053C9.02949 6.51566 8.43196 6.89324 7.62309 7.08238C6.84 7.27152 5.73164 7.3532 4.24428 7.32526C2.94607 7.29947 1.5411 7.21779 0 7.05587C1.70373 7.40765 2.97329 7.64981 3.78503 7.73077C5.06073 7.88985 6.35228 7.87201 7.62309 7.67776C8.20523 7.59834 8.77668 7.45416 9.32682 7.24788C9.84724 7.00468 10.3448 6.71527 10.8135 6.38312C11.1108 6.16818 11.3809 5.81425 11.6245 5.35501C11.8144 4.92513 11.9218 4.40929 11.9483 3.78669C11.9339 3.16017 11.7651 2.54691 11.4568 2.00128C11.1595 1.48758 10.8077 1.08207 10.3478 0.783304C9.82662 0.48614 9.26065 0.275625 8.67198 0.159988C7.9477 0.0453513 7.21502 -0.00785577 6.48177 0.000935056C5.67003 0.000935056 4.94068 0.000935057 4.29228 0.0274439C3.64389 0.0539528 3.04923 0.0818945 2.53482 0.135629C2.49328 0.161419 2.45904 0.197407 2.43533 0.24017C2.41163 0.282933 2.39927 0.331048 2.39941 0.37994Z" fill="#E62727"/>
</svg>
