<svg width="26" height="21" viewBox="0 0 26 21" fill="none" xmlns="http://www.w3.org/2000/svg">
<path d="M1.55707 9.14555C1.55707 9.14555 12.7898 4.53566 16.6854 2.9124C18.1788 2.26315 23.2432 0.185375 23.2432 0.185375C23.2432 0.185375 25.5807 -0.723573 25.3859 1.48396C25.3209 2.393 24.8015 5.57446 24.2821 9.0157C23.5029 13.8854 22.6589 19.2095 22.6589 19.2095C22.6589 19.2095 22.529 20.7029 21.4253 20.9626C20.3215 21.2223 18.5034 20.0537 18.1788 19.7939C17.919 19.5991 13.3092 16.6773 11.621 15.2488C11.1665 14.8593 10.6471 14.0802 11.6859 13.1712C14.0234 11.0285 16.8153 8.36645 18.5034 6.67831C19.2826 5.89913 20.0617 4.08114 16.8153 6.28867C12.2054 9.47022 7.66037 12.4569 7.66037 12.4569C7.66037 12.4569 6.62149 13.1062 4.67365 12.5218C2.72572 11.9375 0.453216 11.1584 0.453216 11.1584C0.453216 11.1584 -1.10498 10.1844 1.55707 9.14555Z" fill="#34AADF"/>
</svg>
