<svg width="25" height="29" viewBox="0 0 25 29" fill="none" xmlns="http://www.w3.org/2000/svg">
<path d="M9.74233 11.1305V10.029C9.35998 9.96842 8.97379 9.93525 8.58671 9.92971C4.8392 9.92171 1.52145 12.3502 0.396069 15.9247C-0.729307 19.4992 0.59907 23.3904 3.67507 25.5306C2.5471 24.3234 1.79263 22.8155 1.50275 21.189C1.21286 19.5625 1.39995 17.8868 2.04143 16.3642C2.68291 14.8417 3.75136 13.5373 5.11782 12.6087C6.48427 11.68 8.09031 11.1666 9.74208 11.1306L9.74233 11.1305Z" fill="#25F4EE"/>
<path d="M9.95004 23.609C12.0453 23.6062 13.7676 21.9555 13.8593 19.8623V1.18275H17.2718C17.2022 0.792425 17.1689 0.396473 17.1726 0L12.5049 0V18.6615C12.4273 20.7654 10.7009 22.4319 8.59567 22.4353C7.96654 22.43 7.34767 22.2752 6.79004 21.9839C7.15145 22.4846 7.62608 22.8928 8.17524 23.1753C8.7244 23.4577 9.33253 23.6063 9.95004 23.609ZM23.6458 7.52051V6.48226C22.3899 6.48276 21.1618 6.11216 20.1158 5.41701C21.0328 6.483 22.2719 7.2214 23.6458 7.52051Z" fill="#25F4EE"/>
<path d="M20.116 5.41709C19.0855 4.24372 18.5174 2.73533 18.5179 1.17371H17.2719C17.4329 2.03711 17.7681 2.85866 18.257 3.58823C18.746 4.3178 19.3785 4.94007 20.116 5.41709ZM8.58681 14.5989C7.71293 14.6033 6.86562 14.8997 6.17958 15.4411C5.49355 15.9824 5.00817 16.7375 4.8006 17.5864C4.59304 18.4353 4.67522 19.3292 5.03406 20.126C5.39291 20.9228 6.00782 21.5768 6.78105 21.984C6.35829 21.4003 6.10513 20.7111 6.04952 19.9925C5.99392 19.2739 6.13804 18.5539 6.46597 17.9121C6.79389 17.2703 7.29286 16.7317 7.90773 16.3557C8.52261 15.9796 9.22946 15.7809 9.95018 15.7815C10.342 15.7866 10.7311 15.8476 11.1057 15.9626V11.2132C10.7231 11.1559 10.337 11.1257 9.95018 11.123H9.74243V14.7342C9.36584 14.6332 8.97655 14.5876 8.58681 14.5989Z" fill="#FE2C55"/>
<path d="M23.6457 7.52234V11.1337C21.3207 11.1292 19.056 10.3932 17.1725 9.03009V18.5189C17.1625 23.2536 13.3213 27.0867 8.58656 27.0867C6.82809 27.0899 5.11197 26.5473 3.67493 25.5339C4.84675 26.7943 6.37098 27.6726 8.04907 28.0543C9.72716 28.4361 11.4813 28.3037 13.0831 27.6744C14.6849 27.045 16.06 25.9478 17.0293 24.5258C17.9987 23.1038 18.5173 21.4228 18.5177 19.7019V10.24C20.4076 11.5941 22.675 12.3205 25 12.3165V7.66646C24.5448 7.66511 24.091 7.61681 23.6457 7.52234Z" fill="#FE2C55"/>
<path d="M17.1727 18.5171V9.02834C19.062 10.3837 21.3299 11.1102 23.655 11.1048V7.49359C22.2814 7.2035 21.0393 6.47471 20.116 5.41709C19.3786 4.94007 18.746 4.3178 18.2571 3.58823C17.7681 2.85866 17.4329 2.03711 17.272 1.17371H13.8595V19.8626C13.8263 20.6761 13.5404 21.459 13.0418 22.1026C12.5431 22.7462 11.8563 23.2185 11.0769 23.4538C10.2975 23.6891 9.46409 23.6757 8.69259 23.4156C7.92109 23.1555 7.24979 22.6615 6.77197 22.0022C5.99861 21.5951 5.38356 20.9411 5.02463 20.1443C4.66569 19.3474 4.58347 18.4534 4.79105 17.6044C4.99862 16.7555 5.48407 16.0003 6.17021 15.4589C6.85634 14.9176 7.70376 14.6212 8.57773 14.6169C8.96968 14.6204 9.35902 14.6812 9.73335 14.7975V11.1861C8.0727 11.2143 6.45611 11.725 5.0807 12.656C3.70529 13.5871 2.63048 14.8982 1.98733 16.4295C1.34418 17.9608 1.16047 19.6462 1.4586 21.2801C1.75673 22.914 2.52382 24.4259 3.66634 25.6314C5.1175 26.6114 6.83607 27.1191 8.58685 27.085C13.3216 27.085 17.1627 23.2519 17.1727 18.5171Z" fill="black"/>
</svg>
