<svg width="25" height="16" viewBox="0 0 25 16" fill="none" xmlns="http://www.w3.org/2000/svg">
<path fill-rule="evenodd" clip-rule="evenodd" d="M24.388 1.41105C24.5636 0.825734 24.388 0.416016 23.5686 0.416016H20.8371C20.1347 0.416016 19.8226 0.786713 19.647 1.19643C19.647 1.19643 18.2617 4.59124 16.2912 6.77641C15.6473 7.42025 15.3742 7.61535 15.023 7.61535C14.8474 7.61535 14.5938 7.42025 14.5938 6.83494V1.41105C14.5938 0.708671 14.3987 0.416016 13.8134 0.416016H9.52108C9.09185 0.416016 8.8187 0.747692 8.8187 1.04035C8.8187 1.7037 9.79422 1.85979 9.91129 3.69376V7.71291C9.91129 8.59087 9.7552 8.74696 9.40402 8.74696C8.48703 8.74696 6.22382 5.35215 4.89711 1.45007C4.62397 0.728183 4.37033 0.416016 3.66796 0.416016H0.936499C0.156083 0.416016 0 0.786713 0 1.19643C0 1.91832 0.916989 5.50823 4.3118 10.2493C6.57501 13.488 9.7552 15.2439 12.6427 15.2439C14.3792 15.2439 14.5938 14.8537 14.5938 14.1904V11.732C14.5938 10.9516 14.7499 10.7955 15.3157 10.7955C15.7254 10.7955 16.4083 10.9907 18.0276 12.5515C19.8811 14.405 20.1933 15.2439 21.2273 15.2439H23.9588C24.7392 15.2439 25.1294 14.8537 24.8953 14.0928C24.6416 13.3319 23.7637 12.2198 22.5931 10.8931C21.9492 10.1322 20.9932 9.33227 20.7201 8.92255C20.3103 8.39577 20.4274 8.16165 20.7201 7.71291C20.7201 7.6934 24.0563 3.0109 24.388 1.41105Z" fill="#5181B8"/>
</svg>
