<svg width="32" height="32" viewBox="0 0 32 32" fill="none" xmlns="http://www.w3.org/2000/svg">
<path d="M8.01888 5.37109C5.07354 5.37109 2.68688 7.75909 2.68555 10.7044V21.3711C2.68555 24.3164 5.07354 26.7044 8.01888 26.7044H24.0189C26.9655 26.7044 29.3522 24.3164 29.3522 21.3711V10.7044C29.3522 7.75909 26.9655 5.37109 24.0189 5.37109H8.01888ZM22.6855 10.7044C23.4229 10.7044 24.0189 11.3018 24.0189 12.0378C24.0189 12.7738 23.4229 13.3711 22.6855 13.3711C21.9495 13.3711 21.3522 12.7738 21.3522 12.0378C21.3522 11.3018 21.9495 10.7044 22.6855 10.7044ZM11.3522 15.5378C13.2495 15.3564 15.1309 17.1431 17.5616 20.7871C17.9696 21.4004 18.8229 21.5711 19.4362 21.1631C22.7669 18.9431 23.5135 18.7271 26.6442 21.8298C26.4229 23.1138 25.3295 24.0378 24.0189 24.0378H8.01888C6.64821 24.0378 5.50154 22.9951 5.35221 21.6631C7.59088 17.8458 9.54021 15.7111 11.3522 15.5378Z" fill="#797F82"/>
</svg>
