<svg width="9" height="10" viewBox="0 0 9 10" fill="none" xmlns="http://www.w3.org/2000/svg">
<path d="M6.86794 8.99994C6.82524 9.00019 6.78292 8.99201 6.74339 8.97586C6.70386 8.95972 6.66791 8.93593 6.63759 8.90586L1.69981 3.96808C1.63938 3.90729 1.60547 3.82506 1.60547 3.73935C1.60547 3.65365 1.63938 3.57142 1.69981 3.51063L3.52634 1.70033C3.58712 1.6399 3.66935 1.60599 3.75506 1.60599C3.84077 1.60599 3.92299 1.6399 3.98378 1.70033L8.90534 6.63811C8.9362 6.66919 8.96044 6.7062 8.97661 6.7469C8.99278 6.78761 9.00054 6.83116 8.99943 6.87494L8.954 8.63983C8.954 8.72587 8.91982 8.80839 8.85898 8.86923C8.79814 8.93008 8.71562 8.96426 8.62958 8.96426L6.86469 9.00968L6.86794 8.99994ZM2.3876 3.73773L6.99771 8.34784L8.31488 8.3154L8.34733 6.99823L3.73721 2.38811L2.3876 3.73773Z" fill="white"/>
<path d="M1.9306 4.06209C1.8879 4.06233 1.84558 4.05415 1.80605 4.03801C1.76652 4.02186 1.73057 3.99807 1.70026 3.968L0.0943411 2.36209C0.0339162 2.3013 0 2.21908 0 2.13337C0 2.04766 0.0339162 1.96543 0.0943411 1.90465L1.90465 0.0943411C1.96543 0.0339162 2.04766 0 2.13337 0C2.21908 0 2.3013 0.0339162 2.36209 0.0943411L3.968 1.71648C4.02843 1.77726 4.06234 1.85949 4.06234 1.9452C4.06234 2.03091 4.02843 2.11313 3.968 2.17392L2.1577 3.968C2.09727 4.02794 2.01571 4.06173 1.9306 4.06209ZM0.782127 2.11552L1.9306 3.264L3.28022 1.91438L2.13174 0.782127L0.782127 2.11552Z" fill="white"/>
</svg>
