<svg width="16" height="16" viewBox="0 0 16 16" fill="none" xmlns="http://www.w3.org/2000/svg">
<path d="M8.78255 13.3751C9.04656 13.3278 9.32428 13.1951 9.59522 12.9791L13.9077 9.54177C14.9071 8.74443 14.9071 7.38042 13.9077 6.58376L9.59522 3.14577C8.51122 2.28176 7.32455 2.83977 7.32455 4.2291V5.41709C7.22388 5.41842 7.09122 5.41642 7.05322 5.41709C6.54655 5.42442 6.21589 5.41043 6.03255 5.39577C4.60322 5.2831 3.93855 5.0131 3.17855 4.31243C3.07788 4.21977 2.52788 3.64109 2.46988 3.58375C2.04988 3.16442 1.32455 3.4691 1.32455 4.06243C1.32455 4.14577 1.32455 4.7291 1.32455 4.7291C1.29321 8.4151 2.45255 10.4518 5.92855 10.7291C6.05122 10.7391 6.39788 10.7324 6.99122 10.7291C7.03255 10.7291 7.18255 10.7304 7.32455 10.7291C7.32455 11.2124 7.32455 11.7504 7.32455 11.8958C7.32455 12.9378 7.99055 13.5178 8.78255 13.3751ZM8.65789 12.0224L8.65722 9.40043C8.65722 9.40043 6.10055 9.4011 6.03255 9.39577C3.67188 9.21977 2.82255 8.10576 2.67255 5.60776C3.51922 6.26443 4.45121 6.61244 5.92855 6.7291C6.16855 6.74844 6.52255 6.75842 7.07455 6.75042C7.20655 6.74842 8.65722 6.73376 8.65722 6.73376L8.64722 4.09643L13.0744 7.6251C13.4045 7.88843 13.4045 8.23709 13.0744 8.50042L8.65789 12.0224Z" fill="#7A808A"/>
<path d="M8.78255 13.3751C9.04656 13.3278 9.32428 13.1951 9.59522 12.9791L13.9077 9.54177C14.9071 8.74443 14.9071 7.38042 13.9077 6.58376L9.59522 3.14577C8.51122 2.28176 7.32455 2.83977 7.32455 4.2291V5.41709C7.22388 5.41842 7.09122 5.41642 7.05322 5.41709C6.54655 5.42442 6.21589 5.41043 6.03255 5.39577C4.60322 5.2831 3.93855 5.0131 3.17855 4.31243C3.07788 4.21977 2.52788 3.64109 2.46988 3.58375C2.04988 3.16442 1.32455 3.4691 1.32455 4.06243C1.32455 4.14577 1.32455 4.7291 1.32455 4.7291C1.29321 8.4151 2.45255 10.4518 5.92855 10.7291C6.05122 10.7391 6.39788 10.7324 6.99122 10.7291C7.03255 10.7291 7.18255 10.7304 7.32455 10.7291C7.32455 11.2124 7.32455 11.7504 7.32455 11.8958C7.32455 12.9378 7.99055 13.5178 8.78255 13.3751ZM8.65789 12.0224L8.65722 9.40043C8.65722 9.40043 6.10055 9.4011 6.03255 9.39577C3.67188 9.21977 2.82255 8.10576 2.67255 5.60776C3.51922 6.26443 4.45121 6.61244 5.92855 6.7291C6.16855 6.74844 6.52255 6.75842 7.07455 6.75042C7.20655 6.74842 8.65722 6.73376 8.65722 6.73376L8.64722 4.09643L13.0744 7.6251C13.4045 7.88843 13.4045 8.23709 13.0744 8.50042L8.65789 12.0224Z" fill="url(#paint0_linear_2551_2084)"/>
<defs>
<linearGradient id="paint0_linear_2551_2084" x1="1.32393" y1="8.06508" x2="14.6572" y2="8.06508" gradientUnits="userSpaceOnUse">
<stop stop-color="#FD283E"/>
<stop offset="1" stop-color="#CA056C"/>
</linearGradient>
</defs>
</svg>
