<svg width="21" height="19" viewBox="0 0 21 19" fill="none" xmlns="http://www.w3.org/2000/svg">
<path d="M17.4427 0H3.5551C2.8645 0 2.20218 0.274342 1.71385 0.762673C1.22551 1.251 0.951172 1.91332 0.951172 2.60393V11.2837C0.951172 11.9743 1.22551 12.6366 1.71385 13.1249C2.20218 13.6133 2.8645 13.8876 3.5551 13.8876H4.42308V17.3595C4.42347 17.5215 4.46915 17.6801 4.55497 17.8174C4.64079 17.9547 4.76331 18.0653 4.9087 18.1367C5.05408 18.208 5.21653 18.2372 5.37766 18.2211C5.53879 18.2049 5.69219 18.144 5.82052 18.0452L11.1673 13.8876H17.4427C18.1333 13.8876 18.7956 13.6133 19.284 13.1249C19.7723 12.6366 20.0466 11.9743 20.0466 11.2837V2.60393C20.0466 1.91332 19.7723 1.251 19.284 0.762673C18.7956 0.274342 18.1333 0 17.4427 0ZM18.3107 11.2837C18.3107 11.5139 18.2193 11.7347 18.0565 11.8974C17.8937 12.0602 17.6729 12.1517 17.4427 12.1517H10.8721C10.6804 12.1523 10.4942 12.2164 10.3427 12.3339L6.15903 15.6236V13.0196C6.15903 12.7894 6.06758 12.5687 5.9048 12.4059C5.74203 12.2431 5.52125 12.1517 5.29105 12.1517H3.5551C3.3249 12.1517 3.10413 12.0602 2.94135 11.8974C2.77857 11.7347 2.68712 11.5139 2.68712 11.2837V2.60393C2.68712 2.37373 2.77857 2.15295 2.94135 1.99018C3.10413 1.8274 3.3249 1.73595 3.5551 1.73595H17.4427C17.6729 1.73595 17.8937 1.8274 18.0565 1.99018C18.2193 2.15295 18.3107 2.37373 18.3107 2.60393V11.2837Z" fill="white"/>
<path d="M6.15863 6.0758H11.3665C11.5967 6.0758 11.8175 5.98435 11.9802 5.82157C12.143 5.65879 12.2345 5.43802 12.2345 5.20782C12.2345 4.97762 12.143 4.75685 11.9802 4.59407C11.8175 4.43129 11.5967 4.33984 11.3665 4.33984H6.15863C5.92842 4.33984 5.70765 4.43129 5.54487 4.59407C5.3821 4.75685 5.29065 4.97762 5.29065 5.20782C5.29065 5.43802 5.3821 5.65879 5.54487 5.82157C5.70765 5.98435 5.92842 6.0758 6.15863 6.0758V6.0758ZM14.8384 7.81175H6.15863C5.92842 7.81175 5.70765 7.9032 5.54487 8.06597C5.3821 8.22875 5.29065 8.44952 5.29065 8.67972C5.29065 8.90993 5.3821 9.1307 5.54487 9.29348C5.70765 9.45625 5.92842 9.5477 6.15863 9.5477H14.8384C15.0686 9.5477 15.2894 9.45625 15.4521 9.29348C15.6149 9.1307 15.7064 8.90993 15.7064 8.67972C15.7064 8.44952 15.6149 8.22875 15.4521 8.06597C15.2894 7.9032 15.0686 7.81175 14.8384 7.81175Z" fill="white"/>
</svg>
