<svg width="40" height="26" viewBox="0 0 40 26" fill="none" xmlns="http://www.w3.org/2000/svg">
<path d="M8.8511 11.8877C9.24417 10.7442 10.2853 9.94851 11.4919 9.86939L36.1159 8.25469C38.079 8.12597 39.6325 9.88977 39.2571 11.8209L36.972 23.5726C36.6979 24.9823 35.4632 26 34.0271 26H8.20355C6.14407 26 4.69699 23.9724 5.36649 22.0248L8.8511 11.8877Z" fill="url(#paint0_linear_55_896)"/>
<path d="M15.6377 21L13.04 13.998H14.6416L16.4385 19.1982L18.2402 13.998H19.8418L17.2393 21H15.6377ZM20.9355 21V13.998H22.4395V21H20.9355ZM24.2363 13.998H27.1855C27.9049 13.998 28.5007 14.2243 28.9727 14.6768C29.4479 15.126 29.6855 15.6842 29.6855 16.3516C29.6855 17.0156 29.4495 17.5739 28.9775 18.0264C28.5055 18.4756 27.9082 18.7002 27.1855 18.7002H25.7402V21H24.2363V13.998ZM27.1367 15.3506H25.7402V17.3477H27.1367C27.4362 17.3477 27.6852 17.2516 27.8838 17.0596C28.0856 16.8675 28.1865 16.6315 28.1865 16.3516C28.1865 16.0716 28.0856 15.8356 27.8838 15.6436C27.6852 15.4482 27.4362 15.3506 27.1367 15.3506Z" fill="white"/>
<path fill-rule="evenodd" clip-rule="evenodd" d="M3.68267 2.64037C3.5925 2.70502 3.52127 2.79265 3.47628 2.89411C3.43137 2.99552 3.4144 3.10718 3.42714 3.21739L3.69751 5.56016L1.58916 5.99585C1.47582 6.0193 1.37116 6.07393 1.28706 6.15368C1.20299 6.23333 1.14284 6.33493 1.11342 6.44698C1.08396 6.55896 1.08635 6.67696 1.12036 6.78768C1.15429 6.89845 1.21858 6.99751 1.30577 7.0737L4.56467 9.92095L4.5652 9.92142C4.62861 9.9765 4.7024 10.0182 4.78235 10.0441C4.86226 10.0699 4.94658 10.0793 5.03027 10.0717C5.11386 10.0641 5.19508 10.0396 5.26904 9.99979C5.3427 9.96018 5.40757 9.90607 5.45984 9.84087C6.63313 8.38836 8.17778 7.28059 9.92992 6.63526C10.0085 6.60668 10.0805 6.56265 10.1416 6.50561C10.203 6.44838 10.2522 6.3793 10.2863 6.30259C10.3204 6.22582 10.3385 6.14294 10.3397 6.05903C10.3409 5.97508 10.3251 5.89175 10.2933 5.81402L8.64429 1.81277C8.60018 1.7057 8.52698 1.61301 8.43304 1.54528C8.33905 1.47748 8.22802 1.43728 8.11247 1.42919C7.99685 1.42113 7.88137 1.44545 7.77889 1.49955C7.67637 1.5536 7.591 1.63512 7.53238 1.73506L6.44322 3.59171L4.31124 2.58368C4.21096 2.53624 4.09976 2.51647 3.98924 2.5265C3.87877 2.53648 3.77293 2.57582 3.68275 2.64048L3.68267 2.64037ZM4.28411 7.51715C5.29206 6.26929 6.61909 5.31765 8.12418 4.76334C8.26751 4.71061 8.42644 4.78397 8.47924 4.92726C8.53204 5.07055 8.45866 5.22958 8.31532 5.28232C6.90387 5.80215 5.65943 6.69457 4.71443 7.86465C4.61844 7.98341 4.44435 8.00199 4.32552 7.90605C4.20672 7.80999 4.18817 7.63598 4.28411 7.51715ZM4.79973 8.23631C5.80773 6.98851 7.13475 6.03687 8.63985 5.48256C8.78313 5.42976 8.94211 5.50319 8.99491 5.64648C9.0477 5.78977 8.97428 5.94874 8.83099 6.00154C7.41953 6.52137 6.17509 7.41379 5.23005 8.58381C5.1341 8.70263 4.95997 8.72115 4.84114 8.6252C4.72238 8.52921 4.70379 8.35514 4.79973 8.23631ZM5.65364 5.38971C5.90188 5.21172 5.95883 4.86624 5.78084 4.61799C5.60286 4.36975 5.25738 4.3128 5.00913 4.49079C4.76088 4.66877 4.70393 5.01426 4.88192 5.2625C5.05991 5.51075 5.40539 5.5677 5.65364 5.38971Z" fill="#FC8A06"/>
<defs>
<linearGradient id="paint0_linear_55_896" x1="46" y1="17" x2="4" y2="17" gradientUnits="userSpaceOnUse">
<stop stop-color="#FBCB41"/>
<stop offset="1" stop-color="#FC8300"/>
</linearGradient>
</defs>
</svg>
