<svg width="15" height="15" viewBox="0 0 15 15" fill="none" xmlns="http://www.w3.org/2000/svg">
<g opacity="0.3">
<path d="M3.11035 3.12305C1.72973 3.12305 0.610352 4.24236 0.610352 5.62305V9.37304C0.610352 10.7537 1.72973 11.873 3.11035 11.873H11.8604C13.241 11.873 14.3604 10.7537 14.3604 9.37304V5.62305C14.3604 4.24236 13.241 3.12305 11.8604 3.12305H3.11035ZM3.61785 4.37305H11.3529C11.581 5.2413 12.2422 5.90248 13.1104 6.13086V8.86555C12.2422 9.09367 11.581 9.75492 11.3529 10.623H3.61785C3.38972 9.75492 2.72848 9.09367 1.86035 8.86555V6.13086C2.72848 5.90248 3.38972 5.2413 3.61785 4.37305ZM7.48535 5.62305C6.44973 5.62305 5.61035 6.46242 5.61035 7.49805C5.61035 8.53367 6.44973 9.37304 7.48535 9.37304C8.52098 9.37304 9.36035 8.53367 9.36035 7.49805C9.36035 6.46242 8.52098 5.62305 7.48535 5.62305ZM7.48535 6.87305C7.83035 6.87305 8.11035 7.15305 8.11035 7.49805C8.11035 7.84305 7.83035 8.12305 7.48535 8.12305C7.14035 8.12305 6.86035 7.84305 6.86035 7.49805C6.86035 7.15305 7.14035 6.87305 7.48535 6.87305Z" fill="white"/>
</g>
</svg>
