<svg width="87" height="13" viewBox="0 0 87 13" fill="none" xmlns="http://www.w3.org/2000/svg">
<g clip-path="url(#clip0_2130_3515)">
<path fill-rule="evenodd" clip-rule="evenodd" d="M70.0579 4.43902C70.0285 2.17829 68.2329 0.332925 65.95 0.133169C65.8616 0.120486 65.7701 0.114145 65.6818 0.114145H55.6048C54.5451 0.114145 53.6751 0.957559 53.6751 1.98488V10.9263C53.6751 11.9536 54.5451 12.7971 55.6048 12.7971H65.1944C65.2402 12.7971 65.286 12.7939 65.3318 12.7939C65.4005 12.7939 65.4692 12.7971 65.5379 12.7971C68.0334 12.7971 70.0612 10.8344 70.0612 8.41194C70.0612 8.34853 70.0579 8.28511 70.0547 8.2217C70.0579 8.18048 70.0612 8.13926 70.0612 8.09804V4.48975C70.0612 4.4739 70.0579 4.45487 70.0579 4.43902ZM43.1141 0.941705L36.6545 9.88633C36.0429 10.7297 36.2587 11.9029 37.1255 12.4927C37.9955 13.0824 39.2056 12.8763 39.8172 12.0329L40.684 10.828H48.7298L49.5998 12.0329C50.2082 12.8763 51.4183 13.0824 52.2883 12.4927C53.1583 11.9029 53.3709 10.7297 52.7626 9.88633L46.303 0.941705C45.9203 0.412193 45.3022 0.13634 44.6807 0.145852C44.0789 0.152194 43.4837 0.428047 43.1141 0.941705ZM43.0912 7.49877L44.7069 5.26024L46.3259 7.49877H43.0912ZM76.8217 0.909998L70.3621 9.85462C69.7538 10.698 69.9664 11.8712 70.8363 12.461C71.7064 13.0507 72.9165 12.8446 73.5248 12.0012L74.3949 10.7963H82.4407L83.3074 12.0012C83.9191 12.8446 85.1292 13.0507 85.9992 12.461C86.8692 11.8712 87.0818 10.698 86.4735 9.85462L80.0139 0.909998C79.6312 0.380486 79.013 0.104633 78.3916 0.114145C77.7865 0.120486 77.1945 0.39634 76.8217 0.909998ZM76.7988 7.46707L78.4178 5.22853L80.0368 7.46707H76.7988ZM18.9307 0.909998L12.4711 9.85462C11.8628 10.698 12.0754 11.8712 12.9454 12.461C13.8154 13.0507 15.0255 12.8446 15.6338 12.0012L16.5038 10.7963H24.5464L25.4164 12.0012C26.0248 12.8446 27.2349 13.0507 28.1049 12.461C28.9749 11.8712 29.1908 10.698 28.5792 9.85462L22.1196 0.909998C21.7402 0.380486 21.122 0.104633 20.5006 0.114145C19.8955 0.120486 19.3035 0.39634 18.9307 0.909998ZM18.9078 7.46707L20.5268 5.22853L22.1425 7.46707H18.9078ZM34.2211 12.0329L40.6807 3.08829C41.289 2.24487 41.0765 1.0717 40.2065 0.481949C39.3365 -0.107806 38.1263 0.0982912 37.518 0.941705L32.625 7.71438L27.7354 0.941705C27.127 0.0982912 25.9169 -0.107806 25.0469 0.481949C24.1769 1.0717 23.9643 2.24487 24.5726 3.08829L31.0322 12.0329C31.4149 12.5624 32.0298 12.8383 32.6512 12.8288C33.2563 12.8224 33.8515 12.5466 34.2211 12.0329ZM10.041 12.0012L16.5006 3.05658C17.1089 2.21317 16.8963 1.04 16.0263 0.450242C15.1563 -0.139514 13.9462 0.0665839 13.3378 0.909998L8.4449 7.68267L3.55523 0.909998C2.94362 0.0665839 1.73347 -0.139514 0.863466 0.450242C-0.00653394 1.04 -0.219128 2.21317 0.389218 3.05658L6.84881 12.0012C7.23148 12.5307 7.84964 12.8066 8.47106 12.7971C9.07614 12.7907 9.66813 12.5149 10.041 12.0012ZM65.5935 3.28487H56.9458V9.62633H65.1486L65.2893 9.61682L65.4757 9.62633H65.5379C66.228 9.62633 66.7905 9.08414 66.7905 8.41194C66.7905 8.39292 66.7873 8.37706 66.7873 8.35804L66.7807 8.18365L66.7905 8.05365V4.50878C66.7873 4.49926 66.7873 4.48975 66.7873 4.48341C66.7807 3.86512 66.2901 3.34512 65.6556 3.29122L65.5935 3.28487Z" fill="#FE284A"/>
</g>
<defs>
<clipPath id="clip0_2130_3515">
<rect width="87" height="13" fill="white"/>
</clipPath>
</defs>
</svg>
