<svg width="14" height="11" viewBox="0 0 14 11" fill="none" xmlns="http://www.w3.org/2000/svg">
<path d="M13.9628 8.53281C13.9628 9.38958 13.2681 10.0842 12.4113 10.0842H1.55142C0.694648 10.0842 0 9.38958 0 8.53281V1.55143C0 0.694656 0.694648 8.58307e-06 1.55142 8.58307e-06H12.4113C13.2681 8.58307e-06 13.9628 0.694656 13.9628 1.55143V8.53281Z" fill="#DD2E44"/>
<path d="M2.715 2.30811L3.07532 3.34368L4.17139 3.36656L3.29756 4.02902L3.61521 5.07855L2.715 4.45217L1.81479 5.07855L2.13244 4.02902L1.25861 3.36656L2.35468 3.34368L2.715 2.30811Z" fill="#FFD983"/>
<path d="M5.0421 0.980491L5.17397 1.24734L5.46835 1.29L5.25542 1.49789L5.30545 1.79111L5.0421 1.65264L4.77874 1.79111L4.82916 1.49789L4.61584 1.29L4.91061 1.24734L5.0421 0.980491Z" fill="#FFD983"/>
<path d="M5.81779 2.53191L5.94966 2.79876L6.24404 2.84142L6.03111 3.04931L6.08115 3.34253L5.81779 3.20407L5.55444 3.34253L5.60486 3.04931L5.39154 2.84142L5.68631 2.79876L5.81779 2.53191Z" fill="#FFD983"/>
<path d="M5.81779 4.08334L5.94966 4.35018L6.24404 4.39284L6.03111 4.60073L6.08115 4.89395L5.81779 4.75549L5.55444 4.89395L5.60486 4.60073L5.39154 4.39284L5.68631 4.35018L5.81779 4.08334Z" fill="#FFD983"/>
<path d="M5.0421 5.63437L5.17397 5.90121L5.46835 5.94427L5.25542 6.15177L5.30545 6.44537L5.0421 6.30691L4.77874 6.44537L4.82916 6.15177L4.61584 5.94427L4.91061 5.90121L5.0421 5.63437Z" fill="#FFD983"/>
</svg>
