<svg width="15" height="15" viewBox="0 0 15 15" fill="none" xmlns="http://www.w3.org/2000/svg">
<g opacity="0.3">
<path d="M3.13383 2.49902C2.09827 2.49902 1.25883 3.3384 1.25883 4.37402V5.62402V10.624C1.25883 11.6596 2.09827 12.499 3.13383 12.499H11.8838C12.9194 12.499 13.7588 11.6596 13.7588 10.624V5.62402V4.37402C13.7588 3.3384 12.9194 2.49902 11.8838 2.49902H3.13383ZM3.13383 3.74902H11.8838C12.229 3.74902 12.5088 4.02902 12.5088 4.37402V4.99902H2.50883V4.37402C2.50883 4.02902 2.78865 3.74902 3.13383 3.74902ZM2.50883 6.24902H12.5088V10.624C12.5088 10.969 12.229 11.249 11.8838 11.249H3.13383C2.78865 11.249 2.50883 10.969 2.50883 10.624V6.24902ZM4.38383 7.49902C4.03865 7.49902 3.75883 7.77902 3.75883 8.12402C3.75883 8.28027 3.75883 9.21777 3.75883 9.37402C3.75883 9.71902 4.03865 9.99902 4.38383 9.99902H5.63383C5.97902 9.99902 6.25883 9.71902 6.25883 9.37402V8.12402C6.25883 7.77902 5.97902 7.49902 5.63383 7.49902H4.38383Z" fill="white"/>
</g>
</svg>
