<svg width="11" height="11" viewBox="0 0 11 11" fill="none" xmlns="http://www.w3.org/2000/svg">
<path d="M10.1226 4.66279C9.98297 4.4951 9.8082 4.36012 9.61066 4.26736C9.41312 4.1746 9.19763 4.12633 8.97939 4.12596H6.71278L6.99114 3.41516C7.10692 3.10394 7.14548 2.76927 7.1035 2.43988C7.06153 2.11048 6.94028 1.79618 6.75015 1.52394C6.56002 1.2517 6.30669 1.02964 6.01189 0.876818C5.71709 0.723994 5.38961 0.644964 5.05755 0.646507C4.96194 0.646706 4.86841 0.674479 4.78818 0.726496C4.70795 0.778512 4.64443 0.852565 4.60523 0.939775L3.18859 4.12596H2.02049C1.625 4.12596 1.24571 4.28307 0.966057 4.56272C0.686404 4.84237 0.529297 5.22166 0.529297 5.61715V9.0966C0.529297 9.49209 0.686404 9.87138 0.966057 10.151C1.24571 10.4307 1.625 10.5878 2.02049 10.5878H8.34812C8.69697 10.5877 9.03473 10.4653 9.30265 10.2419C9.57056 10.0184 9.75167 9.70817 9.81446 9.36502L10.4457 5.88557C10.4848 5.67053 10.4761 5.44953 10.4202 5.23823C10.3644 5.02692 10.2628 4.83047 10.1226 4.66279ZM3.01462 9.59367H2.02049C1.88866 9.59367 1.76223 9.5413 1.66901 9.44808C1.5758 9.35486 1.52343 9.22843 1.52343 9.0966V5.61715C1.52343 5.48532 1.5758 5.35889 1.66901 5.26567C1.76223 5.17246 1.88866 5.12009 2.02049 5.12009H3.01462V9.59367ZM9.47646 5.70662L8.84519 9.18608C8.82401 9.30187 8.76243 9.40639 8.67141 9.48103C8.58038 9.55567 8.46582 9.59559 8.34812 9.59367H4.00875V4.72741L5.36076 1.68537C5.49993 1.72594 5.62918 1.79493 5.74035 1.88797C5.85152 1.98101 5.94219 2.09608 6.00665 2.22593C6.0711 2.35577 6.10794 2.49757 6.11484 2.64237C6.12173 2.78717 6.09854 2.93183 6.04671 3.06721L5.78327 3.77801C5.72713 3.92825 5.70818 4.08985 5.72803 4.249C5.74788 4.40815 5.80594 4.56014 5.89726 4.69199C5.98858 4.82384 6.11044 4.93163 6.25245 5.00618C6.39446 5.08073 6.5524 5.11981 6.71278 5.12009H8.97939C9.05242 5.11997 9.12457 5.13594 9.19072 5.16687C9.25687 5.1978 9.3154 5.24292 9.36213 5.29903C9.41002 5.35437 9.44509 5.41959 9.46486 5.49005C9.48462 5.56051 9.48858 5.63446 9.47646 5.70662Z" fill="#3A3A3A"/>
</svg>
