<svg width="11" height="11" viewBox="0 0 11 11" fill="none" xmlns="http://www.w3.org/2000/svg">
<path d="M10.1228 4.66337C9.9831 4.49568 9.80832 4.3607 9.61078 4.26794C9.41324 4.17518 9.19775 4.12691 8.97952 4.12654H6.7129L6.99126 3.41574C7.10704 3.10452 7.1456 2.76985 7.10363 2.44046C7.06165 2.11106 6.9404 1.79676 6.75027 1.52452C6.56015 1.25228 6.30681 1.03022 6.01201 0.877398C5.71721 0.724574 5.38973 0.645543 5.05768 0.647086C4.96206 0.647286 4.86853 0.675059 4.7883 0.727075C4.70807 0.779092 4.64455 0.853144 4.60535 0.940354L3.18871 4.12654H2.02061C1.62512 4.12654 1.24583 4.28365 0.96618 4.5633C0.686526 4.84295 0.529419 5.22224 0.529419 5.61773V9.09718C0.529419 9.49267 0.686526 9.87196 0.96618 10.1516C1.24583 10.4313 1.62512 10.5884 2.02061 10.5884H8.34824C8.69709 10.5883 9.03485 10.4658 9.30277 10.2424C9.57068 10.019 9.75179 9.70875 9.81458 9.3656L10.4459 5.88615C10.4849 5.67111 10.4762 5.45011 10.4204 5.23881C10.3645 5.0275 10.2629 4.83105 10.1228 4.66337ZM3.01474 9.59425H2.02061C1.88878 9.59425 1.76235 9.54188 1.66913 9.44866C1.57592 9.35544 1.52355 9.22901 1.52355 9.09718V5.61773C1.52355 5.4859 1.57592 5.35947 1.66913 5.26625C1.76235 5.17304 1.88878 5.12067 2.02061 5.12067H3.01474V9.59425ZM9.47658 5.7072L8.84531 9.18666C8.82414 9.30245 8.76255 9.40697 8.67153 9.48161C8.5805 9.55625 8.46594 9.59617 8.34824 9.59425H4.00887V4.72799L5.36089 1.68595C5.50006 1.72652 5.62931 1.79551 5.74047 1.88855C5.85164 1.98159 5.94232 2.09666 6.00677 2.22651C6.07123 2.35635 6.10807 2.49815 6.11496 2.64295C6.12186 2.78775 6.09866 2.93241 6.04684 3.06779L5.78339 3.77859C5.72726 3.92883 5.7083 4.09043 5.72816 4.24958C5.748 4.40873 5.80607 4.56072 5.89739 4.69257C5.9887 4.82442 6.11057 4.93221 6.25257 5.00676C6.39458 5.08131 6.55252 5.12039 6.7129 5.12067H8.97952C9.05254 5.12055 9.12469 5.13652 9.19085 5.16745C9.257 5.19838 9.31552 5.2435 9.36226 5.29961C9.41014 5.35495 9.44522 5.42017 9.46498 5.49063C9.48474 5.56109 9.4887 5.63504 9.47658 5.7072Z" fill="white"/>
</svg>
