<svg width="14" height="14" viewBox="0 0 14 14" fill="none" xmlns="http://www.w3.org/2000/svg">
<circle cx="7" cy="7" r="7" fill="white"/>
<path d="M5.91316 10.6709L6.04158 9.85383L5.75553 9.84719H4.3896L5.33885 3.81774C5.34167 3.79931 5.35101 3.78252 5.36517 3.77042C5.37932 3.75832 5.39734 3.75172 5.41595 3.75182H7.7191C8.48371 3.75182 9.01137 3.91121 9.28686 4.2258C9.41602 4.37338 9.49827 4.52761 9.53805 4.69732C9.57979 4.87541 9.58053 5.08817 9.53977 5.34767L9.53682 5.36661V5.53288L9.66597 5.60618C9.76457 5.65622 9.8532 5.72391 9.92747 5.80591C10.038 5.93209 10.1094 6.09246 10.1396 6.2826C10.1708 6.47815 10.1605 6.71083 10.1094 6.97427C10.0505 7.2773 9.95522 7.54123 9.82656 7.75719C9.71304 7.95065 9.5604 8.11822 9.37845 8.24913C9.20755 8.37064 9.00449 8.46287 8.77491 8.52191C8.55246 8.57996 8.29882 8.60923 8.02062 8.60923H7.84138C7.71321 8.60923 7.58872 8.65547 7.49099 8.73836C7.39341 8.82214 7.32867 8.93789 7.30831 9.06501L7.29481 9.13855L7.06793 10.5787L7.05762 10.6316C7.05492 10.6483 7.05025 10.6567 7.04338 10.6623C7.03672 10.6678 7.02841 10.6708 7.0198 10.6709H5.91316Z" fill="#253B80"/>
<path d="M9.78858 5.38589C9.78171 5.42992 9.77385 5.47494 9.76501 5.52118C9.46128 7.08333 8.42216 7.62299 7.09502 7.62299H6.4193C6.257 7.62299 6.12024 7.74106 6.09494 7.90143L5.74898 10.0994L5.65101 10.7225C5.64711 10.7472 5.6486 10.7724 5.65538 10.7965C5.66216 10.8206 5.67407 10.8429 5.69029 10.862C5.7065 10.881 5.72665 10.8963 5.74933 10.9067C5.77201 10.9172 5.79668 10.9227 5.82166 10.9227H7.02013C7.16206 10.9227 7.28261 10.8194 7.30496 10.6792L7.31674 10.6182L7.54239 9.18367L7.55688 9.10496C7.57898 8.96426 7.69978 8.86096 7.84171 8.86096H8.02095C9.1821 8.86096 10.0911 8.38869 10.3568 7.02209C10.4677 6.45119 10.4103 5.9745 10.1166 5.63924C10.0235 5.53553 9.91238 5.44968 9.78858 5.38589Z" fill="#179BD7"/>
<path d="M9.47119 5.25896C9.37421 5.23085 9.27555 5.20892 9.17581 5.19328C8.97872 5.16294 8.77953 5.14838 8.58013 5.14975H6.77493C6.70623 5.14969 6.63977 5.17426 6.58758 5.21901C6.53539 5.26376 6.5009 5.32574 6.49035 5.39375L6.10633 7.83032L6.09528 7.90141C6.10724 7.82384 6.14652 7.75313 6.20601 7.70206C6.26551 7.65099 6.34128 7.62293 6.41963 7.62297H7.09536C8.42249 7.62297 9.46161 7.08307 9.76534 5.52116C9.77443 5.47492 9.78204 5.42991 9.78892 5.38588C9.70877 5.34377 9.62524 5.30848 9.5392 5.28036C9.51665 5.27286 9.49397 5.26572 9.47119 5.25896Z" fill="#222D65"/>
<path d="M6.49004 5.39372C6.5005 5.3257 6.53497 5.26369 6.58719 5.21896C6.63941 5.17423 6.70592 5.14975 6.77462 5.14997H8.57982C8.79368 5.14997 8.99331 5.16399 9.1755 5.1935C9.29878 5.21291 9.42037 5.24194 9.53914 5.28033C9.62876 5.31009 9.712 5.34526 9.78885 5.38585C9.87921 4.80856 9.78812 4.4155 9.47653 4.05958C9.13302 3.66775 8.51303 3.5 7.7197 3.5H5.41655C5.25449 3.5 5.11625 3.61807 5.09121 3.77868L4.13189 9.87012C4.12742 9.89841 4.12912 9.92732 4.13687 9.95488C4.14462 9.98244 4.15824 10.008 4.17679 10.0298C4.19534 10.0516 4.21838 10.0691 4.24433 10.0811C4.27027 10.0931 4.29851 10.0993 4.32709 10.0994H5.74901L6.10602 7.8303L6.49004 5.39372Z" fill="#253B80"/>
</svg>
