<svg width="14" height="14" viewBox="0 0 14 14" fill="none" xmlns="http://www.w3.org/2000/svg">
<circle cx="7" cy="7" r="7" fill="white"/>
<path d="M10.5283 11.2145C10.4928 11.1169 10.4286 11.0504 10.382 10.964C10.2689 10.8154 10.1359 10.6869 10.0029 10.5583C9.95636 10.5428 9.93641 10.4984 9.89207 10.4807C9.86325 10.443 9.8167 10.4231 9.77901 10.3942C9.70364 10.3366 9.62162 10.2878 9.53737 10.2391C9.37776 10.1371 9.18046 10.0728 8.98537 10.0063C8.77477 9.9553 8.55309 9.91761 8.32253 9.88658C8.09419 9.85333 7.86586 9.82229 7.69294 9.7314C7.59318 9.70258 7.52002 9.64716 7.43357 9.60282C7.35376 9.54961 7.2673 9.50528 7.2008 9.43877C7.11877 9.39 7.06778 9.30798 7.00349 9.24147C6.98133 9.19713 6.94364 9.17053 6.9259 9.12176C6.90374 9.11289 6.89708 9.08629 6.88378 9.07077C6.86827 9.05304 6.86827 9.01757 6.84166 9.01091C6.82836 9.10181 6.8328 9.21043 6.84166 9.30354C6.85275 9.34345 6.85718 9.39222 6.86827 9.43212C6.87492 9.46759 6.90817 9.52523 6.89487 9.55183C6.2032 9.51636 5.69776 9.29689 5.25882 9.0087C5.04157 8.8646 4.85535 8.68947 4.68243 8.50103C4.60706 8.39684 4.52504 8.29708 4.45853 8.18181C4.38981 8.06875 4.33217 7.94017 4.2701 7.82046C4.16812 7.56108 4.07279 7.29506 4.03732 6.96918C3.99077 6.66547 4.00185 6.27752 4.07058 5.99597C4.09496 5.84079 4.14595 5.71 4.19029 5.57477C4.21911 5.5127 4.25014 5.45062 4.27675 5.38633C4.31443 5.33313 4.33438 5.25997 4.38094 5.21342C4.5073 4.97621 4.69573 4.79886 4.8886 4.62817C5.09699 4.4752 5.33419 4.35106 5.62017 4.27568C5.89506 4.21361 6.26971 4.20253 6.56677 4.26682C7.16976 4.39096 7.62422 4.66142 8.00552 5.00725C8.39125 5.34643 8.68831 5.7765 8.89227 6.29968C9.10287 6.79626 9.17603 7.56995 8.98759 8.13303C8.91 8.0887 8.83241 8.04658 8.75482 8.00446C8.66171 7.97785 8.57082 7.94682 8.46219 7.93573C8.3314 7.93352 8.20282 7.93573 8.11858 7.97785C8.28928 7.96012 8.42672 8.00667 8.53313 8.04658C8.59521 8.07096 8.63068 8.08648 8.67945 8.1153C8.77477 8.17072 8.85901 8.22171 8.92995 8.29708C9.13169 8.47443 9.27578 8.70942 9.34451 9.01978C9.34451 9.02865 9.35559 9.02643 9.35338 9.01091C9.36224 9.0087 9.36668 9.00205 9.37111 8.99318C9.38219 8.97988 9.3955 8.96658 9.40658 8.95106C9.42875 8.92446 9.45092 8.89785 9.46644 8.8646C9.51299 8.80918 9.55068 8.74711 9.58615 8.68282C9.66817 8.56311 9.73024 8.42566 9.80118 8.29487C9.92311 8.01554 10.0229 7.71405 10.0849 7.37265C10.2091 6.61448 10.0606 5.89621 9.80118 5.36638C9.53516 4.83212 9.16272 4.40426 8.68166 4.08282C8.19617 3.76359 7.62865 3.5286 6.84831 3.50643C6.84388 3.49091 6.83723 3.50865 6.82171 3.50643C6.40937 3.49313 6.07684 3.55077 5.74653 3.63501C5.59357 3.686 5.43395 3.73033 5.29872 3.79906C5.14354 3.85004 5.0194 3.93429 4.87752 3.99636C4.82653 4.04513 4.74894 4.06951 4.69573 4.11607C4.62701 4.14932 4.57602 4.20253 4.5073 4.23578C4.39646 4.33332 4.27896 4.41978 4.17034 4.51954C4.06393 4.61708 3.97082 4.72792 3.86884 4.8299C3.85332 4.86537 3.82672 4.88976 3.80012 4.91636C3.78238 4.94961 3.76022 4.97843 3.7314 5.00282C3.72031 5.04272 3.68484 5.05824 3.67154 5.09814C3.64272 5.12031 3.63607 5.16465 3.60282 5.1846C3.574 5.25554 3.52301 5.30653 3.48976 5.37303C3.44985 5.43732 3.41882 5.50826 3.37891 5.57033C3.31684 5.71443 3.25034 5.85409 3.19935 6.00927C3.14614 6.16002 3.10181 6.31964 3.07077 6.49255C3.03752 6.65438 3.00648 6.86499 3.01091 7.03568C2.98875 7.09776 3.00648 7.21303 3.01091 7.28619C3.01091 7.29949 3.00205 7.30393 3.00205 7.31279C3.00205 7.39482 3.02422 7.49458 3.02865 7.54556C3.04638 7.734 3.07964 7.90913 3.13284 8.06209C3.16609 8.23279 3.23703 8.36581 3.28802 8.51877C3.36561 8.64735 3.41882 8.80031 3.51193 8.91559C3.58065 9.05082 3.67819 9.15723 3.7713 9.26807C3.87106 9.37448 3.97082 9.48311 4.09053 9.56957C4.31 9.76022 4.56716 9.91318 4.8487 10.044C5.3741 10.2989 6.15887 10.4652 6.86383 10.4231C7.0434 10.3987 7.22518 10.3765 7.38923 10.3366C7.53998 10.2812 7.71511 10.2479 7.89689 10.2258C8.31145 10.1992 8.67058 10.2368 8.98981 10.33C9.31347 10.4164 9.5928 10.5472 9.83444 10.7179C9.96301 10.7933 10.0694 10.8908 10.1781 10.9839C10.2889 11.0793 10.3776 11.1967 10.4795 11.3032C10.4928 11.3431 10.5194 11.3719 10.5394 11.4074C10.566 11.4362 10.5527 11.5027 10.617 11.4938C10.6569 11.4539 10.6103 11.3963 10.6081 11.3475C10.5682 11.3054 10.5594 11.25 10.5283 11.2145Z" fill="#FCB316"/>
<path d="M8.91877 8.85574C8.9099 8.85574 8.90769 8.86239 8.90104 8.8646C8.88552 8.89786 8.89217 8.95106 8.90104 8.98431C8.94759 9.07964 8.96311 9.20378 9.06508 9.24369C9.11386 9.22817 9.10942 9.15723 9.1072 9.08851C9.08504 9.00427 9.054 8.92889 9.00301 8.87347C8.96754 8.86017 8.94316 8.838 8.91877 8.85574ZM8.31578 9.09738C8.31578 9.09294 8.30913 9.08851 8.30691 9.09738C8.22267 9.08629 8.19385 9.13285 8.15173 9.1661C8.07858 9.35897 8.19607 9.5474 8.40224 9.54518C8.48426 9.52523 8.53525 9.47203 8.54855 9.38113C8.53747 9.2193 8.46875 9.11511 8.31578 9.09738Z" fill="#FCB316"/>
</svg>
