<svg width="14" height="14" viewBox="0 0 14 14" fill="none" xmlns="http://www.w3.org/2000/svg">
<circle cx="7" cy="7" r="7" fill="white"/>
<path d="M7.57595 4.66666C6.16667 4.66666 5.05023 5.77618 5.05023 7.13624C5.05023 8.4963 6.18497 9.60583 7.57595 9.60583C8.96693 9.60583 10.1017 8.4963 10.1017 7.13624C10.12 5.77618 8.96693 4.66666 7.57595 4.66666ZM7.57595 8.04891C7.06348 8.04891 6.62423 7.63731 6.62423 7.13624C6.62423 6.63516 7.04518 6.22356 7.57595 6.22356C8.10672 6.22356 8.52768 6.63516 8.52768 7.13624C8.50937 7.63731 8.10672 8.04891 7.57595 8.04891Z" fill="#8B3FFD"/>
<path d="M5.04987 5.40034V8.99734H4.15304L3 5.40034H5.04987Z" fill="#8B3FFD"/>
</svg>
