<svg width="16" height="16" viewBox="0 0 16 16" fill="none" xmlns="http://www.w3.org/2000/svg">
<path d="M12.3332 0.000335916C11.7668 0.00858273 11.2247 0.235416 10.8246 0.633901L0.639253 10.8192C0.230641 11.2279 0.0057584 11.7827 0.00568749 12.3591L5.2877e-06 15.2698C-0.0003607 15.3658 0.0182757 15.4609 0.0548401 15.5497C0.0914046 15.6384 0.145174 15.7191 0.213049 15.787C0.280924 15.8548 0.361562 15.9086 0.450315 15.9452C0.539067 15.9817 0.634179 16.0004 0.730168 16L3.64088 15.9943C4.21726 15.9942 4.77209 15.7694 5.18075 15.3607L15.3661 5.1754C16.2112 4.32947 16.2112 2.93447 15.3661 2.08855L13.9115 0.633901C13.4933 0.217328 12.9235 -0.0099726 12.3332 0.000335916ZM12.3545 1.4493C12.5517 1.44655 12.7404 1.5247 12.8801 1.6638L14.3362 3.11986C14.626 3.40999 14.626 3.85538 14.3362 4.1455L13.3944 5.08591L10.9141 2.60563L11.8545 1.6638C11.9886 1.5302 12.167 1.45205 12.3545 1.4493ZM9.88562 3.6341L12.3659 6.11438L4.66509 13.8152L2.18481 11.3349L9.88562 3.6341ZM1.45465 12.6617L3.33688 14.5439H1.45465V12.6617Z" fill="white"/>
<path d="M12.3332 0.000335916C11.7668 0.00858273 11.2247 0.235416 10.8246 0.633901L0.639253 10.8192C0.230641 11.2279 0.0057584 11.7827 0.00568749 12.3591L5.2877e-06 15.2698C-0.0003607 15.3658 0.0182757 15.4609 0.0548401 15.5497C0.0914046 15.6384 0.145174 15.7191 0.213049 15.787C0.280924 15.8548 0.361562 15.9086 0.450315 15.9452C0.539067 15.9817 0.634179 16.0004 0.730168 16L3.64088 15.9943C4.21726 15.9942 4.77209 15.7694 5.18075 15.3607L15.3661 5.1754C16.2112 4.32947 16.2112 2.93447 15.3661 2.08855L13.9115 0.633901C13.4933 0.217328 12.9235 -0.0099726 12.3332 0.000335916ZM12.3545 1.4493C12.5517 1.44655 12.7404 1.5247 12.8801 1.6638L14.3362 3.11986C14.626 3.40999 14.626 3.85538 14.3362 4.1455L13.3944 5.08591L10.9141 2.60563L11.8545 1.6638C11.9886 1.5302 12.167 1.45205 12.3545 1.4493ZM9.88562 3.6341L12.3659 6.11438L4.66509 13.8152L2.18481 11.3349L9.88562 3.6341ZM1.45465 12.6617L3.33688 14.5439H1.45465V12.6617Z" fill="url(#paint0_linear_2130_3472)"/>
<defs>
<linearGradient id="paint0_linear_2130_3472" x1="15.9999" y1="8" x2="6.86641e-09" y2="8" gradientUnits="userSpaceOnUse">
<stop stop-color="#FD283E"/>
<stop offset="1" stop-color="#CA056C"/>
</linearGradient>
</defs>
</svg>
