<svg width="15" height="15" viewBox="0 0 15 15" fill="none" xmlns="http://www.w3.org/2000/svg">
<g opacity="0.3">
<path d="M4.37604 2.44141C3.34042 2.44141 2.50104 3.28078 2.50104 4.3164C2.50104 5.35203 3.34042 6.1914 4.37604 6.1914C5.41167 6.1914 6.25104 5.35203 6.25104 4.3164C6.25104 3.28078 5.41167 2.44141 4.37604 2.44141ZM11.876 2.44141C11.716 2.44141 11.5492 2.49516 11.4267 2.61703L2.67667 11.367C2.43292 11.6114 2.43292 12.0214 2.67667 12.2658C2.92105 12.5095 3.33104 12.5095 3.57541 12.2658L12.3254 3.51578C12.5692 3.2714 12.5692 2.86141 12.3254 2.61703C12.2029 2.49516 12.036 2.44141 11.876 2.44141ZM4.37604 3.6914C4.72104 3.6914 5.00104 3.9714 5.00104 4.3164C5.00104 4.6614 4.72104 4.9414 4.37604 4.9414C4.03104 4.9414 3.75104 4.6614 3.75104 4.3164C3.75104 3.9714 4.03104 3.6914 4.37604 3.6914ZM10.626 8.6914C9.59041 8.6914 8.75104 9.53077 8.75104 10.5664C8.75104 11.602 9.59041 12.4414 10.626 12.4414C11.6617 12.4414 12.501 11.602 12.501 10.5664C12.501 9.53077 11.6617 8.6914 10.626 8.6914ZM10.626 9.9414C10.971 9.9414 11.251 10.2214 11.251 10.5664C11.251 10.9114 10.971 11.1914 10.626 11.1914C10.281 11.1914 10.001 10.9114 10.001 10.5664C10.001 10.2214 10.281 9.9414 10.626 9.9414Z" fill="white"/>
</g>
</svg>
