<svg width="14" height="11" viewBox="0 0 14 11" fill="none" xmlns="http://www.w3.org/2000/svg">
<path d="M13.9628 8.53281C13.9628 9.38958 13.2681 10.0842 12.4113 10.0842H1.55142C0.694648 10.0842 0 9.38958 0 8.53281V1.55143C0 0.694656 0.694648 8.58307e-06 1.55142 8.58307e-06H12.4113C13.2681 8.58307e-06 13.9628 0.694656 13.9628 1.55143V8.53281Z" fill="#DD2E44"/>
<path d="M0.215259 9.3085H13.7479C13.8809 9.07928 13.9628 8.8167 13.9628 8.53279H0C0 8.8167 0.0822252 9.07928 0.215259 9.3085Z" fill="#EEEEEE"/>
<path d="M13.9628 7.75708H0V6.98137H13.9628V7.75708ZM13.9628 6.20566H0V5.42995H13.9628V6.20566ZM13.9628 4.65424H0V3.87853H13.9628V4.65424ZM13.9628 3.10282H0V2.32712H13.9628V3.10282Z" fill="#EEEEEE"/>
<path d="M0.215259 0.775713C0.0822252 1.00455 0 1.26751 0 1.55142H13.9628C13.9628 1.26751 13.8809 1.00455 13.7479 0.775713H0.215259Z" fill="#EEEEEE"/>
<path d="M6.98138 -2.38419e-06H1.55142C0.694648 -2.38419e-06 0 0.694645 0 1.55142V5.42996H6.98138V-2.38419e-06Z" fill="#3B88C3"/>
<path d="M5.42995 1.55143H6.20566V0.77572H5.42995V1.55143ZM4.65424 2.32714H5.42995V1.55143H4.65424V2.32714ZM6.20566 3.10285H5.42995V2.32714H6.20566V3.10285ZM4.65424 3.87856H5.42995V3.10285H4.65424V3.87856ZM4.65424 1.55143H3.87853V0.77572H4.65424V1.55143ZM4.65424 3.10285H3.87853V2.32714H4.65424V3.10285ZM3.10282 3.87856H3.87853V3.10285H3.10282V3.87856ZM3.87853 2.32714H3.10282V1.55143H3.87853V2.32714ZM2.32711 1.55143H3.10282V0.77572H2.32711V1.55143ZM1.55141 2.32714H2.32711V1.55143H1.55141V2.32714ZM2.32711 3.10285H3.10282V2.32714H2.32711V3.10285ZM1.55141 3.87856H2.32711V3.10285H1.55141V3.87856ZM0.775696 0.77572H1.55141V1.55143H0.775696V0.77572ZM0.775696 3.10285H1.55141V2.32714H0.775696V3.10285ZM6.20566 4.65427H5.42995V3.87856H6.20566V4.65427ZM4.65424 4.65427H3.87853V3.87856H4.65424V4.65427ZM2.32711 4.65427H3.10282V3.87856H2.32711V4.65427ZM0.775696 4.65427H1.55141V3.87856H0.775696V4.65427Z" fill="#BBDDF5"/>
</svg>
