<svg width="4" height="4" viewBox="0 0 4 4" fill="none" xmlns="http://www.w3.org/2000/svg">
<path d="M1.52447 0.463526C1.67415 0.00287032 2.32585 0.0028702 2.47553 0.463526L2.56129 0.727457C2.62822 0.933469 2.8202 1.07295 3.03681 1.07295H3.31433C3.79869 1.07295 4.00008 1.69276 3.60822 1.97746L3.38371 2.14058C3.20846 2.2679 3.13513 2.49358 3.20207 2.69959L3.28783 2.96352C3.4375 3.42418 2.91026 3.80724 2.51841 3.52254L2.29389 3.35942C2.11865 3.2321 1.88135 3.2321 1.70611 3.35942L1.48159 3.52254C1.08974 3.80724 0.562497 3.42418 0.712173 2.96353L0.797929 2.69959C0.864866 2.49358 0.791537 2.2679 0.616294 2.14058L0.39178 1.97746C-7.70092e-05 1.69276 0.201311 1.07295 0.685673 1.07295H0.963187C1.1798 1.07295 1.37178 0.933469 1.43871 0.727457L1.52447 0.463526Z" fill="white"/>
</svg>
