<svg width="8" height="8" viewBox="0 0 8 8" fill="none" xmlns="http://www.w3.org/2000/svg">
<path d="M7.71429 4.57141C7.63851 4.57141 7.56584 4.60151 7.51226 4.65509C7.45867 4.70868 7.42857 4.78135 7.42857 4.85713V5.45141C7.42857 5.71105 7.37743 5.96815 7.27807 6.20803C7.17871 6.44791 7.03307 6.66587 6.84948 6.84946C6.66589 7.03306 6.44793 7.17869 6.20805 7.27805C5.96817 7.37741 5.71107 7.42855 5.45143 7.42855H2.54857C2.0242 7.42855 1.52131 7.22025 1.15052 6.84946C0.779734 6.47868 0.571429 5.97578 0.571429 5.45141V4.85713C0.571429 4.78135 0.541327 4.70868 0.487745 4.65509C0.434163 4.60151 0.36149 4.57141 0.285714 4.57141C0.209938 4.57141 0.137266 4.60151 0.0836838 4.65509C0.0301019 4.70868 0 4.78135 0 4.85713V5.45141C0.00075623 6.1271 0.269509 6.7749 0.747295 7.25269C1.22508 7.73047 1.87288 7.99923 2.54857 7.99998H5.45143C6.12712 7.99923 6.77492 7.73047 7.25271 7.25269C7.73049 6.7749 7.99924 6.1271 8 5.45141V4.85713C8 4.78135 7.9699 4.70868 7.91632 4.65509C7.86273 4.60151 7.79006 4.57141 7.71429 4.57141Z" fill="#7A808A"/>
<path d="M3.99991 0C3.92414 0 3.85147 0.0301019 3.79788 0.0836838C3.7443 0.137266 3.7142 0.209938 3.7142 0.285714V5.88286L1.63134 3.79714C1.6047 3.7705 1.57308 3.74937 1.53827 3.73495C1.50346 3.72054 1.46616 3.71312 1.42848 3.71312C1.39081 3.71312 1.35351 3.72054 1.3187 3.73495C1.28389 3.74937 1.25227 3.7705 1.22563 3.79714C1.19899 3.82378 1.17786 3.85541 1.16344 3.89021C1.14902 3.92502 1.1416 3.96233 1.1416 4C1.1416 4.07609 1.17183 4.14906 1.22563 4.20286L3.79706 6.77429C3.82475 6.80036 3.85662 6.82161 3.89134 6.83714C3.92624 6.84953 3.96289 6.85629 3.99991 6.85714C4.03725 6.85669 4.07414 6.84893 4.10848 6.83429C4.14056 6.82243 4.16977 6.80393 4.1942 6.78L6.76563 4.20857C6.79227 4.18193 6.8134 4.15031 6.82782 4.1155C6.84223 4.08069 6.84965 4.04339 6.84965 4.00571C6.84965 3.96804 6.84223 3.93074 6.82782 3.89593C6.8134 3.86112 6.79227 3.8295 6.76563 3.80286C6.73899 3.77622 6.70736 3.75509 6.67256 3.74067C6.63775 3.72625 6.60044 3.71883 6.56277 3.71883C6.5251 3.71883 6.48779 3.72625 6.45299 3.74067C6.41818 3.75509 6.38655 3.77622 6.35991 3.80286L4.28563 5.88286V0.285714C4.28563 0.209938 4.25553 0.137266 4.20194 0.0836838C4.14836 0.0301019 4.07569 0 3.99991 0Z" fill="#7A808A"/>
</svg>
