<svg width="11" height="11" viewBox="0 0 11 11" fill="none" xmlns="http://www.w3.org/2000/svg">
<path d="M7.91672 10.0032H2.08089C1.74923 10.0032 1.43115 9.87149 1.19663 9.63697C0.962106 9.40245 0.830354 9.08437 0.830354 8.7527V4.58425H0.413508C0.32803 4.58357 0.244828 4.55662 0.175178 4.50706C0.105528 4.4575 0.0527984 4.38773 0.0241343 4.3072C-0.00452977 4.22667 -0.00774223 4.13927 0.0149324 4.05685C0.037607 3.97443 0.0850722 3.90097 0.150896 3.84644L4.73619 0.0948273C4.81078 0.033517 4.90434 0 5.00089 0C5.09744 0 5.191 0.033517 5.26559 0.0948273L9.85089 3.84644C9.91698 3.9012 9.96455 3.97503 9.98711 4.05785C10.0097 4.14067 10.0061 4.22843 9.97693 4.30915C9.94774 4.38987 9.89435 4.45961 9.82404 4.50885C9.75373 4.55809 9.66994 4.58442 9.58411 4.58425H9.16726V8.7527C9.16726 9.08437 9.03551 9.40245 8.80099 9.63697C8.56647 9.87149 8.24839 10.0032 7.91672 10.0032ZM1.48897 3.82559C1.54342 3.86436 1.58775 3.91565 1.61822 3.97514C1.64869 4.03463 1.6644 4.10057 1.66404 4.16741V8.7527C1.66404 8.86326 1.70796 8.96929 1.78614 9.04746C1.86431 9.12563 1.97034 9.16955 2.08089 9.16955H7.91672C8.02728 9.16955 8.1333 9.12563 8.21148 9.04746C8.28965 8.96929 8.33357 8.86326 8.33357 8.7527V4.16741C8.33321 4.10057 8.34893 4.03463 8.3794 3.97514C8.40987 3.91565 8.4542 3.86436 8.50865 3.82559L4.99881 0.953529L1.48897 3.82559Z" fill="#7A808A"/>
</svg>
