<svg width="12" height="11" viewBox="0 0 12 11" fill="none" xmlns="http://www.w3.org/2000/svg">
<path d="M6 11C5.93669 11.0001 5.87398 10.9876 5.81549 10.9634C5.757 10.9392 5.70388 10.9036 5.65917 10.8588L1.05721 6.2568C-0.352402 4.84719 -0.352402 2.55344 1.05721 1.14384C2.4109 -0.210817 4.58075 -0.265292 6 0.983784C7.41829 -0.263846 9.58814 -0.211299 10.9428 1.14384C12.3524 2.55344 12.3524 4.84768 10.9428 6.2568L6.34083 10.8588C6.29612 10.9036 6.243 10.9392 6.18451 10.9634C6.12602 10.9876 6.06331 11.0001 6 11ZM3.61417 1.04983C3.26595 1.04922 2.92103 1.11738 2.59922 1.25041C2.2774 1.38344 1.98503 1.57871 1.73887 1.82502C1.24224 2.32257 0.963318 2.99684 0.963318 3.69984C0.963318 4.40283 1.24224 5.0771 1.73887 5.57466L6 9.83578L10.2611 5.57466C10.7578 5.0771 11.0367 4.40283 11.0367 3.69984C11.0367 2.99684 10.7578 2.32257 10.2611 1.82502C9.76357 1.32839 9.0893 1.04946 8.38631 1.04946C7.68332 1.04946 7.00904 1.32839 6.51149 1.82502L6.34083 1.99568C6.2961 2.04048 6.24297 2.07603 6.18449 2.10028C6.12601 2.12454 6.06331 2.13702 6 2.13702C5.93669 2.13702 5.87399 2.12454 5.81551 2.10028C5.75703 2.07603 5.7039 2.04048 5.65917 1.99568L5.48851 1.82502C5.24255 1.57872 4.95034 1.38344 4.62869 1.25041C4.30703 1.11738 3.96225 1.04921 3.61417 1.04983Z" fill="#9C63DB"/>
</svg>
