<svg width="8" height="9" viewBox="0 0 8 9" fill="none" xmlns="http://www.w3.org/2000/svg">
<path d="M6.10548 7.99995C6.06753 8.00017 6.0299 7.9929 5.99477 7.97855C5.95963 7.96419 5.92768 7.94305 5.90073 7.91632L1.51159 3.52718C1.45788 3.47315 1.42773 3.40006 1.42773 3.32388C1.42773 3.24769 1.45788 3.1746 1.51159 3.12057L3.13517 1.51141C3.1892 1.4577 3.26229 1.42755 3.33848 1.42755C3.41466 1.42755 3.48775 1.4577 3.54179 1.51141L7.9165 5.90055C7.94393 5.92818 7.96548 5.96107 7.97985 5.99725C7.99423 6.03343 8.00113 6.07215 8.00013 6.11106L7.95976 7.67985C7.95976 7.75633 7.92938 7.82968 7.8753 7.88376C7.82121 7.93785 7.74786 7.96823 7.67138 7.96823L6.1026 8.0086L6.10548 7.99995ZM2.12296 3.32243L6.22083 7.42031L7.39165 7.39147L7.42049 6.22065L3.32262 2.12277L2.12296 3.32243Z" fill="#7A808A"/>
<path d="M1.71609 3.61074C1.67813 3.61096 1.64051 3.60369 1.60538 3.58933C1.57024 3.57498 1.53828 3.55384 1.51134 3.52711L0.0838587 2.09963C0.0301477 2.0456 0 1.97251 0 1.89632C0 1.82014 0.0301477 1.74705 0.0838587 1.69302L1.69302 0.0838587C1.74705 0.0301477 1.82014 0 1.89632 0C1.97251 0 2.0456 0.0301477 2.09963 0.0838587L3.52711 1.52576C3.58082 1.57979 3.61097 1.65288 3.61097 1.72906C3.61097 1.80525 3.58082 1.87834 3.52711 1.93237L1.91795 3.52711C1.86424 3.58039 1.79174 3.61042 1.71609 3.61074ZM0.695223 1.88046L1.71609 2.90133L2.91575 1.70167L1.89488 0.695223L0.695223 1.88046Z" fill="#7A808A"/>
</svg>
