<svg width="8" height="10" viewBox="0 0 8 10" fill="none" xmlns="http://www.w3.org/2000/svg">
<path d="M6.46 4.94C7.0896 4.94 7.6 5.4504 7.6 6.08V6.46C7.6 7.9583 6.18677 9.5 3.8 9.5C1.41323 9.5 0 7.9583 0 6.46V6.08C0 5.4504 0.510395 4.94 1.14 4.94H6.46ZM6.46 5.7H1.14C0.930132 5.7 0.76 5.87013 0.76 6.08V6.46C0.76 7.55261 1.84844 8.74 3.8 8.74C5.75156 8.74 6.84 7.55261 6.84 6.46V6.08C6.84 5.87013 6.66987 5.7 6.46 5.7ZM3.8 0C4.95428 0 5.89 0.935725 5.89 2.09C5.89 3.24428 4.95428 4.18 3.8 4.18C2.64572 4.18 1.71 3.24428 1.71 2.09C1.71 0.935725 2.64572 0 3.8 0ZM3.8 0.76C3.06546 0.76 2.47 1.35546 2.47 2.09C2.47 2.82454 3.06546 3.42 3.8 3.42C4.53454 3.42 5.13 2.82454 5.13 2.09C5.13 1.35546 4.53454 0.76 3.8 0.76Z" fill="#7A808A"/>
</svg>
