<svg width="8" height="8" viewBox="0 0 8 8" fill="none" xmlns="http://www.w3.org/2000/svg">
<path d="M4.00062 4.7477e-08C3.32996 -0.00010327 2.67004 0.168422 2.08155 0.490077C1.49306 0.811732 0.994897 1.27619 0.632866 1.84074C0.270835 2.40529 0.056563 3.0518 0.0097552 3.72082C-0.0370526 4.38985 0.0851067 5.0599 0.364998 5.66936C0.64489 6.27882 1.07353 6.80812 1.61149 7.20859C2.14946 7.60906 2.77948 7.86783 3.44362 7.96112C4.10776 8.0544 4.78469 7.9792 5.41216 7.74243C6.03964 7.50566 6.5975 7.11492 7.03446 6.60615C7.53307 6.02561 7.85467 5.31421 7.96112 4.55638C8.06756 3.79855 7.95438 3.02608 7.635 2.33064C7.31562 1.6352 6.80345 1.04597 6.15926 0.632865C5.51507 0.21976 4.76589 0.000117941 4.00062 4.7477e-08ZM6.35139 6.43077L6.23754 6.53231L6.08369 6.66154L5.96062 6.75385L5.79754 6.86461L5.66831 6.94461L5.49292 7.03692L5.35754 7.10154L5.16985 7.17538L5.03139 7.22461L4.82831 7.28L4.696 7.31385C4.61908 7.32923 4.54215 7.34154 4.46523 7.35077L4.35139 7.36923C4.1172 7.39468 3.88095 7.39468 3.64677 7.36923L3.53292 7.35077C3.456 7.35077 3.37908 7.32923 3.30216 7.31385L3.16985 7.28L2.96677 7.22461L2.82831 7.17538L2.64062 7.10154L2.50523 7.03692L2.32985 6.94461L2.20062 6.86769L2.03754 6.75692L1.91446 6.66462L1.76062 6.53538L1.64985 6.43385L1.60369 6.38461C1.89203 6.0258 2.2572 5.73626 2.6723 5.53731C3.0874 5.33836 3.54184 5.23508 4.00215 5.23508C4.46247 5.23508 4.91691 5.33836 5.33201 5.53731C5.74711 5.73626 6.11228 6.0258 6.40062 6.38461L6.35139 6.43077ZM6.79754 5.90154C6.20543 5.21349 5.38061 4.76767 4.48062 4.64923L5.19754 3.21538C5.21701 3.17907 5.22899 3.13922 5.23277 3.09819C5.23655 3.05715 5.23205 3.01578 5.21954 2.97652C5.20702 2.93726 5.18675 2.90092 5.15992 2.86964C5.1331 2.83837 5.10026 2.8128 5.06337 2.79445C5.02647 2.77611 4.98626 2.76536 4.94514 2.76285C4.90401 2.76034 4.86279 2.76611 4.82394 2.77983C4.78509 2.79355 4.74938 2.81493 4.71895 2.84271C4.68851 2.87049 4.66397 2.90409 4.64677 2.94154L3.80369 4.61538C3.30685 4.64159 2.82042 4.76793 2.37363 4.98683C1.92683 5.20574 1.52889 5.51268 1.20369 5.88923C0.857062 5.38057 0.655706 4.78702 0.621295 4.17244C0.586884 3.55787 0.72072 2.94555 1.0084 2.40137C1.29608 1.8572 1.72672 1.40178 2.25396 1.08413C2.7812 0.766473 3.38508 0.598614 4.00062 0.598614C4.61615 0.598614 5.22004 0.766473 5.74728 1.08413C6.27452 1.40178 6.70515 1.8572 6.99283 2.40137C7.28051 2.94555 7.41435 3.55787 7.37994 4.17244C7.34553 4.78702 7.14417 5.38057 6.79754 5.88923V5.90154Z" fill="#7A808A"/>
<path d="M1.53914 4.30758C1.70907 4.30758 1.84683 4.16983 1.84683 3.99989C1.84683 3.82996 1.70907 3.6922 1.53914 3.6922C1.3692 3.6922 1.23145 3.82996 1.23145 3.99989C1.23145 4.16983 1.3692 4.30758 1.53914 4.30758Z" fill="#7A808A"/>
<path d="M6.46199 4.30758C6.63192 4.30758 6.76968 4.16983 6.76968 3.99989C6.76968 3.82996 6.63192 3.6922 6.46199 3.6922C6.29206 3.6922 6.1543 3.82996 6.1543 3.99989C6.1543 4.16983 6.29206 4.30758 6.46199 4.30758Z" fill="#7A808A"/>
<path d="M2.6586 2.6959C2.78877 2.58666 2.80575 2.39258 2.69653 2.2624C2.5873 2.13222 2.39322 2.11525 2.26305 2.22448C2.13287 2.33371 2.11589 2.52779 2.22512 2.65797C2.33435 2.78815 2.52842 2.80513 2.6586 2.6959Z" fill="#7A808A"/>
<path d="M6.00186 2.72673C6.14902 2.64175 6.19945 2.45356 6.11449 2.30639C6.02953 2.15922 5.84136 2.1088 5.6942 2.19377C5.54703 2.27875 5.49661 2.46694 5.58157 2.61411C5.66652 2.76128 5.8547 2.8117 6.00186 2.72673Z" fill="#7A808A"/>
<path d="M4.00105 1.84625C4.17099 1.84625 4.30874 1.70849 4.30874 1.53856C4.30874 1.36862 4.17099 1.23087 4.00105 1.23087C3.83112 1.23087 3.69336 1.36862 3.69336 1.53856C3.69336 1.70849 3.83112 1.84625 4.00105 1.84625Z" fill="#7A808A"/>
</svg>
