<svg width="9" height="8" viewBox="0 0 9 8" fill="none" xmlns="http://www.w3.org/2000/svg">
<path d="M4.39792 8C4.35151 8.00005 4.30555 7.99093 4.26267 7.97316C4.2198 7.95539 4.18086 7.92933 4.14809 7.89647L0.774918 4.52329C-0.258306 3.49007 -0.258306 1.80878 0.774918 0.775558C1.76715 -0.217383 3.35763 -0.257312 4.39792 0.658243C5.4375 -0.256252 7.02797 -0.217736 8.02091 0.775558C9.05414 1.80878 9.05414 3.49042 8.02091 4.52329L4.64774 7.89647C4.61497 7.92933 4.57603 7.95539 4.53316 7.97316C4.49029 7.99093 4.44432 8.00005 4.39792 8ZM2.64914 0.706653C2.39389 0.706206 2.14108 0.75617 1.90519 0.853677C1.6693 0.951184 1.455 1.09432 1.27457 1.27486C0.910547 1.63956 0.706098 2.13379 0.706098 2.64907C0.706098 3.16436 0.910547 3.65859 1.27457 4.02329L4.39792 7.14664L7.52126 4.02329C7.88529 3.65859 8.08973 3.16436 8.08973 2.64907C8.08973 2.13379 7.88529 1.63956 7.52126 1.27486C7.15656 0.910834 6.66233 0.706386 6.14705 0.706386C5.63176 0.706386 5.13753 0.910834 4.77283 1.27486L4.64774 1.39995C4.61495 1.43279 4.57601 1.45884 4.53314 1.47662C4.49028 1.4944 4.44432 1.50355 4.39792 1.50355C4.35151 1.50355 4.30556 1.4944 4.26269 1.47662C4.21982 1.45884 4.18088 1.43279 4.14809 1.39995L4.023 1.27486C3.84271 1.09432 3.62853 0.951187 3.39276 0.853677C3.15699 0.756167 2.90428 0.706202 2.64914 0.706653Z" fill="#7A808A"/>
</svg>
