<svg width="12" height="7" viewBox="0 0 12 7" fill="none" xmlns="http://www.w3.org/2000/svg">
<path d="M5.996 0C3.07713 0 0.24617 2.79579 0.123085 2.90129C0.0351673 2.98921 0 3.09471 0 3.20021C0 3.30571 0.0527509 3.41121 0.123085 3.49913C0.24617 3.62222 3.05954 6.40042 5.996 6.40042C8.93246 6.40042 11.7458 3.60463 11.8689 3.49913C11.9392 3.4288 11.992 3.30571 11.992 3.20021C11.992 3.09471 11.9392 2.98921 11.8689 2.90129C11.7458 2.77821 8.91487 0 5.996 0ZM5.996 5.55641C3.9563 5.55641 1.84628 3.88597 1.05501 3.20021C1.84628 2.49687 3.9563 0.844012 5.996 0.844012C8.0357 0.844012 10.1457 2.51445 10.937 3.20021C10.1457 3.90355 8.0357 5.55641 5.996 5.55641Z" fill="#7A808A"/>
<path d="M4.4834 3.20011C4.4834 4.04413 5.16916 4.7123 5.99559 4.7123C6.82201 4.7123 7.50777 4.02654 7.50777 3.20011C7.50777 2.37369 6.82201 1.68793 5.99559 1.68793C5.16916 1.68793 4.4834 2.3561 4.4834 3.20011ZM6.66376 3.20011C6.66376 3.56937 6.36484 3.86829 5.99559 3.86829C5.62633 3.86829 5.32741 3.56937 5.32741 3.20011C5.32741 2.83086 5.62633 2.53194 5.99559 2.53194C6.36484 2.53194 6.66376 2.83086 6.66376 3.20011Z" fill="#7A808A"/>
</svg>
