<svg width="9" height="8" viewBox="0 0 9 8" fill="none" xmlns="http://www.w3.org/2000/svg">
<path d="M5.39496 8L4.77271 7.83753L4.64078 6.53452C4.5108 6.54362 4.38083 6.54785 4.25085 6.54785C1.90707 6.54785 0 5.07912 0 3.27344C0 1.46775 1.90707 0 4.25085 0C6.59464 0 8.50171 1.46872 8.50171 3.27409C8.50171 4.26742 7.93436 5.18895 6.942 5.81251L5.39496 8ZM4.90073 5.81966L5.28806 6.1251L5.36312 6.85686L6.4221 5.35987L6.52445 5.26434C7.34427 4.76816 7.81479 4.04322 7.81479 3.27539C7.81479 1.8489 6.21608 0.688221 4.25085 0.688221C2.28562 0.688221 0.686921 1.8489 0.686921 3.27539C0.686921 4.70187 2.28562 5.86287 4.25085 5.86287C4.4682 5.86307 4.68532 5.84863 4.90073 5.81966Z" fill="#7A808A"/>
</svg>
