<svg width="15" height="15" viewBox="0 0 15 15" fill="none" xmlns="http://www.w3.org/2000/svg">
<path d="M8.83325 11.1874C8.67713 11.0313 8.58943 10.8196 8.58943 10.5988C8.58943 10.378 8.67713 10.1663 8.83325 10.0102L11.7764 7.06704L8.83325 4.1239C8.67713 3.96779 8.58943 3.75605 8.58943 3.53527C8.58943 3.31449 8.67713 3.10276 8.83325 2.94664C8.98936 2.79053 9.2011 2.70283 9.42188 2.70283C9.64265 2.70283 9.85439 2.79053 10.0105 2.94664L13.5423 6.47841C13.6984 6.63452 13.7861 6.84626 13.7861 7.06704C13.7861 7.28782 13.6984 7.49955 13.5423 7.65567L10.0105 11.1874C9.85439 11.3435 9.64265 11.4313 9.42188 11.4313C9.2011 11.4313 8.98936 11.3435 8.83325 11.1874Z" fill="#7BC93A"/>
<path d="M0.592865 7.65534C0.47527 7.5391 0.394953 7.39048 0.362156 7.22842C0.329359 7.06635 0.345566 6.8982 0.408712 6.74538C0.471858 6.59257 0.579081 6.46202 0.716712 6.37038C0.854342 6.27875 1.01614 6.23017 1.18149 6.23085L12.954 6.23085C13.163 6.24703 13.3583 6.34148 13.5007 6.49535C13.6431 6.64922 13.7222 6.85116 13.7222 7.06082C13.7222 7.27049 13.6431 7.47243 13.5007 7.62629C13.3583 7.78016 13.163 7.87462 12.954 7.89079L1.18149 7.89079C0.961906 7.89302 0.750338 7.80839 0.592865 7.65534Z" fill="#7BC93A"/>
</svg>
