<svg width="24" height="24" viewBox="0 0 24 24" fill="none" xmlns="http://www.w3.org/2000/svg">
<path d="M8.00598 2.01416C7.45368 2.01416 7.00598 2.46216 7.00598 3.01416C4.79688 3.01416 3.00598 4.80516 3.00598 7.01416V17.0142C3.00598 19.2232 4.79688 21.0142 7.00598 21.0142H17.006C19.215 21.0142 21.006 19.2232 21.006 17.0142V7.01416C21.006 4.80516 19.215 3.01416 17.006 3.01416C17.006 2.46216 16.558 2.01416 16.006 2.01416C15.454 2.01416 15.006 2.46216 15.006 3.01416H9.00598C9.00598 2.46216 8.55828 2.01416 8.00598 2.01416ZM7.00598 5.01416C7.00598 5.56616 7.45368 6.01416 8.00598 6.01416C8.55828 6.01416 9.00598 5.56616 9.00598 5.01416H15.006C15.006 5.56616 15.454 6.01416 16.006 6.01416C16.558 6.01416 17.006 5.56616 17.006 5.01416C18.111 5.01416 19.006 5.90916 19.006 7.01416V17.0142C19.006 18.1192 18.111 19.0142 17.006 19.0142H7.00598C5.90138 19.0142 5.00598 18.1192 5.00598 17.0142V7.01416C5.00598 5.90916 5.90138 5.01416 7.00598 5.01416ZM15.006 8.01416C14.454 8.01416 14.006 8.46216 14.006 9.01416V10.0142C14.006 10.5662 14.454 11.0142 15.006 11.0142H16.006C16.558 11.0142 17.006 10.5662 17.006 10.0142V9.01416C17.006 8.46216 16.558 8.01416 16.006 8.01416H15.006Z" fill="white"/>
</svg>
