<svg width="24" height="24" viewBox="0 0 24 24" fill="none" xmlns="http://www.w3.org/2000/svg">
<path d="M8.00595 2.01416C7.45395 2.01416 7.00595 2.46216 7.00595 3.01416C4.79695 3.01416 3.00595 4.80516 3.00595 7.01416V17.0142C3.00595 19.2232 4.79695 21.0142 7.00595 21.0142H17.006C19.215 21.0142 21.006 19.2232 21.006 17.0142V7.01416C21.006 4.80516 19.215 3.01416 17.006 3.01416C17.006 2.46216 16.558 2.01416 16.006 2.01416C15.454 2.01416 15.006 2.46216 15.006 3.01416H9.00595C9.00595 2.46216 8.55795 2.01416 8.00595 2.01416ZM7.00595 5.01416C7.00595 5.56616 7.45395 6.01416 8.00595 6.01416C8.55795 6.01416 9.00595 5.56616 9.00595 5.01416H15.006C15.006 5.56616 15.454 6.01416 16.006 6.01416C16.558 6.01416 17.006 5.56616 17.006 5.01416C18.111 5.01416 19.006 5.90916 19.006 7.01416V17.0142C19.006 18.1192 18.111 19.0142 17.006 19.0142H7.00595C5.90095 19.0142 5.00595 18.1192 5.00595 17.0142V7.01416C5.00595 5.90916 5.90095 5.01416 7.00595 5.01416ZM8.38095 10.0142L7.00595 13.7332H8.00595L8.22495 13.0762H9.56796L9.78696 13.7332H10.756L9.41196 10.0142H8.38095ZM8.88095 11.1082L9.31796 12.3582H8.47495L8.88095 11.1082ZM15.412 11.1392C15.234 11.1392 15.0939 11.1622 14.9439 11.2332C14.7929 11.3042 14.647 11.4222 14.537 11.5452C14.428 11.6692 14.351 11.8162 14.287 11.9832C14.224 12.1492 14.1939 12.3202 14.1939 12.5142C14.1929 12.7052 14.229 12.8892 14.287 13.0452C14.346 13.2022 14.431 13.3082 14.537 13.4202C14.644 13.5322 14.766 13.6391 14.912 13.7021C15.058 13.7641 15.206 13.7952 15.381 13.7952C15.46 13.7952 15.5329 13.7762 15.5999 13.7642C15.6659 13.7522 15.727 13.7281 15.787 13.7021C15.848 13.6751 15.9159 13.6492 15.9749 13.6082C16.0329 13.5672 16.099 13.5141 16.162 13.4521V13.7021C16.162 13.8891 16.103 14.0342 16.006 14.1392C15.909 14.2442 15.7809 14.2952 15.5999 14.2952C15.3869 14.2952 15.2539 14.2132 15.1939 14.0452H14.2249C14.2499 14.1842 14.2739 14.3032 14.3499 14.4202C14.4259 14.5372 14.543 14.6452 14.662 14.7332C14.781 14.8202 14.91 14.9021 15.068 14.9521C15.227 15.0011 15.4089 15.0142 15.5999 15.0142C15.7679 15.0142 15.924 14.9911 16.068 14.9521C16.213 14.9121 16.3289 14.8642 16.4439 14.7952C16.5579 14.7262 16.675 14.6392 16.756 14.5452C16.837 14.4512 16.874 14.3412 16.912 14.2332C16.941 14.1472 16.99 14.0631 17.006 13.9521C17.022 13.8401 17.006 13.7182 17.006 13.5762V11.2021H16.162V11.4832C15.965 11.2592 15.701 11.1392 15.412 11.1392ZM11.0999 11.2021V12.7952C11.0999 13.1382 11.195 13.4052 11.412 13.5762C11.63 13.7482 11.981 13.8262 12.412 13.8262C12.844 13.8262 13.164 13.7482 13.381 13.5762C13.599 13.4052 13.6939 13.1382 13.6939 12.7952V11.2021H12.8499V12.6392C12.8499 12.9522 12.704 13.1082 12.412 13.1082C12.12 13.1082 11.9749 12.9522 11.9749 12.6392V11.2021H11.0999ZM15.631 11.8892C15.704 11.8892 15.7809 11.8912 15.8499 11.9202C15.9179 11.9502 15.986 11.9932 16.037 12.0452C16.088 12.0982 16.132 12.1642 16.162 12.2332C16.192 12.3022 16.1939 12.3691 16.1939 12.4521C16.1939 12.5311 16.192 12.6311 16.162 12.7021C16.132 12.7721 16.086 12.8362 16.037 12.8892C15.988 12.9422 15.9179 12.9532 15.8499 12.9832C15.7809 13.0122 15.707 13.0452 15.631 13.0452C15.552 13.0452 15.481 13.0122 15.412 12.9832C15.344 12.9532 15.305 12.9422 15.256 12.8892C15.207 12.8362 15.16 12.7721 15.131 12.7021C15.102 12.6311 15.068 12.5341 15.068 12.4521C15.069 12.3721 15.101 12.3022 15.131 12.2332C15.161 12.1642 15.205 12.0962 15.256 12.0452C15.307 11.9942 15.346 11.9522 15.412 11.9202C15.479 11.8892 15.555 11.8892 15.631 11.8892Z" fill="white"/>
</svg>
