<svg width="24" height="24" viewBox="0 0 24 24" fill="none" xmlns="http://www.w3.org/2000/svg">
<path d="M8.00592 2.01416C7.45392 2.01416 7.00592 2.46216 7.00592 3.01416C4.79692 3.01416 3.00592 4.80516 3.00592 7.01416V17.0142C3.00592 19.2232 4.79692 21.0142 7.00592 21.0142H17.0059C19.2149 21.0142 21.0059 19.2232 21.0059 17.0142V7.01416C21.0059 4.80516 19.2149 3.01416 17.0059 3.01416C17.0059 2.46216 16.5579 2.01416 16.0059 2.01416C15.4539 2.01416 15.0059 2.46216 15.0059 3.01416H9.00592C9.00592 2.46216 8.55792 2.01416 8.00592 2.01416ZM7.00592 5.01416C7.00592 5.56616 7.45392 6.01416 8.00592 6.01416C8.55792 6.01416 9.00592 5.56616 9.00592 5.01416H15.0059C15.0059 5.56616 15.4539 6.01416 16.0059 6.01416C16.5579 6.01416 17.0059 5.56616 17.0059 5.01416C18.1109 5.01416 19.0059 5.90916 19.0059 7.01416V17.0142C19.0059 18.1192 18.1109 19.0142 17.0059 19.0142H7.00592C5.90092 19.0142 5.00592 18.1192 5.00592 17.0142V7.01416C5.00592 5.90916 5.90092 5.01416 7.00592 5.01416ZM13.8499 9.01416C13.5159 9.01416 13.2089 9.05717 12.9439 9.17017C12.6779 9.28417 12.4739 9.44016 12.2869 9.63916C12.0999 9.83816 11.9489 10.0922 11.8499 10.3582C11.7509 10.6242 11.6939 10.8921 11.6939 11.2021C11.6929 11.4901 11.7329 11.7612 11.8179 12.0142C11.9039 12.2672 12.0429 12.5131 12.1939 12.7021C12.3439 12.8901 12.5149 13.0312 12.7249 13.1392C12.9339 13.2472 13.1649 13.2952 13.4119 13.2952C13.4749 13.2952 13.5499 13.2822 13.6309 13.2642C13.7119 13.2462 13.8169 13.1952 13.9439 13.1082H13.9749L12.5059 15.0142H14.0369L15.2249 13.3582C15.4909 12.9862 15.6899 12.6172 15.8179 12.2332C15.9469 11.8482 16.0059 11.5012 16.0059 11.1702C16.0059 10.8762 15.9799 10.5872 15.8809 10.3262C15.7819 10.0662 15.6299 9.83516 15.4439 9.63916C15.2569 9.44316 15.0219 9.28417 14.7559 9.17017C14.4899 9.05717 14.1879 9.01416 13.8499 9.01416ZM8.00592 9.17017V10.4521H8.75592V15.0142H10.0679V9.17017H8.00592ZM13.8499 10.2021C13.9669 10.2011 14.0919 10.2442 14.1939 10.2952C14.2949 10.3472 14.3669 10.4262 14.4439 10.5142C14.5199 10.6022 14.5859 10.6792 14.6309 10.7952C14.6759 10.9112 14.6939 11.0362 14.6939 11.1702C14.6929 11.3042 14.6759 11.4292 14.6309 11.5452C14.5859 11.6612 14.5199 11.7702 14.4439 11.8582C14.3669 11.9452 14.2949 12.0252 14.1939 12.0762C14.0919 12.1282 13.9669 12.1392 13.8499 12.1392C13.7329 12.1392 13.6389 12.1282 13.5369 12.0762C13.4359 12.0252 13.3329 11.9452 13.2559 11.8582C13.1789 11.7702 13.1139 11.6612 13.0679 11.5452C13.0229 11.4292 13.0059 11.3042 13.0059 11.1702C13.0059 11.0362 13.0229 10.9112 13.0679 10.7952C13.1129 10.6792 13.1789 10.6022 13.2559 10.5142C13.3329 10.4262 13.4359 10.3472 13.5369 10.2952C13.6389 10.2442 13.7329 10.2021 13.8499 10.2021Z" fill="white"/>
</svg>
