<svg width="14" height="16" viewBox="0 0 14 16" fill="none" xmlns="http://www.w3.org/2000/svg">
<path d="M13.9581 6.08143C13.9444 5.9895 13.9126 5.90119 13.8647 5.82154C13.8168 5.74189 13.7536 5.67245 13.6789 5.6172C13.6041 5.56195 13.5192 5.52197 13.429 5.49953C13.3388 5.47709 13.2451 5.47263 13.1531 5.48642C13.0612 5.50021 12.9729 5.53197 12.8932 5.57989C12.8136 5.62781 12.7442 5.69095 12.6889 5.7657C12.6337 5.84045 12.5937 5.92535 12.5712 6.01556C12.5488 6.10576 12.5443 6.19951 12.5581 6.29143C12.5835 6.43713 12.5975 6.58457 12.6001 6.73244C12.6001 9.43446 10.0871 11.6325 7.00007 11.6325H6.59407C6.46517 11.6274 6.33722 11.6564 6.22306 11.7165L2.62503 13.6765L3.50004 11.1355C3.54531 10.9989 3.54742 10.8518 3.50609 10.714C3.46476 10.5762 3.38198 10.4545 3.26903 10.3655C2.7025 9.94118 2.23985 9.39363 1.91605 8.76424C1.59226 8.13484 1.4158 7.44006 1.40001 6.73244C1.40001 4.03041 3.91304 1.83239 7.00007 1.83239H7.17507C7.267 1.84066 7.35965 1.83075 7.44775 1.80321C7.53584 1.77568 7.61765 1.73106 7.6885 1.67191C7.75936 1.61276 7.81786 1.54023 7.86069 1.45847C7.90351 1.3767 7.92981 1.28731 7.93808 1.19538C7.94635 1.10345 7.93644 1.0108 7.9089 0.922704C7.88137 0.834609 7.83675 0.7528 7.7776 0.681949C7.71845 0.611097 7.64592 0.552589 7.56416 0.509767C7.48239 0.466945 7.393 0.440646 7.30107 0.432373H7.00007C3.14303 0.432373 0 3.2324 0 6.73244C0.00895086 7.56459 0.19094 8.38578 0.534399 9.14379C0.877857 9.90181 1.37527 10.5801 1.99502 11.1355L0.735007 14.9085C0.691068 15.0419 0.688276 15.1855 0.726995 15.3205C0.765714 15.4555 0.844153 15.5757 0.952115 15.6656C1.06008 15.7554 1.19257 15.8107 1.33237 15.8243C1.47217 15.8378 1.61281 15.809 1.73602 15.7415L6.72007 13.0325C10.6821 13.1795 14.0001 10.2955 14.0001 6.73244C14.0028 6.51468 13.9888 6.29703 13.9581 6.08143Z" fill="#7A808A"/>
<circle cx="12" cy="2" r="2" fill="#7A808A"/>
</svg>
