<svg width="14" height="20" viewBox="0 0 14 20" fill="none" xmlns="http://www.w3.org/2000/svg">
<path d="M10.999 5.79395C10.999 5.55371 11.0518 5.34131 11.1572 5.15674C11.2627 4.96924 11.3901 4.81982 11.5396 4.7085C11.689 4.59424 11.8384 4.48438 11.9878 4.37891C12.1372 4.27344 12.2646 4.15186 12.3701 4.01416C12.4756 3.87646 12.5283 3.71973 12.5283 3.54395C12.5283 3.35938 12.4536 3.20117 12.3042 3.06934C12.1548 2.9375 11.96 2.87158 11.7197 2.87158C11.4678 2.87158 11.251 2.93164 11.0693 3.05176C10.8906 3.17187 10.7734 3.29199 10.7178 3.41211L10.6387 3.58789L9.51367 3.0957C9.52539 3.05469 9.54443 2.99902 9.5708 2.92871C9.59717 2.8584 9.66895 2.73682 9.78613 2.56396C9.90332 2.39111 10.0381 2.2373 10.1904 2.10254C10.3457 1.96484 10.5625 1.8418 10.8408 1.7334C11.1191 1.62207 11.4268 1.56641 11.7637 1.56641C12.3994 1.56641 12.918 1.74365 13.3193 2.09814C13.7207 2.44971 13.9214 2.87158 13.9214 3.36377C13.9214 3.66846 13.8657 3.94092 13.7544 4.18115C13.646 4.41846 13.5112 4.61035 13.3501 4.75684C13.1919 4.90332 13.0337 5.04102 12.8755 5.16992C12.7173 5.29883 12.5825 5.45117 12.4712 5.62695C12.3599 5.7998 12.3042 5.99023 12.3042 6.19824H11.0869C11.0283 6.04883 10.999 5.91406 10.999 5.79395ZM11.1177 7.88574C10.9771 7.75098 10.9067 7.59424 10.9067 7.41553C10.9067 7.23389 10.9771 7.07568 11.1177 6.94092C11.2612 6.80615 11.4312 6.73877 11.6274 6.73877C11.8267 6.73877 11.9966 6.80615 12.1372 6.94092C12.2778 7.07568 12.3481 7.23389 12.3481 7.41553C12.3481 7.59424 12.2778 7.75098 12.1372 7.88574C11.9966 8.02051 11.8267 8.08789 11.6274 8.08789C11.4312 8.08789 11.2612 8.02051 11.1177 7.88574Z" fill="#7A808A"/>
<path d="M10.999 5.79395C10.999 5.55371 11.0518 5.34131 11.1572 5.15674C11.2627 4.96924 11.3901 4.81982 11.5396 4.7085C11.689 4.59424 11.8384 4.48438 11.9878 4.37891C12.1372 4.27344 12.2646 4.15186 12.3701 4.01416C12.4756 3.87646 12.5283 3.71973 12.5283 3.54395C12.5283 3.35938 12.4536 3.20117 12.3042 3.06934C12.1548 2.9375 11.96 2.87158 11.7197 2.87158C11.4678 2.87158 11.251 2.93164 11.0693 3.05176C10.8906 3.17187 10.7734 3.29199 10.7178 3.41211L10.6387 3.58789L9.51367 3.0957C9.52539 3.05469 9.54443 2.99902 9.5708 2.92871C9.59717 2.8584 9.66895 2.73682 9.78613 2.56396C9.90332 2.39111 10.0381 2.2373 10.1904 2.10254C10.3457 1.96484 10.5625 1.8418 10.8408 1.7334C11.1191 1.62207 11.4268 1.56641 11.7637 1.56641C12.3994 1.56641 12.918 1.74365 13.3193 2.09814C13.7207 2.44971 13.9214 2.87158 13.9214 3.36377C13.9214 3.66846 13.8657 3.94092 13.7544 4.18115C13.646 4.41846 13.5112 4.61035 13.3501 4.75684C13.1919 4.90332 13.0337 5.04102 12.8755 5.16992C12.7173 5.29883 12.5825 5.45117 12.4712 5.62695C12.3599 5.7998 12.3042 5.99023 12.3042 6.19824H11.0869C11.0283 6.04883 10.999 5.91406 10.999 5.79395ZM11.1177 7.88574C10.9771 7.75098 10.9067 7.59424 10.9067 7.41553C10.9067 7.23389 10.9771 7.07568 11.1177 6.94092C11.2612 6.80615 11.4312 6.73877 11.6274 6.73877C11.8267 6.73877 11.9966 6.80615 12.1372 6.94092C12.2778 7.07568 12.3481 7.23389 12.3481 7.41553C12.3481 7.59424 12.2778 7.75098 12.1372 7.88574C11.9966 8.02051 11.8267 8.08789 11.6274 8.08789C11.4312 8.08789 11.2612 8.02051 11.1177 7.88574Z" fill="url(#paint0_linear_2167_3294)"/>
<path d="M13.9581 10.0813C13.9444 9.98941 13.9126 9.9011 13.8647 9.82145C13.8168 9.7418 13.7536 9.67236 13.6789 9.61711C13.6041 9.56186 13.5192 9.52187 13.429 9.49943C13.3388 9.477 13.2451 9.47254 13.1531 9.48633C13.0612 9.50012 12.9729 9.53188 12.8932 9.5798C12.8136 9.62772 12.7442 9.69085 12.6889 9.76561C12.6337 9.84036 12.5937 9.92526 12.5712 10.0155C12.5488 10.1057 12.5443 10.1994 12.5581 10.2913C12.5835 10.437 12.5975 10.5845 12.6001 10.7323C12.6001 13.4344 10.0871 15.6324 7.00007 15.6324H6.59407C6.46517 15.6274 6.33722 15.6563 6.22306 15.7164L2.62503 17.6764L3.50004 15.1354C3.54531 14.9989 3.54742 14.8517 3.50609 14.7139C3.46476 14.5761 3.38198 14.4544 3.26903 14.3654C2.7025 13.9411 2.23985 13.3935 1.91605 12.7641C1.59226 12.1347 1.4158 11.44 1.40001 10.7323C1.40001 8.03032 3.91304 5.8323 7.00007 5.8323H7.17507C7.267 5.84057 7.35965 5.83066 7.44775 5.80312C7.53584 5.77558 7.61765 5.73097 7.6885 5.67182C7.75936 5.61266 7.81786 5.54014 7.86069 5.45837C7.90351 5.37661 7.92981 5.28722 7.93808 5.19529C7.94635 5.10336 7.93644 5.01071 7.9089 4.92261C7.88137 4.83452 7.83675 4.75271 7.7776 4.68186C7.71845 4.61101 7.64592 4.5525 7.56416 4.50968C7.48239 4.46685 7.393 4.44055 7.30107 4.43228H7.00007C3.14303 4.43228 0 7.23231 0 10.7323C0.00895086 11.5645 0.19094 12.3857 0.534399 13.1437C0.877857 13.9017 1.37527 14.58 1.99502 15.1354L0.735007 18.9084C0.691068 19.0418 0.688276 19.1854 0.726995 19.3204C0.765714 19.4554 0.844153 19.5756 0.952115 19.6655C1.06008 19.7553 1.19257 19.8106 1.33237 19.8242C1.47217 19.8377 1.61281 19.8089 1.73602 19.7414L6.72007 17.0324C10.6821 17.1794 14.0001 14.2954 14.0001 10.7323C14.0028 10.5146 13.9888 10.2969 13.9581 10.0813Z" fill="#7A808A"/>
<path d="M13.9581 10.0813C13.9444 9.98941 13.9126 9.9011 13.8647 9.82145C13.8168 9.7418 13.7536 9.67236 13.6789 9.61711C13.6041 9.56186 13.5192 9.52187 13.429 9.49943C13.3388 9.477 13.2451 9.47254 13.1531 9.48633C13.0612 9.50012 12.9729 9.53188 12.8932 9.5798C12.8136 9.62772 12.7442 9.69085 12.6889 9.76561C12.6337 9.84036 12.5937 9.92526 12.5712 10.0155C12.5488 10.1057 12.5443 10.1994 12.5581 10.2913C12.5835 10.437 12.5975 10.5845 12.6001 10.7323C12.6001 13.4344 10.0871 15.6324 7.00007 15.6324H6.59407C6.46517 15.6274 6.33722 15.6563 6.22306 15.7164L2.62503 17.6764L3.50004 15.1354C3.54531 14.9989 3.54742 14.8517 3.50609 14.7139C3.46476 14.5761 3.38198 14.4544 3.26903 14.3654C2.7025 13.9411 2.23985 13.3935 1.91605 12.7641C1.59226 12.1347 1.4158 11.44 1.40001 10.7323C1.40001 8.03032 3.91304 5.8323 7.00007 5.8323H7.17507C7.267 5.84057 7.35965 5.83066 7.44775 5.80312C7.53584 5.77558 7.61765 5.73097 7.6885 5.67182C7.75936 5.61266 7.81786 5.54014 7.86069 5.45837C7.90351 5.37661 7.92981 5.28722 7.93808 5.19529C7.94635 5.10336 7.93644 5.01071 7.9089 4.92261C7.88137 4.83452 7.83675 4.75271 7.7776 4.68186C7.71845 4.61101 7.64592 4.5525 7.56416 4.50968C7.48239 4.46685 7.393 4.44055 7.30107 4.43228H7.00007C3.14303 4.43228 0 7.23231 0 10.7323C0.00895086 11.5645 0.19094 12.3857 0.534399 13.1437C0.877857 13.9017 1.37527 14.58 1.99502 15.1354L0.735007 18.9084C0.691068 19.0418 0.688276 19.1854 0.726995 19.3204C0.765714 19.4554 0.844153 19.5756 0.952115 19.6655C1.06008 19.7553 1.19257 19.8106 1.33237 19.8242C1.47217 19.8377 1.61281 19.8089 1.73602 19.7414L6.72007 17.0324C10.6821 17.1794 14.0001 14.2954 14.0001 10.7323C14.0028 10.5146 13.9888 10.2969 13.9581 10.0813Z" fill="url(#paint1_linear_2167_3294)"/>
<defs>
<linearGradient id="paint0_linear_2167_3294" x1="12.6558" y1="4.66701" x2="9.3335" y2="4.66701" gradientUnits="userSpaceOnUse">
<stop stop-color="#FD283E"/>
<stop offset="1" stop-color="#CA056C"/>
</linearGradient>
<linearGradient id="paint1_linear_2167_3294" x1="9.96643" y1="12.1299" x2="4.27713e-09" y2="12.1299" gradientUnits="userSpaceOnUse">
<stop stop-color="#FD283E"/>
<stop offset="1" stop-color="#CA056C"/>
</linearGradient>
</defs>
</svg>
