<svg width="24" height="24" viewBox="0 0 24 24" fill="none" xmlns="http://www.w3.org/2000/svg">
<path d="M8.99854 2.99072C6.78954 2.99072 4.99854 4.78172 4.99854 6.99072H3.99854C3.44654 6.99072 2.99854 7.43872 2.99854 7.99072V10.9907H20.9985V7.99072C20.9985 7.43872 20.5505 6.99072 19.9985 6.99072H18.9985C18.9985 4.78172 17.2075 2.99072 14.9985 2.99072C13.7875 2.99072 12.7325 3.54673 11.9985 4.39673C11.2645 3.54673 10.2095 2.99072 8.99854 2.99072ZM8.99854 4.99072C10.1035 4.99072 10.9985 5.88572 10.9985 6.99072H6.99854C6.99854 5.88572 7.89354 4.99072 8.99854 4.99072ZM14.9985 4.99072C16.1035 4.99072 16.9985 5.88572 16.9985 6.99072H12.9985C12.9985 5.88572 13.8935 4.99072 14.9985 4.99072ZM3.99854 12.9907V16.9907C3.99854 19.1997 5.78954 20.9907 7.99854 20.9907H10.9985V12.9907H3.99854ZM12.9985 12.9907V20.9907H15.9985C18.2075 20.9907 19.9985 19.1997 19.9985 16.9907V12.9907H12.9985Z" fill="black"/>
<path d="M8.99854 2.99072C6.78954 2.99072 4.99854 4.78172 4.99854 6.99072H3.99854C3.44654 6.99072 2.99854 7.43872 2.99854 7.99072V10.9907H20.9985V7.99072C20.9985 7.43872 20.5505 6.99072 19.9985 6.99072H18.9985C18.9985 4.78172 17.2075 2.99072 14.9985 2.99072C13.7875 2.99072 12.7325 3.54673 11.9985 4.39673C11.2645 3.54673 10.2095 2.99072 8.99854 2.99072ZM8.99854 4.99072C10.1035 4.99072 10.9985 5.88572 10.9985 6.99072H6.99854C6.99854 5.88572 7.89354 4.99072 8.99854 4.99072ZM14.9985 4.99072C16.1035 4.99072 16.9985 5.88572 16.9985 6.99072H12.9985C12.9985 5.88572 13.8935 4.99072 14.9985 4.99072ZM3.99854 12.9907V16.9907C3.99854 19.1997 5.78954 20.9907 7.99854 20.9907H10.9985V12.9907H3.99854ZM12.9985 12.9907V20.9907H15.9985C18.2075 20.9907 19.9985 19.1997 19.9985 16.9907V12.9907H12.9985Z" fill="url(#paint0_linear_2445_5939)"/>
<defs>
<linearGradient id="paint0_linear_2445_5939" x1="20.9985" y1="11.9907" x2="2.99854" y2="11.9907" gradientUnits="userSpaceOnUse">
<stop stop-color="#FD283E"/>
<stop offset="1" stop-color="#CA056C"/>
</linearGradient>
</defs>
</svg>
