<svg width="9" height="13" viewBox="0 0 9 13" fill="none" xmlns="http://www.w3.org/2000/svg">
<path fill-rule="evenodd" clip-rule="evenodd" d="M8.3515 6.08692L8.358 5.7944C8.76087 6.4687 8.99997 7.25711 9 8.09978C9 9.01409 8.71603 9.86449 8.26617 10.5745V10.5747L8.25866 10.573C7.45406 11.7928 6.06459 12.596 4.49546 12.596C4.02047 12.596 3.59749 12.5527 3.20411 12.3934C2.81074 12.2342 2.50284 12.0219 2.27361 11.6924C1.96636 11.2507 1.79898 10.9027 1.68657 10.2372C1.51138 10.9385 1.73952 11.5814 1.93211 11.9284C0.720447 11.1965 0 9.92319 0 8.41358V8.30573C0.0961638 6.80515 0.924991 5.91559 1.66177 5.12483C2.00208 4.75959 2.32275 4.41543 2.54251 4.04186C2.77782 3.64183 2.89728 3.21662 2.79896 2.69991C3.11988 2.94019 3.21207 3.38363 3.22031 3.78384C3.22942 4.22833 3.13498 4.61945 3.13498 4.61945C3.24781 4.38935 3.35175 4.08592 3.41588 3.73084C3.59459 2.74132 3.46408 1.35028 2.35467 0.0237301C2.35206 0.0205993 2.34949 0.0174729 2.34691 0.0143492C2.34297 0.00956195 2.33904 0.00478096 2.33499 0C2.33499 0 2.52219 0.00801306 2.83903 0.0844046C5.49634 0.522876 7.59197 2.6322 8.01627 5.30045C8.06804 5.62592 8.09497 5.95972 8.09497 6.29981C8.09508 6.74553 8.04817 7.19001 7.95501 7.62588C8.24474 6.98416 8.32862 6.41447 8.3515 6.08692ZM4.51267 10.2788C5.62035 10.2788 6.5183 9.38089 6.5183 8.27321C6.5183 7.16553 5.62035 6.26758 4.51267 6.26758C3.40499 6.26758 2.50704 7.16553 2.50704 8.27321C2.50704 9.38089 3.40499 10.2788 4.51267 10.2788Z" fill="#7BC93A"/>
</svg>
