<svg width="24" height="24" viewBox="0 0 24 24" fill="none" xmlns="http://www.w3.org/2000/svg">
<path d="M12.0237 2.44141C11.4527 2.44121 10.8697 2.79641 10.5247 3.50341L8.40061 7.87611L3.55941 8.56321C2.00251 8.77981 1.49812 10.3072 2.62242 11.4052L6.12051 14.8102L5.30851 19.5892C5.04111 21.1362 6.32421 22.0712 7.71351 21.3382C8.25031 21.0542 11.0107 19.6242 12.0237 19.0892L16.3337 21.3382C17.7247 22.0712 19.0117 21.1372 18.7387 19.5892L17.8957 14.8102L21.3937 11.4052C22.5237 10.3112 22.0447 8.78421 20.4877 8.56321L15.6157 7.87611L13.5227 3.50341C13.1777 2.79611 12.5947 2.44171 12.0237 2.44141ZM12.0237 5.03381L14.0847 9.25041C14.2307 9.54871 14.5057 9.73481 14.8347 9.78141L19.5197 10.4682L16.1157 13.7482C15.8767 13.9792 15.7767 14.2962 15.8347 14.6222L16.6467 19.2452L12.4927 17.0592C12.3387 16.9782 12.1677 16.9392 11.9977 16.9442C11.9977 16.0352 12.0237 5.03381 12.0237 5.03381Z" fill="#F0B440"/>
</svg>
