<svg width="13" height="13" viewBox="0 0 13 13" fill="none" xmlns="http://www.w3.org/2000/svg">
<path d="M6.724 9.68564L9.28517 11.3083C9.61256 11.5157 10.019 11.2072 9.92188 10.8251L9.1819 7.91417C9.16106 7.83309 9.16353 7.74778 9.18902 7.66805C9.21451 7.58831 9.26199 7.51739 9.32599 7.46344L11.6227 5.55186C11.9245 5.30068 11.7687 4.79985 11.381 4.77469L8.38165 4.58003C8.30087 4.57426 8.22338 4.54566 8.15822 4.49755C8.09306 4.44945 8.0429 4.38382 8.0136 4.30832L6.89497 1.49133C6.86456 1.41119 6.8105 1.3422 6.73995 1.29351C6.6694 1.24482 6.58572 1.21875 6.5 1.21875C6.41429 1.21875 6.3306 1.24482 6.26005 1.29351C6.18951 1.3422 6.13544 1.41119 6.10503 1.49133L4.98641 4.30832C4.9571 4.38382 4.90694 4.44945 4.84178 4.49755C4.77662 4.54566 4.69914 4.57426 4.61835 4.58003L1.61901 4.77469C1.23129 4.79985 1.07553 5.30068 1.37731 5.55186L3.67401 7.46344C3.73801 7.51739 3.78549 7.58831 3.81098 7.66805C3.83647 7.74778 3.83894 7.83309 3.8181 7.91417L3.13185 10.6137C3.01528 11.0723 3.50304 11.4425 3.8959 11.1936L6.276 9.68564C6.34294 9.64303 6.42065 9.62039 6.5 9.62039C6.57935 9.62039 6.65706 9.64303 6.724 9.68564V9.68564Z" stroke="#CFD5E9" stroke-width="0.8" stroke-linecap="round" stroke-linejoin="round"/>
</svg>
