<svg width="18" height="16" viewBox="0 0 18 16" fill="none" xmlns="http://www.w3.org/2000/svg">
<path d="M3.99786 16C2.92586 16 1.91843 15.5697 1.16186 14.7886C-0.387286 13.188 -0.387286 10.584 1.16186 8.98286L8.35043 1.55771C9.32243 0.553143 10.6167 0 11.9944 0C13.3721 0 14.6664 0.553143 15.6384 1.55771C17.6333 3.61829 17.6339 6.972 15.639 9.03314L9.78414 15.0811L8.963 14.2857L14.8184 8.23829C16.3887 6.616 16.3887 3.97543 14.8179 2.35257C14.0624 1.57257 13.0596 1.14286 11.9944 1.14286C10.9293 1.14286 9.92643 1.57257 9.171 2.35257L1.983 9.77771C0.858429 10.94 0.857857 12.8314 1.983 13.9931C2.24299 14.2659 2.55559 14.4831 2.9019 14.6316C3.24822 14.7801 3.62105 14.8568 3.99786 14.8571C4.75786 14.8571 5.47329 14.5503 6.01214 13.9937L11.3887 8.44C12.0681 7.73829 12.0676 6.59657 11.3887 5.89543C10.7424 5.228 9.623 5.22743 8.97614 5.89486L4.93329 10.0709L4.11271 9.27543L8.155 5.1C8.41675 4.82614 8.73133 4.60822 9.07971 4.45942C9.42809 4.31062 9.80303 4.23403 10.1819 4.23429C10.9487 4.23429 11.6687 4.54171 12.2093 5.1C13.3127 6.24 13.3133 8.09429 12.2093 9.23429L6.83329 14.7874C6.46736 15.171 6.02737 15.4762 5.53998 15.6846C5.05259 15.8931 4.52795 16.0003 3.99786 16Z" fill="white"/>
</svg>
