<svg width="17" height="17" viewBox="0 0 17 17" fill="none" xmlns="http://www.w3.org/2000/svg">
<path d="M8.51679 1.72852C8.11234 1.72837 7.69938 1.97998 7.455 2.48077L5.95043 5.57809L2.52125 6.06479C1.41845 6.21822 1.06117 7.30013 1.85754 8.07788L4.33536 10.4898L3.76019 13.8749C3.57079 14.9707 4.47965 15.633 5.46373 15.1138C5.84397 14.9126 7.79925 13.8997 8.51679 13.5207L11.5697 15.1138C12.555 15.633 13.4666 14.9714 13.2732 13.8749L12.6761 10.4898L15.1539 8.07788C15.9543 7.30296 15.615 6.22133 14.5121 6.06479L11.0611 5.57809L9.57859 2.48077C9.33421 1.97976 8.92125 1.72873 8.51679 1.72852ZM8.51679 3.5648L9.97667 6.55156C10.0801 6.76286 10.2749 6.89468 10.5079 6.92769L13.8265 7.41417L11.4153 9.7375C11.246 9.90112 11.1752 10.1257 11.2162 10.3566L11.7914 13.6312L8.849 12.0828C8.73992 12.0254 8.61879 11.9978 8.49838 12.0013C8.49838 11.3575 8.51679 3.5648 8.51679 3.5648Z" fill="#F0B440"/>
</svg>
