<svg width="51" height="51" viewBox="0 0 51 51" fill="none" xmlns="http://www.w3.org/2000/svg">
<path d="M25.5 4.25C13.7912 4.25 4.25 13.7912 4.25 25.5C4.25 37.2088 13.7912 46.75 25.5 46.75C37.2088 46.75 46.75 37.2088 46.75 25.5C46.75 13.7912 37.2088 4.25 25.5 4.25ZM35.6575 20.6125L23.6087 32.6612C23.3112 32.9587 22.9075 33.1288 22.4825 33.1288C22.0575 33.1288 21.6538 32.9587 21.3563 32.6612L15.3425 26.6475C14.7262 26.0312 14.7262 25.0112 15.3425 24.395C15.9587 23.7787 16.9787 23.7787 17.595 24.395L22.4825 29.2825L33.405 18.36C34.0213 17.7438 35.0413 17.7438 35.6575 18.36C36.2738 18.9763 36.2738 19.975 35.6575 20.6125Z" fill="white"/>
</svg>
