<svg width="18" height="18" viewBox="0 0 18 18" fill="none" xmlns="http://www.w3.org/2000/svg">
<path d="M5.24316 2.24878C3.58634 2.24878 2.24316 3.59203 2.24316 5.24877V12.7488C2.24316 14.4055 3.58634 15.7488 5.24316 15.7488H12.7432C14.4 15.7488 15.7432 14.4055 15.7432 12.7488V5.24877C15.7432 3.59203 14.4 2.24878 12.7432 2.24878H5.24316ZM11.9932 6.60778C12.1851 6.60853 12.3858 6.67227 12.5323 6.81927C12.8251 7.11177 12.8251 7.58052 12.5323 7.87377L9.71976 10.6863C8.85704 11.5488 7.53711 11.4198 6.86031 10.405L6.11031 9.28002C5.88059 8.93577 5.97666 8.45501 6.32129 8.22551C6.66599 7.99527 7.14621 8.09127 7.37601 8.43627L8.12601 9.56127C8.27766 9.78852 8.47169 9.80128 8.66504 9.60778L11.4541 6.81927C11.6005 6.67302 11.8012 6.60778 11.9932 6.60778Z" fill="#7BC93A"/>
</svg>
