<svg width="27" height="27" viewBox="0 0 27 27" fill="none" xmlns="http://www.w3.org/2000/svg">
<path d="M13.516 2.24854C11.6478 2.24966 10.2418 3.22504 9.12151 5.20166L3.53161 15.4324C2.66648 16.941 2.258 18.0019 2.26598 19.1235C2.28398 21.6345 4.30268 23.6145 6.76598 23.6235H20.266C22.7323 23.6235 24.7566 21.6728 24.766 19.1235C24.77 18.0053 24.3299 16.8769 23.4653 15.4324L17.9457 5.27252C16.9098 3.29365 15.4097 2.24741 13.516 2.24854ZM13.516 4.49854C14.5085 4.49854 15.2622 5.02841 15.9417 6.32666L21.5316 16.5574C22.2265 17.7195 22.5182 18.5115 22.516 19.1235C22.5113 20.4139 21.5114 21.3735 20.266 21.3735H6.76598C5.53118 21.369 4.5251 20.3925 4.51598 19.1235C4.51148 18.498 4.80623 17.733 5.50036 16.5225L11.055 6.32666C11.8046 5.00366 12.5355 4.49854 13.516 4.49854ZM13.516 8.99854C12.8946 8.99854 12.391 9.50254 12.391 10.1235V14.6235C12.391 15.2445 12.8946 15.7485 13.516 15.7485C14.1373 15.7485 14.641 15.2445 14.641 14.6235V10.1235C14.641 9.50254 14.1373 8.99854 13.516 8.99854ZM13.516 16.8735C12.8946 16.8735 12.391 17.3775 12.391 17.9985C12.391 18.6195 12.8946 19.1235 13.516 19.1235C14.1373 19.1235 14.641 18.6195 14.641 17.9985C14.641 17.3775 14.1373 16.8735 13.516 16.8735Z" fill="#FDB62C"/>
</svg>
