<svg width="32" height="32" viewBox="0 0 32 32" fill="none" xmlns="http://www.w3.org/2000/svg">
<path d="M20.6855 5.33057C18.8442 5.33057 17.3282 6.82123 17.3522 8.6639C17.3629 9.4359 18.0895 11.0546 19.1895 13.3266L12.8522 13.3306L12.1829 11.9853C12.8535 11.9159 13.3522 11.3532 13.3522 10.6639C13.3522 9.9279 12.7549 9.33057 12.0189 9.33057H8.01888C7.28288 9.33057 6.68555 9.9279 6.68555 10.6639C6.68555 11.3999 7.28288 11.9972 8.01888 11.9972H9.22689L9.86821 13.3519C9.66687 13.3346 9.55621 13.3306 9.35221 13.3306C5.67088 13.3306 2.68555 16.3159 2.68555 19.9972C2.68555 23.6786 5.67088 26.6639 9.35221 26.6639C12.5575 26.6639 15.2469 24.3585 15.8855 21.3425L17.5055 21.3199C18.1095 24.4186 20.8135 26.6639 24.0189 26.6639C27.7002 26.6639 30.6855 23.6786 30.6855 19.9972C30.6855 16.3159 27.7002 13.3306 24.0189 13.3306C23.4095 13.3306 22.8055 13.4266 22.2695 13.5693C21.2295 11.4186 20.0189 8.79323 20.0189 8.6639C20.0189 8.2959 20.3175 7.99723 20.6855 7.99723C21.0669 7.99723 22.4055 7.99723 22.6855 7.99723C23.4215 7.99723 24.0189 7.3999 24.0189 6.6639C24.0189 5.9279 23.4215 5.33057 22.6855 5.33057C22.4055 5.33057 21.0669 5.33057 20.6855 5.33057ZM9.35221 15.9972C10.0055 15.9972 10.8642 16.2172 11.5029 16.5879L12.5189 18.6639H9.35221C8.61621 18.6639 8.01888 19.2612 8.01888 19.9972C8.01888 20.7332 8.61621 21.3306 9.35221 21.3306L13.1242 21.3145C12.5069 22.8959 11.0429 23.9972 9.35221 23.9972C7.14288 23.9972 5.35221 22.2066 5.35221 19.9972C5.35221 17.7879 7.14288 15.9972 9.35221 15.9972ZM14.1855 15.9972L18.7069 15.9906C18.1042 16.7679 17.7095 17.6586 17.4989 18.6572L15.5189 18.6639L14.1855 15.9972ZM24.0189 15.9972C26.2282 15.9972 28.0189 17.7879 28.0189 19.9972C28.0189 22.2066 26.2282 23.9972 24.0189 23.9972C21.8095 23.9972 20.0189 22.2066 20.0189 19.9972C20.0189 18.9266 20.4389 17.9626 21.1242 17.2439C21.2442 17.4812 22.7069 20.3839 22.8522 20.6226C23.3002 21.3519 24.0269 21.4786 24.6296 21.1799C25.2309 20.8826 25.5629 20.1092 25.2269 19.4132L23.5269 16.0332C23.6842 16.0145 23.8575 15.9972 24.0189 15.9972Z" fill="black"/>
<path d="M20.6855 5.33057C18.8442 5.33057 17.3282 6.82123 17.3522 8.6639C17.3629 9.4359 18.0895 11.0546 19.1895 13.3266L12.8522 13.3306L12.1829 11.9853C12.8535 11.9159 13.3522 11.3532 13.3522 10.6639C13.3522 9.9279 12.7549 9.33057 12.0189 9.33057H8.01888C7.28288 9.33057 6.68555 9.9279 6.68555 10.6639C6.68555 11.3999 7.28288 11.9972 8.01888 11.9972H9.22689L9.86821 13.3519C9.66687 13.3346 9.55621 13.3306 9.35221 13.3306C5.67088 13.3306 2.68555 16.3159 2.68555 19.9972C2.68555 23.6786 5.67088 26.6639 9.35221 26.6639C12.5575 26.6639 15.2469 24.3585 15.8855 21.3425L17.5055 21.3199C18.1095 24.4186 20.8135 26.6639 24.0189 26.6639C27.7002 26.6639 30.6855 23.6786 30.6855 19.9972C30.6855 16.3159 27.7002 13.3306 24.0189 13.3306C23.4095 13.3306 22.8055 13.4266 22.2695 13.5693C21.2295 11.4186 20.0189 8.79323 20.0189 8.6639C20.0189 8.2959 20.3175 7.99723 20.6855 7.99723C21.0669 7.99723 22.4055 7.99723 22.6855 7.99723C23.4215 7.99723 24.0189 7.3999 24.0189 6.6639C24.0189 5.9279 23.4215 5.33057 22.6855 5.33057C22.4055 5.33057 21.0669 5.33057 20.6855 5.33057ZM9.35221 15.9972C10.0055 15.9972 10.8642 16.2172 11.5029 16.5879L12.5189 18.6639H9.35221C8.61621 18.6639 8.01888 19.2612 8.01888 19.9972C8.01888 20.7332 8.61621 21.3306 9.35221 21.3306L13.1242 21.3145C12.5069 22.8959 11.0429 23.9972 9.35221 23.9972C7.14288 23.9972 5.35221 22.2066 5.35221 19.9972C5.35221 17.7879 7.14288 15.9972 9.35221 15.9972ZM14.1855 15.9972L18.7069 15.9906C18.1042 16.7679 17.7095 17.6586 17.4989 18.6572L15.5189 18.6639L14.1855 15.9972ZM24.0189 15.9972C26.2282 15.9972 28.0189 17.7879 28.0189 19.9972C28.0189 22.2066 26.2282 23.9972 24.0189 23.9972C21.8095 23.9972 20.0189 22.2066 20.0189 19.9972C20.0189 18.9266 20.4389 17.9626 21.1242 17.2439C21.2442 17.4812 22.7069 20.3839 22.8522 20.6226C23.3002 21.3519 24.0269 21.4786 24.6296 21.1799C25.2309 20.8826 25.5629 20.1092 25.2269 19.4132L23.5269 16.0332C23.6842 16.0145 23.8575 15.9972 24.0189 15.9972Z" fill="url(#paint0_linear_2448_3046)"/>
<defs>
<linearGradient id="paint0_linear_2448_3046" x1="-1.38718" y1="15.796" x2="20.2392" y2="33.6191" gradientUnits="userSpaceOnUse">
<stop stop-color="#945FCF"/>
<stop offset="1" stop-color="#C19AE0"/>
</linearGradient>
</defs>
</svg>
