<svg width="32" height="32" viewBox="0 0 32 32" fill="none" xmlns="http://www.w3.org/2000/svg">
<path d="M6.66516 5.2085C4.45596 5.2085 2.66516 6.9993 2.66516 9.20849V22.2085C2.66516 24.6017 4.6053 26.5418 6.9985 26.5418H24.9985C27.3917 26.5418 29.3318 24.6017 29.3318 22.2085V11.8752C29.3318 11.1388 28.7349 10.5418 27.9985 10.5418H26.6652V6.54183C26.6652 5.80543 26.0682 5.2085 25.3318 5.2085H6.66516ZM6.66516 7.87516H23.9985V10.5418H6.66516C5.92876 10.5418 5.33183 9.94489 5.33183 9.20849C5.33183 8.4721 5.92876 7.87516 6.66516 7.87516ZM6.66516 13.2085H26.6652V22.2085C26.6652 23.129 25.9189 23.8752 24.9985 23.8752H6.9985C6.07796 23.8752 5.33183 23.129 5.33183 22.2085L5.33956 12.974C5.33956 12.974 5.8169 13.2126 6.66516 13.2085ZM22.6652 17.2085C21.9288 17.2085 21.3318 17.8054 21.3318 18.5418C21.3318 19.2782 21.9288 19.8752 22.6652 19.8752C23.4016 19.8752 23.9985 19.2782 23.9985 18.5418C23.9985 17.8054 23.4016 17.2085 22.6652 17.2085Z" fill="black"/>
<path d="M6.66516 5.2085C4.45596 5.2085 2.66516 6.9993 2.66516 9.20849V22.2085C2.66516 24.6017 4.6053 26.5418 6.9985 26.5418H24.9985C27.3917 26.5418 29.3318 24.6017 29.3318 22.2085V11.8752C29.3318 11.1388 28.7349 10.5418 27.9985 10.5418H26.6652V6.54183C26.6652 5.80543 26.0682 5.2085 25.3318 5.2085H6.66516ZM6.66516 7.87516H23.9985V10.5418H6.66516C5.92876 10.5418 5.33183 9.94489 5.33183 9.20849C5.33183 8.4721 5.92876 7.87516 6.66516 7.87516ZM6.66516 13.2085H26.6652V22.2085C26.6652 23.129 25.9189 23.8752 24.9985 23.8752H6.9985C6.07796 23.8752 5.33183 23.129 5.33183 22.2085L5.33956 12.974C5.33956 12.974 5.8169 13.2126 6.66516 13.2085ZM22.6652 17.2085C21.9288 17.2085 21.3318 17.8054 21.3318 18.5418C21.3318 19.2782 21.9288 19.8752 22.6652 19.8752C23.4016 19.8752 23.9985 19.2782 23.9985 18.5418C23.9985 17.8054 23.4016 17.2085 22.6652 17.2085Z" fill="url(#paint0_linear_2448_2986)"/>
<defs>
<linearGradient id="paint0_linear_2448_2986" x1="-1.21363" y1="15.6739" x2="20.1877" y2="32.4717" gradientUnits="userSpaceOnUse">
<stop stop-color="#945FCF"/>
<stop offset="1" stop-color="#C19AE0"/>
</linearGradient>
</defs>
</svg>
