<svg width="30" height="30" viewBox="0 0 30 30" fill="none" xmlns="http://www.w3.org/2000/svg">
<path d="M15.0177 2.49854C8.11395 2.49854 2.5177 8.09479 2.5177 14.9985C2.5177 21.9023 8.11395 27.4985 15.0177 27.4985C21.9214 27.4985 27.5177 21.9023 27.5177 14.9985C27.5177 8.09479 21.9214 2.49854 15.0177 2.49854ZM10.0177 11.2485C10.3377 11.2485 10.6714 11.356 10.9164 11.5998L11.2677 11.951L11.619 11.5998C11.864 11.356 12.1977 11.2485 12.5177 11.2485C12.8377 11.2485 13.1714 11.356 13.4164 11.5998C13.9039 12.0885 13.9039 12.9085 13.4164 13.3973L12.1664 14.6473C11.6777 15.1348 10.8577 15.1348 10.369 14.6473L9.11896 13.3973C8.63146 12.9085 8.63146 12.0885 9.11896 11.5998C9.36396 11.356 9.6977 11.2485 10.0177 11.2485ZM17.5177 11.2485C17.8377 11.2485 18.1714 11.356 18.4164 11.5998L18.7677 11.951L19.119 11.5998C19.364 11.356 19.6977 11.2485 20.0177 11.2485C20.3377 11.2485 20.6714 11.356 20.9164 11.5998C21.4039 12.0885 21.4039 12.9085 20.9164 13.3973L19.6664 14.6473C19.1777 15.1348 18.3577 15.1348 17.869 14.6473L16.619 13.3973C16.1315 12.9085 16.1315 12.0885 16.619 11.5998C16.864 11.356 17.1977 11.2485 17.5177 11.2485ZM11.5027 18.5535C11.8215 18.5535 12.1177 18.661 12.3615 18.9048C13.0615 19.6035 14.009 19.9985 15.0177 19.9985C16.0227 19.9985 16.9752 19.5998 17.674 18.9048C18.1639 18.4185 18.9452 18.4148 19.4315 18.9048C19.919 19.3948 19.9215 20.176 19.4315 20.6623C18.269 21.8185 16.6902 22.4985 15.0177 22.4985C13.3402 22.4985 11.7677 21.8248 10.6039 20.6623C10.1152 20.1748 10.1152 19.3935 10.6039 18.9048C10.8477 18.661 11.1827 18.5535 11.5027 18.5535Z" fill="black"/>
<path d="M15.0177 2.49854C8.11395 2.49854 2.5177 8.09479 2.5177 14.9985C2.5177 21.9023 8.11395 27.4985 15.0177 27.4985C21.9214 27.4985 27.5177 21.9023 27.5177 14.9985C27.5177 8.09479 21.9214 2.49854 15.0177 2.49854ZM10.0177 11.2485C10.3377 11.2485 10.6714 11.356 10.9164 11.5998L11.2677 11.951L11.619 11.5998C11.864 11.356 12.1977 11.2485 12.5177 11.2485C12.8377 11.2485 13.1714 11.356 13.4164 11.5998C13.9039 12.0885 13.9039 12.9085 13.4164 13.3973L12.1664 14.6473C11.6777 15.1348 10.8577 15.1348 10.369 14.6473L9.11896 13.3973C8.63146 12.9085 8.63146 12.0885 9.11896 11.5998C9.36396 11.356 9.6977 11.2485 10.0177 11.2485ZM17.5177 11.2485C17.8377 11.2485 18.1714 11.356 18.4164 11.5998L18.7677 11.951L19.119 11.5998C19.364 11.356 19.6977 11.2485 20.0177 11.2485C20.3377 11.2485 20.6714 11.356 20.9164 11.5998C21.4039 12.0885 21.4039 12.9085 20.9164 13.3973L19.6664 14.6473C19.1777 15.1348 18.3577 15.1348 17.869 14.6473L16.619 13.3973C16.1315 12.9085 16.1315 12.0885 16.619 11.5998C16.864 11.356 17.1977 11.2485 17.5177 11.2485ZM11.5027 18.5535C11.8215 18.5535 12.1177 18.661 12.3615 18.9048C13.0615 19.6035 14.009 19.9985 15.0177 19.9985C16.0227 19.9985 16.9752 19.5998 17.674 18.9048C18.1639 18.4185 18.9452 18.4148 19.4315 18.9048C19.919 19.3948 19.9215 20.176 19.4315 20.6623C18.269 21.8185 16.6902 22.4985 15.0177 22.4985C13.3402 22.4985 11.7677 21.8248 10.6039 20.6623C10.1152 20.1748 10.1152 19.3935 10.6039 18.9048C10.8477 18.661 11.1827 18.5535 11.5027 18.5535Z" fill="url(#paint0_linear_2448_3043)"/>
<defs>
<linearGradient id="paint0_linear_2448_3043" x1="27.5177" y1="14.9985" x2="2.5177" y2="14.9985" gradientUnits="userSpaceOnUse">
<stop stop-color="#FD283E"/>
<stop offset="1" stop-color="#CA056C"/>
</linearGradient>
</defs>
</svg>
