<svg width="29" height="29" viewBox="0 0 29 29" fill="none" xmlns="http://www.w3.org/2000/svg">
<path d="M14.4974 2.35986C13.602 2.35986 12.6933 2.49761 11.7786 2.73686C11.1331 2.90723 10.7786 3.56458 10.9479 4.20983C11.1172 4.85508 11.775 5.24778 12.4202 5.07861C13.1428 4.88891 13.8195 4.77653 14.4974 4.77653C15.1958 4.77653 15.8918 4.88891 16.6119 5.07861C17.2572 5.24778 17.9145 4.85508 18.0849 4.20983C18.2541 3.56458 17.8614 2.90723 17.2161 2.73686C16.3026 2.49761 15.4109 2.35986 14.4974 2.35986ZM14.4974 5.98486C9.15858 5.98486 4.83069 10.3131 4.83069 15.6515C4.83069 20.9899 9.15858 25.3182 14.4974 25.3182C19.8358 25.3182 24.164 20.9899 24.164 15.6515C24.164 10.3131 19.8358 5.98486 14.4974 5.98486ZM22.9557 5.98486C22.2887 5.98486 21.7474 6.5262 21.7474 7.1932C21.7474 7.8602 22.2887 8.40153 22.9557 8.40153C23.6227 8.40153 24.164 7.8602 24.164 7.1932C24.164 6.5262 23.6227 5.98486 22.9557 5.98486ZM14.4974 8.40153C18.5018 8.40153 21.7474 11.6471 21.7474 15.6515C21.7474 19.6559 18.5018 22.9015 14.4974 22.9015C10.4933 22.9015 7.24736 19.6559 7.24736 15.6515C7.24736 11.6471 10.4933 8.40153 14.4974 8.40153ZM14.4974 10.8182C13.8304 10.8182 13.289 11.3595 13.289 12.0265V15.6515C13.289 15.9717 13.4026 16.2931 13.6286 16.5203L16.0452 18.937C16.5177 19.4082 17.3104 19.4082 17.7828 18.937C18.2541 18.4645 18.2541 17.6719 17.7828 17.1994L15.7057 15.1223V12.0265C15.7057 11.3595 15.1644 10.8182 14.4974 10.8182Z" fill="black"/>
<path d="M14.4974 2.35986C13.602 2.35986 12.6933 2.49761 11.7786 2.73686C11.1331 2.90723 10.7786 3.56458 10.9479 4.20983C11.1172 4.85508 11.775 5.24778 12.4202 5.07861C13.1428 4.88891 13.8195 4.77653 14.4974 4.77653C15.1958 4.77653 15.8918 4.88891 16.6119 5.07861C17.2572 5.24778 17.9145 4.85508 18.0849 4.20983C18.2541 3.56458 17.8614 2.90723 17.2161 2.73686C16.3026 2.49761 15.4109 2.35986 14.4974 2.35986ZM14.4974 5.98486C9.15858 5.98486 4.83069 10.3131 4.83069 15.6515C4.83069 20.9899 9.15858 25.3182 14.4974 25.3182C19.8358 25.3182 24.164 20.9899 24.164 15.6515C24.164 10.3131 19.8358 5.98486 14.4974 5.98486ZM22.9557 5.98486C22.2887 5.98486 21.7474 6.5262 21.7474 7.1932C21.7474 7.8602 22.2887 8.40153 22.9557 8.40153C23.6227 8.40153 24.164 7.8602 24.164 7.1932C24.164 6.5262 23.6227 5.98486 22.9557 5.98486ZM14.4974 8.40153C18.5018 8.40153 21.7474 11.6471 21.7474 15.6515C21.7474 19.6559 18.5018 22.9015 14.4974 22.9015C10.4933 22.9015 7.24736 19.6559 7.24736 15.6515C7.24736 11.6471 10.4933 8.40153 14.4974 8.40153ZM14.4974 10.8182C13.8304 10.8182 13.289 11.3595 13.289 12.0265V15.6515C13.289 15.9717 13.4026 16.2931 13.6286 16.5203L16.0452 18.937C16.5177 19.4082 17.3104 19.4082 17.7828 18.937C18.2541 18.4645 18.2541 17.6719 17.7828 17.1994L15.7057 15.1223V12.0265C15.7057 11.3595 15.1644 10.8182 14.4974 10.8182Z" fill="url(#paint0_linear_2448_3034)"/>
<defs>
<linearGradient id="paint0_linear_2448_3034" x1="2.01857" y1="13.6224" x2="21.6143" y2="23.9841" gradientUnits="userSpaceOnUse">
<stop stop-color="#945FCF"/>
<stop offset="1" stop-color="#C19AE0"/>
</linearGradient>
</defs>
</svg>
