<svg width="30" height="30" viewBox="0 0 30 30" fill="none" xmlns="http://www.w3.org/2000/svg">
<path d="M14.9979 2.44141C12.2365 2.44141 9.99792 4.68003 9.99792 7.44141C9.99792 8.62553 10.481 9.81253 11.235 10.6982L11.2457 11.6835L4.4028 15.0989C4.04455 15.3264 3.74792 15.7402 3.74792 16.1914V21.1914C3.74792 21.6652 4.02755 22.1126 4.45105 22.3239L14.4504 27.3239C14.8029 27.5001 15.1929 27.5001 15.5454 27.3239L25.5454 22.3239C25.9679 22.1126 26.2479 21.6652 26.2479 21.1914V16.1914C26.2479 15.7402 25.9517 15.2764 25.5392 15.0727L18.7492 11.6763L18.7417 10.6969C19.5629 9.76253 19.9979 8.62553 19.9979 7.44141C19.9979 4.68003 17.7592 2.44141 14.9979 2.44141ZM14.9979 4.94141C16.3792 4.94141 17.4979 6.06066 17.4979 7.44141C17.4979 8.12578 17.1804 8.74391 16.6379 9.23828C16.3792 9.47515 16.2479 9.82415 16.2479 10.1758V13.6914C16.2479 14.3814 15.6879 14.9414 14.9979 14.9414C14.3079 14.9414 13.7479 14.3814 13.7479 13.6914V10.1758C13.7479 9.82415 13.6167 9.47515 13.3579 9.23828C12.8154 8.74391 12.4979 8.12578 12.4979 7.44141C12.4979 6.06066 13.6167 4.94141 14.9979 4.94141ZM11.3327 14.4327C11.6824 16.1414 13.1854 17.4414 14.9979 17.4414C16.8104 17.4414 18.3342 16.1639 18.6829 14.4552L22.2167 16.2002L14.9817 19.8002L7.77618 16.2052L11.3327 14.4327ZM6.24792 18.2227L14.4504 22.3239C14.8029 22.5002 15.1929 22.5002 15.5454 22.3239L23.7479 18.2227V20.4102L14.9979 24.7852L6.24792 20.4102V18.2227Z" fill="black"/>
<path d="M14.9979 2.44141C12.2365 2.44141 9.99792 4.68003 9.99792 7.44141C9.99792 8.62553 10.481 9.81253 11.235 10.6982L11.2457 11.6835L4.4028 15.0989C4.04455 15.3264 3.74792 15.7402 3.74792 16.1914V21.1914C3.74792 21.6652 4.02755 22.1126 4.45105 22.3239L14.4504 27.3239C14.8029 27.5001 15.1929 27.5001 15.5454 27.3239L25.5454 22.3239C25.9679 22.1126 26.2479 21.6652 26.2479 21.1914V16.1914C26.2479 15.7402 25.9517 15.2764 25.5392 15.0727L18.7492 11.6763L18.7417 10.6969C19.5629 9.76253 19.9979 8.62553 19.9979 7.44141C19.9979 4.68003 17.7592 2.44141 14.9979 2.44141ZM14.9979 4.94141C16.3792 4.94141 17.4979 6.06066 17.4979 7.44141C17.4979 8.12578 17.1804 8.74391 16.6379 9.23828C16.3792 9.47515 16.2479 9.82415 16.2479 10.1758V13.6914C16.2479 14.3814 15.6879 14.9414 14.9979 14.9414C14.3079 14.9414 13.7479 14.3814 13.7479 13.6914V10.1758C13.7479 9.82415 13.6167 9.47515 13.3579 9.23828C12.8154 8.74391 12.4979 8.12578 12.4979 7.44141C12.4979 6.06066 13.6167 4.94141 14.9979 4.94141ZM11.3327 14.4327C11.6824 16.1414 13.1854 17.4414 14.9979 17.4414C16.8104 17.4414 18.3342 16.1639 18.6829 14.4552L22.2167 16.2002L14.9817 19.8002L7.77618 16.2052L11.3327 14.4327ZM6.24792 18.2227L14.4504 22.3239C14.8029 22.5002 15.1929 22.5002 15.5454 22.3239L23.7479 18.2227V20.4102L14.9979 24.7852L6.24792 20.4102V18.2227Z" fill="url(#paint0_linear_2448_3037)"/>
<defs>
<linearGradient id="paint0_linear_2448_3037" x1="0.475199" y1="14.7128" x2="22.5995" y2="27.2084" gradientUnits="userSpaceOnUse">
<stop stop-color="#945FCF"/>
<stop offset="1" stop-color="#C19AE0"/>
</linearGradient>
</defs>
</svg>
