<svg width="62" height="40" viewBox="0 0 62 40" fill="none" xmlns="http://www.w3.org/2000/svg">
<g opacity="0.1">
<path d="M8.39065 39.7151C7.83905 39.7151 7.26967 39.7151 6.61131 39.6261C5.8158 39.5621 5.05568 39.2697 4.42223 38.7843C3.78877 38.2988 3.30891 37.6408 3.04024 36.8893C2.77158 36.1378 2.72553 35.3247 2.90764 34.5477C3.08975 33.7706 3.49226 33.0627 4.06686 32.5088C5.1032 31.5856 5.91813 30.4407 6.45107 29.1592C6.984 27.8777 7.22123 26.4926 7.14511 25.1068C4.3405 23.6411 2.14986 21.2241 0.966175 18.2893C-0.217514 15.3546 -0.316802 12.0941 0.686121 9.09273C1.32476 7.21034 2.40464 5.50814 3.83555 4.12838C5.60617 2.28517 7.86647 0.986089 10.3504 0.384013C12.8344 -0.218063 15.4386 -0.0980781 17.8567 0.729849C20.4763 1.61126 22.8014 3.19931 24.5755 5.31873C26.3495 7.43815 27.5035 10.0065 27.91 12.7404C28.7859 17.6545 28.0166 22.7204 25.7214 27.153V27.2953C20.241 35.9073 15.0098 39.7151 8.39065 39.7151ZM7.73229 35.249C11.6646 35.4447 16.0952 34.1102 21.8246 25C23.6233 21.493 24.2471 17.5008 23.604 13.6122C23.338 11.6499 22.5315 9.80015 21.2746 8.26987C20.0177 6.73958 18.3599 5.58904 16.4866 4.94687C14.8572 4.37361 13.0961 4.28707 11.4184 4.69782C9.74059 5.10858 8.21867 5.99886 7.03835 7.26001C6.10869 8.17228 5.41285 9.29538 5.00991 10.534C4.30072 12.6732 4.42979 15.0018 5.37107 17.0495C6.31234 19.0971 7.99566 20.7113 10.081 21.5659C10.4228 21.7027 10.7253 21.9223 10.9614 22.2049C11.1974 22.4875 11.3595 22.8243 11.4333 23.1851C11.8579 25.3452 11.7422 27.5768 11.0965 29.6814C10.4508 31.786 9.29519 33.6986 7.73229 35.249ZM41.6464 39.7151C41.077 39.7151 40.5255 39.7151 39.8671 39.6261C39.0716 39.5621 38.3115 39.2697 37.678 38.7843C37.0446 38.2988 36.5647 37.6408 36.296 36.8893C36.0274 36.1378 35.9813 35.3247 36.1634 34.5477C36.3455 33.7706 36.7481 33.0627 37.3227 32.5088C38.359 31.5856 39.1739 30.4407 39.7069 29.1592C40.2398 27.8777 40.477 26.4926 40.4009 25.1068C37.5988 23.6384 35.4105 21.2211 34.2271 18.2873C33.0438 15.3534 32.9427 12.0943 33.9419 9.09273C34.5706 7.21819 35.6312 5.51768 37.038 4.12838C38.8129 2.2803 41.0794 0.978385 43.57 0.37622C46.0606 -0.225946 48.6715 -0.103245 51.0947 0.729849C53.7164 1.60771 56.0436 3.19471 57.8182 5.31478C59.5928 7.43485 60.7453 10.0051 61.148 12.7404C62.0239 17.6545 61.2546 22.7204 58.9594 27.153C58.9626 27.2004 58.9626 27.2479 58.9594 27.2953C53.4968 35.9073 48.2478 39.7151 41.6464 39.7151ZM40.9703 35.249C44.9204 35.4447 49.3332 34.1102 55.0804 25C56.8939 21.4978 57.5184 17.5007 56.8598 13.6122C56.868 13.5532 56.868 13.4933 56.8598 13.4343C56.5826 11.4967 55.7692 9.67527 54.5116 8.17551C53.2539 6.67576 51.602 5.55746 49.7424 4.94687C48.113 4.37361 46.3519 4.28707 44.6742 4.69782C42.9964 5.10858 41.4745 5.99886 40.2941 7.26001C39.3765 8.17225 38.6981 9.29681 38.3191 10.534C37.6099 12.6732 37.739 15.0018 38.6802 17.0495C39.6215 19.0971 41.3048 20.7113 43.3902 21.5659C43.7278 21.7064 44.0259 21.9275 44.2586 22.2097C44.4912 22.4919 44.6512 22.8268 44.7247 23.1851C45.1458 25.3496 45.0232 27.5847 44.3679 29.6902C43.7127 31.7957 42.5453 33.7057 40.9703 35.249Z" fill="#7A808A"/>
</g>
</svg>
