<svg width="1490" height="75" viewBox="0 0 1490 75" fill="none" xmlns="http://www.w3.org/2000/svg">
<mask id="mask0_2650_18451" style="mask-type:alpha" maskUnits="userSpaceOnUse" x="0" y="0" width="1490" height="75">
<rect opacity="0.03" width="1490" height="75" rx="10" fill="#7A808A"/>
</mask>
<g mask="url(#mask0_2650_18451)">
<rect x="378.625" y="-846.007" width="18.5698" height="1164.83" transform="rotate(30.4531 378.625 -846.007)" fill="#7A808A"/>
<rect x="230.187" y="-933.277" width="18.5698" height="1164.83" transform="rotate(30.4531 230.187 -933.277)" fill="#7A808A"/>
<rect x="527.062" y="-758.731" width="18.5698" height="1164.83" transform="rotate(30.4531 527.062 -758.731)" fill="#7A808A"/>
<rect x="155.968" y="-976.913" width="18.5698" height="1164.83" transform="rotate(30.4531 155.968 -976.913)" fill="#7A808A"/>
<rect x="452.843" y="-802.37" width="18.5698" height="1164.83" transform="rotate(30.4531 452.843 -802.37)" fill="#7A808A"/>
<rect x="304.406" y="-889.64" width="18.5698" height="1164.83" transform="rotate(30.4531 304.406 -889.64)" fill="#7A808A"/>
<rect x="601.281" y="-715.095" width="18.5698" height="1164.83" transform="rotate(30.4531 601.281 -715.095)" fill="#7A808A"/>
<rect x="106.489" y="-1006.01" width="18.5698" height="1164.83" transform="rotate(30.4531 106.489 -1006.01)" fill="#7A808A"/>
<rect x="403.364" y="-831.46" width="18.5698" height="1164.83" transform="rotate(30.4531 403.364 -831.46)" fill="#7A808A"/>
<rect x="254.926" y="-918.73" width="18.5698" height="1164.83" transform="rotate(30.4531 254.926 -918.73)" fill="#7A808A"/>
<rect x="551.802" y="-744.188" width="18.5698" height="1164.83" transform="rotate(30.4531 551.802 -744.188)" fill="#7A808A"/>
<rect x="180.708" y="-962.367" width="18.5698" height="1164.83" transform="rotate(30.4531 180.708 -962.367)" fill="#7A808A"/>
<rect x="477.583" y="-787.824" width="18.5698" height="1164.83" transform="rotate(30.4531 477.583 -787.824)" fill="#7A808A"/>
<rect x="329.145" y="-875.094" width="18.5698" height="1164.83" transform="rotate(30.4531 329.145 -875.094)" fill="#7A808A"/>
<rect x="626.02" y="-700.549" width="18.5698" height="1164.83" transform="rotate(30.4531 626.02 -700.549)" fill="#7A808A"/>
<rect x="131.229" y="-991.459" width="18.5698" height="1164.83" transform="rotate(30.4531 131.229 -991.459)" fill="#7A808A"/>
<rect x="428.104" y="-816.914" width="18.5698" height="1164.83" transform="rotate(30.4531 428.104 -816.914)" fill="#7A808A"/>
<rect x="279.666" y="-904.187" width="18.5698" height="1164.83" transform="rotate(30.4531 279.666 -904.187)" fill="#7A808A"/>
<rect x="576.541" y="-729.641" width="18.5698" height="1164.83" transform="rotate(30.4531 576.541 -729.641)" fill="#7A808A"/>
<rect x="205.447" y="-947.823" width="18.5698" height="1164.83" transform="rotate(30.4531 205.447 -947.823)" fill="#7A808A"/>
<rect x="502.322" y="-773.278" width="18.5698" height="1164.83" transform="rotate(30.4531 502.322 -773.278)" fill="#7A808A"/>
<rect x="353.885" y="-860.548" width="18.5698" height="1164.83" transform="rotate(30.4531 353.885 -860.548)" fill="#7A808A"/>
<rect x="650.76" y="-686.005" width="18.5698" height="1164.83" transform="rotate(30.4531 650.76 -686.005)" fill="#7A808A"/>
<rect x="675.5" y="-671.459" width="18.5698" height="1164.83" transform="rotate(30.4531 675.5 -671.459)" fill="#7A808A"/>
<rect x="972.375" y="-496.911" width="18.5698" height="1164.83" transform="rotate(30.4531 972.375 -496.911)" fill="#7A808A"/>
<rect x="1269.25" y="-322.368" width="18.5698" height="1164.83" transform="rotate(30.4531 1269.25 -322.368)" fill="#7A808A"/>
<rect x="823.937" y="-584.186" width="18.5698" height="1164.83" transform="rotate(30.4531 823.937 -584.186)" fill="#7A808A"/>
<rect x="1120.81" y="-409.638" width="18.5698" height="1164.83" transform="rotate(30.4531 1120.81 -409.638)" fill="#7A808A"/>
<rect x="1417.69" y="-235.093" width="18.5698" height="1164.83" transform="rotate(30.4531 1417.69 -235.093)" fill="#7A808A"/>
<rect x="749.718" y="-627.822" width="18.5698" height="1164.83" transform="rotate(30.4531 749.718 -627.822)" fill="#7A808A"/>
<rect x="1046.59" y="-453.274" width="18.5698" height="1164.83" transform="rotate(30.4531 1046.59 -453.274)" fill="#7A808A"/>
<rect x="1343.47" y="-278.732" width="18.5698" height="1164.83" transform="rotate(30.4531 1343.47 -278.732)" fill="#7A808A"/>
<rect x="898.156" y="-540.55" width="18.5698" height="1164.83" transform="rotate(30.4531 898.156 -540.55)" fill="#7A808A"/>
<rect x="1195.03" y="-366.002" width="18.5698" height="1164.83" transform="rotate(30.4531 1195.03 -366.002)" fill="#7A808A"/>
<rect x="1491.91" y="-191.456" width="18.5698" height="1164.83" transform="rotate(30.4531 1491.91 -191.456)" fill="#7A808A"/>
<rect x="700.239" y="-656.91" width="18.5698" height="1164.83" transform="rotate(30.4531 700.239 -656.91)" fill="#7A808A"/>
<rect x="997.114" y="-482.367" width="18.5698" height="1164.83" transform="rotate(30.4531 997.114 -482.367)" fill="#7A808A"/>
<rect x="1293.99" y="-307.822" width="18.5698" height="1164.83" transform="rotate(30.4531 1293.99 -307.822)" fill="#7A808A"/>
<rect x="848.677" y="-569.64" width="18.5698" height="1164.83" transform="rotate(30.4531 848.677 -569.64)" fill="#7A808A"/>
<rect x="1145.55" y="-395.092" width="18.5698" height="1164.83" transform="rotate(30.4531 1145.55 -395.092)" fill="#7A808A"/>
<rect x="1442.43" y="-220.549" width="18.5698" height="1164.83" transform="rotate(30.4531 1442.43 -220.549)" fill="#7A808A"/>
<rect x="774.458" y="-613.276" width="18.5698" height="1164.83" transform="rotate(30.4531 774.458 -613.276)" fill="#7A808A"/>
<rect x="1071.33" y="-438.728" width="18.5698" height="1164.83" transform="rotate(30.4531 1071.33 -438.728)" fill="#7A808A"/>
<rect x="1368.21" y="-264.185" width="18.5698" height="1164.83" transform="rotate(30.4531 1368.21 -264.185)" fill="#7A808A"/>
<rect x="922.896" y="-526.003" width="18.5698" height="1164.83" transform="rotate(30.4531 922.896 -526.003)" fill="#7A808A"/>
<rect x="1219.77" y="-351.455" width="18.5698" height="1164.83" transform="rotate(30.4531 1219.77 -351.455)" fill="#7A808A"/>
<rect x="1516.65" y="-176.91" width="18.5698" height="1164.83" transform="rotate(30.4531 1516.65 -176.91)" fill="#7A808A"/>
<rect x="724.979" y="-642.369" width="18.5698" height="1164.83" transform="rotate(30.4531 724.979 -642.369)" fill="#7A808A"/>
<rect x="1021.85" y="-467.821" width="18.5698" height="1164.83" transform="rotate(30.4531 1021.85 -467.821)" fill="#7A808A"/>
<rect x="1318.73" y="-293.275" width="18.5698" height="1164.83" transform="rotate(30.4531 1318.73 -293.275)" fill="#7A808A"/>
<rect x="873.416" y="-555.093" width="18.5698" height="1164.83" transform="rotate(30.4531 873.416 -555.093)" fill="#7A808A"/>
<rect x="1170.29" y="-380.548" width="18.5698" height="1164.83" transform="rotate(30.4531 1170.29 -380.548)" fill="#7A808A"/>
<rect x="1467.17" y="-206.003" width="18.5698" height="1164.83" transform="rotate(30.4531 1467.17 -206.003)" fill="#7A808A"/>
<rect x="799.197" y="-598.73" width="18.5698" height="1164.83" transform="rotate(30.4531 799.197 -598.73)" fill="#7A808A"/>
<rect x="1096.07" y="-424.184" width="18.5698" height="1164.83" transform="rotate(30.4531 1096.07 -424.184)" fill="#7A808A"/>
<rect x="1392.95" y="-249.639" width="18.5698" height="1164.83" transform="rotate(30.4531 1392.95 -249.639)" fill="#7A808A"/>
<rect x="947.635" y="-511.457" width="18.5698" height="1164.83" transform="rotate(30.4531 947.635 -511.457)" fill="#7A808A"/>
<rect x="1244.51" y="-336.909" width="18.5698" height="1164.83" transform="rotate(30.4531 1244.51 -336.909)" fill="#7A808A"/>
<rect x="1541.39" y="-162.366" width="18.5698" height="1164.83" transform="rotate(30.4531 1541.39 -162.366)" fill="#7A808A"/>
<rect x="1566.13" y="-147.823" width="18.5698" height="1164.83" transform="rotate(30.4531 1566.13 -147.823)" fill="#7A808A"/>
<rect x="1863" y="26.7245" width="18.5698" height="1164.83" transform="rotate(30.4531 1863 26.7245)" fill="#7A808A"/>
<rect x="1714.56" y="-60.5507" width="18.5698" height="1164.83" transform="rotate(30.4531 1714.56 -60.5507)" fill="#7A808A"/>
<rect x="1640.34" y="-104.187" width="18.5698" height="1164.83" transform="rotate(30.4531 1640.34 -104.187)" fill="#7A808A"/>
<rect x="1937.22" y="70.3609" width="18.5698" height="1164.83" transform="rotate(30.4531 1937.22 70.3609)" fill="#7A808A"/>
<rect x="1788.78" y="-16.9144" width="18.5698" height="1164.83" transform="rotate(30.4531 1788.78 -16.9144)" fill="#7A808A"/>
<rect x="1590.86" y="-133.274" width="18.5698" height="1164.83" transform="rotate(30.4531 1590.86 -133.274)" fill="#7A808A"/>
<rect x="1887.74" y="41.2682" width="18.5698" height="1164.83" transform="rotate(30.4531 1887.74 41.2682)" fill="#7A808A"/>
<rect x="1739.3" y="-46.0044" width="18.5698" height="1164.83" transform="rotate(30.4531 1739.3 -46.0044)" fill="#7A808A"/>
<rect x="1665.08" y="-89.6407" width="18.5698" height="1164.83" transform="rotate(30.4531 1665.08 -89.6407)" fill="#7A808A"/>
<rect x="1813.52" y="-2.36809" width="18.5698" height="1164.83" transform="rotate(30.4531 1813.52 -2.36809)" fill="#7A808A"/>
<rect x="1615.6" y="-118.733" width="18.5698" height="1164.83" transform="rotate(30.4531 1615.6 -118.733)" fill="#7A808A"/>
<rect x="1912.48" y="55.8146" width="18.5698" height="1164.83" transform="rotate(30.4531 1912.48 55.8146)" fill="#7A808A"/>
<rect x="1764.04" y="-31.4581" width="18.5698" height="1164.83" transform="rotate(30.4531 1764.04 -31.4581)" fill="#7A808A"/>
<rect x="1689.82" y="-75.0944" width="18.5698" height="1164.83" transform="rotate(30.4531 1689.82 -75.0944)" fill="#7A808A"/>
<rect x="1838.26" y="12.1782" width="18.5698" height="1164.83" transform="rotate(30.4531 1838.26 12.1782)" fill="#7A808A"/>
</g>
</svg>
