<svg width="13" height="13" viewBox="0 0 13 13" fill="none" xmlns="http://www.w3.org/2000/svg">
<path d="M11.1583 2.15423C9.97137 0.967339 8.3752 0.3125 6.65625 0.3125V3.17742C7.59758 3.17742 8.45706 3.54577 9.1119 4.2006C9.76673 4.85544 10.1351 5.75585 10.1351 6.65625H13C13 4.97823 12.3452 3.34113 11.1583 2.15423Z" fill="#FDDD56"/>
<path d="M2.15423 2.15423C0.967339 3.34113 0.3125 4.9373 0.3125 6.65625H3.17742C3.17742 5.71492 3.54577 4.85544 4.2006 4.2006C4.85544 3.54577 5.75585 3.17742 6.65625 3.17742V0.3125C4.97823 0.3125 3.34113 0.967339 2.15423 2.15423Z" fill="#70CADB"/>
<path d="M4.2006 9.1119C3.54577 8.45706 3.17742 7.55665 3.17742 6.65625H0.3125C0.3125 8.33427 0.967339 9.97137 2.15423 11.1583C3.34113 12.3452 4.9373 13 6.65625 13V10.1351C5.71492 10.1351 4.85544 9.76673 4.2006 9.1119Z" fill="#B9D34C"/>
<path d="M10.1351 6.65625C10.1351 7.59758 9.76673 8.45706 9.1119 9.1119C8.45706 9.76673 7.55665 10.1351 6.65625 10.1351V13C8.33427 13 9.97137 12.3452 11.1583 11.1583C12.3452 9.97137 13 8.3752 13 6.65625H10.1351Z" fill="#EE654B"/>
<path d="M6.65436 0.3125V3.17742C5.71303 3.17742 4.85355 3.54577 4.19871 4.2006L2.15234 2.15423C3.33924 0.967339 4.97634 0.3125 6.65436 0.3125Z" fill="#9E61A4"/>
<path d="M4.2006 4.20061C3.54577 4.85545 3.17742 5.75585 3.17742 6.65625H0.3125C0.3125 4.97823 0.967339 3.34113 2.15423 2.15424L4.2006 4.20061Z" fill="#70CADB"/>
<path d="M4.2006 9.1119L2.15423 11.1583C0.967339 9.97137 0.3125 8.3752 0.3125 6.65625H3.17742C3.17742 7.59758 3.54577 8.45706 4.2006 9.1119Z" fill="#55BB8C"/>
<path d="M6.65436 10.1351V13C4.97634 13 3.33924 12.3452 2.15234 11.1583L4.15779 9.11191C4.85355 9.76675 5.71303 10.1351 6.65436 10.1351Z" fill="#B9D34C"/>
<path d="M11.1583 11.1583C9.97137 12.3452 8.3752 13 6.65625 13V10.1351C7.59758 10.1351 8.45706 9.76675 9.1119 9.11191L11.1583 11.1583Z" fill="#ED4569"/>
<path d="M13.0014 6.65625C13.0014 8.33427 12.3465 9.97137 11.1597 11.1583L9.11328 9.1119C9.76812 8.45706 10.1365 7.55665 10.1365 6.65625H13.0014Z" fill="#EE654B"/>
<path d="M13.0014 6.65625H10.1365C10.1365 5.71492 9.76812 4.85545 9.11328 4.20061L11.1597 2.15424C12.3465 3.34113 13.0014 4.97823 13.0014 6.65625Z" fill="#F8A839"/>
<path d="M11.1583 2.15423L9.1119 4.2006C8.45706 3.54577 7.55665 3.17742 6.65625 3.17742V0.3125C8.33427 0.3125 9.97137 0.967339 11.1583 2.15423Z" fill="#FDDD56"/>
</svg>
