<svg width="36" height="18" viewBox="0 0 36 18" fill="none" xmlns="http://www.w3.org/2000/svg">
<path d="M3.02801 2.42739C3.30211 1.01772 4.53678 0 5.97285 0H32.3605C34.2471 0 35.6654 1.7207 35.3053 3.57261L32.972 15.5726C32.6979 16.9823 31.4632 18 30.0271 18H3.63952C1.75292 18 0.33458 16.2793 0.694674 14.4274L3.02801 2.42739Z" fill="#C4C4C4"/>
<path d="M3.02801 2.42739C3.30211 1.01772 4.53678 0 5.97285 0H32.3605C34.2471 0 35.6654 1.7207 35.3053 3.57261L32.972 15.5726C32.6979 16.9823 31.4632 18 30.0271 18H3.63952C1.75292 18 0.33458 16.2793 0.694674 14.4274L3.02801 2.42739Z" fill="url(#paint0_linear_55_895)"/>
<path d="M3.02801 2.42739C3.30211 1.01772 4.53678 0 5.97285 0H32.3605C34.2471 0 35.6654 1.7207 35.3053 3.57261L32.972 15.5726C32.6979 16.9823 31.4632 18 30.0271 18H3.63952C1.75292 18 0.33458 16.2793 0.694674 14.4274L3.02801 2.42739Z" fill="url(#paint1_linear_55_895)"/>
<path d="M11.7979 13L9.2002 5.99805H10.8018L12.5986 11.1982L14.4004 5.99805H16.002L13.3994 13H11.7979ZM17.0957 13V5.99805H18.5996V13H17.0957ZM20.3965 5.99805H23.3457C24.0651 5.99805 24.6608 6.22428 25.1328 6.67676C25.6081 7.12598 25.8457 7.68424 25.8457 8.35156C25.8457 9.01562 25.6097 9.57389 25.1377 10.0264C24.6657 10.4756 24.0684 10.7002 23.3457 10.7002H21.9004V13H20.3965V5.99805ZM23.2969 7.35059H21.9004V9.34766H23.2969C23.5964 9.34766 23.8454 9.25163 24.0439 9.05957C24.2458 8.86751 24.3467 8.63151 24.3467 8.35156C24.3467 8.07161 24.2458 7.83561 24.0439 7.64355C23.8454 7.44824 23.5964 7.35059 23.2969 7.35059Z" fill="white"/>
<defs>
<linearGradient id="paint0_linear_55_895" x1="2.68589" y1="0.993277" x2="7.17784" y2="24.0021" gradientUnits="userSpaceOnUse">
<stop stop-color="#3A7EFB"/>
<stop offset="1" stop-color="#5E8BFE"/>
</linearGradient>
<linearGradient id="paint1_linear_55_895" x1="42" y1="9" x2="1.80245e-08" y2="9" gradientUnits="userSpaceOnUse">
<stop stop-color="#FD283E"/>
<stop offset="1" stop-color="#CA056C"/>
</linearGradient>
</defs>
</svg>
