<svg width="36" height="45" viewBox="0 0 36 45" fill="none" xmlns="http://www.w3.org/2000/svg">
<path d="M11.25 11.25C11.25 7.425 14.175 4.5 18 4.5C21.825 4.5 24.75 7.425 24.75 11.25V15.75H29.25V11.25C29.25 4.95 24.3 0 18 0C11.7 0 6.75 4.95 6.75 11.25V15.75H11.25V11.25ZM21.375 28.125C21.375 26.325 19.8 24.75 18 24.75C16.2 24.75 14.625 26.325 14.625 28.125C14.625 29.025 15.075 29.925 15.75 30.6V33.75C15.75 35.1 16.65 36 18 36C19.35 36 20.25 35.1 20.25 33.75V30.6C20.925 29.925 21.375 29.025 21.375 28.125Z" fill="#DEE2EF"/>
<path d="M29.25 15.75H6.75C2.925 15.75 0 18.675 0 22.5V38.25C0 42.075 2.925 45 6.75 45H29.25C33.075 45 36 42.075 36 38.25V22.5C36 18.675 33.075 15.75 29.25 15.75ZM20.25 30.6V33.75C20.25 35.1 19.35 36 18 36C16.65 36 15.75 35.1 15.75 33.75V30.6C15.075 29.925 14.625 29.025 14.625 28.125C14.625 26.325 16.2 24.75 18 24.75C19.8 24.75 21.375 26.325 21.375 28.125C21.375 29.025 20.925 29.925 20.25 30.6Z" fill="#4B4B4B"/>
</svg>
