<svg width="16" height="16" viewBox="0 0 16 16" fill="none" xmlns="http://www.w3.org/2000/svg">
<path fill-rule="evenodd" clip-rule="evenodd" d="M1 0.209229C1.55228 0.209229 2 0.656944 2 1.20923V1.29091C2 1.8432 1.55228 2.29091 1 2.29091C0.447715 2.29091 0 1.8432 0 1.29091V1.20923C0 0.656944 0.447715 0.209229 1 0.209229ZM1 8.45923C1.55228 8.45923 2 8.90695 2 9.45923V9.50007L2.00012 9.53149C2.00435 10.0838 1.56007 10.5349 1.0078 10.5391C0.455535 10.5433 0.00440592 10.0991 0.000178814 9.5468L0 9.50007V9.45923C0 8.90695 0.447715 8.45923 1 8.45923ZM4.96095 14.4923C4.96518 13.94 5.41631 13.4957 5.96858 13.4999L6 13.5001H6.0396C6.59189 13.5001 7.0396 13.9478 7.0396 14.5001C7.0396 15.0524 6.59189 15.5001 6.0396 15.5001H6L5.95327 15.4999C5.401 15.4957 4.95673 15.0445 4.96095 14.4923ZM12.9604 14.5001C12.9604 13.9478 13.4081 13.5001 13.9604 13.5001H14.0396C14.5919 13.5001 15.0396 13.9478 15.0396 14.5001C15.0396 15.0524 14.5919 15.5001 14.0396 15.5001H13.9604C13.4081 15.5001 12.9604 15.0524 12.9604 14.5001Z" fill="#C5C5C5"/>
</svg>
