<svg width="10" height="8" viewBox="0 0 10 8" fill="none" xmlns="http://www.w3.org/2000/svg">
<path d="M3.75098 7.49995C3.671 7.49969 3.59192 7.48299 3.51867 7.45087C3.44541 7.41876 3.37954 7.37193 3.32515 7.31328L0.490151 4.29745C0.384175 4.18451 0.327404 4.0341 0.332327 3.8793C0.337249 3.72451 0.403463 3.57801 0.516401 3.47203C0.629339 3.36606 0.77975 3.30928 0.934546 3.31421C1.08934 3.31913 1.23584 3.38534 1.34182 3.49828L3.74515 6.05911L8.65098 0.692448C8.70077 0.630453 8.7627 0.57929 8.83298 0.542101C8.90326 0.504913 8.9804 0.482485 9.05966 0.476194C9.13892 0.469903 9.21863 0.479883 9.2939 0.505519C9.36916 0.531156 9.43839 0.571909 9.49733 0.625274C9.55627 0.67864 9.60368 0.743492 9.63665 0.815848C9.66961 0.888203 9.68744 0.966534 9.68903 1.04603C9.69062 1.12552 9.67594 1.2045 9.6459 1.27812C9.61585 1.35174 9.57108 1.41843 9.51432 1.47411L4.18265 7.30745C4.12878 7.36716 4.06313 7.41508 3.98985 7.4482C3.91657 7.48133 3.83723 7.49895 3.75682 7.49995H3.75098Z" fill="white"/>
</svg>
