<svg width="14" height="14" viewBox="0 0 14 14" fill="none" xmlns="http://www.w3.org/2000/svg">
<path d="M0.294315 8.01691C0.349815 8.03941 0.407814 8.04991 0.465314 8.04991C0.627814 8.04991 0.787813 7.96341 0.875313 7.81791C0.888313 7.79591 2.52931 5.62192 5.77429 5.62192C6.59229 5.62192 7.44529 5.76392 8.31528 6.04392V7.28341C8.31528 7.45891 8.41278 7.61891 8.56878 7.69891C8.72378 7.77841 8.91178 7.76441 9.05428 7.66291L13.8053 4.25493C13.9273 4.16693 13.9998 4.02593 13.9998 3.87543C13.9998 3.72493 13.9273 3.58393 13.8048 3.49643L9.05378 0.0874438C8.91128 -0.0145558 8.72328 -0.0285557 8.56828 0.051944C8.41228 0.131444 8.31478 0.291443 8.31478 0.466942V1.62544C7.95428 1.59144 7.60279 1.57394 7.26329 1.57394C1.77331 1.57394 0.333815 6.05992 0.023316 7.43441L0.0123161 7.48591C-0.0406837 7.70941 0.0818158 7.92941 0.294315 8.01691ZM7.26379 2.50743C7.72529 2.50743 8.21378 2.54243 8.71728 2.61243C8.85078 2.63193 8.98578 2.59093 9.08778 2.50193C9.18978 2.41343 9.24778 2.28493 9.24778 2.15044V1.37644L12.7318 3.87543L9.24778 6.37442V5.71042C9.24778 5.51292 9.12378 5.33742 8.93828 5.27092C7.86079 4.88492 6.79579 4.68893 5.77379 4.68893C3.9083 4.68893 2.47181 5.32992 1.50281 5.99292C2.27681 4.37343 3.8988 2.50743 7.26379 2.50743Z" fill="white"/>
<path d="M13.7049 5.98242C13.4934 5.89642 13.2434 5.98442 13.1244 6.18092C13.1114 6.20292 11.4715 8.37691 8.22547 8.37691C7.40747 8.37691 6.55447 8.23541 5.68448 7.95491V6.71592C5.68448 6.54042 5.58698 6.38042 5.43098 6.30042C5.27548 6.22042 5.08798 6.23442 4.94548 6.33642L0.194999 9.74491C0.0724998 9.83291 0 9.97391 0 10.1244C0 10.2749 0.0724998 10.4159 0.194999 10.5034L4.94598 13.9124C5.02698 13.9699 5.12198 13.9999 5.21848 13.9999C5.29148 13.9999 5.36398 13.9829 5.43148 13.9479C5.58748 13.8684 5.68498 13.7084 5.68498 13.5329V12.3739C6.04548 12.4079 6.39697 12.4254 6.73647 12.4254C6.73697 12.4254 6.73697 12.4254 6.73747 12.4254C12.227 12.4254 13.6659 7.93941 13.9769 6.56442L13.9879 6.51292C14.0404 6.28992 13.9179 6.06942 13.7049 5.98242ZM6.73697 11.4919C6.73647 11.4919 6.73647 11.4919 6.73597 11.4919C6.27448 11.4919 5.78598 11.4569 5.28248 11.3869C5.14948 11.3679 5.01398 11.4084 4.91198 11.4974C4.80998 11.5859 4.75198 11.7144 4.75198 11.8489V12.6229L1.2685 10.1244L4.75198 7.62541V8.28891C4.75198 8.48641 4.87598 8.66191 5.06148 8.72841C6.13948 9.11441 7.20397 9.31041 8.22597 9.31041C10.0915 9.31041 11.528 8.66991 12.4965 8.00691C11.7225 9.62641 10.1005 11.4919 6.73697 11.4919Z" fill="white"/>
</svg>
