<svg width="18" height="18" viewBox="0 0 18 18" fill="none" xmlns="http://www.w3.org/2000/svg">
<path d="M6.02131 1.51074C4.28806 1.51074 3.00481 2.67624 2.99806 4.51073C2.99656 4.99823 3.14356 5.50449 3.41956 6.05724C3.63631 6.49074 3.92056 6.93697 4.26406 7.39372C4.52431 7.74022 4.80631 8.07023 5.08381 8.37773C5.15806 8.46023 5.18956 8.50298 5.24806 8.56523V9.45622C5.18956 9.51847 5.15806 9.56122 5.08381 9.64372C4.80631 9.95122 4.52431 10.2812 4.26406 10.6277C3.92056 11.0845 3.63631 11.5307 3.41956 11.9642C3.14356 12.517 2.99656 13.0232 2.99806 13.5107C3.00481 15.3452 4.28806 16.5107 6.02131 16.5107H12.0213C13.7523 16.5107 15.0048 15.349 14.9981 13.5107C14.9966 13.0255 14.8518 12.5155 14.5766 11.9642C14.3606 11.5337 14.0726 11.0822 13.7321 10.6277C13.4718 10.2797 13.1898 9.95272 12.9123 9.64372C12.8381 9.56122 12.8066 9.51847 12.7481 9.45622V8.56523C12.8066 8.50298 12.8381 8.46023 12.9123 8.37773C13.1898 8.06873 13.4718 7.74172 13.7321 7.39372C14.0726 6.93922 14.3606 6.48774 14.5766 6.05724C14.8526 5.50599 14.9966 4.99598 14.9981 4.51073C15.0048 2.67249 13.7523 1.51074 12.0213 1.51074H6.02131ZM6.02131 3.01074H12.0213C12.9468 3.01074 13.5018 3.52974 13.4981 4.51073C13.4973 4.72823 13.3983 5.03872 13.2168 5.40172C13.0458 5.74297 12.8043 6.11498 12.5141 6.50273C12.2823 6.81248 12.0371 7.11547 11.7873 7.39372C11.6381 7.55947 11.5203 7.65998 11.4588 7.72148C11.3186 7.86248 11.2481 8.06198 11.2481 8.26073V9.76072C11.2481 9.95947 11.3186 10.159 11.4588 10.3C11.5203 10.3615 11.6381 10.462 11.7873 10.6277C12.0371 10.906 12.2823 11.209 12.5141 11.5187C12.8043 11.9065 13.0458 12.2785 13.2168 12.6197C13.3983 12.9827 13.4973 13.2932 13.4981 13.5107C13.5018 14.4917 12.9468 15.0107 12.0213 15.0107H6.02131C5.08456 15.0107 4.50181 14.4857 4.49806 13.5107C4.49731 13.2947 4.59856 12.9812 4.77931 12.6197C4.95031 12.2777 5.19032 11.908 5.48207 11.5187C5.71382 11.2105 5.95906 10.9045 6.20881 10.6277C6.35806 10.4627 6.47581 10.3607 6.53731 10.3C6.67831 10.159 6.74806 9.96022 6.74806 9.76072V8.26073C6.74806 8.06123 6.67831 7.86248 6.53731 7.72148C6.47581 7.66073 6.35806 7.55872 6.20881 7.39372C5.95906 7.11697 5.71382 6.81098 5.48207 6.50273C5.18957 6.11348 4.95031 5.74372 4.77931 5.40172C4.59856 5.04022 4.49731 4.72673 4.49806 4.51073C4.50181 3.53574 5.08456 3.01074 6.02131 3.01074ZM6.81856 6.01073C7.51756 6.88073 8.24806 7.20848 8.24806 8.26073C8.24806 9.76072 8.24806 9.30997 8.24806 9.76072C8.24806 11.2607 6.74806 11.2607 5.99806 13.5107H11.9981C11.2481 11.2607 9.74806 11.2607 9.74806 9.76072C9.74806 9.47722 9.74806 9.01072 9.74806 8.26073C9.74806 7.20773 10.4778 6.88223 11.1776 6.01073C10.4891 5.99873 7.50556 5.99723 6.81856 6.01073Z" fill="#7BC93A"/>
</svg>
