<svg width="62" height="62" viewBox="0 0 62 62" fill="none" xmlns="http://www.w3.org/2000/svg">
<path d="M16 2H21L19 5H14L16 2Z" fill="#824FBA"/>
<path d="M57 43L57 48L60 46L60 41L57 43Z" fill="#A77DC9"/>
<path fill-rule="evenodd" clip-rule="evenodd" d="M60 46.0062L15.9938 2H38.0063L60 23.9937V46.0062Z" fill="#C4C4C4"/>
<path fill-rule="evenodd" clip-rule="evenodd" d="M60 46.0062L15.9938 2H38.0063L60 23.9937V46.0062Z" fill="url(#paint0_linear_26_2)"/>
<path d="M39.068 11.6304L40.0082 12.5705L36.5424 16.0363L35.7303 15.2243L36.1726 11.8044L34.2415 13.7355L33.3014 12.7953L36.7672 9.32951L37.5841 10.1464L37.137 13.5614L39.068 11.6304ZM39.0704 16.9789L40.8517 18.7601L40.0589 19.5529L37.3376 16.8315L40.8033 13.3657L43.4764 16.0387L42.6837 16.8315L40.9508 15.0986L40.407 15.6424L41.7435 16.9789L40.9991 17.7233L39.6626 16.3868L39.0704 16.9789ZM44.9338 20.4205L42.2873 21.7812L41.4462 20.9401L43.7713 16.3336L44.7863 17.3487L43.2758 20.0483L45.9996 18.5619L46.7923 19.3547L45.306 22.0785L48.0056 20.5679L49.0183 21.5806L44.4141 23.9081L43.5731 23.067L44.9338 20.4205ZM48.4987 25.8657C48.5615 25.8029 48.5865 25.7183 48.5736 25.612C48.5607 25.5056 48.522 25.3896 48.4576 25.2639C48.3947 25.1399 48.3222 25.0029 48.24 24.8531C48.1611 24.7032 48.091 24.5445 48.0298 24.3769C47.9702 24.211 47.9299 24.0434 47.9089 23.8742C47.8896 23.7067 47.913 23.5302 47.979 23.3449C48.0451 23.1596 48.1603 22.9848 48.3246 22.8205C48.6082 22.5369 48.9788 22.4112 49.4364 22.4434C49.8972 22.4757 50.3194 22.6835 50.7028 23.067C50.8607 23.2249 50.9921 23.3917 51.0968 23.5673C51.2031 23.7413 51.2764 23.8968 51.3167 24.0337C51.3586 24.1723 51.3892 24.2996 51.4086 24.4156C51.4295 24.53 51.4343 24.6186 51.4231 24.6815L51.4206 24.7757L50.3041 24.7999C50.3073 24.7644 50.3073 24.7161 50.3041 24.6549C50.3041 24.5936 50.2799 24.4873 50.2315 24.3358C50.1848 24.186 50.1107 24.0603 50.0092 23.9588C49.9029 23.8525 49.7844 23.7937 49.6539 23.7824C49.5234 23.7711 49.4187 23.8049 49.3397 23.8839C49.2769 23.9467 49.2519 24.0313 49.2648 24.1377C49.2793 24.2424 49.3172 24.3576 49.3784 24.4833C49.4428 24.609 49.5137 24.7459 49.5911 24.8941C49.6716 25.0424 49.7425 25.2003 49.8038 25.3679C49.8666 25.537 49.9077 25.7054 49.927 25.873C49.948 26.0422 49.9254 26.2194 49.8594 26.4047C49.7933 26.59 49.6781 26.7648 49.5137 26.9291C49.1931 27.2498 48.7967 27.3932 48.3246 27.3594C47.8525 27.3255 47.407 27.0991 46.9881 26.6802C46.8173 26.5094 46.6731 26.3233 46.5555 26.1219C46.4379 25.9237 46.3565 25.7441 46.3114 25.583C46.2679 25.4234 46.2357 25.2752 46.2147 25.1382C46.1938 25.0013 46.1857 24.8933 46.1905 24.8144L46.1978 24.7008L47.3096 24.6766C47.3063 24.6927 47.3047 24.7169 47.3047 24.7491C47.3063 24.783 47.3096 24.8458 47.3144 24.9376C47.3208 25.0311 47.3345 25.1221 47.3555 25.2108C47.378 25.2978 47.4175 25.3952 47.4739 25.5032C47.5303 25.6111 47.5996 25.7062 47.6818 25.7884C47.8139 25.9205 47.9573 25.9914 48.112 26.0011C48.2682 26.0123 48.3971 25.9672 48.4987 25.8657Z" fill="white"/>
<defs>
<linearGradient id="paint0_linear_26_2" x1="18.2668" y1="4.42835" x2="54.8269" y2="46.4573" gradientUnits="userSpaceOnUse">
<stop stop-color="#945FCF"/>
<stop offset="1" stop-color="#C19AE0"/>
</linearGradient>
</defs>
</svg>
