<svg width="17" height="17" viewBox="0 0 17 17" fill="none" xmlns="http://www.w3.org/2000/svg">
<path d="M5.66504 15.5732C7.5842 15.5732 8.772 15.0654 9.18461 13.6473C9.27754 13.3278 9.31862 12.9722 9.33952 12.5848C9.36169 12.1733 9.34349 11.7596 9.30318 11.3353L12.04 11.3232C13.2137 11.3232 14.165 10.372 14.165 9.19825C14.165 8.67975 13.9386 8.17897 13.5942 7.79788C13.9583 7.41609 14.165 6.93371 14.165 6.36492C14.165 5.7855 13.8653 5.22238 13.4428 4.82571C13.4428 4.65217 13.4567 4.35042 13.4567 4.23992C13.4567 2.9373 12.7981 2.10217 11.6416 1.71684C10.876 1.46113 10.1771 1.40659 8.49837 1.40659C5.27383 1.40659 2.83171 3.84892 2.83171 7.07325C2.83171 8.68329 3.1188 9.59562 3.96065 11.2793C4.71254 12.7831 4.95671 13.5233 4.95671 14.8649C4.95671 15.2559 5.27383 15.5732 5.66504 15.5732ZM6.34823 14.1275C6.24935 12.9963 5.92514 12.0203 5.24443 10.6588C4.49254 9.15505 4.24837 8.41483 4.24837 7.07325C4.24837 4.63092 6.05625 2.82326 8.49837 2.82326C11.2965 2.82326 12.04 3.07117 12.04 4.23992C11.9312 4.23992 11.4207 4.23992 11.3317 4.23992C10.9405 4.23992 10.6234 4.55726 10.6234 4.94826C10.6234 5.33926 10.9405 5.65659 11.3317 5.65659C11.4207 5.65659 11.9312 5.65659 12.04 5.65659C12.3631 5.65659 12.7484 6.03909 12.7484 6.36492C12.7484 6.75592 12.4313 7.07325 12.04 7.07325C11.9354 7.07325 11.4205 7.07325 11.3317 7.07325C10.9405 7.07325 10.6234 7.39059 10.6234 7.78159C10.6234 8.17259 10.9405 8.48992 11.3317 8.48992C11.4205 8.48992 11.9354 8.48992 12.04 8.48992C12.3687 8.48992 12.7484 8.86463 12.7484 9.19825C12.7484 9.58925 12.4313 9.90658 12.04 9.90658H8.49837C8.466 9.90658 8.17884 9.90871 7.94502 10.1942C7.71113 10.4803 7.80917 10.7325 7.81214 10.7481C7.82737 10.826 7.85365 10.9677 7.87858 11.1681C7.93468 11.6193 7.94538 12.0783 7.92285 12.4963C7.90741 12.7831 7.87185 13.0438 7.81214 13.2492C7.66261 13.7634 7.22769 14.0801 6.34823 14.1275Z" fill="#C93A3A"/>
</svg>
