<svg width="17" height="17" viewBox="0 0 17 17" fill="none" xmlns="http://www.w3.org/2000/svg">
<path d="M8.5101 1.41577C4.59797 1.41577 1.42676 4.58698 1.42676 8.4991C1.42676 12.4112 4.59797 15.5824 8.5101 15.5824C12.4222 15.5824 15.5934 12.4112 15.5934 8.4991C15.5934 4.58698 12.4222 1.41577 8.5101 1.41577ZM8.5101 2.83244C11.6395 2.83244 14.1768 5.36969 14.1768 8.4991C14.1768 11.6285 11.6395 14.1658 8.5101 14.1658C5.38068 14.1658 2.84343 11.6285 2.84343 8.4991C2.84343 5.36969 5.38068 2.83244 8.5101 2.83244ZM6.3851 6.3741C5.9941 6.3741 5.67676 6.69144 5.67676 7.08244V7.79077C5.67676 8.18177 5.9941 8.4991 6.3851 8.4991C6.7761 8.4991 7.09343 8.18177 7.09343 7.79077V7.08244C7.09343 6.69144 6.7761 6.3741 6.3851 6.3741ZM10.6351 6.3741C10.2441 6.3741 9.92677 6.69144 9.92677 7.08244V7.79077C9.92677 8.18177 10.2441 8.4991 10.6351 8.4991C11.0261 8.4991 11.3434 8.18177 11.3434 7.79077V7.08244C11.3434 6.69144 11.0261 6.3741 10.6351 6.3741ZM6.3851 9.91577C5.9941 9.91577 5.67676 10.2331 5.67676 10.6241C5.67676 11.0151 5.9941 11.3324 6.3851 11.3324H10.6351C11.0261 11.3324 11.3434 11.0151 11.3434 10.6241C11.3434 10.2331 11.0261 9.91577 10.6351 9.91577H6.3851Z" fill="#EDB423"/>
</svg>
