<svg width="17" height="17" viewBox="0 0 17 17" fill="none" xmlns="http://www.w3.org/2000/svg">
<path d="M5.66504 1.42676C7.5842 1.42676 8.772 1.93463 9.18461 3.35271C9.27754 3.67217 9.31862 4.02775 9.33952 4.41521C9.36169 4.82675 9.34349 5.24042 9.30318 5.66471L12.04 5.67675C13.2137 5.67675 14.165 6.62804 14.165 7.80175C14.165 8.32025 13.9386 8.82103 13.5942 9.20212C13.9583 9.58391 14.165 10.0663 14.165 10.6351C14.165 11.2145 13.8653 11.7776 13.4428 12.1743C13.4428 12.3478 13.4567 12.6496 13.4567 12.7601C13.4567 14.0627 12.7981 14.8978 11.6416 15.2832C10.876 15.5389 10.1771 15.5934 8.49837 15.5934C5.27383 15.5934 2.83171 13.1511 2.83171 9.92675C2.83171 8.31671 3.1188 7.40438 3.96065 5.72068C4.71254 4.21689 4.95671 3.47667 4.95671 2.13509C4.95671 1.74409 5.27383 1.42676 5.66504 1.42676ZM6.34823 2.87245C6.24935 4.00366 5.92514 4.97974 5.24443 6.34116C4.49254 7.84495 4.24837 8.58517 4.24837 9.92675C4.24837 12.3691 6.05625 14.1767 8.49837 14.1767C11.2965 14.1767 12.04 13.9288 12.04 12.7601C11.9312 12.7601 11.4207 12.7601 11.3317 12.7601C10.9405 12.7601 10.6234 12.4427 10.6234 12.0517C10.6234 11.6607 10.9405 11.3434 11.3317 11.3434C11.4207 11.3434 11.9312 11.3434 12.04 11.3434C12.3631 11.3434 12.7484 10.9609 12.7484 10.6351C12.7484 10.2441 12.4313 9.92675 12.04 9.92675C11.9354 9.92675 11.4205 9.92675 11.3317 9.92675C10.9405 9.92675 10.6234 9.60941 10.6234 9.21841C10.6234 8.82741 10.9405 8.51008 11.3317 8.51008C11.4205 8.51008 11.9354 8.51008 12.04 8.51008C12.3687 8.51008 12.7484 8.13537 12.7484 7.80175C12.7484 7.41075 12.4313 7.09342 12.04 7.09342H8.49837C8.466 7.09342 8.17884 7.09129 7.94502 6.80583C7.71113 6.51966 7.80917 6.26751 7.81214 6.25193C7.82737 6.17401 7.85365 6.03233 7.87858 5.83187C7.93468 5.38067 7.94538 4.92167 7.92285 4.50375C7.90741 4.21688 7.87185 3.95622 7.81214 3.7508C7.66261 3.23655 7.22769 2.91991 6.34823 2.87245Z" fill="#7BC93A"/>
</svg>
