<svg width="17" height="17" viewBox="0 0 17 17" fill="none" xmlns="http://www.w3.org/2000/svg">
<path d="M8.51685 1.72925C8.1124 1.72911 7.69944 1.98071 7.45506 2.4815L5.95049 5.57883L2.52131 6.06553C1.41851 6.21895 1.06123 7.30086 1.85761 8.07861L4.33542 10.4905L3.76026 13.8756C3.57085 14.9714 4.47971 15.6337 5.4638 15.1145C5.84403 14.9133 7.79931 13.9004 8.51685 13.5214L11.5698 15.1145C12.5551 15.6337 13.4667 14.9721 13.2733 13.8756L12.6762 10.4905L15.1539 8.07861C15.9544 7.30369 15.6151 6.22207 14.5122 6.06553L11.0612 5.57883L9.57865 2.4815C9.33427 1.9805 8.92131 1.72946 8.51685 1.72925ZM8.51685 3.56553L9.97673 6.55229C10.0801 6.76359 10.2749 6.89541 10.508 6.92842L13.8265 7.4149L11.4153 9.73823C11.2461 9.90186 11.1752 10.1264 11.2163 10.3573L11.7915 13.6319L8.84906 12.0835C8.73998 12.0262 8.61885 11.9985 8.49844 12.0021C8.49844 11.3582 8.51685 3.56553 8.51685 3.56553Z" fill="#F0B440"/>
</svg>
