<svg width="13" height="13" viewBox="0 0 13 13" fill="none" xmlns="http://www.w3.org/2000/svg">
<path d="M8.24946 12.2328L7.29797 11.9844L7.09624 9.99197C6.89749 10.0059 6.69875 10.0123 6.5 10.0123C2.91611 10.0123 0 7.76651 0 5.00543C0 2.24434 2.91611 0 6.5 0C10.0839 0 13 2.24583 13 5.00642C13 6.52534 12.1325 7.93445 10.615 8.88794L8.24946 12.2328ZM7.49373 8.89887L8.086 9.36592L8.20077 10.4849L9.82006 8.1958L9.97657 8.04972C11.2302 7.29101 11.9496 6.1825 11.9496 5.00841C11.9496 2.82717 9.50504 1.05236 6.5 1.05236C3.49496 1.05236 1.05037 2.82717 1.05037 5.00841C1.05037 7.18965 3.49496 8.96495 6.5 8.96495C6.83235 8.96524 7.16435 8.94316 7.49373 8.89887Z" fill="#7A808A"/>
</svg>
