<svg width="15" height="16" viewBox="0 0 15 16" fill="none" xmlns="http://www.w3.org/2000/svg">
<path d="M8.83285 12.1219C8.67674 11.9658 8.58903 11.754 8.58903 11.5333C8.58903 11.3125 8.67674 11.1008 8.83285 10.9446L11.776 8.0015L8.83285 5.05836C8.67674 4.90225 8.58903 4.69051 8.58903 4.46974C8.58903 4.24896 8.67674 4.03722 8.83285 3.88111C8.98896 3.72499 9.2007 3.63729 9.42148 3.63729C9.64226 3.63729 9.85399 3.72499 10.0101 3.88111L13.5419 7.41287C13.698 7.56899 13.7857 7.78072 13.7857 8.0015C13.7857 8.22228 13.698 8.43402 13.5419 8.59013L10.0101 12.1219C9.85399 12.278 9.64226 12.3657 9.42148 12.3657C9.2007 12.3657 8.98896 12.278 8.83285 12.1219Z" fill="#7BC93A"/>
<path d="M0.592285 8.58983C0.47469 8.4736 0.394373 8.32497 0.361576 8.16291C0.328779 8.00085 0.344986 7.83269 0.408132 7.67988C0.471278 7.52706 0.578501 7.39651 0.716132 7.30488C0.853762 7.21324 1.01556 7.16467 1.18091 7.16535L12.9534 7.16535C13.1625 7.18152 13.3577 7.27598 13.5001 7.42984C13.6425 7.58371 13.7216 7.78565 13.7216 7.99532C13.7216 8.20498 13.6425 8.40692 13.5001 8.56079C13.3577 8.71465 13.1625 8.80911 12.9534 8.82528L1.18091 8.82529C0.961326 8.82751 0.749758 8.74288 0.592285 8.58983Z" fill="#7BC93A"/>
</svg>
