<svg width="10" height="10" viewBox="0 0 10 10" fill="none" xmlns="http://www.w3.org/2000/svg">
<path d="M9.16171 3.3297C8.94093 3.3297 8.7292 3.4174 8.57308 3.57351C8.41697 3.72963 8.32927 3.94136 8.32927 4.16214V8.32437H4.16704C3.94626 8.32437 3.73453 8.41207 3.57841 8.56818C3.4223 8.7243 3.33459 8.93603 3.33459 9.15681C3.33459 9.37759 3.4223 9.58933 3.57841 9.74544C3.73453 9.90155 3.94626 9.98926 4.16704 9.98926H9.16171C9.38249 9.98926 9.59423 9.90155 9.75034 9.74544C9.90645 9.58933 9.99416 9.37759 9.99416 9.15681V4.16214C9.99416 3.94136 9.90645 3.72963 9.75034 3.57351C9.59423 3.4174 9.38249 3.3297 9.16171 3.3297Z" fill="#CD0768"/>
<path d="M0.837287 0.00014019C0.671942 -0.000821114 0.510058 0.0474787 0.372272 0.138883C0.234486 0.230286 0.127041 0.360651 0.0636362 0.513358C0.000231516 0.666065 -0.0162605 0.834194 0.0162629 0.996311C0.0487862 1.15843 0.128851 1.30719 0.24625 1.42362L8.5707 9.74807C8.72995 9.88445 8.9348 9.95571 9.1443 9.94762C9.35381 9.93953 9.55255 9.85268 9.7008 9.70442C9.84905 9.55617 9.9359 9.35743 9.944 9.14793C9.95209 8.93842 9.88083 8.73358 9.74445 8.57433L1.42 0.249873C1.2663 0.093029 1.05686 0.00326824 0.837287 0.00014019Z" fill="#CD0768"/>
</svg>
