<svg width="10" height="10" viewBox="0 0 10 10" fill="none" xmlns="http://www.w3.org/2000/svg">
<path d="M9.16173 6.66493C8.94096 6.66493 8.72922 6.57723 8.57311 6.42112C8.41699 6.265 8.32929 6.05327 8.32929 5.83249V1.67026H4.16706C3.94628 1.67026 3.73455 1.58256 3.57844 1.42644C3.42232 1.27033 3.33462 1.05859 3.33462 0.837816C3.33462 0.617038 3.42232 0.405303 3.57844 0.249189C3.73455 0.0930751 3.94628 0.00537109 4.16706 0.00537109H9.16173C9.38251 0.00537109 9.59425 0.0930751 9.75036 0.249189C9.90648 0.405303 9.99418 0.617038 9.99418 0.837816V5.83249C9.99418 6.05327 9.90648 6.265 9.75036 6.42112C9.59425 6.57723 9.38251 6.66493 9.16173 6.66493Z" fill="#7BC93A"/>
<path d="M0.837287 9.99449C0.671942 9.99545 0.510058 9.94715 0.372272 9.85575C0.234486 9.76434 0.127041 9.63398 0.0636362 9.48127C0.000231516 9.32856 -0.0162605 9.16043 0.0162629 8.99832C0.0487862 8.8362 0.128851 8.68744 0.24625 8.57101L8.5707 0.246554C8.72995 0.110178 8.9348 0.0389152 9.1443 0.0470075C9.35381 0.0550999 9.55255 0.141951 9.7008 0.290205C9.84905 0.438459 9.9359 0.637196 9.944 0.846703C9.95209 1.05621 9.88083 1.26105 9.74445 1.4203L1.42 9.74476C1.2663 9.9016 1.05686 9.99136 0.837287 9.99449Z" fill="#7BC93A"/>
</svg>
