<svg width="12" height="11" viewBox="0 0 12 11" fill="none" xmlns="http://www.w3.org/2000/svg">
<path d="M4.03332 2.93353H5.49999C5.71999 2.93353 5.86666 2.78686 5.86666 2.56686C5.86666 2.34686 5.71999 2.2002 5.49999 2.2002H4.03332C3.81332 2.2002 3.66666 2.34686 3.66666 2.56686C3.66666 2.78686 3.81332 2.93353 4.03332 2.93353ZM4.03332 4.4002H6.96666C7.18666 4.4002 7.33332 4.25353 7.33332 4.03353C7.33332 3.81353 7.18666 3.66686 6.96666 3.66686H4.03332C3.81332 3.66686 3.66666 3.81353 3.66666 4.03353C3.66666 4.25353 3.81332 4.4002 4.03332 4.4002ZM4.03332 5.86686H7.69999C7.91999 5.86686 8.06666 5.7202 8.06666 5.5002C8.06666 5.2802 7.91999 5.13353 7.69999 5.13353H4.03332C3.81332 5.13353 3.66666 5.2802 3.66666 5.5002C3.66666 5.7202 3.81332 5.86686 4.03332 5.86686Z" fill="#D00966"/>
<path d="M10.6333 0H2.56667C2.34667 0 2.2 0.146667 2.2 0.366667C2.2 0.586667 2.34667 0.733333 2.56667 0.733333H10.6333C10.8533 0.733333 11 0.88 11 1.1V6.96667C11 7.18667 10.8533 7.33333 10.6333 7.33333H3.3C3.22667 7.33333 3.08 7.40667 3.00667 7.40667L0.733333 9.75333V1.1C0.733333 0.88 0.88 0.733333 1.1 0.733333C1.32 0.733333 1.46667 0.586667 1.46667 0.366667C1.46667 0.146667 1.32 0 1.1 0C0.513333 0 0 0.513333 0 1.1V10.6333C0 10.78 0.0733333 10.9267 0.22 11C0.293333 11 0.293333 11 0.366667 11C0.44 11 0.586667 10.9267 0.66 10.9267L3.44667 8.06667H10.6333C11.22 8.06667 11.7333 7.55333 11.7333 6.96667V1.1C11.7333 0.513333 11.22 0 10.6333 0Z" fill="#D00966"/>
</svg>
