<svg width="9" height="11" viewBox="0 0 9 11" fill="none" xmlns="http://www.w3.org/2000/svg">
<path d="M2.60255 9.71975L2.76766 8.66918L2.39987 8.66064H0.643677L1.86414 0.908486C1.86778 0.8848 1.87979 0.86321 1.89798 0.847652C1.91618 0.832095 1.93935 0.823606 1.96327 0.823732H4.92447C5.90753 0.823732 6.58596 1.02866 6.94016 1.43314C7.10622 1.62289 7.21198 1.82117 7.26312 2.03938C7.31679 2.26835 7.31773 2.5419 7.26533 2.87554L7.26154 2.89989V3.11368L7.42759 3.20792C7.55436 3.27225 7.66831 3.35928 7.76381 3.46471C7.90587 3.62694 7.99773 3.83314 8.03656 4.0776C8.07666 4.32901 8.0634 4.62818 7.99773 4.96688C7.92197 5.3565 7.79948 5.69583 7.63406 5.9735C7.4881 6.22224 7.29186 6.43767 7.05792 6.60599C6.8382 6.76221 6.57712 6.88081 6.28195 6.95671C5.99593 7.03134 5.66982 7.06897 5.31214 7.06897H5.08168C4.91689 7.06897 4.75683 7.12843 4.63119 7.235C4.50572 7.34272 4.42249 7.49154 4.39631 7.65498L4.37895 7.74954L4.08725 9.60116L4.07399 9.66916C4.07052 9.69066 4.06452 9.70141 4.05568 9.70869C4.04712 9.7157 4.03644 9.7196 4.02538 9.71975H2.60255Z" fill="#253B80"/>
<path d="M7.58516 2.92432C7.57632 2.98092 7.56622 3.0388 7.55485 3.09825C7.16434 5.10674 5.82833 5.80058 4.12201 5.80058H3.25323C3.04455 5.80058 2.86871 5.95238 2.8362 6.15857L2.39139 8.98456L2.26543 9.78561C2.26041 9.81738 2.26232 9.84987 2.27104 9.88083C2.27976 9.91179 2.29507 9.9405 2.31592 9.96496C2.33677 9.98943 2.36267 10.0091 2.39183 10.0226C2.42099 10.036 2.45272 10.043 2.48483 10.043H4.02573C4.2082 10.043 4.3632 9.91021 4.39193 9.72995L4.40708 9.65152L4.6972 7.80717L4.71583 7.70597C4.74424 7.52508 4.89956 7.39225 5.08203 7.39225H5.31249C6.8054 7.39225 7.97409 6.78506 8.31567 5.02799C8.45836 4.29398 8.38449 3.6811 8.00692 3.25005C7.88726 3.11671 7.74433 3.00633 7.58516 2.92432Z" fill="#179BD7"/>
<path d="M7.17713 2.76162C7.05244 2.72549 6.92559 2.69728 6.79735 2.67718C6.54395 2.63817 6.28785 2.61945 6.03148 2.62121H3.71051C3.62218 2.62114 3.53674 2.65273 3.46963 2.71026C3.40253 2.7678 3.35819 2.84749 3.34462 2.93492L2.85088 6.06766L2.83667 6.15906C2.85205 6.05933 2.90256 5.96841 2.97905 5.90275C3.05554 5.83709 3.15297 5.80102 3.2537 5.80107H4.12249C5.82881 5.80107 7.16482 5.10691 7.55533 3.09874C7.56701 3.03928 7.5768 2.98141 7.58564 2.9248C7.48259 2.87067 7.37519 2.82529 7.26458 2.78913C7.23558 2.77949 7.20642 2.77032 7.17713 2.76162Z" fill="#222D65"/>
<path d="M3.34424 2.93478C3.35769 2.84732 3.40201 2.7676 3.46915 2.71009C3.53629 2.65258 3.6218 2.62111 3.71013 2.62138H6.0311C6.30607 2.62138 6.56273 2.63941 6.79697 2.67736C6.95548 2.70232 7.11181 2.73964 7.26451 2.78899C7.37974 2.82726 7.48676 2.87248 7.58557 2.92466C7.70175 2.18243 7.58462 1.67707 7.18401 1.21946C6.74236 0.71568 5.94523 0.5 4.92523 0.5H1.96404C1.75568 0.5 1.57794 0.651798 1.54574 0.858308L0.312333 8.69016C0.306588 8.72652 0.308773 8.7637 0.31874 8.79913C0.328706 8.83457 0.346216 8.86742 0.370066 8.89543C0.393915 8.92344 0.423538 8.94594 0.456897 8.96138C0.490256 8.97683 0.526558 8.98485 0.563308 8.9849H2.39148L2.8505 6.06752L3.34424 2.93478Z" fill="#253B80"/>
</svg>
