<svg width="18" height="12" viewBox="0 0 18 12" fill="none" xmlns="http://www.w3.org/2000/svg">
<path d="M18 0H0V12.0001H18V0Z" fill="#F0F0F0"/>
<path d="M18 1.5H0V2.99987H18V1.5Z" fill="#D80027"/>
<path d="M18 4.5H0V5.99987H18V4.5Z" fill="#D80027"/>
<path d="M18 7.49951H0V8.99938H18V7.49951Z" fill="#D80027"/>
<path d="M18 10.5H0V11.9999H18V10.5Z" fill="#D80027"/>
<path d="M9 0H0V6.46161H9V0Z" fill="#2E52B2"/>
<path d="M3.50936 2.64697L3.36441 3.09289H2.89557L3.27494 3.36834L3.12999 3.81423L3.50936 3.53878L3.88849 3.81423L3.74357 3.36834L4.12294 3.09289H3.65407L3.50936 2.64697Z" fill="#F0F0F0"/>
<path d="M3.65407 4.70223L3.50936 4.25635L3.36441 4.70223H2.89557L3.27494 4.97772L3.12999 5.42361L3.50936 5.14812L3.88849 5.42361L3.74357 4.97772L4.12294 4.70223H3.65407Z" fill="#F0F0F0"/>
<path d="M1.67262 4.70223L1.52789 4.25635L1.38294 4.70223H0.914093L1.29346 4.97772L1.14851 5.42361L1.52789 5.14812L1.90705 5.42361L1.76213 4.97772L2.14143 4.70223H1.67262Z" fill="#F0F0F0"/>
<path d="M1.52789 2.64697L1.38294 3.09289H0.914093L1.29346 3.36834L1.14851 3.81423L1.52789 3.53878L1.90705 3.81423L1.76213 3.36834L2.14143 3.09289H1.67262L1.52789 2.64697Z" fill="#F0F0F0"/>
<path d="M3.50936 1.03809L3.36441 1.48404H2.89557L3.27494 1.75953L3.12999 2.20541L3.50936 1.92993L3.88849 2.20541L3.74357 1.75953L4.12294 1.48404H3.65407L3.50936 1.03809Z" fill="#F0F0F0"/>
<path d="M1.52789 1.03809L1.38294 1.48404H0.914093L1.29346 1.75953L1.14851 2.20541L1.52789 1.92993L1.90705 2.20541L1.76213 1.75953L2.14143 1.48404H1.67262L1.52789 1.03809Z" fill="#F0F0F0"/>
<path d="M5.4908 2.64697L5.34589 3.09289H4.87704L5.25638 3.36834L5.1115 3.81423L5.4908 3.53878L5.87 3.81423L5.72505 3.36834L6.10442 3.09289H5.63558L5.4908 2.64697Z" fill="#F0F0F0"/>
<path d="M5.63558 4.70223L5.4908 4.25635L5.34589 4.70223H4.87704L5.25638 4.97772L5.1115 5.42361L5.4908 5.14812L5.87 5.42361L5.72505 4.97772L6.10442 4.70223H5.63558Z" fill="#F0F0F0"/>
<path d="M7.61708 4.70223L7.47234 4.25635L7.32739 4.70223H6.85858L7.23788 4.97772L7.09297 5.42361L7.47234 5.14812L7.8515 5.42361L7.70655 4.97772L8.08592 4.70223H7.61708Z" fill="#F0F0F0"/>
<path d="M7.47234 2.64697L7.32739 3.09289H6.85858L7.23788 3.36834L7.09297 3.81423L7.47234 3.53878L7.8515 3.81423L7.70655 3.36834L8.08592 3.09289H7.61708L7.47234 2.64697Z" fill="#F0F0F0"/>
<path d="M5.4908 1.03809L5.34589 1.48404H4.87704L5.25638 1.75953L5.1115 2.20541L5.4908 1.92993L5.87 2.20541L5.72505 1.75953L6.10442 1.48404H5.63558L5.4908 1.03809Z" fill="#F0F0F0"/>
<path d="M7.47234 1.03809L7.32739 1.48404H6.85858L7.23788 1.75953L7.09297 2.20541L7.47234 1.92993L7.8515 2.20541L7.70655 1.75953L8.08592 1.48404H7.61708L7.47234 1.03809Z" fill="#F0F0F0"/>
</svg>
