<svg width="17" height="16" viewBox="0 0 17 16" fill="none" xmlns="http://www.w3.org/2000/svg">
<path d="M2.45537 2.46453C2.71423 1.0375 3.95688 0 5.40719 0H13.4068C15.2781 0 16.6926 1.6943 16.3587 3.53547L14.5446 13.5355C14.2858 14.9625 13.0431 16 11.5928 16H3.59317C1.72195 16 0.307349 14.3057 0.641343 12.4645L2.45537 2.46453Z" fill="#9C63DB"/>
<path d="M2.45537 2.46453C2.71423 1.0375 3.95688 0 5.40719 0H13.4068C15.2781 0 16.6926 1.6943 16.3587 3.53547L14.5446 13.5355C14.2858 14.9625 13.0431 16 11.5928 16H3.59317C1.72195 16 0.307349 14.3057 0.641343 12.4645L2.45537 2.46453Z" fill="url(#paint0_linear_32_7)"/>
<path d="M5.5809 10.8305C5.50984 10.8305 5.43649 10.8305 5.35168 10.8191C5.2492 10.8108 5.15128 10.7732 5.06968 10.7106C4.98808 10.6481 4.92626 10.5633 4.89165 10.4665C4.85704 10.3697 4.85111 10.265 4.87457 10.1649C4.89803 10.0648 4.94988 9.97355 5.0239 9.9022C5.1574 9.78327 5.26239 9.63579 5.33104 9.4707C5.39969 9.30561 5.43025 9.12718 5.42045 8.94865C5.05915 8.75985 4.77695 8.44849 4.62446 8.07042C4.47198 7.69236 4.45919 7.27234 4.58839 6.8857C4.67066 6.64321 4.80977 6.42393 4.9941 6.24618C5.2222 6.00874 5.51337 5.84139 5.83336 5.76382C6.15335 5.68626 6.48883 5.70172 6.80034 5.80838C7.1378 5.92192 7.43732 6.1265 7.66586 6.39952C7.89439 6.67255 8.04305 7.00341 8.09541 7.35559C8.20825 7.98864 8.10915 8.64124 7.81348 9.21225V9.23059C7.10749 10.34 6.43359 10.8305 5.5809 10.8305ZM5.49609 10.2552C6.00266 10.2804 6.57341 10.1085 7.31149 8.9349C7.5432 8.48313 7.62356 7.96884 7.54071 7.46791C7.50645 7.21511 7.40255 6.97683 7.24063 6.7797C7.07872 6.58256 6.86516 6.43435 6.62384 6.35162C6.41393 6.27777 6.18707 6.26662 5.97094 6.31954C5.7548 6.37245 5.55874 6.48714 5.40669 6.6496C5.28693 6.76712 5.19729 6.9118 5.14539 7.07136C5.05403 7.34694 5.07065 7.64691 5.19191 7.9107C5.31317 8.17448 5.53002 8.38242 5.79866 8.49251C5.84269 8.51014 5.88166 8.53843 5.91206 8.57484C5.94247 8.61124 5.96336 8.65463 5.97286 8.7011C6.02755 8.97937 6.01265 9.26685 5.92947 9.53797C5.8463 9.80909 5.69742 10.0555 5.49609 10.2552ZM9.86497 10.8305C9.79162 10.8305 9.72057 10.8305 9.63576 10.8191C9.53328 10.8108 9.43536 10.7732 9.35375 10.7106C9.27215 10.6481 9.21033 10.5633 9.17572 10.4665C9.14111 10.3697 9.13518 10.265 9.15864 10.1649C9.1821 10.0648 9.23395 9.97355 9.30797 9.9022C9.44148 9.78327 9.54646 9.63579 9.61511 9.4707C9.68377 9.30561 9.71433 9.12718 9.70452 8.94865C9.34355 8.7595 9.06164 8.4481 8.9092 8.07016C8.75677 7.69221 8.74374 7.27236 8.87246 6.8857C8.95346 6.64422 9.09008 6.42515 9.2713 6.24618C9.49995 6.00811 9.79192 5.84039 10.1128 5.76282C10.4336 5.68525 10.77 5.70106 11.0821 5.80838C11.4198 5.92146 11.7196 6.1259 11.9482 6.39902C12.1769 6.67213 12.3253 7.00323 12.3772 7.35559C12.49 7.98864 12.3909 8.64124 12.0953 9.21225C12.0957 9.21836 12.0957 9.22449 12.0953 9.23059C11.3916 10.34 10.7154 10.8305 9.86497 10.8305ZM9.77787 10.2552C10.2867 10.2804 10.8552 10.1085 11.5956 8.9349C11.8292 8.48375 11.9096 7.96882 11.8248 7.46791C11.8258 7.46031 11.8258 7.45259 11.8248 7.44499C11.7891 7.19539 11.6843 6.96074 11.5223 6.76754C11.3603 6.57434 11.1475 6.43028 10.9079 6.35162C10.698 6.27777 10.4711 6.26662 10.255 6.31954C10.0389 6.37245 9.84282 6.48714 9.69077 6.6496C9.57255 6.76712 9.48516 6.91199 9.43634 7.07136C9.34498 7.34694 9.3616 7.64691 9.48286 7.9107C9.60412 8.17448 9.82097 8.38242 10.0896 8.49251C10.1331 8.51062 10.1715 8.5391 10.2015 8.57545C10.2314 8.61181 10.2521 8.65495 10.2615 8.7011C10.3158 8.97993 10.3 9.26787 10.2156 9.5391C10.1312 9.81033 9.98076 10.0564 9.77787 10.2552Z" fill="white"/>
<defs>
<linearGradient id="paint0_linear_32_7" x1="17" y1="8" x2="7.29561e-09" y2="8" gradientUnits="userSpaceOnUse">
<stop stop-color="#FD283E"/>
<stop offset="1" stop-color="#CA056C"/>
</linearGradient>
</defs>
</svg>
