<svg width="11" height="11" viewBox="0 0 11 11" fill="none" xmlns="http://www.w3.org/2000/svg">
<path d="M9.5 0H1.5C1.10218 0 0.720644 0.158035 0.43934 0.43934C0.158035 0.720644 0 1.10218 0 1.5V6.5C0 6.89782 0.158035 7.27936 0.43934 7.56066C0.720644 7.84196 1.10218 8 1.5 8H2V10C2.00022 10.0933 2.02654 10.1847 2.07598 10.2638C2.12541 10.3429 2.19599 10.4066 2.27974 10.4477C2.36349 10.4888 2.45707 10.5056 2.54989 10.4963C2.64271 10.487 2.73108 10.4519 2.805 10.395L5.885 8H9.5C9.89782 8 10.2794 7.84196 10.5607 7.56066C10.842 7.27936 11 6.89782 11 6.5V1.5C11 1.10218 10.842 0.720644 10.5607 0.43934C10.2794 0.158035 9.89782 0 9.5 0ZM10 6.5C10 6.63261 9.94732 6.75979 9.85355 6.85355C9.75979 6.94732 9.63261 7 9.5 7H5.715C5.60453 7.00034 5.49727 7.03727 5.41 7.105L3 9V7.5C3 7.36739 2.94732 7.24021 2.85355 7.14645C2.75979 7.05268 2.63261 7 2.5 7H1.5C1.36739 7 1.24021 6.94732 1.14645 6.85355C1.05268 6.75979 1 6.63261 1 6.5V1.5C1 1.36739 1.05268 1.24021 1.14645 1.14645C1.24021 1.05268 1.36739 1 1.5 1H9.5C9.63261 1 9.75979 1.05268 9.85355 1.14645C9.94732 1.24021 10 1.36739 10 1.5V6.5Z" fill="#9C63DB"/>
</svg>
