<svg width="11" height="18" viewBox="0 0 11 18" fill="none" xmlns="http://www.w3.org/2000/svg">
<path d="M9.67421 4.89789C9.29211 3.17842 7.98947 2.11895 6.14842 1.82368V0H4.18579V1.78895C2.08421 2.06684 0.468947 3.33474 0.468947 5.50579C0.468947 7.98947 2.34474 8.70158 4.18579 9.18789V12.9395C3.05684 12.6789 2.48368 11.9321 2.2579 10.8553L0 11.55C0.312632 13.3216 1.73684 14.7805 4.18579 15.0584V17.0211H6.14842V15.0411C8.47579 14.7111 10.0216 13.3389 10.0216 11.22C10.0216 8.80579 8.07632 7.97211 6.14842 7.45105V3.92526C6.94737 4.20316 7.39895 4.79368 7.60737 5.5579L9.67421 4.89789ZM2.74421 5.34947C2.74421 4.56789 3.17842 4.01211 4.18579 3.82105V6.93C3.33474 6.63474 2.74421 6.20053 2.74421 5.34947ZM7.71158 11.3589C7.71158 12.2621 7.08632 12.7658 6.14842 12.9568V9.72632C7.05158 10.0389 7.71158 10.4558 7.71158 11.3589Z" fill="#9C63DB"/>
</svg>
