<svg width="46" height="30" viewBox="0 0 46 30" fill="none" xmlns="http://www.w3.org/2000/svg">
<path d="M10.6249 13.1375C11.0116 11.9852 12.0553 11.1801 13.268 11.0986L42.1278 9.16001C44.0871 9.0284 45.6425 10.7835 45.2763 12.7127L42.4771 27.4594C42.2084 28.8752 40.9709 29.8999 39.5298 29.8999H9.17109C7.12089 29.8999 5.67472 27.8892 6.32696 25.9455L10.6249 13.1375Z" fill="url(#paint0_linear_16_895)"/>
<path d="M18.3574 25L15.2402 16.5977H17.1621L19.3184 22.8379L21.4805 16.5977H23.4023L20.2793 25H18.3574ZM24.7148 25V16.5977H26.5195V25H24.7148ZM28.6758 16.5977H32.2148C33.0781 16.5977 33.793 16.8691 34.3594 17.4121C34.9297 17.9512 35.2148 18.6211 35.2148 19.4219C35.2148 20.2188 34.9316 20.8887 34.3652 21.4316C33.7988 21.9707 33.082 22.2402 32.2148 22.2402H30.4805V25H28.6758V16.5977ZM32.1562 18.2207H30.4805V20.6172H32.1562C32.5156 20.6172 32.8145 20.502 33.0527 20.2715C33.2949 20.041 33.416 19.7578 33.416 19.4219C33.416 19.0859 33.2949 18.8027 33.0527 18.5723C32.8145 18.3379 32.5156 18.2207 32.1562 18.2207Z" fill="white"/>
<path fill-rule="evenodd" clip-rule="evenodd" d="M4.23507 3.03631C4.13137 3.11065 4.04946 3.21142 3.99773 3.3281C3.94608 3.44473 3.92656 3.57314 3.94121 3.69988L4.25213 6.39406L1.82754 6.89511C1.69719 6.92208 1.57683 6.98489 1.48012 7.07661C1.38344 7.1682 1.31427 7.28505 1.28043 7.4139C1.24655 7.54268 1.2493 7.67838 1.28841 7.80572C1.32744 7.93309 1.40137 8.04701 1.50163 8.13463L5.24937 11.409L5.24998 11.4095C5.3229 11.4729 5.40776 11.5209 5.4997 11.5506C5.5916 11.5802 5.68856 11.5911 5.78481 11.5823C5.88094 11.5735 5.97434 11.5454 6.0594 11.4996C6.1441 11.4541 6.21871 11.3919 6.27882 11.3169C7.6281 9.64649 9.40445 8.37255 11.4194 7.63043C11.5097 7.59756 11.5925 7.54692 11.6629 7.48132C11.7335 7.41552 11.7901 7.33608 11.8292 7.24785C11.8684 7.15957 11.8893 7.06426 11.8906 6.96777C11.8921 6.87122 11.8739 6.77539 11.8373 6.686L9.94094 2.08457C9.89021 1.96143 9.80603 1.85484 9.698 1.77695C9.58991 1.69898 9.46222 1.65275 9.32933 1.64344C9.19637 1.63418 9.06357 1.66214 8.94572 1.72437C8.82782 1.78651 8.72965 1.88027 8.66224 1.9952L7.4097 4.13034L4.95793 2.97111C4.8426 2.91655 4.71473 2.89382 4.58762 2.90535C4.46059 2.91684 4.33888 2.96207 4.23517 3.03643L4.23507 3.03631ZM4.92673 8.6446C6.08587 7.20956 7.61195 6.11517 9.34281 5.47772C9.50764 5.41708 9.69041 5.50144 9.75113 5.66623C9.81185 5.83101 9.72746 6.0139 9.56262 6.07455C7.93945 6.67235 6.50834 7.69864 5.42159 9.04422C5.3112 9.1808 5.111 9.20216 4.97435 9.09183C4.83772 8.98137 4.81639 8.78126 4.92673 8.6446ZM5.51969 9.47163C6.67889 8.03667 8.20497 6.94228 9.93582 6.30482C10.1006 6.24411 10.2834 6.32855 10.3441 6.49333C10.4049 6.65811 10.3204 6.84093 10.1556 6.90165C8.53246 7.49945 7.10135 8.52574 6.01455 9.87125C5.90422 10.0079 5.70397 10.0292 5.56731 9.91886C5.43074 9.80847 5.40936 9.60829 5.51969 9.47163ZM6.50168 6.19805C6.78717 5.99336 6.85266 5.59606 6.64797 5.31057C6.44329 5.02509 6.04598 4.9596 5.7605 5.16428C5.47501 5.36897 5.40952 5.76627 5.61421 6.05176C5.81889 6.33724 6.2162 6.40273 6.50168 6.19805Z" fill="#FC8A06"/>
<defs>
<linearGradient id="paint0_linear_16_895" x1="52.8333" y1="19.3999" x2="5" y2="19.3999" gradientUnits="userSpaceOnUse">
<stop stop-color="#FBCB41"/>
<stop offset="1" stop-color="#FC8300"/>
</linearGradient>
</defs>
</svg>
