<svg width="15" height="15" viewBox="0 0 15 15" fill="none" xmlns="http://www.w3.org/2000/svg">
<path d="M5.00106 7.50071C5.00106 6.12006 6.11999 5.00051 7.50064 5.00051C8.88129 5.00051 10.0008 6.12006 10.0008 7.50071C10.0008 8.88136 8.88129 10.0009 7.50064 10.0009C6.11999 10.0009 5.00106 8.88136 5.00106 7.50071ZM3.64949 7.50071C3.64949 9.62772 5.37363 11.3519 7.50064 11.3519C9.62766 11.3519 11.3518 9.62772 11.3518 7.50071C11.3518 5.37369 9.62766 3.64955 7.50064 3.64955C5.37363 3.64955 3.64949 5.37369 3.64949 7.50071ZM10.6042 3.49688C10.6042 3.99365 11.0071 4.39712 11.5045 4.39712C12.0012 4.39712 12.4047 3.99365 12.4047 3.49688C12.4047 3.00012 12.0018 2.59725 11.5045 2.59725C11.0071 2.59725 10.6042 3.00012 10.6042 3.49688ZM4.47036 13.6055C3.73915 13.5722 3.34173 13.4504 3.0776 13.3474C2.72744 13.2111 2.47784 13.0487 2.21492 12.7864C1.9526 12.5241 1.78964 12.2745 1.65394 11.9244C1.55095 11.6602 1.42918 11.2628 1.39586 10.5316C1.35951 9.741 1.35224 9.50353 1.35224 7.50071C1.35224 5.49789 1.36012 5.26101 1.39586 4.46982C1.42918 3.7386 1.55155 3.34179 1.65394 3.07705C1.79024 2.72689 1.9526 2.4773 2.21492 2.21438C2.47724 1.95206 2.72683 1.78909 3.0776 1.65339C3.34173 1.5504 3.73915 1.42864 4.47036 1.39532C5.26095 1.35897 5.49843 1.3517 7.50064 1.3517C9.50346 1.3517 9.74034 1.35957 10.5315 1.39532C11.2627 1.42864 11.6596 1.55101 11.9243 1.65339C12.2745 1.78909 12.5241 1.95206 12.787 2.21438C13.0493 2.47669 13.2116 2.72689 13.348 3.07705C13.4509 3.34119 13.5727 3.7386 13.606 4.46982C13.6424 5.26101 13.6497 5.49789 13.6497 7.50071C13.6497 9.50292 13.6424 9.7404 13.606 10.5316C13.5727 11.2628 13.4503 11.6602 13.348 11.9244C13.2116 12.2745 13.0493 12.5241 12.787 12.7864C12.5247 13.0487 12.2745 13.2111 11.9243 13.3474C11.6602 13.4504 11.2627 13.5722 10.5315 13.6055C9.74094 13.6418 9.50346 13.6491 7.50064 13.6491C5.49843 13.6491 5.26095 13.6418 4.47036 13.6055ZM4.40857 0.0461685C3.61011 0.0825173 3.06488 0.209132 2.5881 0.394511C2.09497 0.585948 1.67696 0.842813 1.25955 1.25961C0.842752 1.67641 0.585887 2.09442 0.39445 2.58816C0.209071 3.06494 0.0824562 3.61017 0.0461074 4.40863C0.00915278 5.20831 0.000671387 5.46396 0.000671387 7.50071C0.000671387 9.53745 0.00915278 9.79311 0.0461074 10.5928C0.0824562 11.3912 0.209071 11.9365 0.39445 12.4132C0.585887 12.9064 0.842147 13.325 1.25955 13.7418C1.67635 14.1586 2.09436 14.4149 2.5881 14.6069C3.06548 14.7923 3.61011 14.9189 4.40857 14.9552C5.20885 14.9916 5.4639 15.0007 7.50064 15.0007C9.53799 15.0007 9.79304 14.9922 10.5927 14.9552C11.3912 14.9189 11.9364 14.7923 12.4132 14.6069C12.9063 14.4149 13.3243 14.1586 13.7417 13.7418C14.1585 13.325 14.4148 12.9064 14.6068 12.4132C14.7922 11.9365 14.9194 11.3912 14.9552 10.5928C14.9915 9.7925 15 9.53745 15 7.50071C15 5.46396 14.9915 5.20831 14.9552 4.40863C14.9188 3.61017 14.7922 3.06494 14.6068 2.58816C14.4148 2.09503 14.1585 1.67702 13.7417 1.25961C13.3249 0.842813 12.9063 0.585948 12.4138 0.394511C11.9364 0.209132 11.3912 0.0819115 10.5933 0.0461685C9.79365 0.00981963 9.53799 0.000732422 7.50125 0.000732422C5.4639 0.000732422 5.20885 0.00921381 4.40857 0.0461685Z" fill="url(#paint0_linear_2127_1917)"/>
<defs>
<linearGradient id="paint0_linear_2127_1917" x1="2" y1="0.5" x2="13" y2="15.5" gradientUnits="userSpaceOnUse">
<stop stop-color="#5D2CCA"/>
<stop offset="0.348958" stop-color="#AA1D7D"/>
<stop offset="0.671875" stop-color="#F2A33A"/>
<stop offset="1" stop-color="#F5CD64"/>
</linearGradient>
</defs>
</svg>
