<svg width="68" height="39" viewBox="0 0 68 39" fill="none" xmlns="http://www.w3.org/2000/svg">
<g opacity="0.2">
<path d="M6.45708 4.47359C6.45708 4.51218 6.45708 4.54112 6.48098 4.70994C6.48098 4.8064 6.50488 4.85464 6.50488 4.88358C6.50009 4.96711 6.50009 5.05086 6.50488 5.13439C6.50488 5.17298 6.50488 5.16333 6.50488 5.20192C6.50488 5.3225 6.50488 5.35144 6.50488 5.42862C6.50488 5.50579 6.53356 5.47685 6.55267 5.54438C6.56195 5.59864 6.56195 5.65411 6.55267 5.70837C6.55267 5.86754 6.6626 6.03154 6.7343 6.03154C6.80599 6.03154 6.79643 5.92542 6.8729 5.91578C6.94937 5.90613 6.96371 5.97366 7.04018 5.96883C7.06719 5.96585 7.09335 5.9575 7.11714 5.94425C7.14093 5.93101 7.16189 5.91313 7.17879 5.89166C7.23148 5.84391 7.26961 5.78201 7.28872 5.71319C7.32217 5.57814 7.24092 5.51544 7.28872 5.39003C7.33651 5.26462 7.32217 5.33697 7.33651 5.28874C7.35085 5.24051 7.30783 5.13921 7.33651 5.08133C7.36519 5.02345 7.38909 5.04275 7.44166 5.01381C7.56593 4.94628 7.67585 4.81605 7.65196 4.76299C7.62806 4.70994 7.51813 4.72441 7.44166 4.72923C7.2935 4.72923 7.27916 4.78229 7.19791 4.76782C7.09797 4.73732 7.01068 4.67464 6.94937 4.58935C6.87768 4.50253 6.85856 4.44465 6.80121 4.43983C6.74385 4.435 6.72474 4.50253 6.67694 4.48806C6.62915 4.47359 6.63393 4.42536 6.58613 4.40606C6.56068 4.40518 6.53544 4.41093 6.51284 4.42276C6.49023 4.43459 6.47103 4.45209 6.45708 4.47359V4.47359Z" stroke="black" stroke-width="0.75" stroke-miterlimit="10"/>
<path d="M1.03236 16.5079C1.08016 16.4741 1.14229 16.5465 1.23788 16.5079C1.33347 16.4693 1.26656 16.5079 1.32391 16.4452C1.38126 16.3825 1.43384 16.4066 1.46729 16.3728C1.4906 16.3406 1.50316 16.3018 1.50316 16.2619C1.50316 16.222 1.4906 16.1832 1.46729 16.151C1.43862 16.1027 1.40994 16.1172 1.3956 16.0834C1.38126 16.0497 1.51031 15.9098 1.49119 15.7844C1.47207 15.659 1.42428 15.6734 1.42428 15.6156C1.42428 15.5577 1.49119 15.5577 1.49597 15.5529C1.50075 15.548 1.61546 15.577 1.68715 15.6349C1.91657 15.8133 1.96436 15.9243 2.07907 15.9243C2.11751 15.9239 2.15526 15.9139 2.189 15.8953C2.26069 15.8567 2.26069 15.7988 2.29415 15.794C2.3276 15.7892 2.42797 15.9098 2.40407 16.0014C2.38018 16.0931 2.29893 16.0931 2.30848 16.1317C2.31804 16.1702 2.38974 16.1606 2.42797 16.2233C2.44104 16.2451 2.44795 16.2702 2.44795 16.2957C2.44795 16.3212 2.44104 16.3462 2.42797 16.368C2.39452 16.4259 2.3276 16.4211 2.3276 16.4548C2.3276 16.4886 2.44231 16.5272 2.43753 16.5609C2.43275 16.5947 2.33716 16.5609 2.30848 16.6381C2.27981 16.7153 2.34672 16.7491 2.33238 16.8407C2.31804 16.9323 2.24635 16.9227 2.19856 17.0143C2.17226 17.0665 2.16144 17.1251 2.16737 17.1833C2.17331 17.2415 2.19575 17.2967 2.23201 17.3423C2.30371 17.405 2.3993 17.3713 2.44231 17.4436C2.48533 17.516 2.44231 17.4918 2.44231 17.5304C2.44231 17.569 2.5379 17.5883 2.58092 17.6462C2.59869 17.6752 2.60811 17.7086 2.60811 17.7427C2.60811 17.7767 2.59869 17.8102 2.58092 17.8391C2.55286 17.8755 2.51451 17.9023 2.47097 17.9161C2.42742 17.9299 2.38075 17.93 2.33716 17.9163C2.2761 17.8927 2.22412 17.85 2.18886 17.7945C2.15359 17.7389 2.13689 17.6734 2.1412 17.6076C2.15288 17.5749 2.15288 17.5391 2.1412 17.5063C2.12104 17.4839 2.09421 17.4686 2.06473 17.4629C1.98826 17.4629 1.94524 17.4629 1.90701 17.4629C1.77796 17.4629 1.78752 17.2603 1.59634 17.1494C1.55341 17.124 1.50655 17.1061 1.45774 17.0963C1.30479 17.0577 1.25222 17.0963 1.17097 17.0963C1.08971 17.0963 1.0706 16.8938 1.03236 16.7346C0.994125 16.5754 0.984566 16.5416 1.03236 16.5079Z" stroke="black" stroke-width="0.25" stroke-miterlimit="10" stroke-dasharray="0.53 0.53 0.53 0.53"/>
<path d="M23.0993 8.69403C23.1312 8.62306 23.1767 8.55914 23.2331 8.50591C23.2873 8.44719 23.358 8.40652 23.4357 8.38929C23.5134 8.37206 23.5944 8.37909 23.668 8.40945C23.7493 8.46733 23.7636 8.57344 23.7875 8.72297C23.8178 8.79712 23.8178 8.88034 23.7875 8.95449C23.7536 8.98962 23.7125 9.01689 23.6671 9.03438C23.6217 9.05187 23.5731 9.05917 23.5246 9.05578C23.3143 9.05578 23.0467 8.95449 23.0467 8.82426C23.0419 8.79532 23.061 8.76155 23.0993 8.69403Z" stroke="black" stroke-width="0.75" stroke-miterlimit="10"/>
<path d="M26.5166 10.0301C26.4497 9.99152 26.3206 10.059 26.2537 10.141C26.2203 10.186 26.1978 10.2381 26.1878 10.2934C26.1779 10.3486 26.1808 10.4055 26.1964 10.4594C26.2159 10.4958 26.2304 10.5347 26.2394 10.5751C26.2394 10.6475 26.2394 10.6668 26.2394 10.7102C26.2516 10.7401 26.2731 10.7652 26.3007 10.7818C26.3283 10.7983 26.3605 10.8053 26.3923 10.8018C26.4832 10.8018 26.5262 10.7005 26.5405 10.662C26.5548 10.6234 26.5644 10.5414 26.5405 10.3726C26.5453 10.0976 26.5596 10.059 26.5166 10.0301Z" stroke="black" stroke-width="0.75" stroke-miterlimit="10"/>
<path d="M26.2776 9.61531C26.2155 9.61531 26.249 9.46096 26.1534 9.37896C26.0578 9.29696 26.0769 9.35002 26.0434 9.30661C26.01 9.2632 26.0434 9.19085 25.9956 9.16673C25.9478 9.14262 25.8284 9.22944 25.7949 9.19567C25.7614 9.16191 25.8809 9.0365 25.8379 8.93521C25.7949 8.83392 25.7089 8.87733 25.6754 8.80498C25.6648 8.75247 25.6712 8.69791 25.6935 8.6493C25.7159 8.60069 25.7531 8.56059 25.7997 8.53487C25.8666 8.53487 25.9192 8.61205 25.9335 8.59758C25.9478 8.58311 25.8379 8.46735 25.8714 8.3757C25.9048 8.28406 25.9526 8.33229 25.9909 8.26959C26.0131 8.22579 26.0209 8.176 26.0131 8.12744C26.0054 8.07887 25.9825 8.03405 25.9478 7.99948C25.8857 7.94642 25.814 7.99948 25.7806 7.92713C25.7471 7.85478 25.7806 7.78243 25.7806 7.73902C25.8618 7.56538 26.053 7.42068 26.1247 7.46409C26.1964 7.5075 26.1247 7.55091 26.182 7.59914C26.2394 7.64738 26.6218 7.59914 26.7126 7.40138C26.746 7.32421 26.7365 7.25186 26.789 7.22774C26.8416 7.20363 26.8894 7.27598 26.9707 7.26151C27.0519 7.24704 27.0663 7.11681 27.1666 7.08787C27.267 7.05893 27.2574 7.12163 27.4008 7.15057C27.5442 7.17951 27.6589 7.17951 27.6876 7.11681C27.7163 7.0541 27.6398 7.03481 27.6541 6.97693C27.6685 6.91905 27.6924 6.89975 27.9122 6.86599C28.1321 6.83223 28.1512 6.86599 28.2946 6.83223C28.4149 6.80102 28.5295 6.75054 28.6339 6.6827C28.7242 6.64385 28.8044 6.58442 28.8681 6.50906C28.9159 6.42707 28.9159 6.34507 28.9685 6.33542C29.0211 6.32577 29.0211 6.37401 29.0832 6.38365C29.1453 6.3933 29.174 6.35954 29.2409 6.34507C29.3078 6.3306 29.4178 6.43189 29.5611 6.44154C29.6322 6.4422 29.7019 6.4221 29.7619 6.38365C30.0534 6.25825 30.5457 6.21484 30.7178 6.42224C30.7704 6.48977 30.7178 6.50906 30.7943 6.57177C30.9233 6.71164 31.0762 6.61035 31.3343 6.74541C31.3773 6.77708 31.4293 6.79399 31.4825 6.79364C31.5638 6.79364 31.5972 6.73094 31.6689 6.6827C31.7418 6.63648 31.8274 6.61484 31.9133 6.62091C31.9992 6.62698 32.081 6.66044 32.1468 6.71647C32.1676 6.75265 32.1804 6.79287 32.1846 6.83445C32.1887 6.87604 32.184 6.91803 32.1707 6.95763C32.148 7.0379 32.1073 7.11183 32.0518 7.17372C31.9963 7.2356 31.9274 7.28379 31.8505 7.31456C31.7071 7.37244 31.6641 7.31456 31.1766 7.26151C31.0158 7.2583 30.8557 7.23891 30.6987 7.20363C30.5756 7.14245 30.443 7.10328 30.3067 7.08787C30.2127 7.08806 30.1192 7.1027 30.0295 7.13128L29.4417 7.26633C29.2744 7.31939 29.1692 7.3628 29.0832 7.30492C28.9972 7.24704 29.0163 7.22774 28.9733 7.22774C28.9303 7.22774 28.9111 7.33868 28.8155 7.40138C28.72 7.46409 28.6435 7.40138 28.4953 7.44962C28.3472 7.49785 28.3949 7.53161 28.2802 7.61361C28.1655 7.69561 28.0652 7.68114 27.7306 7.78725C27.615 7.8257 27.5017 7.87079 27.3913 7.92231C27.2447 7.98205 27.1053 8.05808 26.9754 8.149C26.7704 8.29626 26.6059 8.4938 26.4975 8.72298C26.3939 8.89361 26.3455 9.09251 26.3589 9.29214C26.3589 9.36931 26.4067 9.4899 26.3589 9.57672C26.3111 9.66354 26.2776 9.62495 26.2776 9.61531Z" stroke="black" stroke-width="0.75" stroke-miterlimit="10"/>
<path d="M30.5457 9.93846C30.6031 9.82752 30.6318 9.77447 30.6652 9.75517C30.7154 9.73886 30.7693 9.73843 30.8197 9.75395C30.8701 9.76947 30.9146 9.8002 30.9472 9.84199C30.9807 9.8854 31.0237 9.97222 30.9902 10.0253C30.9568 10.0783 30.9902 10.0639 30.8277 10.0735C30.6652 10.0832 30.5409 10.0735 30.517 10.0253C30.4932 9.97705 30.5123 9.98187 30.5457 9.93846Z" stroke="black" stroke-width="0.75" stroke-miterlimit="10"/>
<path d="M31.7836 1.58442C31.7636 1.60192 31.75 1.62563 31.7448 1.65182C31.7396 1.67801 31.7432 1.7052 31.7549 1.72912C31.7932 1.787 31.8696 1.72912 31.9796 1.81594C32.0294 1.85365 32.0772 1.8939 32.123 1.93652C32.1708 1.98958 32.1803 2.00887 32.1994 2.00887C32.2185 2.00887 32.2902 1.8497 32.2377 1.78217C32.1851 1.71465 32.1612 1.75806 32.0608 1.72912C31.9605 1.70018 31.8362 1.5603 31.7836 1.58442Z" stroke="black" stroke-width="0.75" stroke-miterlimit="10"/>
<path d="M31.6593 1.9799C31.6394 2.01162 31.6287 2.04843 31.6287 2.08602C31.6287 2.12361 31.6394 2.16041 31.6593 2.19213C31.6928 2.27413 31.7836 2.34648 31.8362 2.32719C31.8888 2.30789 31.8696 2.20178 31.9079 2.19696C31.9461 2.19213 31.9557 2.25966 32.0178 2.27413C32.0799 2.2886 32.0943 2.24037 32.1564 2.27413C32.2185 2.30789 32.2233 2.34166 32.2998 2.37542C32.3763 2.40918 32.4671 2.37542 32.4862 2.37542C32.5053 2.37542 32.4097 2.27413 32.4336 2.23072C32.4575 2.18731 32.491 2.23072 32.5101 2.18249C32.518 2.15414 32.5162 2.12393 32.5049 2.09678C32.4936 2.06962 32.4735 2.04712 32.448 2.03296C32.381 2.00884 32.3428 2.11014 32.2185 2.11978C32.0943 2.12943 32.0943 2.0619 31.9843 2.08119C31.8744 2.10049 31.8935 2.12461 31.8553 2.10531C31.8171 2.08602 31.8027 1.9992 31.7501 1.98473C31.7361 1.97772 31.7209 1.97368 31.7052 1.97285C31.6896 1.97202 31.674 1.97442 31.6593 1.9799V1.9799Z" stroke="black" stroke-width="0.75" stroke-miterlimit="10"/>
<path d="M32.1373 2.6793C32.1485 2.66606 32.1624 2.65543 32.1781 2.64815C32.1938 2.64086 32.2108 2.63708 32.2281 2.63708C32.2454 2.63708 32.2624 2.64086 32.2781 2.64815C32.2938 2.65543 32.3077 2.66606 32.3189 2.6793C32.329 2.6928 32.3362 2.7082 32.3402 2.7246C32.3442 2.74099 32.3449 2.75803 32.3422 2.77469C32.3395 2.79136 32.3336 2.8073 32.3246 2.82158C32.3157 2.83585 32.304 2.84816 32.2902 2.85776C32.2281 2.87223 32.1086 2.74683 32.1373 2.6793Z" stroke="black" stroke-width="0.75" stroke-miterlimit="10"/>
<path d="M33.1123 3.3401C33.1123 3.21469 33.2748 3.1134 33.3226 3.14234C33.3704 3.17128 33.3226 3.21951 33.3704 3.24363C33.4182 3.26775 33.4708 3.24363 33.5042 3.24363C33.5377 3.24363 33.5377 3.39315 33.4756 3.45586C33.436 3.48715 33.3872 3.50416 33.3369 3.50416C33.2867 3.50416 33.2379 3.48715 33.1983 3.45586C33.1764 3.4442 33.1573 3.42777 33.1424 3.40775C33.1275 3.38773 33.1173 3.36462 33.1123 3.3401Z" stroke="black" stroke-width="0.75" stroke-miterlimit="10"/>
<path d="M33.6142 3.45585C33.6161 3.43031 33.6253 3.40586 33.6405 3.38536C33.6557 3.36487 33.6764 3.34917 33.7002 3.34009C33.7719 3.30633 33.8101 3.36903 33.8961 3.34009C33.9822 3.31115 34.0013 3.23398 34.073 3.2388C34.0965 3.24106 34.1188 3.25061 34.1368 3.26615C34.1548 3.2817 34.1675 3.30247 34.1734 3.32562C34.1734 3.37386 34.1064 3.38833 34.0109 3.50891C33.9153 3.62949 33.9631 3.59091 33.9344 3.6102C33.8292 3.66808 33.6142 3.56679 33.6142 3.45585Z" stroke="black" stroke-width="0.75" stroke-miterlimit="10"/>
<path d="M32.7921 2.87223C32.7921 2.87223 32.7921 2.81435 32.7921 2.79024C32.7921 2.76612 32.9211 2.81918 32.9689 2.79024C33.0167 2.7613 32.9689 2.65518 33.0215 2.62142C33.0741 2.58766 33.1028 2.62142 33.1553 2.62142C33.2079 2.62142 33.184 2.55872 33.2366 2.51048C33.2499 2.49362 33.2665 2.47976 33.2855 2.4698C33.3044 2.45983 33.3252 2.45397 33.3465 2.4526C33.3646 2.45105 33.3829 2.45324 33.4001 2.45905C33.4174 2.46485 33.4333 2.47415 33.4469 2.48636C33.4803 2.52495 33.4469 2.58766 33.4469 2.70824C33.4415 2.76439 33.4286 2.81955 33.4086 2.87223C33.3952 2.9067 33.3745 2.93787 33.3482 2.96366C33.3218 2.98944 33.2903 3.00925 33.2557 3.02176C33.1792 3.02176 33.1697 2.98317 33.0358 2.97352C32.902 2.96388 32.8781 2.97352 32.8303 2.94458C32.8096 2.92571 32.7961 2.90012 32.7921 2.87223V2.87223Z" stroke="black" stroke-width="0.75" stroke-miterlimit="10"/>
<path d="M34.116 2.74683C34.116 2.74683 34.1638 2.74683 34.2307 2.74683C34.2976 2.74683 34.3311 2.78541 34.3454 2.80953C34.3514 2.84265 34.3449 2.87684 34.3273 2.9054C34.3096 2.93395 34.282 2.95481 34.2498 2.96388C34.1638 2.98317 34.0778 2.77577 34.116 2.74683Z" stroke="black" stroke-width="0.75" stroke-miterlimit="10"/>
<path d="M33.4469 3.02659C33.4469 2.97353 33.6285 2.91565 33.705 2.98318C33.7185 2.99578 33.7283 3.0119 33.7334 3.02977C33.7384 3.04763 33.7385 3.06655 33.7336 3.08447C33.7336 3.1327 33.6189 3.1327 33.5616 3.11341C33.5042 3.09412 33.4469 3.06035 33.4469 3.02659Z" stroke="black" stroke-width="0.75" stroke-miterlimit="10"/>
<path d="M32.6678 3.26776C32.6672 3.22757 32.6809 3.1885 32.7063 3.15755C32.7317 3.12661 32.7672 3.10582 32.8064 3.09894C32.8686 3.09894 32.9068 3.16164 32.9594 3.25811C33.0119 3.35458 33.0072 3.33528 32.9928 3.34975C32.9785 3.36422 32.8877 3.28223 32.816 3.31117C32.7443 3.34011 32.7586 3.37387 32.7252 3.37387C32.6917 3.37387 32.6678 3.31117 32.6678 3.26776Z" stroke="black" stroke-width="0.75" stroke-miterlimit="10"/>
<path d="M32.4145 3.19057C32.4145 3.12305 32.5197 3.0314 32.5866 3.05552C32.6042 3.06693 32.6176 3.08388 32.6248 3.10375C32.6347 3.13201 32.6338 3.16298 32.6224 3.19063C32.6109 3.21827 32.5896 3.24061 32.5627 3.25328C32.5347 3.26328 32.504 3.2624 32.4766 3.25081C32.4492 3.23921 32.4271 3.21774 32.4145 3.19057V3.19057Z" stroke="black" stroke-width="0.75" stroke-miterlimit="10"/>
<path d="M32.6535 3.57646C32.6611 3.55875 32.6739 3.54376 32.6901 3.53344C32.7063 3.52312 32.7251 3.51794 32.7443 3.51858C32.7575 3.51793 32.7707 3.51992 32.7831 3.52442C32.7955 3.52892 32.8069 3.53584 32.8167 3.5448C32.8265 3.55377 32.8344 3.56458 32.84 3.57664C32.8456 3.58869 32.8488 3.60174 32.8494 3.61505C32.8456 3.62822 32.8392 3.64048 32.8306 3.65108C32.822 3.66168 32.8113 3.67041 32.7992 3.67672C32.7872 3.68304 32.774 3.68681 32.7604 3.68782C32.7469 3.68882 32.7332 3.68704 32.7204 3.68258C32.6979 3.67684 32.6785 3.66266 32.666 3.64293C32.6536 3.62321 32.6491 3.59943 32.6535 3.57646V3.57646Z" stroke="black" stroke-width="0.75" stroke-miterlimit="10"/>
<path d="M31.7119 2.56836C31.7119 2.52013 31.8983 2.52495 31.927 2.60695C31.9361 2.63574 31.9338 2.66699 31.9204 2.69403C31.907 2.72107 31.8836 2.74175 31.8553 2.75165C31.7788 2.74682 31.6785 2.61659 31.7119 2.56836Z" stroke="black" stroke-width="0.75" stroke-miterlimit="10"/>
<path d="M32.7586 2.48638C32.7204 2.48638 32.7586 2.65037 32.7969 2.66484C32.8184 2.66419 32.8391 2.65622 32.8556 2.64221C32.8721 2.6282 32.8834 2.60898 32.8877 2.58767C32.8972 2.52014 32.7873 2.46226 32.7586 2.48638Z" stroke="black" stroke-width="0.75" stroke-miterlimit="10"/>
<path d="M33.4947 2.37542C33.5086 2.3632 33.5264 2.35648 33.5449 2.35648C33.5633 2.35648 33.5811 2.3632 33.595 2.37542C33.6285 2.39954 33.595 2.44777 33.6285 2.56835C33.6619 2.68894 33.6763 2.74199 33.6572 2.75646C33.6381 2.77093 33.5711 2.75646 33.5472 2.70341C33.5233 2.65035 33.5472 2.62623 33.5472 2.54906C33.5472 2.47189 33.4755 2.40918 33.4947 2.37542Z" stroke="black" stroke-width="0.75" stroke-miterlimit="10"/>
<path d="M33.7958 2.32719C33.7958 2.29343 33.8722 2.2886 33.877 2.2886C33.8818 2.2886 33.987 2.31754 33.9917 2.36578C33.9883 2.3875 33.9772 2.40725 33.9606 2.42142C33.9439 2.43558 33.9227 2.44323 33.9009 2.44295C33.8388 2.44295 33.7814 2.36578 33.7958 2.32719Z" stroke="black" stroke-width="0.75" stroke-miterlimit="10"/>
<path d="M37.4664 5.58779C37.4664 5.55885 37.5333 5.58779 37.6002 5.58779C37.6507 5.57412 37.6941 5.54158 37.7216 5.49678C37.7491 5.45199 37.7587 5.3983 37.7484 5.34662C37.7484 5.29839 37.6719 5.30321 37.6672 5.26945C37.6624 5.23569 37.7914 5.1344 37.887 5.10063C37.9212 5.09166 37.9547 5.08038 37.9874 5.06687C38.0878 5.00417 38.0782 4.86429 38.1164 4.86429C38.1547 4.86429 38.1451 5.00417 38.2407 5.12957C38.3363 5.25498 38.4032 5.24533 38.4128 5.31768C38.4223 5.39003 38.3124 5.4045 38.2742 5.52027C38.2359 5.63603 38.3267 5.75179 38.2742 5.80967C38.2216 5.86755 38.1786 5.80967 38.04 5.80967C37.9014 5.80967 37.8727 5.89649 37.758 5.88202C37.7028 5.87661 37.6501 5.85665 37.605 5.82414C37.4903 5.76626 37.433 5.64085 37.4664 5.58779Z" stroke="black" stroke-width="0.75" stroke-miterlimit="10"/>
<path d="M37.2274 5.95438C37.229 5.93036 37.2382 5.9075 37.2537 5.88923C37.2692 5.87095 37.2902 5.85827 37.3135 5.85309C37.3422 5.85309 37.3708 5.85309 37.4903 5.91097C37.6098 5.96885 37.6672 6.00261 37.6672 6.03638C37.6672 6.07014 37.5907 6.1232 37.5094 6.16661C37.4282 6.21002 37.2752 6.25343 37.2657 6.22931C37.2561 6.20519 37.3469 6.16661 37.3422 6.1039C37.3374 6.0412 37.2322 6.02191 37.2274 5.95438Z" stroke="black" stroke-width="0.75" stroke-miterlimit="10"/>
<path d="M37.5907 6.30647C37.6194 6.23412 37.758 6.23412 37.7628 6.16177C37.7675 6.08942 37.7484 6.12318 37.7484 6.12318C37.7484 6.12318 37.7484 6.06048 37.8583 6.00742C37.9683 5.95436 38.2742 5.86754 38.3363 5.96883C38.3984 6.07012 38.2789 6.128 38.3363 6.18588C38.3568 6.20592 38.3842 6.21713 38.4128 6.21713C38.4413 6.21713 38.4687 6.20592 38.4892 6.18588C38.4892 6.15212 38.4892 6.10389 38.4892 6.08459C38.4892 6.0653 38.69 6.13283 38.6995 6.23894C38.7091 6.34506 38.6326 6.32094 38.6183 6.42705C38.6039 6.53317 38.6565 6.53799 38.6183 6.61516C38.58 6.69234 38.5323 6.69716 38.5227 6.76469C38.5131 6.83222 38.6278 6.88527 38.6231 6.97209C38.6183 7.05891 38.4797 7.13126 38.4367 7.15056C38.386 7.17532 38.3304 7.18818 38.2742 7.18818C38.2179 7.18818 38.1623 7.17532 38.1117 7.15056C38.0208 7.0975 38.0495 7.02515 37.9444 6.94798C37.8392 6.8708 37.758 6.90939 37.7054 6.83704C37.6528 6.76469 37.7341 6.68269 37.7054 6.53317C37.6767 6.38364 37.5716 6.36917 37.5907 6.30647Z" stroke="black" stroke-width="0.75" stroke-miterlimit="10"/>
<path d="M38.4128 7.89334C38.3793 7.84029 38.5418 7.75829 38.5992 7.56535C38.6565 7.37242 38.5992 7.21325 38.6804 7.17466C38.7617 7.13607 38.7426 7.17466 38.7569 7.17466C38.7712 7.17466 38.7569 7.08302 38.7569 7.05408C38.7569 7.02514 38.8238 7.05408 38.862 7.02514C38.9003 6.9962 38.862 6.84667 38.9146 6.80809C38.9672 6.7695 38.9863 6.83703 39.0341 6.80809C39.0819 6.77915 39.0771 6.69233 39.1058 6.6875C39.1345 6.68268 39.1536 6.72609 39.1632 6.76468C39.1727 6.80326 39.101 6.89491 39.1249 6.96243C39.1308 6.97535 39.1394 6.9868 39.1501 6.99597C39.1608 7.00514 39.1735 7.01181 39.187 7.01549C39.254 7.01549 39.3018 6.88526 39.3304 6.89491C39.3591 6.90455 39.3018 7.07337 39.3782 7.15054C39.4547 7.22772 39.5121 7.15055 39.5742 7.21807C39.6071 7.26632 39.6247 7.32351 39.6247 7.38207C39.6247 7.44063 39.6071 7.49781 39.5742 7.54606C39.52 7.60567 39.4531 7.65222 39.3787 7.68228C39.3042 7.71233 39.224 7.72512 39.144 7.7197C39.0006 7.7197 39.0006 7.69076 38.9194 7.7197C38.7617 7.76311 38.733 7.89334 38.5657 7.93193C38.537 7.90781 38.4367 7.93193 38.4128 7.89334Z" stroke="black" stroke-width="0.75" stroke-miterlimit="10"/>
<path d="M37.4569 8.6072C37.4855 8.50591 37.6863 8.4818 37.7245 8.53968C37.7628 8.59756 37.6672 8.79049 37.5668 8.77602C37.5309 8.76685 37.4997 8.74443 37.4793 8.71318C37.459 8.68193 37.451 8.64412 37.4569 8.6072V8.6072Z" stroke="black" stroke-width="0.75" stroke-miterlimit="10"/>
<path d="M31.8744 11.4289C31.8744 11.3565 32.0226 11.2601 32.1373 11.3035C32.252 11.3469 32.2616 11.3903 32.252 11.4434C32.2424 11.4964 32.1325 11.5302 32.0752 11.5302C32.0178 11.5302 31.8792 11.4627 31.8744 11.4289Z" stroke="black" stroke-width="0.75" stroke-miterlimit="10"/>
<path d="M32.491 11.1346C32.4826 11.1545 32.4782 11.1758 32.4782 11.1973C32.4782 11.2189 32.4826 11.2402 32.491 11.26C32.5388 11.342 32.6535 11.3855 32.6917 11.3565C32.73 11.3276 32.6917 11.2938 32.6917 11.1829C32.6917 11.0719 32.6917 11.1057 32.6917 11.0864C32.6574 11.0729 32.6198 11.0703 32.5839 11.079C32.548 11.0876 32.5156 11.107 32.491 11.1346Z" stroke="black" stroke-width="0.75" stroke-miterlimit="10"/>
<path d="M41.1419 11.2167C41.1419 11.1395 41.2614 11.0623 41.2709 11.0623C41.3172 11.0354 41.3706 11.0236 41.4239 11.0286C41.4716 11.0286 41.5433 11.0286 41.572 11.0864C41.5862 11.1223 41.5877 11.1619 41.5764 11.1988C41.5651 11.2357 41.5416 11.2675 41.5099 11.289C41.4852 11.3065 41.4571 11.3186 41.4274 11.3244C41.3978 11.3302 41.3672 11.3297 41.3378 11.3228C41.3378 11.3228 41.1562 11.3035 41.1419 11.2167Z" stroke="black" stroke-width="0.75" stroke-miterlimit="10"/>
<path d="M48.3732 7.27597C48.3752 7.25916 48.381 7.24303 48.3901 7.22882C48.3992 7.2146 48.4114 7.20268 48.4258 7.19397C48.5023 7.16503 48.6026 7.29044 48.6313 7.26632C48.66 7.2422 48.6313 7.20844 48.6313 7.15538C48.6424 7.11546 48.6673 7.08087 48.7015 7.05787C48.7357 7.03487 48.7769 7.02497 48.8177 7.02998C48.899 7.02998 48.9181 7.16985 48.9515 7.16503C48.985 7.16021 48.9515 7.07339 49.0041 6.99621C49.0394 6.9382 49.093 6.89383 49.1563 6.87022C49.2195 6.8466 49.2888 6.84511 49.353 6.86598C49.3939 6.88411 49.4301 6.91131 49.4591 6.94555C49.488 6.97979 49.509 7.02019 49.5203 7.06374C49.5427 7.14479 49.5324 7.2315 49.4916 7.30491C49.4654 7.35995 49.4258 7.4074 49.3765 7.44282C49.3272 7.47825 49.2698 7.50049 49.2096 7.50749C49.1093 7.50749 49.0901 7.45925 48.9611 7.45925C48.8321 7.45925 48.8416 7.49784 48.746 7.50266C48.5596 7.50749 48.3684 7.37243 48.3732 7.27597Z" stroke="black" stroke-width="0.75" stroke-miterlimit="10"/>
<path d="M48.2633 9.27765C48.2612 9.21655 48.2781 9.15632 48.3115 9.10532C48.3449 9.05432 48.3932 9.01509 48.4497 8.99307C48.4927 8.99307 48.4975 8.99307 48.789 9.07507C48.8499 9.09007 48.9091 9.11108 48.9659 9.13777C49.0423 9.18118 49.1188 9.21977 49.1236 9.27765C49.1284 9.33553 48.9037 9.47058 48.8751 9.48023C48.6934 9.55258 48.6313 9.48023 48.4784 9.5767C48.3254 9.67317 48.2824 9.74069 48.2633 9.72622C48.2442 9.71175 48.3445 9.60564 48.3302 9.46576C48.3159 9.32588 48.2633 9.35965 48.2633 9.27765Z" stroke="black" stroke-width="0.75" stroke-miterlimit="10"/>
<path d="M47.8953 8.98344C47.917 8.9477 47.9502 8.92054 47.9893 8.9065C48.0284 8.89245 48.0712 8.89237 48.1104 8.90627C48.2107 8.96897 48.1677 9.23908 48.1104 9.25837C48.053 9.27767 47.8379 9.0992 47.8953 8.98344Z" stroke="black" stroke-width="0.75" stroke-miterlimit="10"/>
<path d="M46.2225 8.39498C46.2225 8.45769 46.2942 8.46251 46.3372 8.54933C46.3802 8.63615 46.3372 8.65545 46.3706 8.65545C46.4041 8.65545 46.4423 8.57345 46.4328 8.48181C46.4232 8.39016 46.3324 8.26475 46.2798 8.27922C46.2272 8.29369 46.2129 8.34675 46.2225 8.39498Z" stroke="black" stroke-width="0.75" stroke-miterlimit="10"/>
<path d="M46.5809 8.17312C46.5809 8.14418 46.6765 8.17312 46.6813 8.14418C46.6861 8.11524 46.5236 8.07665 46.514 7.98983C46.5044 7.90301 46.514 7.94642 46.5618 7.8596C46.6096 7.77278 46.5618 7.75349 46.5953 7.72937C46.6287 7.70525 46.6861 7.72937 46.8151 7.72937C46.9442 7.72937 46.9346 7.69561 46.9872 7.72937C47.0398 7.76313 47.0541 7.84513 47.1306 7.8789C47.207 7.91266 47.2978 7.8789 47.3026 7.83549C47.3074 7.79207 47.1879 7.7776 47.1401 7.67631C47.1211 7.63078 47.1164 7.58046 47.1267 7.53215C47.1369 7.48384 47.1616 7.43988 47.1975 7.40621C47.2931 7.34833 47.3934 7.4882 47.5559 7.43997C47.7184 7.39174 47.6659 7.32421 47.771 7.30974C47.8762 7.29527 47.9096 7.38209 48.0387 7.36762C48.1677 7.35315 48.1725 7.30492 48.2107 7.32903C48.249 7.35315 48.1773 7.49785 48.2442 7.62326C48.3111 7.74866 48.3828 7.71972 48.378 7.77278C48.3732 7.82584 48.2537 7.89337 48.1725 7.91266C48.1085 7.92936 48.0412 7.92879 47.9775 7.91102C47.9137 7.89324 47.8557 7.85888 47.8093 7.81137C47.7519 7.73419 47.7806 7.6522 47.7232 7.62808C47.6939 7.61923 47.6625 7.62116 47.6345 7.63352C47.6065 7.64589 47.5837 7.66789 47.5703 7.69561C47.532 7.78725 47.6898 7.91266 47.7041 7.92231C47.7989 7.9834 47.9019 8.03051 48.01 8.06218C48.1008 8.09595 48.1295 8.10559 48.1343 8.12971C48.139 8.15383 48.0387 8.28888 47.9431 8.27923C47.8475 8.26959 47.8666 8.231 47.8284 8.23582C47.7901 8.24065 47.7758 8.42393 47.6659 8.49628C47.5559 8.56864 47.4795 8.49628 47.4603 8.5397C47.4412 8.58311 47.5942 8.6844 47.5751 8.75192C47.5559 8.81945 47.3648 8.82427 47.2453 8.81463C46.9394 8.79051 46.6622 8.62652 46.6765 8.55899C46.6908 8.49146 46.7243 8.55899 46.7386 8.50593C46.753 8.45287 46.5427 8.231 46.5809 8.17312Z" stroke="black" stroke-width="0.75" stroke-miterlimit="10"/>
<path d="M56.5987 2.16321C56.4886 2.23785 56.4101 2.35143 56.3789 2.48155C56.3831 2.63789 56.4223 2.79124 56.4936 2.93012C56.5605 3.11341 56.594 3.15682 56.6417 3.18094C56.6801 3.21066 56.7272 3.22678 56.7756 3.22678C56.824 3.22678 56.871 3.21066 56.9094 3.18094C56.9763 3.10376 56.852 2.99765 56.8712 2.77095C56.8903 2.54425 56.9524 2.59731 56.962 2.41402C56.962 2.37061 56.962 2.1198 56.8712 2.06674C56.7804 2.01368 56.6656 2.11015 56.5987 2.16321Z" stroke="black" stroke-width="0.75" stroke-miterlimit="10"/>
<path d="M56.159 6.29683C56.1361 6.33352 56.1264 6.37709 56.1316 6.42016C56.1368 6.46324 56.1566 6.50316 56.1877 6.53317C56.1877 6.53317 56.2307 6.53317 56.355 6.50423C56.4792 6.47529 56.5987 6.41259 56.6178 6.34988C56.6259 6.31389 56.6223 6.27624 56.6077 6.24242C56.5931 6.2086 56.5682 6.18035 56.5366 6.16177C56.5366 6.16177 56.4936 6.16177 56.3359 6.21001C56.1781 6.25824 56.1734 6.27753 56.159 6.29683Z" stroke="black" stroke-width="0.75" stroke-miterlimit="10"/>
<path d="M63.5577 13.7103C63.5183 13.7478 63.4876 13.7936 63.4677 13.8445C63.4479 13.8954 63.4395 13.95 63.443 14.0045C63.443 14.1251 63.5864 14.1155 63.7154 14.3181C63.7536 14.3856 63.7728 14.4338 63.7967 14.4338C63.8206 14.4338 63.8731 14.3132 63.8492 14.212C63.8253 14.1107 63.7584 14.1107 63.7441 14.0238C63.7297 13.937 63.8349 13.8647 63.8062 13.7634C63.7981 13.7292 63.7793 13.6986 63.7526 13.676C63.726 13.6534 63.6928 13.6401 63.658 13.638C63.658 13.638 63.615 13.6428 63.5577 13.7103Z" stroke="black" stroke-width="0.75" stroke-miterlimit="10"/>
<path d="M66.3154 22.3731C66.2246 22.4213 66.2151 22.5515 66.2103 22.5805C66.2103 22.7155 66.2772 22.73 66.2963 22.8747C66.3154 23.0194 66.2007 23.1303 66.2581 23.2509C66.3154 23.3715 66.3632 23.3812 66.411 23.3667C66.4588 23.3522 66.454 23.3329 66.4684 23.1062C66.4827 22.8795 66.4684 22.8217 66.4684 22.6239C66.4684 22.4261 66.5114 22.402 66.4684 22.3586C66.4438 22.3477 66.4168 22.3433 66.39 22.3458C66.3633 22.3483 66.3376 22.3577 66.3154 22.3731V22.3731Z" stroke="black" stroke-width="0.75" stroke-miterlimit="10"/>
<path d="M65.9092 22.6191C65.8975 22.6343 65.8912 22.6529 65.8912 22.6721C65.8912 22.6913 65.8975 22.71 65.9092 22.7252C65.9186 22.7466 65.9355 22.7638 65.9566 22.7735C65.9777 22.7833 66.0016 22.785 66.0239 22.7782C66.0465 22.7677 66.0644 22.749 66.0742 22.7258C66.0839 22.7026 66.0847 22.6766 66.0765 22.6528C66.0717 22.6356 66.0624 22.6201 66.0494 22.608C66.0365 22.5958 66.0204 22.5876 66.0031 22.5841C65.9858 22.5806 65.9678 22.582 65.9512 22.5882C65.9347 22.5943 65.9201 22.605 65.9092 22.6191Z" stroke="black" stroke-width="0.75" stroke-miterlimit="10"/>
<path d="M66.4254 23.8346C66.3871 23.8346 66.368 23.931 66.3871 24.0082C66.4062 24.0854 66.5162 24.1336 66.5496 24.259C66.5831 24.3844 66.5496 24.3892 66.5496 24.3941C66.5783 24.3542 66.5986 24.3088 66.6093 24.2607C66.62 24.2126 66.6208 24.1628 66.6118 24.1143C66.598 24.0424 66.5649 23.9756 66.5162 23.9214C66.4923 23.878 66.4493 23.8249 66.4254 23.8346Z" stroke="black" stroke-width="0.75" stroke-miterlimit="10"/>
<path d="M66.5162 24.6786C66.4779 24.6786 66.4206 24.8089 66.4732 24.8571C66.4889 24.8714 66.5094 24.8792 66.5305 24.8792C66.5517 24.8792 66.5721 24.8714 66.5879 24.8571C66.6309 24.8185 66.5592 24.6786 66.5162 24.6786Z" stroke="black" stroke-width="0.75" stroke-miterlimit="10"/>
<path d="M66.5927 26.4922C66.5401 26.5164 66.5544 26.6418 66.5592 26.6804C66.5592 26.8395 66.6357 26.854 66.6452 26.9649C66.6548 27.0759 66.564 27.1916 66.5927 27.2157C66.6213 27.2399 66.7265 27.2157 66.7599 27.1145C66.7934 27.0132 66.6596 26.9408 66.6596 26.7382C66.6596 26.6273 66.7026 26.5405 66.6596 26.5019C66.6505 26.4939 66.6394 26.4888 66.6275 26.4871C66.6156 26.4854 66.6035 26.4872 66.5927 26.4922V26.4922Z" stroke="black" stroke-width="0.75" stroke-miterlimit="10"/>
<path d="M66.2246 28.166C66.1768 28.166 66.1243 28.301 66.1195 28.4168C66.1147 28.5325 66.1482 28.5277 66.1195 28.6338C66.0908 28.7399 66.0669 28.7737 66.0717 28.875C66.0765 28.9763 66.0717 29.0245 66.1195 29.0245C66.1673 29.0245 66.1577 28.9039 66.2342 28.6676C66.3107 28.4312 66.3202 28.4505 66.3059 28.3541C66.2915 28.2576 66.2724 28.166 66.2246 28.166Z" stroke="black" stroke-width="0.75" stroke-miterlimit="10"/>
<path d="M65.3643 29.7577C65.3643 29.7287 65.3978 29.7577 65.4742 29.6949C65.5474 29.6631 65.6114 29.6134 65.6606 29.5502C65.7084 29.4682 65.6606 29.4055 65.7132 29.3573C65.7658 29.3091 65.847 29.3091 65.8709 29.3573C65.8948 29.4055 65.8709 29.449 65.7897 29.5744C65.7287 29.6801 65.6744 29.7897 65.6272 29.9024C65.5412 30.1339 65.6272 30.1966 65.522 30.3847C65.4695 30.486 65.4312 30.486 65.3978 30.5824C65.3643 30.6789 65.3978 30.8815 65.3643 30.8911C65.3309 30.9008 65.2592 30.8091 65.2592 30.7127C65.2592 30.6162 65.3309 30.5969 65.3595 30.4763C65.3882 30.3557 65.3213 30.3172 65.3595 30.2014C65.3978 30.0856 65.4647 30.0856 65.4647 30.0085C65.4647 29.9313 65.3356 29.8396 65.3643 29.7577Z" stroke="black" stroke-width="0.75" stroke-miterlimit="10"/>
<path d="M64.8959 31.2046C64.9581 31.1034 65.111 31.0696 65.1349 31.1034C65.1588 31.1371 65.0345 31.1998 64.982 31.3735C64.9655 31.4757 64.9655 31.5799 64.982 31.6822C64.982 31.8944 65.0154 31.9667 64.982 31.986C64.9485 32.0053 64.8386 31.9523 64.8099 31.8655C64.7812 31.7786 64.8768 31.7063 64.9007 31.523C64.9246 31.3397 64.8386 31.2818 64.8959 31.2046Z" stroke="black" stroke-width="0.75" stroke-miterlimit="10"/>
<path d="M65.4695 31.441C65.4073 31.5085 65.3787 31.5471 65.3834 31.5664C65.3882 31.5857 65.5077 31.6388 65.5651 31.5664C65.5963 31.5332 65.6138 31.4892 65.6138 31.4434C65.6138 31.3976 65.5963 31.3536 65.5651 31.3204C65.5651 31.3204 65.5364 31.3735 65.4695 31.441Z" stroke="black" stroke-width="0.75" stroke-miterlimit="10"/>
<path d="M55.8484 24.9343C55.7671 25.0259 55.791 25.1899 55.8484 25.2189C55.9057 25.2478 55.9583 25.1754 56.0061 25.2189C56.0539 25.2623 56.0061 25.3491 56.0539 25.3539C56.1017 25.3587 56.0921 25.2816 56.1542 25.0983C56.1877 25.0018 56.1925 24.9873 56.1829 24.968C56.1634 24.9432 56.1392 24.9226 56.1117 24.9075C56.0842 24.8923 56.0539 24.8829 56.0227 24.8797C55.9915 24.8766 55.96 24.8798 55.93 24.8891C55.9001 24.8985 55.8723 24.9139 55.8484 24.9343V24.9343Z" stroke="black" stroke-width="0.75" stroke-miterlimit="10"/>
<path d="M58.458 24.4085C58.458 24.3362 58.5057 24.2349 58.5679 24.2301C58.63 24.2253 58.6874 24.4857 58.9407 24.7124C59.0984 24.8475 59.1605 24.7992 59.2514 24.9246C59.3422 25.05 59.3039 25.1851 59.433 25.3346C59.562 25.4842 59.5907 25.4263 59.6433 25.5324C59.6958 25.6385 59.6433 25.706 59.6433 25.8121C59.6433 25.9183 59.7628 26.0147 60.1212 26.2945C60.2934 26.4312 60.4533 26.5829 60.5992 26.7479C60.7712 26.9601 60.7139 26.9746 60.8573 27.153C61.1918 27.5678 61.4786 27.481 61.6698 27.8138C61.7032 27.8765 61.7701 28.0116 61.8944 28.0405C62.0187 28.0695 62.0043 28.0405 62.0665 28.0405C62.1286 28.0405 62.229 28.2624 62.1907 28.2913C62.1525 28.3203 62.076 28.1901 61.8705 28.1081C61.7951 28.0749 61.7138 28.0577 61.6315 28.0577C61.5493 28.0577 61.4679 28.0749 61.3926 28.1081C61.3307 28.1439 61.2775 28.1932 61.237 28.2525C61.1965 28.3118 61.1696 28.3794 61.1584 28.4505C61.1249 28.6627 61.2731 28.7206 61.3687 29.1113C61.3846 29.2591 61.4167 29.4047 61.4643 29.5454C61.5223 29.7015 61.6392 29.828 61.7893 29.8975C61.8753 29.9265 61.8849 29.8975 61.947 29.9313C62.1191 30.0133 62.1047 30.2303 62.2194 30.2545C62.3341 30.2786 62.315 30.1821 62.4249 30.1725C62.5001 30.1773 62.5721 30.2046 62.6317 30.251C62.6913 30.2974 62.7358 30.3608 62.7595 30.4329C62.8169 30.5921 62.7595 30.7802 62.7117 30.7898C62.6639 30.7995 62.6448 30.6789 62.4919 30.5535C62.4202 30.4908 62.3867 30.486 62.3676 30.4908C62.3485 30.4956 62.2816 30.5969 62.1955 30.621C62.1095 30.6451 62.0426 30.5535 61.9804 30.5824C61.9183 30.6114 61.904 30.8236 61.9327 30.9538C61.9757 31.1661 62.0808 31.2722 62.0474 31.3011C62.0139 31.3301 61.8801 31.2529 61.7749 31.1516C61.7025 31.066 61.643 30.9701 61.5981 30.867C61.4834 30.6693 61.4451 30.6837 61.3543 30.5294C61.2586 30.3186 61.1833 30.0989 61.1297 29.8734C61.091 29.7371 61.0331 29.6072 60.9576 29.4875C60.8477 29.3525 60.7712 29.3477 60.69 29.2223C60.6087 29.0968 60.6565 29.0004 60.5896 28.8026C60.4892 28.4988 60.2837 28.5084 60.1117 28.1659C60.0731 28.0411 60.0428 27.9138 60.0209 27.7849C59.9728 27.5553 59.899 27.332 59.801 27.1193C59.6311 26.9155 59.4491 26.7222 59.2561 26.5405C59.0411 26.3331 58.9789 26.2704 58.9407 26.1498C58.8786 25.952 58.9741 25.8748 58.8929 25.7012C58.8116 25.5276 58.6157 25.4552 58.63 25.3298C58.6444 25.2044 58.7447 25.2285 58.7925 25.0838C58.825 25.0001 58.825 24.9071 58.7925 24.8234C58.7208 24.6835 58.5631 24.7124 58.4771 24.5484C58.4551 24.5054 58.4483 24.456 58.458 24.4085V24.4085Z" stroke="black" stroke-width="0.75" stroke-miterlimit="10"/>
<path d="M2.47099 20.8537C2.46373 20.7929 2.46373 20.7313 2.47099 20.6704C2.4971 20.569 2.52901 20.4691 2.56658 20.3714C2.59526 20.2315 2.56658 20.2267 2.56658 20.053C2.56658 19.8794 2.63827 19.8746 2.63349 19.7636C2.62871 19.6527 2.51879 19.59 2.50923 19.4308C2.49967 19.2717 2.58092 19.2765 2.5857 19.0643C2.59281 18.9929 2.57955 18.9209 2.54746 18.8569C2.50923 18.799 2.48533 18.8038 2.47099 18.7652C2.45665 18.7266 2.62393 18.5964 2.62393 18.442C2.62393 18.3745 2.59048 18.3793 2.55702 18.2491C2.52357 18.1189 2.52357 17.9887 2.55702 17.979C2.59048 17.9694 2.63827 18.0948 2.67651 18.0851C2.71474 18.0755 2.67651 17.9356 2.73386 17.9163C2.79122 17.897 2.81033 17.9163 2.82945 17.979C2.84857 18.0417 2.82945 18.0803 2.82945 18.1575C2.82945 18.2346 2.92504 18.3215 2.99196 18.3166C3.05887 18.3118 3.06843 18.2346 3.1449 18.2202C3.22137 18.2057 3.23093 18.2684 3.31218 18.2684C3.39343 18.2684 3.48424 18.1526 3.5416 18.1768C3.59895 18.2009 3.57027 18.2829 3.61329 18.3022C3.6563 18.3215 3.71366 18.2298 3.74234 18.2491C3.77101 18.2684 3.71366 18.4131 3.77101 18.4613C3.78342 18.4707 3.79852 18.4758 3.81403 18.4758C3.82954 18.4758 3.84463 18.4707 3.85704 18.4613C3.90962 18.4131 3.78057 18.2539 3.85704 18.1526C3.93352 18.0514 3.90962 18.1189 3.9144 18.0851C3.91918 18.0514 3.85226 18.0031 3.84271 17.9356C3.83315 17.8681 3.9144 17.7475 3.98131 17.7523C4.04822 17.7571 4.03866 17.815 4.17249 18.0272C4.22984 18.1141 4.25852 18.1526 4.27764 18.1478C4.29676 18.143 4.27764 17.9935 4.32543 17.9694C4.37323 17.9452 4.43536 18.0755 4.6122 18.1478C4.64532 18.1656 4.68225 18.1748 4.71974 18.1748C4.75724 18.1748 4.79416 18.1656 4.82728 18.1478C4.84959 18.133 4.86698 18.1117 4.8772 18.0868C4.88742 18.0618 4.89001 18.0344 4.88463 18.0079C4.88463 17.9452 4.77471 17.9597 4.66478 17.8922C4.55485 17.8247 4.4497 17.651 4.47838 17.6221C4.50705 17.5931 4.60742 17.6848 4.66 17.6221C4.71257 17.5594 4.66 17.569 4.68868 17.5208C4.70254 17.4946 4.7232 17.4726 4.74845 17.4573C4.77371 17.442 4.80261 17.434 4.83206 17.434C4.92287 17.434 4.94677 17.5545 5.03758 17.5545C5.12839 17.5545 5.09015 17.5208 5.13795 17.5256C5.18574 17.5304 5.1953 17.5256 5.28611 17.6414L5.41994 17.7764C5.49163 17.8777 5.47729 17.9115 5.52987 17.9404C5.56775 17.9591 5.61035 17.9659 5.65211 17.9599C5.69388 17.9539 5.73288 17.9353 5.76406 17.9067C5.82619 17.8343 5.79752 17.7378 5.85487 17.7137C5.91223 17.6896 5.90745 17.7378 5.95046 17.7137C5.97418 17.6999 5.99406 17.6803 6.00827 17.6567C6.02247 17.6331 6.03053 17.6063 6.03171 17.5787C6.03171 17.5256 6.03171 17.516 6.03171 17.4822C6.04705 17.4529 6.0729 17.4306 6.10398 17.4198C6.13507 17.409 6.16905 17.4107 6.19899 17.4243C6.23245 17.4484 6.19899 17.5015 6.25635 17.5208C6.26739 17.5267 6.2797 17.5298 6.29219 17.5298C6.30469 17.5298 6.317 17.5267 6.32804 17.5208C6.35672 17.4918 6.32804 17.4388 6.32804 17.352C6.32804 17.352 6.32804 17.2555 6.38539 17.2507C6.44275 17.2459 6.43319 17.3134 6.5001 17.3423C6.537 17.3613 6.57912 17.3673 6.61979 17.3595C6.66047 17.3516 6.6974 17.3303 6.72474 17.2989C6.7582 17.2459 6.72474 17.1928 6.75819 17.1542C6.79165 17.1156 6.8729 17.1542 6.88246 17.1204C6.89202 17.0867 6.78209 17.0674 6.75342 16.9854C6.72474 16.9034 6.82989 16.831 6.79165 16.749C6.75342 16.667 6.74386 16.7153 6.72952 16.6767C6.71518 16.6381 6.79165 16.5609 6.77253 16.4934C6.75342 16.4259 6.65783 16.4259 6.64827 16.3632C6.63871 16.3005 6.7104 16.2957 6.7104 16.2281C6.7104 16.1606 6.64827 16.1558 6.63871 16.0834C6.62915 16.0111 6.70562 15.9387 6.6865 15.9098C6.66738 15.8808 6.57179 15.9484 6.50966 15.9098C6.49694 15.8891 6.48867 15.866 6.48538 15.8419C6.48208 15.8178 6.48384 15.7933 6.49054 15.7699C6.49054 15.7313 6.54312 15.7217 6.55746 15.6686C6.55986 15.6429 6.55986 15.6171 6.55746 15.5914C6.55746 15.4757 6.70084 15.4419 6.69606 15.3551C6.69128 15.2683 6.62915 15.2635 6.48576 15.1573C6.34238 15.0512 6.34716 15.0657 6.31848 15.0126C6.29086 14.9524 6.27933 14.8859 6.28503 14.8197C6.28503 14.7184 6.3137 14.6943 6.28503 14.6461C6.25635 14.5978 6.19899 14.5978 6.1751 14.5399C6.1512 14.4821 6.1751 14.3856 6.24201 14.3133C6.27474 14.2539 6.31856 14.2015 6.37106 14.1589C6.47143 14.0721 6.55268 14.0673 6.56224 14.0094C6.57179 13.9515 6.50966 13.9467 6.51922 13.8888C6.52878 13.8309 6.60047 13.8213 6.60525 13.7682C6.61003 13.7152 6.53356 13.7055 6.51444 13.6235C6.49532 13.5415 6.51444 13.5608 6.51444 13.5029C6.51444 13.445 6.42363 13.4161 6.41885 13.363C6.41407 13.31 6.4762 13.3003 6.59569 13.1798C6.71518 13.0592 6.70084 13.0592 6.73908 13.064C6.77731 13.0688 6.77731 13.1219 6.82033 13.1267C6.83894 13.133 6.85907 13.133 6.87768 13.1267C6.91114 13.0929 6.90158 13.0447 6.90636 13.0109C6.90636 12.8904 7.02585 12.8807 7.09754 12.7071C7.12748 12.651 7.1376 12.5864 7.12622 12.5238C7.10594 12.4771 7.08994 12.4287 7.07842 12.3791C7.07656 12.3534 7.07656 12.3276 7.07842 12.3019C7.07842 12.273 7.07842 12.2392 6.93982 12.1331C6.80121 12.027 6.84901 12.0607 6.83945 12.0318C6.82989 12.0029 6.83945 11.9353 6.83945 11.8871C6.83945 11.8389 6.81555 11.8485 6.79165 11.8485C6.76775 11.8485 6.7343 11.9257 6.68172 11.9402C6.65809 11.9413 6.63458 11.9361 6.61359 11.9251C6.5926 11.9141 6.57488 11.8976 6.56224 11.8775C6.50488 11.7906 6.56224 11.6508 6.60525 11.5784C6.63522 11.5087 6.67731 11.445 6.72952 11.3903C6.8729 11.2359 6.93982 11.2745 7.03063 11.1491C7.12144 11.0237 7.08798 11.0044 7.16923 10.9514C7.16923 10.9514 7.26482 10.8887 7.30306 10.9176C7.34129 10.9465 7.30306 10.9658 7.30306 11.0382C7.31225 11.0905 7.32503 11.142 7.34129 11.1925C7.36512 11.2634 7.40668 11.3268 7.46195 11.3767C7.51722 11.4265 7.58432 11.4611 7.65674 11.4771C7.67946 11.4867 7.70382 11.4916 7.72843 11.4916C7.75304 11.4916 7.77741 11.4867 7.80012 11.4771C7.84792 11.4289 7.80012 11.3517 7.85748 11.2649C7.91483 11.1781 7.91483 11.2263 7.92917 11.1829C7.94326 11.1357 7.94326 11.0854 7.92917 11.0382C7.89571 10.9224 7.86704 10.9176 7.8766 10.8838C7.88616 10.8501 8.06778 10.8356 8.11557 10.7343C8.12029 10.6733 8.12029 10.612 8.11557 10.551C8.11199 10.5158 8.11199 10.4802 8.11557 10.4449C8.15381 10.3629 8.23506 10.3726 8.25896 10.3002C8.28285 10.2279 8.25896 10.2182 8.25896 10.1845C8.25896 10.1507 8.33543 10.1845 8.36888 10.1459C8.40234 10.1073 8.36888 10.0349 8.36888 9.94329C8.36888 9.85164 8.42146 9.842 8.46925 9.83717C8.51705 9.83235 8.54573 9.89505 8.5983 9.89023C8.65087 9.88541 8.64131 9.85164 8.71779 9.76964C8.75718 9.72072 8.80813 9.68258 8.86595 9.65871C8.91853 9.65871 8.92808 9.65871 8.98066 9.65871C9.00346 9.65309 9.02492 9.64294 9.04379 9.62886C9.06266 9.61478 9.07857 9.59706 9.09059 9.57671C9.09059 9.53812 9.09059 9.51401 9.09059 9.46095C9.09059 9.40789 9.15272 9.35001 9.17662 9.25837C9.18827 9.21391 9.18869 9.16722 9.17784 9.12256C9.16698 9.0779 9.1452 9.0367 9.11448 9.00273C9.05713 8.94003 9.00456 8.96414 8.9711 8.90144C8.95726 8.87724 8.94997 8.84979 8.94997 8.82185C8.94997 8.79391 8.95726 8.76647 8.9711 8.74227C9.01412 8.68439 9.06669 8.7085 9.1097 8.6458C9.12603 8.61632 9.1346 8.58311 9.1346 8.54933C9.1346 8.51556 9.12603 8.48235 9.1097 8.45287C9.07147 8.37569 8.995 8.36122 8.99978 8.31299C9.00456 8.26476 9.06191 8.26958 9.06669 8.22135C9.07147 8.17311 9.03323 8.16829 9.02845 8.1297C9.02367 8.09111 9.06191 8.03806 9.1097 7.99465C9.19499 7.91696 9.28607 7.84601 9.38214 7.78242C9.5064 7.6956 9.5542 7.66666 9.56854 7.60396C9.58288 7.54125 9.56854 7.53161 9.56854 7.49784C9.56854 7.46408 9.75016 7.49784 9.90788 7.41584C9.93231 7.40612 9.95437 7.39117 9.97252 7.37202C9.99067 7.35287 10.0045 7.32997 10.013 7.30491C10.013 7.26632 10.013 7.25185 10.013 7.21809C10.013 7.18432 10.0991 7.17468 10.1182 7.12162C10.1373 7.06856 10.1182 7.05892 10.1182 7.03962C10.1182 7.02033 10.3046 7.03962 10.4049 7.0975C10.5053 7.15538 10.4719 7.13609 10.5053 7.13127C10.5388 7.12644 10.5579 7.13127 10.6391 6.99621C10.7204 6.86116 10.7061 6.8708 10.7491 6.83222C10.788 6.8047 10.8318 6.78504 10.8781 6.77434C11.0649 6.68282 11.2603 6.61012 11.4612 6.55729C11.5628 6.56966 11.6655 6.56966 11.7671 6.55729C11.8279 6.54202 11.8871 6.52103 11.9439 6.49458C12.0825 6.44153 12.1542 6.38847 12.1734 6.40776C12.1925 6.42706 12.116 6.51388 12.1399 6.55246C12.1638 6.59105 12.2403 6.55246 12.2833 6.5814C12.3263 6.61034 12.2833 6.65858 12.3167 6.70681C12.3502 6.75504 12.4792 6.70681 12.5366 6.79845C12.594 6.8901 12.5366 6.82739 12.5653 6.98174C12.594 7.13609 12.5653 7.17468 12.5892 7.1795C12.6131 7.18432 12.7708 7.05409 12.7708 6.89492C12.7708 6.73575 12.6513 6.67305 12.6943 6.57658C12.7373 6.48011 12.7708 6.51388 12.7899 6.44635C12.809 6.37882 12.7612 6.34988 12.7899 6.31129C12.8186 6.27271 13.0098 6.31129 13.0337 6.25824C13.0576 6.20518 12.9811 6.16659 12.9572 6.1473C12.9333 6.12801 12.7756 6.06048 12.766 6.0026C12.7642 5.98789 12.7663 5.97294 12.7722 5.95935C12.7781 5.94576 12.7875 5.93403 12.7995 5.92543C12.8664 5.87719 12.9715 6.02672 13.1962 6.10389C13.4208 6.18106 13.4256 6.10389 13.5929 6.17624C13.7601 6.24859 13.7171 6.29682 13.8414 6.34023C13.9657 6.38365 14.0087 6.34024 14.1951 6.374C14.3815 6.40776 14.3432 6.44635 14.4484 6.45117C14.5535 6.456 14.5774 6.40776 14.6874 6.42223C14.7973 6.4367 14.8021 6.48494 14.9359 6.50905C14.991 6.52091 15.048 6.52091 15.1032 6.50905C15.1797 6.50905 15.2083 6.4367 15.3183 6.41259C15.4282 6.38847 15.3613 6.41259 15.3852 6.41259C15.4091 6.41259 15.4664 6.28718 15.5429 6.19071C15.6194 6.09424 15.6289 6.1473 15.6767 6.0846C15.7245 6.02189 15.6767 5.86272 15.7723 5.6939C15.801 5.64085 15.8392 5.5685 15.9109 5.5492C15.9826 5.52991 16.0686 5.64567 16.1834 5.6312C16.2981 5.61673 16.3411 5.53473 16.4175 5.43344C16.494 5.33215 16.5275 5.23086 16.6135 5.21157C16.6995 5.19227 16.7187 5.1971 16.7187 5.15851C16.7187 5.11992 16.7187 5.08616 16.7426 5.02346C16.7579 4.97732 16.7876 4.9374 16.8272 4.9096C16.8668 4.88181 16.9142 4.86761 16.9624 4.86911C17.0198 4.86911 17.0293 4.94146 17.0676 4.93181C17.1058 4.92217 17.101 4.81123 17.1727 4.76782C17.2444 4.72441 17.2635 4.76782 17.3448 4.7437C17.426 4.71959 17.4404 4.67618 17.4834 4.67618C17.5264 4.67618 17.5407 4.80158 17.6029 4.82088C17.665 4.84017 17.751 4.73888 17.9135 4.55077C17.9135 4.55077 18.0665 4.3723 18.2194 4.21796C18.3724 4.06361 18.4871 3.95267 18.5922 3.92373C18.7107 3.90451 18.832 3.91444 18.9459 3.95267C19.1562 4.00091 19.2374 4.08773 19.3091 4.03949C19.3808 3.99126 19.3091 3.94302 19.4 3.81762C19.4908 3.69221 19.5433 3.7115 19.6055 3.59574C19.6676 3.47998 19.6055 3.4221 19.6819 3.32563C19.7437 3.24982 19.83 3.19855 19.9257 3.18093C20.05 3.18093 20.1169 3.18093 20.179 3.15199C20.2411 3.12305 20.2125 3.06035 20.265 3.03141C20.2822 3.02324 20.301 3.01901 20.32 3.01901C20.339 3.01901 20.3578 3.02324 20.375 3.03141C20.4132 3.06517 20.375 3.11341 20.4275 3.15682C20.4801 3.20023 20.5088 3.15682 20.6092 3.20505C20.7095 3.25328 20.786 3.34975 20.8768 3.33528C20.9676 3.32081 20.9533 3.28222 21.0059 3.29669C21.019 3.29985 21.0313 3.30577 21.0421 3.31409C21.0528 3.3224 21.0616 3.33291 21.068 3.34493C21.068 3.39798 21.0202 3.4414 21.0393 3.47998C21.0478 3.48559 21.0578 3.48857 21.068 3.48857C21.0782 3.48857 21.0881 3.48559 21.0967 3.47998C21.1492 3.47998 21.1588 3.41246 21.1923 3.41728C21.2257 3.4221 21.2257 3.45104 21.2448 3.50892C21.264 3.5668 21.2448 3.56198 21.2448 3.57163C21.2448 3.58127 21.2066 3.57163 21.1923 3.60057C21.1844 3.61189 21.1803 3.62536 21.1803 3.63915C21.1803 3.65295 21.1844 3.66642 21.1923 3.67774C21.1923 3.70668 21.2592 3.67774 21.3739 3.67774C21.4886 3.67774 21.479 3.67774 21.479 3.67774C21.479 3.67774 21.4121 3.74527 21.4121 3.80797C21.4121 3.87067 21.4981 3.89479 21.4981 3.95267C21.4981 4.01055 21.3834 4.07326 21.3404 4.04432C21.2974 4.01538 21.3404 3.86103 21.2926 3.82726C21.2448 3.7935 21.2305 3.82726 21.2018 3.82726C21.1731 3.82726 21.2018 3.94785 21.2018 4.13596C21.1969 4.20501 21.1969 4.27432 21.2018 4.34336C21.2018 4.3916 21.2018 4.43018 21.2018 4.4543C21.2496 4.69547 21.2257 4.72923 21.264 4.86911C21.3022 5.00899 21.3595 5.01863 21.3595 5.1151C21.3595 5.21157 21.2878 5.26945 21.264 5.43827C21.2401 5.60708 21.264 5.5685 21.264 5.67461C21.264 5.78072 21.1349 5.83861 21.0823 6.00742C21.0298 6.17624 21.1206 6.22447 21.0489 6.40294C21.0106 6.46007 20.9891 6.52694 20.9867 6.59587C20.9867 6.67305 21.0441 6.68269 21.0489 6.75022C21.0537 6.81775 20.982 6.86598 20.9342 7.00104C20.8864 7.13609 20.9342 7.12644 20.9007 7.21326C20.8673 7.30008 20.7095 7.34349 20.6235 7.50749C20.5853 7.58949 20.6235 7.59431 20.5805 7.63772C20.4562 7.80171 20.1025 7.73419 20.05 7.72454C19.9974 7.71489 19.9878 7.72454 19.9209 7.6956C19.8209 7.68365 19.7198 7.68365 19.6198 7.6956C19.4947 7.66608 19.3803 7.60155 19.2898 7.5094C19.1994 7.41726 19.1365 7.30125 19.1084 7.17468C19.1084 7.02033 19.1705 6.96727 19.1084 6.79845C19.0463 6.62964 19.0463 6.68752 18.9985 6.52835C18.949 6.42835 18.9355 6.31412 18.9602 6.20518C18.9985 6.10871 19.0749 6.07977 19.0606 6.02189C19.0463 5.96401 18.9411 5.94954 18.9363 5.89166C18.9316 5.83378 18.9794 5.85308 18.9985 5.80002C19.0176 5.74696 18.9602 5.63602 18.9985 5.57814C19.0367 5.52026 19.0606 5.5492 19.0654 5.52509C19.0702 5.50097 18.9602 5.46238 18.9507 5.39968C18.9411 5.33698 19.0319 5.31768 19.0845 5.21157C19.1371 5.10545 19.1275 4.99452 19.0845 4.98487C19.0415 4.97522 18.9268 5.16333 18.8885 5.23086C18.8487 5.31694 18.804 5.40068 18.7547 5.48168C18.6782 5.58297 18.6352 5.58779 18.5874 5.67943C18.558 5.74662 18.5402 5.8184 18.5349 5.89166C18.5196 6.03131 18.4648 6.16357 18.3771 6.27271C18.334 6.31437 18.283 6.34692 18.2272 6.36845C18.1713 6.38999 18.1118 6.40007 18.0521 6.39812C17.9518 6.39812 17.8801 6.34506 17.8418 6.39812C17.8036 6.45117 17.8418 6.47529 17.8418 6.54282C17.8418 6.61034 17.6985 6.6007 17.6124 6.71646C17.5264 6.83222 17.5646 6.82257 17.5025 6.86598C17.4404 6.90939 17.4738 6.86598 17.4117 6.90939C17.3495 6.9528 17.2587 6.98657 17.2348 7.02998C17.2266 7.06811 17.2266 7.1076 17.2348 7.14574C17.2383 7.19657 17.248 7.24678 17.2635 7.29526C17.2635 7.4062 17.2922 7.45925 17.2635 7.50266C17.2348 7.54607 17.187 7.5316 17.1393 7.58466C17.1182 7.6189 17.1048 7.6573 17.0999 7.69726C17.0949 7.73722 17.0986 7.77778 17.1106 7.81618C17.1106 7.88371 17.1488 7.88853 17.1679 7.95124C17.187 8.01394 17.1201 8.10559 17.1679 8.15864C17.2157 8.2117 17.2062 8.15864 17.2874 8.20205C17.3687 8.24546 17.4021 8.27923 17.4404 8.26958C17.4786 8.25993 17.4738 8.19241 17.5407 8.15382C17.6076 8.11523 17.6363 8.15382 17.6698 8.11523C17.7032 8.07664 17.6698 7.95124 17.6698 7.93677C17.6698 7.84512 17.6029 7.84995 17.5837 7.78724C17.5646 7.72454 17.6363 7.67631 17.7606 7.42549C17.794 7.35796 17.8179 7.30973 17.8562 7.30491C17.8944 7.30008 17.9135 7.37726 17.9852 7.39173C18.0569 7.4062 18.1095 7.32902 18.1525 7.35314C18.1955 7.37726 18.1525 7.44961 18.1525 7.62325C18.1525 7.79689 18.2003 7.84512 18.1525 7.89818C18.1047 7.95124 18.0665 7.95124 18.0617 7.98982C18.0569 8.02841 18.0904 8.04288 18.1286 8.09111C18.1592 8.12905 18.1807 8.17358 18.1915 8.22126C18.2023 8.26894 18.202 8.31848 18.1907 8.36605C18.1621 8.4384 18.0951 8.46251 18.1047 8.48663C18.1143 8.51075 18.2051 8.48663 18.2577 8.53004C18.3102 8.57345 18.2577 8.60239 18.3102 8.60721C18.3628 8.61204 18.3389 8.60721 18.3676 8.57827C18.3963 8.54933 18.4345 8.57827 18.4679 8.57827C18.5014 8.57827 18.5827 8.44322 18.6926 8.26958C18.8025 8.09594 18.8216 8.06217 18.8885 8.04288C18.9555 8.02359 19.0176 8.09594 19.1849 8.10558C19.3522 8.11523 19.3761 8.05253 19.4621 8.10558C19.5481 8.15864 19.529 8.24064 19.6198 8.30334C19.7106 8.36605 19.9209 8.24064 20.1312 8.30334C20.1647 8.30334 20.2125 8.33711 20.2172 8.37087C20.222 8.40463 20.1551 8.4191 20.1503 8.45769C20.1456 8.49628 20.2316 8.51557 20.2842 8.58792C20.3309 8.66247 20.3463 8.75268 20.3272 8.83874C20.3272 8.97861 20.2364 9.06061 20.2555 9.0799C20.2746 9.0992 20.3367 9.02202 20.4562 8.94967C20.5757 8.87732 20.6235 8.90626 20.7669 8.82909C20.8732 8.79808 20.9638 8.72737 21.0202 8.63133C21.0584 8.53486 21.0202 8.49628 21.0202 8.41428C21.0202 8.33228 21.2496 8.28405 21.5651 8.14417C21.8088 8.03323 21.9426 7.97053 21.9809 7.83548C22.0191 7.70042 21.9474 7.61843 22.0287 7.50266C22.0573 7.45925 22.1051 7.41584 22.1338 7.42549C22.1625 7.43514 22.1338 7.54608 22.1625 7.67631C22.1912 7.80654 22.2342 7.76795 22.325 7.90783C22.4158 8.0477 22.4971 8.17794 22.4349 8.28405C22.3728 8.39016 22.3346 8.31781 22.2963 8.38534C22.2581 8.45287 22.3441 8.5831 22.2963 8.6651C22.2485 8.74709 22.2294 8.68921 22.1625 8.75674C22.0956 8.82427 22.1004 8.86768 22.0621 8.8725C22.0239 8.87732 22 8.82427 21.9283 8.72298C21.8566 8.62168 21.7945 8.53486 21.761 8.53969C21.7276 8.54451 21.761 8.57827 21.7084 8.59757C21.6559 8.61686 21.6368 8.59757 21.5651 8.59757C21.5166 8.584 21.4654 8.584 21.4169 8.59757C21.3783 8.61911 21.3469 8.65163 21.3265 8.69108C21.3061 8.73054 21.2976 8.77518 21.3022 8.81944C21.3022 8.8725 21.3452 8.87732 21.3452 8.92073C21.3452 8.96414 21.2305 9.03167 21.2114 9.12814C21.1923 9.2246 21.2401 9.24872 21.3261 9.36448C21.4121 9.48024 21.4647 9.56224 21.5316 9.56706C21.5985 9.57189 21.5937 9.51883 21.7084 9.48024C21.8232 9.44166 21.8471 9.48024 21.9187 9.43201C21.9904 9.38378 21.9713 9.35966 22.0287 9.33554C22.0605 9.31904 22.0957 9.31043 22.1314 9.31043C22.1672 9.31043 22.2024 9.31904 22.2342 9.33554C22.3346 9.39825 22.3489 9.52365 22.3824 9.51883C22.4158 9.51401 22.3824 9.36931 22.454 9.35001C22.5257 9.33072 22.5353 9.42719 22.6309 9.48507C22.7239 9.52645 22.8264 9.54146 22.9272 9.52848C23.3048 9.52848 23.3717 9.48507 23.496 9.52848C23.5701 9.56491 23.6293 9.62633 23.6633 9.70212C23.6967 9.78894 23.6633 9.86129 23.7063 9.88058C23.7493 9.89988 23.8162 9.77929 23.9548 9.76C23.9883 9.76 23.993 9.76 24.1603 9.79376C24.2615 9.80637 24.3609 9.83064 24.4567 9.86611C24.5331 9.9047 24.6192 9.9674 24.6096 9.99634C24.6 10.0253 24.4901 9.96258 24.3754 9.99634C24.2607 10.0301 24.2177 10.2423 24.103 10.252C23.9883 10.2616 23.9691 10.1652 23.9309 10.1893C23.8927 10.2134 23.8975 10.3533 23.9691 10.4063C24.0408 10.4594 24.0695 10.4063 24.1077 10.4497C24.146 10.4931 24.1077 10.6186 24.146 10.633C24.1842 10.6475 24.232 10.4739 24.3467 10.4546C24.4614 10.4353 24.4232 10.4883 24.5666 10.5173C24.71 10.5462 24.7195 10.5173 24.7625 10.551C24.8056 10.5848 24.7912 10.6137 24.8342 10.715C24.8772 10.8163 24.9155 10.9176 24.9776 10.9224C25.0397 10.9273 25.0445 10.8115 25.1306 10.7922C25.2166 10.7729 25.1975 10.8163 25.3217 10.8742C25.446 10.9321 25.4651 10.9128 25.5512 10.961C25.6372 11.0092 25.7184 11.0623 25.7184 11.1298C25.7184 11.1974 25.5607 11.2167 25.4842 11.371C25.446 11.4482 25.4317 11.535 25.4556 11.5495C25.4795 11.5639 25.5368 11.4578 25.6563 11.4048C25.7758 11.3517 25.9096 11.4434 26.0243 11.3806C26.139 11.3179 26.1008 10.9465 26.2681 10.8742C26.3446 10.8404 26.4067 10.8742 26.5214 10.8404C26.6361 10.8067 26.617 10.7536 26.6648 10.744C26.8846 10.7488 27.2335 11.4289 27.2335 11.4819C27.2909 11.6025 27.3578 11.7906 27.4916 12.162C27.5766 12.3634 27.65 12.5695 27.7115 12.7794C27.7784 13.1267 27.7115 13.2859 27.8358 13.3438C27.9076 13.3638 27.9842 13.358 28.0523 13.3272C28.1204 13.2963 28.1756 13.2425 28.2086 13.1749C28.2372 13.0785 28.1608 13.0447 28.1608 12.9C28.1608 12.6781 28.3376 12.5768 28.2802 12.4611C28.2229 12.3453 28.1608 12.3646 28.1608 12.2826C28.1608 12.2006 28.1608 12.2199 28.1608 12.2054C28.1608 12.191 28.0699 12.244 28.0413 12.2054C28.0126 12.1669 28.0413 11.863 28.1799 11.8196C28.3185 11.7762 28.3424 11.8726 28.3902 11.8196C28.438 11.7665 28.3902 11.7376 28.3902 11.6652C28.4189 11.4675 28.7534 11.4241 28.7486 11.2986C28.7439 11.1732 28.61 11.2118 28.6053 11.1202C28.6005 11.0285 28.7869 10.9176 28.8394 10.8935C29.0258 10.797 29.088 10.8501 29.2696 10.7777C29.4135 10.6968 29.5468 10.598 29.6663 10.4835C29.8527 10.3243 29.9483 10.2472 30.0152 10.1845C30.1634 10.0398 30.259 9.92882 30.3402 9.95776C30.4215 9.9867 30.3832 10.0108 30.4501 10.0446C30.517 10.0783 30.5648 10.0446 30.6318 10.0783C30.6987 10.1121 30.7226 10.1555 30.8946 10.3533C31.0667 10.551 31.0476 10.5076 31.0476 10.5607C31.0476 10.6137 30.9759 10.6861 30.8421 10.8404C30.5983 11.1154 30.627 11.2504 30.4501 11.3228C30.3737 11.3517 30.302 11.3517 30.259 11.4144C30.2249 11.4777 30.2131 11.5509 30.2255 11.6218C30.2255 11.752 30.2829 11.7762 30.2876 11.863C30.2924 11.9498 30.2876 11.9691 30.1442 12.1669C30.0009 12.3646 29.9387 12.3984 29.8527 12.5575C29.804 12.6649 29.7498 12.7695 29.6902 12.8711C29.6463 12.9398 29.5984 13.0058 29.5468 13.0688C29.4535 13.1649 29.3717 13.2718 29.3031 13.3872C29.2589 13.4528 29.234 13.5297 29.2314 13.609C29.2314 13.6959 29.2887 13.7103 29.327 13.8261C29.3652 13.9419 29.3939 14.0287 29.327 14.1203C29.26 14.212 29.2075 14.1541 29.1023 14.2409C28.9972 14.3277 29.0641 14.3084 28.9207 14.5158C28.8538 14.6171 28.8347 14.6364 28.8012 14.6509C28.7678 14.6654 28.6769 14.6509 28.6005 14.6846C28.524 14.7184 28.5288 14.7956 28.4427 14.8245C28.3567 14.8535 28.3472 14.8245 28.3233 14.8631C28.2994 14.9017 28.3233 14.9017 28.3233 14.9306C28.3233 14.9596 28.1369 14.9982 28.0461 15.1188C27.9552 15.2393 28.0461 15.22 27.9791 15.2393C27.9122 15.2586 27.8597 15.1959 27.7449 15.2152C27.6302 15.2345 27.6685 15.2538 27.6207 15.2442C27.591 15.2353 27.5642 15.2185 27.5432 15.1956C27.5222 15.1727 27.5077 15.1445 27.5012 15.1139C27.5012 15.0416 27.5012 14.9982 27.5012 14.9789C27.5012 14.9596 27.353 14.9789 27.3339 15.056C27.3148 15.1332 27.3339 15.1236 27.4152 15.2345C27.4875 15.3426 27.5744 15.44 27.6732 15.5239C27.788 15.63 27.8501 15.6831 27.9122 15.6831C27.9744 15.6831 28.0222 15.577 28.1608 15.5046C28.2994 15.4323 28.4332 15.5046 28.6387 15.4274C28.7189 15.3913 28.7918 15.3406 28.8538 15.2779C28.9685 15.1573 28.9494 15.0946 29.0402 14.9982C29.131 14.9017 29.2648 14.9355 29.4082 14.8101C29.534 14.6779 29.61 14.5056 29.6233 14.3229C29.6233 14.1878 29.5946 14.1251 29.6233 14.0673C29.652 14.0094 29.738 14.0335 29.9244 14.0383C30.2303 14.0383 30.3259 13.9853 30.3689 14.0383C30.4119 14.0914 30.3163 14.183 30.3689 14.347C30.4215 14.511 30.4884 14.511 30.4836 14.6171C30.4788 14.7232 30.3593 14.7329 30.2494 14.9162C30.1766 15.0126 30.1425 15.1331 30.1538 15.2538C30.1791 15.374 30.2429 15.4825 30.3354 15.5625C30.4262 15.6493 30.584 15.7603 30.6365 15.7168C30.6891 15.6734 30.6365 15.6156 30.6365 15.5721C30.6365 15.5287 30.5601 15.4853 30.4262 15.384C30.2924 15.2827 30.2781 15.249 30.2733 15.2345C30.2494 15.1188 30.4119 14.9982 30.4215 14.9933C30.5075 14.9258 30.5457 14.9548 30.5887 14.8969C30.6318 14.839 30.5887 14.7232 30.6318 14.5785C30.6748 14.4338 30.7895 14.4242 30.7847 14.3422C30.7799 14.2602 30.6604 14.2554 30.5553 14.13C30.4501 14.0046 30.4931 13.8164 30.388 13.7586C30.2829 13.7007 30.0678 13.8743 29.9626 13.7827C29.9339 13.7827 29.9196 13.7296 29.8718 13.7103C29.824 13.691 29.7714 13.7103 29.7428 13.7103C29.734 13.6941 29.7294 13.6758 29.7294 13.6573C29.7294 13.6387 29.734 13.6205 29.7428 13.6042C29.7428 13.4981 29.8384 13.4885 29.8862 13.392C29.9339 13.2955 29.8575 13.2039 29.9244 13.1026C29.9913 13.0013 30.0487 13.0399 30.1156 12.9386C30.1825 12.8373 30.1156 12.8421 30.1729 12.7698C30.2303 12.6974 30.4119 12.6685 30.4884 12.5431C30.5648 12.4177 30.4884 12.4756 30.4884 12.2923C30.5123 12.0318 30.584 12.0077 30.5696 11.8099C30.5696 11.7183 30.5696 11.6797 30.5696 11.6218C30.6102 11.5485 30.6768 11.4933 30.756 11.4675C31.0667 11.3372 31.1575 11.4096 31.2961 11.3179C31.4307 11.1931 31.5114 11.0199 31.5207 10.8356C31.5494 10.6089 31.4825 10.4256 31.5207 10.4112C31.559 10.3967 31.602 10.4642 31.6211 10.498C31.6732 10.5954 31.6868 10.7091 31.6593 10.8163C31.6593 10.9176 31.6307 10.9176 31.6211 11.0141C31.6116 11.1105 31.6211 11.1732 31.6211 11.2456C31.6211 11.3179 31.5781 11.3083 31.3917 11.4723C31.2053 11.6363 31.2053 11.6508 31.2005 11.699C31.1957 11.7472 31.2005 11.7955 31.2005 11.8485C31.2005 11.9016 31.1145 11.9112 31.1001 11.9546C31.0858 11.998 31.1001 12.0463 31.2961 12.2296C31.4921 12.4128 31.5733 12.4418 31.6163 12.5575C31.6593 12.6733 31.6163 12.7215 31.6593 12.7264C31.7024 12.7312 31.7406 12.6251 31.7549 12.5286C31.7647 12.4841 31.7647 12.438 31.7549 12.3936C31.7263 12.2633 31.6163 12.2633 31.5207 12.1186C31.4614 12.0274 31.4344 11.9186 31.4443 11.8099C31.4443 11.752 31.4443 11.6411 31.5207 11.5977C31.5636 11.58 31.6117 11.58 31.6546 11.5977C31.7645 11.6411 31.7597 11.7569 31.9031 11.8582C31.9273 11.8787 31.9575 11.8905 31.9891 11.8919C32.0417 11.8919 32.1038 11.8533 32.1038 11.8099C32.1038 11.7665 31.9605 11.7183 31.9652 11.6556C31.97 11.5929 32.0417 11.5736 32.1038 11.5688C32.166 11.5639 32.209 11.6122 32.3189 11.6315C32.4288 11.6508 32.448 11.6025 32.5101 11.6315C32.5722 11.6604 32.5674 11.7231 32.6535 11.8437C32.7395 11.9643 32.8447 11.9884 32.8638 12.0945C32.8829 12.2006 32.8638 12.1861 32.8638 12.2199C32.8638 12.2537 33.1936 12.2585 33.2222 12.1572C33.2509 12.0559 33.1267 12.0463 33.0263 11.8967C32.9589 11.7596 32.9238 11.6085 32.9238 11.4554C32.9238 11.3023 32.9589 11.1513 33.0263 11.0141C33.0592 10.9078 33.131 10.8181 33.227 10.7633C33.3178 10.7247 33.3991 10.7633 33.6428 10.8018C33.7623 10.8308 33.8866 10.8453 34.0061 10.8742C34.3932 10.961 35.0815 11.0478 35.1245 10.9128C35.1675 10.7777 34.8282 10.633 34.8759 10.5366C34.9237 10.4401 35.0241 10.5028 35.0384 10.4401C35.0528 10.3774 35.0002 10.3484 34.9668 10.3243C34.9333 10.3002 34.7899 10.2857 34.7804 10.2616C34.7708 10.2375 34.8377 10.1845 34.9763 10.1266C35.154 10.0691 35.3363 10.0271 35.5212 10.0012C35.7697 9.92882 35.7124 9.8227 35.9513 9.73106C36.3194 9.596 36.6444 9.77447 36.7782 9.60565C36.8212 9.54646 36.8747 9.49578 36.9359 9.45613C36.9751 9.43227 37.0168 9.41286 37.0602 9.39825C37.2036 9.35484 37.6528 9.21978 37.6911 9.31625C37.7293 9.41272 37.5955 9.43201 37.6242 9.49471C37.6528 9.55742 37.8106 9.55742 37.887 9.54295C37.9749 9.53237 38.057 9.49346 38.1212 9.43201C38.212 9.33554 38.169 9.24872 38.2407 9.20531C38.3124 9.1619 38.3937 9.24872 38.5418 9.20531C38.69 9.1619 38.7521 9.12814 38.7617 9.04614C38.7712 8.96414 38.6517 8.94003 38.6278 8.83391C38.6039 8.7278 38.7426 8.65545 39.144 8.25029C39.2109 8.18276 39.2731 8.12006 39.34 8.13453C39.4069 8.149 39.4643 8.31299 39.5837 8.32264C39.7032 8.33228 39.6841 8.28405 39.7128 8.32264C39.7415 8.36122 39.7462 8.4384 39.7128 8.5011C39.6793 8.5638 39.4595 8.61686 39.4547 8.67474C39.4499 8.73262 39.5551 8.78086 39.6507 8.80015C39.8323 8.84356 39.9565 8.75192 39.9948 8.80015C40.033 8.84838 39.794 9.05096 39.8466 9.16672C39.8992 9.28249 40.186 9.28249 40.2338 9.19084C40.2815 9.0992 40.2338 9.11849 40.2338 9.08473C40.2338 9.05096 40.4297 9.08473 40.6639 9.05096C40.7738 9.05096 40.7738 9.00273 40.8503 9.00273C40.9071 9.00145 40.9635 9.01191 41.0161 9.03348C41.0687 9.05505 41.1164 9.08726 41.1562 9.12814C41.2374 9.22943 41.204 9.3259 41.3044 9.3886C41.4047 9.4513 41.3569 9.3886 41.4047 9.42719C41.5577 9.50918 41.6437 9.7407 41.5864 9.80823C41.529 9.87576 41.4382 9.80823 41.4143 9.83717C41.3904 9.86611 41.5147 9.95293 41.5529 10.0928C41.5529 10.1217 41.5529 10.1652 41.4621 10.5317C41.4 10.7391 41.3761 10.7874 41.3283 10.8211C41.2805 10.8549 41.247 10.8211 41.0988 10.8935C40.9788 10.9277 40.8731 11.0005 40.7977 11.1009C40.7733 11.1417 40.754 11.1855 40.7404 11.2311C40.6687 11.4241 40.597 11.4241 40.468 11.6363C40.3389 11.8485 40.3437 11.9257 40.2481 11.9402C40.1525 11.9546 40.1812 11.916 40.1238 11.9402C40.0665 11.9643 39.8753 12.1765 39.9279 12.2633C39.9804 12.3501 40.2194 12.2971 40.2481 12.2874C40.4058 12.2489 40.4345 12.1813 40.6782 12.027C40.922 11.8726 41.0415 11.8292 41.0319 11.8003C41.0224 11.7713 40.8455 11.8437 40.7834 11.7665C40.7213 11.6893 40.7834 11.5832 40.8264 11.5157C40.8844 11.4814 40.9504 11.4632 41.0176 11.4632C41.0848 11.4632 41.1508 11.4814 41.2088 11.5157C41.3474 11.5832 41.3904 11.6942 41.4764 11.6749C41.5625 11.6556 41.5338 11.5977 41.6007 11.5881C41.6676 11.5784 41.7011 11.6508 41.8444 11.6893C41.893 11.702 41.944 11.702 41.9926 11.6893C42.0882 11.6893 42.1121 11.6122 42.1933 11.5784C42.2741 11.5519 42.3611 11.5519 42.4419 11.5784C42.8051 11.6459 42.9963 11.4096 43.1731 11.5302C43.2735 11.5977 43.2162 11.6652 43.3356 11.7858C43.4072 11.8602 43.4976 11.9135 43.597 11.9398C43.6964 11.9662 43.801 11.9646 43.8996 11.9353C44.043 11.8726 44.086 11.7328 44.1912 11.752C44.2963 11.7713 44.3059 11.863 44.325 11.8533C44.3441 11.8437 44.1577 11.5012 44.2724 11.2359C44.295 11.1805 44.3301 11.1312 44.3749 11.0918C44.4197 11.0525 44.473 11.0242 44.5305 11.0092C44.65 11.0092 44.6882 11.0864 44.8555 11.1009C45.0228 11.1154 44.9989 11.0575 45.1901 11.0189C45.3283 10.9849 45.4725 10.9849 45.6107 11.0189C45.689 11.0392 45.7624 11.0753 45.8265 11.125C45.8906 11.1748 45.944 11.2371 45.9835 11.3083C46.0504 11.453 45.9835 11.5543 46.0934 11.6411C46.2033 11.7279 46.1938 11.67 46.275 11.7424C46.3563 11.8147 46.428 11.8919 46.4041 11.9643C46.3802 12.0366 46.2607 12.0125 46.2081 12.1042C46.1881 12.1419 46.1815 12.1854 46.1893 12.2275C46.1971 12.2696 46.2189 12.3078 46.2511 12.3357C46.2942 12.3357 46.3324 12.3019 46.3897 12.3357C46.4471 12.3694 46.4853 12.437 46.5092 12.49C46.582 12.6174 46.6877 12.7225 46.8151 12.7939C46.9967 12.9241 47.2931 13.0109 47.3552 12.9193C47.4173 12.8277 47.3265 12.7746 47.2644 12.5575C47.1688 12.2247 47.1831 11.8582 47.2644 11.8292C47.3456 11.8003 47.3791 11.9884 47.5942 12.0656C47.5942 12.0656 47.8331 12.1427 47.9383 12.0366C48.0434 11.9305 47.9383 11.8533 48.0243 11.7231C48.052 11.6801 48.0885 11.6437 48.1314 11.6162C48.1743 11.5887 48.2225 11.5709 48.2729 11.5639C48.4019 11.5639 48.4449 11.6749 48.6409 11.6942C48.6409 11.6942 48.7699 11.6942 48.7795 11.6942C48.789 11.6942 48.5931 11.5784 48.5931 11.4675C48.5931 11.3565 48.7604 11.2649 48.899 11.2745C49.0376 11.2842 48.9946 11.3179 49.0663 11.3131C49.1379 11.3083 49.2813 11.2263 49.2766 11.1684C49.2718 11.1105 49.0519 11.1347 48.9611 10.9996C48.8703 10.8645 48.9611 10.6764 48.9133 10.6475C48.8655 10.6186 48.8129 10.7295 48.7508 10.7198C48.6887 10.7102 48.5883 10.3919 48.6696 10.3388C48.7508 10.2857 48.8273 10.416 48.8894 10.3726C48.9515 10.3292 48.942 10.223 48.8894 10.1459C48.8368 10.0687 48.7699 10.0398 48.7747 9.99634C48.7795 9.95293 48.9277 9.93846 49.0997 9.89988C49.2738 9.84579 49.4446 9.78137 49.6111 9.70694L50.0508 9.51883C50.4141 9.36931 50.3758 9.42236 50.7582 9.27284C51.045 9.16673 51.1931 9.08955 51.2839 9.1619C51.3748 9.23425 51.3652 9.25355 51.3461 9.29213C51.327 9.33072 51.2983 9.31625 51.2648 9.34519C51.242 9.37483 51.2295 9.41133 51.2295 9.44889C51.2295 9.48646 51.242 9.52295 51.2648 9.55259C51.3461 9.62012 51.5468 9.29213 51.8479 9.3066C52.063 9.3066 52.1108 9.48989 52.388 9.49954C52.4943 9.508 52.6008 9.48451 52.6939 9.43201C52.8946 9.29696 52.8038 9.06061 52.9615 8.76156C53.1347 8.49415 53.3951 8.29623 53.6976 8.20205C53.9796 8.08629 54.1755 8.01394 54.3237 8.09111C54.4719 8.16829 54.5244 8.34675 54.8016 8.48663C54.8542 8.51672 54.9133 8.53329 54.9737 8.53486C55.1506 8.53486 55.2653 8.31299 55.3226 8.2117C55.38 8.11041 55.3226 8.15382 55.4421 7.93194C55.5616 7.71007 55.5998 7.6329 55.6715 7.58949C55.7432 7.54608 55.7528 7.58949 55.8388 7.53643C55.9248 7.48337 55.9631 7.41102 56.1399 7.19397C56.3167 6.97692 56.2976 7.0348 56.312 6.96727C56.3454 6.82257 56.2451 6.73575 56.312 6.65858C56.3789 6.5814 56.4984 6.59105 56.5892 6.61517C56.68 6.63928 56.7039 6.71163 56.7899 6.71646C56.8759 6.72128 56.8998 6.64411 57.0098 6.61034C57.1197 6.57658 57.2774 6.69716 57.3778 6.63446C57.4782 6.57176 57.4829 6.41259 57.4447 6.29682C57.4194 6.22481 57.3747 6.16137 57.3156 6.11364C57.2565 6.06592 57.1853 6.03581 57.1101 6.02672C56.9763 6.02672 56.919 6.08942 56.8282 6.02672C56.7373 5.96401 56.766 5.9206 56.6704 5.81931C56.5748 5.71802 56.4506 5.71802 56.4362 5.66014C56.4219 5.60226 56.7804 5.50097 57.0146 5.1778C57.1442 4.99951 57.2354 4.79576 57.2822 4.57971C57.2779 4.49479 57.2996 4.4106 57.3443 4.33854C57.4304 4.2469 57.5212 4.27101 57.6359 4.17937C57.7506 4.08773 57.7219 4.05396 57.784 3.96232C57.8462 3.87067 58.0326 3.76456 58.2955 3.64398L58.8403 3.35457C59.2944 3.14111 59.7308 2.89109 60.1451 2.60695C60.2162 2.54051 60.3011 2.49105 60.3937 2.46225C60.5438 2.42925 60.7004 2.4427 60.8429 2.50084C61.0628 2.58284 61.0915 2.69377 61.2587 2.68895C61.3044 2.68927 61.3497 2.68001 61.3917 2.66174C61.4336 2.64347 61.4714 2.6166 61.5025 2.58284C61.5598 2.52013 61.5981 2.4092 61.5598 2.36096C61.5216 2.31273 61.4786 2.36096 61.3161 2.36096C61.2192 2.37618 61.1201 2.36451 61.0293 2.3272C60.929 2.26932 60.8573 2.15356 60.8812 2.1005C60.9051 2.04744 60.9529 2.1005 61.058 2.04262C61.1631 1.98474 61.2253 1.97509 61.2348 1.90757C61.2444 1.84004 61.1679 1.78216 61.1679 1.68087C61.1635 1.65572 61.1642 1.62992 61.1699 1.60504C61.1757 1.58017 61.1864 1.55673 61.2014 1.53617C61.2237 1.51497 61.25 1.4985 61.2787 1.48773C61.3075 1.47696 61.338 1.47211 61.3687 1.47346C61.5989 1.44555 61.8112 1.33412 61.9661 1.15995C62.0426 1.07313 62.0665 0.991128 62.1095 1.00077C62.1525 1.01042 62.1477 1.16477 62.272 1.27088C62.3963 1.377 62.4679 1.33359 62.4871 1.39629C62.5062 1.45899 62.3915 1.55546 62.4154 1.59405C62.4393 1.63264 62.5396 1.56511 62.5827 1.59405C62.6257 1.62299 62.5827 1.7484 62.5349 1.83039C62.4871 1.91239 62.3485 1.9558 62.3102 2.07156C62.272 2.18732 62.3102 2.20661 62.3341 2.22591C62.358 2.2452 62.4536 2.11497 62.5396 2.13426C62.6257 2.15356 62.6113 2.2645 62.683 2.27414C62.7547 2.28379 62.8551 2.1005 62.9268 2.12462C62.9985 2.14873 62.9507 2.24038 63.0272 2.36579C63.1036 2.49119 63.204 2.56354 63.2852 2.53943C63.3665 2.51531 63.3569 2.44296 63.3904 2.44778C63.4238 2.45261 63.3904 2.54425 63.4621 2.65519C63.5338 2.76612 63.5338 2.73236 63.5386 2.78059C63.5433 2.82883 63.4047 3.04106 63.2375 3.08447C63.0702 3.12788 63.0988 3.08447 63.0128 3.11341C62.9268 3.14235 62.9077 3.20023 62.8121 3.32563C62.7165 3.45104 62.7404 3.4221 62.7165 3.4414C62.6926 3.46069 62.6305 3.49928 62.4106 3.49445C62.1907 3.48963 62.2577 3.49445 62.186 3.49445C62.1143 3.49445 61.904 3.59574 61.8849 3.7115C61.8657 3.82726 61.9374 3.80315 61.9613 3.92373C61.9769 3.98391 61.9776 4.04703 61.9635 4.10756C61.9493 4.1681 61.9207 4.22422 61.8801 4.27101C61.8281 4.30506 61.7675 4.32318 61.7056 4.32318C61.6437 4.32318 61.5831 4.30506 61.5312 4.27101C61.4402 4.20262 61.361 4.1195 61.297 4.02502C61.2444 3.96232 61.2157 3.92373 61.1966 3.92855C61.1775 3.93338 61.1966 4.02502 61.1966 4.20349C61.1966 4.38195 61.1966 4.34336 61.1966 4.38195C61.2348 4.52183 61.4404 4.61347 61.6172 4.61347C61.794 4.61347 61.7319 4.57971 61.794 4.61347C61.8562 4.64724 61.9183 4.75335 62.0569 4.99452C62.1955 5.23569 62.2624 5.2598 62.272 5.39968C62.2808 5.49816 62.2609 5.59708 62.2146 5.68426C62.1731 5.76001 62.1217 5.82977 62.0617 5.89166C61.9804 5.98813 61.9613 5.99778 61.8992 6.07977C61.8371 6.16177 61.7749 6.24377 61.7893 6.29682C61.797 6.3261 61.8146 6.35175 61.839 6.36936C61.8634 6.38697 61.8931 6.39543 61.9231 6.39329C61.9996 6.36918 61.947 6.18589 62.0426 6.12801C62.1382 6.07013 62.1191 6.12801 62.2672 6.12801C62.4154 6.12801 62.4441 6.12801 62.4823 6.07013C62.5205 6.01225 62.4823 5.94472 62.4823 5.90131C62.4823 5.8579 62.6878 5.86272 62.8121 5.90131C62.9363 5.9399 62.9985 6.09907 63.1132 6.10389C63.2279 6.10871 63.1705 6.06048 63.2805 6.03636C63.3902 6.02826 63.5005 6.02826 63.6103 6.03636H63.725C63.811 6.03636 63.8301 6.0026 63.8779 6.0026C63.9257 6.0026 63.9639 6.04601 64.0595 6.13283C64.1551 6.21965 64.2746 6.27271 64.2842 6.33541C64.2937 6.39812 64.2459 6.41741 64.1217 6.58623C63.9974 6.75504 63.9974 6.81775 63.9161 6.87563C63.8349 6.93351 63.7106 6.92868 63.6915 6.98657C63.6724 7.04445 63.7632 7.08786 63.8253 7.21809C63.8875 7.34832 63.8588 7.39173 63.8731 7.66184C63.8731 7.71007 63.8731 7.82583 63.9161 8.05253C63.9592 8.43357 63.9735 8.49145 63.9161 8.58792C63.8588 8.68439 63.8301 8.70851 63.8349 8.78568C63.8397 8.86285 63.9066 8.91109 63.9592 8.98344C64.0117 9.05579 64.0022 9.15225 64.0547 9.44166C64.0834 9.6153 64.093 9.57671 64.1838 9.99634C64.2168 10.0975 64.2329 10.2034 64.2316 10.3099C64.2225 10.3948 64.2225 10.4805 64.2316 10.5655C64.2487 10.6498 64.2847 10.7289 64.3367 10.797C64.4228 10.908 64.5136 10.9321 64.504 10.9658C64.4945 10.9996 64.3415 11.0044 64.2842 11.0044C64.0595 11.0044 64.0117 10.9321 63.9305 10.9707C63.8492 11.0092 63.8779 11.0527 63.7632 11.2408C63.6963 11.3517 63.6724 11.3614 63.6294 11.4337C63.5385 11.5644 63.4855 11.7181 63.4764 11.8775C63.4764 12.1765 63.7823 12.3019 63.7106 12.5045C63.7042 12.5299 63.6917 12.5533 63.6742 12.5727C63.6567 12.592 63.6347 12.6067 63.6103 12.6154C63.486 12.6492 63.3187 12.3984 63.3044 12.3743C63.2375 12.273 63.2279 12.2103 63.1992 12.2103C63.1705 12.2103 63.0893 12.3984 63.118 12.5817C63.118 12.683 63.1705 12.7312 63.1992 12.9193C63.1992 13.0061 63.1992 13.0592 63.1992 13.0833C63.1992 13.1074 63.0606 13.0833 63.0272 13.1171C62.9937 13.1508 63.0272 13.1894 63.0272 13.2473C63.0272 13.3052 62.9411 13.3003 62.8981 13.3534C62.8551 13.4065 62.8981 13.5897 62.8981 13.609C62.9555 13.7586 63.0654 13.7682 63.1801 13.884C63.2948 13.9997 63.2279 14.1589 63.4143 14.5882C63.5242 14.8438 63.572 14.8101 63.658 15.0705C63.6742 15.1612 63.7216 15.2432 63.7919 15.302C63.897 15.3744 64.05 15.3696 64.0739 15.302C64.0978 15.2345 63.9735 15.1766 64.0022 15.0995C64.0308 15.0223 64.0786 15.0319 64.1838 15.003C64.2889 14.9741 64.3128 14.9596 64.3463 14.9741C64.3797 14.9885 64.3463 15.167 64.4323 15.3117C64.5184 15.4564 64.6904 15.4178 64.786 15.6011C64.8147 15.6541 64.829 15.712 64.872 15.7217C64.9151 15.7313 64.9342 15.6638 65.0106 15.63C65.0623 15.6203 65.1154 15.6218 65.1665 15.6342C65.2175 15.6467 65.2654 15.6699 65.307 15.7024C65.3629 15.7472 65.4072 15.8052 65.436 15.8712C65.436 15.9243 65.5173 16.0448 65.436 16.1124C65.4209 16.1272 65.4029 16.1387 65.3832 16.1462C65.3634 16.1536 65.3424 16.1569 65.3213 16.1558C65.2952 16.1552 65.2695 16.1493 65.2457 16.1385C65.2219 16.1278 65.2005 16.1123 65.1827 16.0931C65.1062 16.0111 65.1349 15.9146 65.0919 15.905C65.0489 15.8953 64.9676 15.9725 64.9772 16.04C64.9867 16.1075 65.0441 16.0979 65.0776 16.1702C65.0912 16.2191 65.0912 16.2709 65.0776 16.3198C65.0866 16.494 65.1438 16.6622 65.2426 16.8054C65.3414 16.9486 65.478 17.0611 65.6368 17.1301C65.7169 17.1364 65.7941 17.1629 65.8614 17.2073C65.9209 17.2442 65.9702 17.2956 66.0048 17.3568C66.0425 17.4276 66.0544 17.5096 66.0382 17.5883C66.0164 17.6504 65.9785 17.7054 65.9283 17.7475C65.8828 17.7934 65.8349 17.8369 65.7849 17.8777C65.7154 17.9654 65.6707 18.0704 65.6556 18.1817C65.6404 18.2929 65.6554 18.4062 65.6989 18.5096C65.7467 18.635 65.7849 18.6012 65.8853 18.8038C65.9857 19.0064 65.9618 19.0305 66.0382 19.0691C66.1147 19.1077 66.1912 19.0691 66.2676 19.1221C66.3441 19.1752 66.3489 19.2186 66.3298 19.2572C66.3107 19.2958 66.2629 19.2572 66.2055 19.3006C66.1482 19.344 66.0956 19.4887 66.086 19.5611C66.0621 19.7106 66.086 19.7685 66.0621 19.836C66.0382 19.9035 65.9474 19.8987 65.9474 19.9373C65.9474 19.9759 66.0143 20 66.0478 20.0145C66.239 20.1061 66.325 20.3473 66.4063 20.5933C66.4445 20.6994 66.4063 20.6463 66.4971 20.955C66.5879 21.2637 66.6357 21.3939 66.607 21.529C66.5783 21.6641 66.5305 21.6737 66.5162 21.8184C66.5018 21.9631 66.564 22.074 66.5162 22.1078C66.4684 22.1416 66.2246 22.0017 66.0382 21.8088C65.8518 21.6158 65.9092 21.5628 65.761 21.4084C65.6153 21.2881 65.4546 21.1876 65.2831 21.1094C64.9867 20.9405 64.9342 20.9405 64.8386 20.8344C64.743 20.7283 64.7621 20.6511 64.6331 20.5306C64.504 20.41 64.4084 20.4244 64.2459 20.2894C64.1756 20.2198 64.1116 20.1439 64.0547 20.0627C63.7966 19.7395 63.6294 19.8264 63.3952 19.5514C63.161 19.2765 63.29 19.1848 63.0511 18.9485C62.9358 18.8658 62.8436 18.7545 62.7834 18.6253C62.7452 18.524 62.7834 18.4999 62.7213 18.3842C62.6591 18.2684 62.5683 18.1912 62.5158 18.0514C62.4632 17.9115 62.5874 17.7668 62.5158 17.569C62.4441 17.3713 62.2051 17.3327 62.2194 17.2073C62.2338 17.0819 62.4249 17.0722 62.4249 16.9613C62.4249 16.8503 62.3007 16.8407 62.3055 16.749C62.3102 16.6574 62.4345 16.6574 62.4919 16.5465C62.5492 16.4355 62.4297 16.3198 62.4202 16.0304C62.4106 15.741 62.5014 15.6879 62.4202 15.548C62.3389 15.4082 62.3246 15.4757 62.2863 15.3889C62.2481 15.302 62.3246 15.1766 62.2863 15.003C62.2481 14.8294 62.1955 14.8776 62.1812 14.7474C62.1668 14.6171 62.2146 14.6316 62.2146 14.5062C62.2146 14.3808 62.1286 14.3133 62.1334 14.1493C62.1382 13.9853 62.1812 14.019 62.1668 13.9322C62.1525 13.8454 62.0617 13.802 62.0139 13.7055C61.9661 13.609 62.0139 13.474 62.0521 13.3052C62.0838 13.0436 62.0283 12.7789 61.8944 12.5527C61.7757 12.3945 61.6412 12.249 61.4929 12.1186C61.2826 11.9112 61.1154 11.7713 61.1488 11.6652C61.1823 11.5591 61.2635 11.5881 61.2874 11.4819C61.2874 11.4819 61.2874 11.3999 61.2874 11.371C61.2874 11.3421 61.1488 11.4144 61.1297 11.4289C61.053 11.4891 60.9963 11.5716 60.9672 11.6652C60.9168 11.792 60.9091 11.9321 60.9454 12.0637C60.9817 12.1953 61.0599 12.3112 61.1679 12.3936C61.2328 12.4363 61.2951 12.483 61.3543 12.5334C61.4404 12.6058 61.4595 12.6299 61.4547 12.654C61.4499 12.6781 61.34 12.654 61.2826 12.7312C61.2253 12.8084 61.2826 12.9145 61.3113 13.146C61.3496 13.4643 61.2587 13.4836 61.3113 13.6862C61.3639 13.8888 61.4308 13.8984 61.4069 14.019C61.383 14.1396 61.3304 14.1782 61.2826 14.1734C61.2348 14.1686 61.1775 13.9515 61.1345 13.9563C61.0915 13.9611 61.1345 14.1203 61.0628 14.1444C60.9911 14.1685 60.8668 14.0287 60.7951 13.8791C60.7234 13.7296 60.7712 13.7682 60.7234 13.6717C60.6756 13.5753 60.5466 13.4016 60.5084 13.4209C60.4701 13.4402 60.5753 13.7489 60.5084 13.7875C60.4414 13.8261 60.3793 13.6766 60.2885 13.7007C60.1977 13.7248 60.2264 13.7586 60.1595 13.8791C60.103 14.0069 60.0236 14.123 59.9253 14.2216C59.8345 14.3133 59.8106 14.2891 59.7484 14.3663C59.6863 14.4435 59.605 14.5544 59.6576 14.6991C59.7102 14.8438 59.8631 14.8052 59.9014 14.9355C59.9396 15.0657 59.8345 15.1188 59.9014 15.2683C59.9014 15.331 59.9396 15.3406 59.9683 15.3937C60.0782 15.6204 59.8106 15.8037 59.8727 16.1027C59.9014 16.2329 59.9635 16.2571 59.9922 16.45C59.9926 16.5201 60.0023 16.5898 60.0209 16.6574C60.0591 16.7925 60.169 16.9372 60.2742 16.9275C60.3028 16.9275 60.3076 16.9275 60.3984 16.8503C60.4892 16.7732 60.5944 16.7153 60.647 16.7346C60.672 16.7464 60.6927 16.7657 60.7064 16.7899C60.7201 16.8141 60.726 16.8419 60.7234 16.8696C60.7234 16.9516 60.6135 16.942 60.5466 17.0529C60.4797 17.1639 60.5466 17.1976 60.4653 17.2651C60.3841 17.3327 60.3172 17.2941 60.2407 17.3664C60.1642 17.4388 60.2407 17.5304 60.1451 17.6751C60.0495 17.8198 60.0782 17.733 59.997 17.8295C59.8536 18.0079 59.8918 18.1141 59.7771 18.1912C59.6624 18.2684 59.519 18.2684 59.4951 18.1912C59.4712 18.1141 59.8153 17.8198 59.7675 17.7523C59.7197 17.6848 59.6528 17.7957 59.5047 17.7523C59.3565 17.7089 59.323 17.6269 59.2418 17.6462C59.1605 17.6655 59.1797 17.7909 59.0889 17.8922C58.9263 18.0706 58.6778 17.9211 58.5583 18.0658C58.4388 18.2105 58.6491 18.5964 58.501 18.7122C58.4503 18.7434 58.3929 18.7616 58.3337 18.7652C58.2477 18.7652 58.219 18.7314 58.176 18.7652C58.133 18.799 58.1425 18.9437 58.0613 19.0401C57.98 19.1366 57.6359 19.0401 57.5833 19.1656C57.5307 19.291 57.6741 19.3151 57.6359 19.4115C57.6126 19.4461 57.5799 19.4731 57.5417 19.4894C57.5036 19.5056 57.4616 19.5104 57.4208 19.5032C57.3396 19.5032 57.3204 19.4357 57.2631 19.4115C57.0815 19.3392 56.7851 19.6431 56.5892 19.8649C56.4729 19.9921 56.3659 20.1275 56.269 20.2701C56.1876 20.3635 56.1214 20.4693 56.073 20.5836C56.0204 20.7958 56.1303 20.8634 56.073 21.066C56.0156 21.2685 55.9344 21.2299 55.8962 21.4132C55.8579 21.5965 56.0156 21.7509 55.9344 21.9535C55.8962 22.0547 55.8292 22.0885 55.8197 22.2091C55.8101 22.3297 55.8197 22.3249 55.8484 22.4117C55.8484 22.5998 55.7241 22.6335 55.6381 22.9326C55.621 23.0422 55.5954 23.1502 55.5616 23.2558C55.5186 23.3522 55.4851 23.386 55.4851 23.4583C55.4851 23.5307 55.552 23.5982 55.5903 23.6995C55.6285 23.8008 55.5903 23.796 55.4899 24.2735C55.4717 24.4025 55.4295 24.5268 55.3656 24.6401C55.3151 24.7045 55.2688 24.7722 55.227 24.8426C55.1883 24.9388 55.1548 25.037 55.1267 25.1369C55.1267 25.1658 55.0884 25.2237 55.0358 25.3395C54.9068 25.6047 54.8781 25.6578 54.902 25.7157C54.9259 25.7736 55.0311 25.7928 55.0597 25.7977C55.0884 25.8025 55.1792 25.7977 55.4182 25.6626C55.5855 25.5613 55.5855 25.5372 55.6237 25.542C55.8053 25.542 55.791 26.145 55.987 26.1739C56.0287 26.1765 56.07 26.1644 56.104 26.1398C56.1379 26.1152 56.1624 26.0796 56.1734 26.0388C56.1734 25.9761 56.1256 25.9568 56.1112 25.87C56.0969 25.7832 56.2116 25.5806 56.2451 25.5903C56.2785 25.5999 56.2451 25.706 56.2785 25.7784C56.312 25.8507 56.4601 25.7784 56.5031 25.8604C56.5462 25.9424 56.3359 26.1932 56.3884 26.2511C56.441 26.3089 56.5987 26.2511 56.6656 26.1208C56.7326 25.9906 56.6656 25.9327 56.7469 25.7928C56.7469 25.7543 56.7995 25.6916 56.8329 25.6964C56.8664 25.7012 56.9094 26.1257 56.9476 26.1305C56.9866 26.0562 57.0069 25.9734 57.0069 25.8893C57.0069 25.8053 56.9866 25.7225 56.9476 25.6481C56.8664 25.4986 56.7469 25.4938 56.7469 25.3973C56.7469 25.3009 56.9524 25.1465 57.1388 25.1369C57.2179 25.1396 57.2958 25.1577 57.3682 25.1899C57.6745 25.2613 57.9762 25.3515 58.2716 25.46C58.3433 25.4938 58.501 25.5758 58.4914 25.653C58.4819 25.7301 58.4341 25.7109 58.4293 25.7591C58.4245 25.8073 58.5249 25.8556 58.6061 25.9568C58.6874 26.0581 58.6539 26.1401 58.7256 26.2752C58.7973 26.4102 58.9216 26.3958 59.0172 26.526C59.2036 26.7768 58.8977 27.0952 59.065 27.4907C59.065 27.5534 59.1271 27.6209 59.1749 27.756C59.2227 27.891 59.2131 27.973 59.2657 28.0647C59.3613 28.2286 59.476 28.219 59.4999 28.3541C59.5238 28.4891 59.4999 28.4553 59.4999 28.547C59.4999 28.6386 59.562 28.6435 59.6146 28.7351C59.6672 28.8267 59.6528 28.9136 59.7484 29.121C59.7962 29.2319 59.8106 29.2271 59.8249 29.2946C59.8392 29.3621 59.8249 29.4538 59.8249 29.5599C59.8389 29.6282 59.8648 29.6936 59.9014 29.7528C60.0209 29.9554 59.8297 30.3606 59.7484 30.6114C59.6744 31.0511 59.6584 31.4987 59.7006 31.9426C59.733 32.2214 59.733 32.5031 59.7006 32.7819C59.6146 33.1678 59.4855 33.1581 59.4043 33.5826C59.3898 33.8327 59.3349 34.0787 59.2418 34.3109C59.151 34.4845 59.108 34.4652 59.0506 34.61C58.9216 34.9186 59.0936 35.0633 59.0506 35.3672C59.0076 35.6711 58.8594 35.5698 58.4771 36.1052C58.2524 36.4235 58.2381 36.5345 58.0565 36.6406C57.8749 36.7467 57.5403 36.8046 57.4543 36.6888C57.3682 36.5731 57.4543 36.52 57.4065 36.4525C57.3484 36.412 57.2774 36.395 57.2074 36.4049C57.1375 36.4147 57.0738 36.4506 57.0289 36.5055C56.9715 36.5875 57.0289 36.6502 57.0289 36.8576C57.0286 36.9198 57.0153 36.9811 56.9897 37.0377C56.9642 37.0942 56.927 37.1447 56.8807 37.1856C56.7804 37.258 56.6752 37.2194 56.6513 37.2773C56.6274 37.3351 56.7517 37.4171 56.7278 37.5136C56.7177 37.5467 56.6974 37.5758 56.67 37.5966C56.6425 37.6174 56.6092 37.6289 56.5748 37.6294C56.4506 37.6294 56.3406 37.4268 56.3789 37.2917C56.4171 37.1567 56.5892 37.1953 56.6609 37.0313C56.6991 36.9396 56.6609 36.9059 56.7134 36.6792C56.7134 36.602 56.7134 36.5924 56.7134 36.5586C56.7134 36.438 56.5557 36.4235 56.484 36.3078C56.4123 36.192 56.484 36.1148 56.484 35.9557C56.4506 35.6036 56.0061 35.4733 56.0778 35.2949C56.1495 35.1164 56.3311 35.1743 56.3741 34.9814C56.3741 34.8994 56.3741 34.827 56.4267 34.7788C56.4674 34.7512 56.5166 34.7392 56.5653 34.745C56.9572 34.7739 57.1532 34.7884 57.2057 34.745C57.2583 34.7016 57.0958 34.4845 57.2057 34.2627C57.2487 34.171 57.3109 34.1566 57.3252 34.0601C57.3396 33.9636 57.2965 33.9106 57.2679 33.8237C57.2392 33.7369 57.3013 33.5874 57.3252 33.4138C57.3826 33.052 57.1771 32.8157 57.1914 32.4491C57.1912 32.388 57.2026 32.3274 57.2248 32.2706C57.2774 32.1307 57.3587 32.1163 57.3587 32.0343C57.3587 31.9523 57.2248 31.9282 57.1675 31.7738C57.1101 31.6195 57.1675 31.5471 57.1054 31.4699C57.0744 31.4393 57.0338 31.4206 56.9907 31.4169C56.8855 31.4169 56.8234 31.4844 56.6179 31.6773C56.4123 31.8703 56.3932 31.8848 56.2642 32.0295C56.1895 32.1001 56.1392 32.1931 56.1208 32.2947C56.1208 32.3816 56.1208 32.396 56.1208 32.4491C56.1208 32.5021 55.9296 32.5793 55.4756 32.724C55.2892 32.7819 55.2844 32.7915 55.2414 32.7867C55.0167 32.7578 54.8255 32.4443 54.7634 32.2272C54.7108 32.0873 54.6965 31.9667 54.6057 31.9378C54.5149 31.9089 54.491 31.9667 54.3811 31.9378C54.3047 31.9145 54.2333 31.8768 54.1708 31.8269C53.97 31.6918 53.9605 31.6581 53.9031 31.6581C53.8458 31.6581 53.7693 31.8028 53.6593 31.8076C53.5494 31.8124 53.5112 31.6581 53.3869 31.6436C53.2627 31.6291 53.2005 31.8172 53.0285 31.8462C52.8564 31.8751 52.627 31.6918 52.5266 31.5423C52.4262 31.3928 52.4884 31.2432 52.3689 31.0214C52.2494 30.7995 52.0821 30.8236 51.8623 30.539C51.6424 30.2545 51.7667 30.1146 51.5181 29.8445C51.3652 29.6757 51.2553 29.666 51.1071 29.4441C51.0604 29.3623 51.0025 29.2876 50.935 29.2223C50.844 29.1378 50.7283 29.0854 50.6053 29.0727C50.5305 29.0653 50.4556 29.0859 50.395 29.1306C50.3519 29.1692 50.3663 29.1981 50.3328 29.2223C50.2994 29.2464 50.113 29.1788 49.7784 29.0727L49.6398 29.0341C49.4438 29.0341 49.3482 29.1306 49.0471 29.2705C48.942 29.3187 48.9898 29.2705 48.617 29.4345C48.4861 29.4785 48.3596 29.535 48.2394 29.6033C48.1199 29.6998 48.1629 29.7432 47.9287 30.0856C47.8714 30.1676 47.8236 30.24 47.8427 30.2689C47.8618 30.2979 48.0339 30.1773 48.1486 30.2352C48.2633 30.293 48.2681 30.5583 48.2633 30.6066C48.256 30.7419 48.2184 30.8738 48.1534 30.9924C48.0416 31.2453 47.9768 31.5167 47.9622 31.7931C47.9144 32.2754 48.0578 32.4684 47.8905 32.6758C47.8331 32.7481 47.8236 32.7192 47.6706 32.8687C47.5177 33.0182 47.4508 33.1581 47.3217 33.2449C47.1917 33.3213 47.0414 33.355 46.8916 33.3414C46.6611 33.2934 46.4355 33.2239 46.2177 33.134C46.1707 33.1213 46.1213 33.1213 46.0743 33.134C45.9596 33.134 45.9357 33.2642 45.8162 33.298C45.7558 33.3189 45.6902 33.3189 45.6298 33.298C45.4482 33.2353 45.4482 33.052 45.3191 33.0375C45.1901 33.0231 45.1471 33.1629 45.0276 33.1292C44.9081 33.0954 44.9559 33.0617 44.9033 33.052C44.8507 33.0424 44.736 33.1919 44.5688 33.4379C44.4015 33.6839 44.3107 33.8189 44.2151 33.8575C44.1195 33.8961 43.9474 33.8286 43.7945 33.9347C43.6415 34.0408 43.7132 34.0504 43.6081 34.1083C43.5029 34.1662 43.4599 34.1083 43.3117 34.1614C43.0776 34.2289 43.0441 34.3929 42.8959 34.3688C42.8293 34.3599 42.7618 34.3599 42.6952 34.3688H42.6187C42.4807 34.3862 42.341 34.3862 42.2029 34.3688C41.8349 34.3061 41.8253 34.4025 41.6103 34.3302C41.3952 34.2578 41.2136 34.1373 41.1944 33.9492C41.1944 33.8479 41.2518 33.7948 41.1944 33.7369C41.1371 33.679 40.9937 33.7369 40.8264 33.6742C40.6591 33.6115 40.6926 33.4861 40.554 33.4234C40.4154 33.3607 40.3963 33.4234 40.2242 33.4234C40.0521 33.4234 40.0187 33.3269 39.8418 33.2932C39.6479 33.2639 39.4499 33.2995 39.2779 33.3945C38.9863 33.5199 39.0054 33.6308 38.8334 33.6549C38.5418 33.6935 38.2742 33.3896 38.1164 33.2064C37.9587 33.0231 37.8058 32.8398 37.8679 32.6468C37.9014 32.5311 38.0065 32.478 37.9826 32.425C37.9587 32.3719 37.844 32.425 37.6958 32.3864C37.4617 32.3526 37.4186 32.2224 37.1414 32.0922C36.8642 31.9619 36.8881 32.0922 36.6635 31.9619C36.3194 31.8076 36.1855 31.5857 36.0708 31.6388C35.9561 31.6918 36.0182 31.7256 35.9083 31.8799C35.741 32.1115 35.6311 32.0632 35.5355 32.2417C35.4651 32.3918 35.4402 32.5596 35.4638 32.724C35.4688 32.7667 35.4785 32.8088 35.4925 32.8494C35.5451 32.9845 35.6215 32.9941 35.6407 33.0713C35.698 33.2498 35.3778 33.4909 35.3396 33.5199C35.2646 33.5892 35.1719 33.636 35.0719 33.6549C34.9524 33.6549 34.9094 33.6115 34.6418 33.4958C34.5141 33.4273 34.3745 33.3847 34.2307 33.3703C34.0587 33.3703 34.0539 33.4379 33.9105 33.4331C33.7876 33.4288 33.6692 33.3855 33.5722 33.3092C33.4752 33.233 33.4046 33.1278 33.3704 33.0086C33.3704 32.9121 33.3991 32.8687 33.3704 32.7964C33.3417 32.724 33.2318 32.7047 33.0741 32.6372C32.9164 32.5697 32.8829 32.4828 32.5961 32.3381C32.4966 32.2765 32.383 32.2416 32.2663 32.2369C32.1713 32.2498 32.0791 32.2792 31.9939 32.3237C31.8368 32.371 31.6773 32.4097 31.516 32.4394C31.2626 32.5214 31.32 32.5648 31.0667 32.6468C30.8134 32.7288 30.627 32.7192 30.5648 32.8494C30.5027 32.9797 30.5648 32.9555 30.517 32.9989C30.4693 33.0424 30.3689 33.0375 30.1681 32.9989C29.824 32.9459 29.7523 32.9362 29.6902 32.9989C29.6281 33.0617 29.6424 33.1051 29.5611 33.1726C29.4832 33.2336 29.3874 33.2667 29.2887 33.2667C29.1901 33.2667 29.0942 33.2336 29.0163 33.1726C28.9602 33.1238 28.9172 33.0616 28.8913 32.9916C28.8654 32.9216 28.8574 32.8462 28.8681 32.7723C28.8681 32.6517 28.9637 32.5986 28.9398 32.5697C28.9159 32.5407 28.61 32.7674 28.3233 32.6951C28.2549 32.6778 28.1912 32.6455 28.1366 32.6005C28.0821 32.5555 28.0381 32.4988 28.0078 32.4346C27.9361 32.2513 28.0747 32.1693 28.0078 32.0005C27.9409 31.8317 27.6159 31.7738 27.5968 31.5761C27.5968 31.5085 27.6255 31.5085 27.5968 31.4169C27.5756 31.2858 27.5096 31.1664 27.4104 31.0793C27.3052 30.9635 27.2527 30.9056 27.1905 30.8911C27.028 30.8477 26.9611 31.0214 26.7604 31.0165C26.6764 31.0082 26.5952 30.9815 26.5225 30.9382C26.4499 30.8948 26.3875 30.836 26.3398 30.7657C26.2729 30.6693 26.2776 30.6017 26.1916 30.5342C26.1056 30.4667 26.0148 30.4812 25.9956 30.4185C25.9765 30.3557 26.0673 30.2786 26.0434 30.211C26.0247 30.1876 26.0005 30.1691 25.973 30.1573C25.9455 30.1456 25.9155 30.1408 25.8857 30.1435C25.6611 30.1435 25.5607 30.4715 25.4556 30.4474C25.3504 30.4233 25.3217 30.0374 25.3217 29.6033C25.2548 28.6917 25.1592 28.7592 25.1736 28.2624C25.2066 28.0656 25.1918 27.8637 25.1306 27.674C25.0684 27.5244 25.0063 27.4907 24.8629 27.1916C24.7195 26.8926 24.7195 26.7816 24.7386 26.7575C24.7578 26.7334 24.9633 26.7575 25.0206 26.6659C25.0299 26.6472 25.0347 26.6265 25.0347 26.6056C25.0347 26.5847 25.0299 26.564 25.0206 26.5453C24.9776 26.4729 24.8581 26.4729 24.7147 26.4826C24.3419 26.5067 24.318 26.5598 24.0456 26.5791C23.7732 26.5983 23.668 26.5791 23.5677 26.6659C23.4673 26.7527 23.5008 26.7623 23.4577 26.7575C23.4147 26.7527 23.3908 26.5983 23.2761 26.5549C23.2761 26.5549 23.2761 26.5549 23.171 26.5549C23.0085 26.5549 22.9272 26.5549 22.9129 26.5164C22.8985 26.4778 22.9607 26.3427 23.0658 26.2848C23.171 26.227 23.3096 26.2848 23.3191 26.2462C23.3287 26.2077 23.1853 26.1884 23.0658 26.0581C22.9463 25.9279 22.9416 25.8121 22.889 25.8121C22.8364 25.8121 22.8173 25.9665 22.7695 25.9665C22.7217 25.9665 22.736 25.7977 22.6213 25.6964C22.5066 25.5951 22.5018 25.6964 22.3489 25.5854C22.2785 25.5573 22.2207 25.5041 22.1864 25.4359C22.1694 25.4037 22.1626 25.3671 22.1668 25.3308C22.1711 25.2946 22.1863 25.2606 22.2103 25.2333C22.2533 25.1948 22.3011 25.2333 22.3632 25.2333C22.521 25.1899 22.5783 24.8089 22.4875 24.5484C22.4445 24.4134 22.3871 24.3941 22.3728 24.3892C22.3585 24.3844 22.2915 24.4278 22.2246 24.423C22.1577 24.4182 22.0478 24.2542 22.0382 24.2253C22.0287 24.1963 22.0382 24.1191 22 24.0516C21.9667 23.9777 21.9128 23.9151 21.845 23.8714C21.7771 23.8277 21.6981 23.8049 21.6176 23.8056C21.5314 23.8303 21.4493 23.8677 21.3739 23.9166C21.2879 23.9648 21.264 23.9889 21.2305 24.0034C21.0823 24.0854 20.8864 24.0034 20.657 23.9117C20.4446 23.8326 20.2399 23.7341 20.0452 23.6175C20.0108 23.5888 19.9712 23.5672 19.9285 23.5539C19.8859 23.5407 19.8411 23.5361 19.7966 23.5403C19.7106 23.5403 19.7011 23.6223 19.6246 23.6416C19.5481 23.6609 19.4812 23.5789 19.2757 23.468C19.1655 23.4108 19.0503 23.364 18.9316 23.3281C18.7356 23.2654 18.7404 23.2943 18.6113 23.2413C18.4823 23.1882 18.4345 23.1352 18.3437 23.1545C18.2529 23.1738 18.2385 23.2124 18.2051 23.1931C18.1716 23.1738 18.2051 23.1062 18.1573 23.0291C18.1095 22.9519 18.0999 22.9615 18.033 22.9181C17.9661 22.8747 17.8801 22.8602 17.8036 22.7975C17.7271 22.7348 17.7319 22.6866 17.6889 22.6818C17.6334 22.6853 17.5813 22.7095 17.5424 22.7495C17.5036 22.7896 17.4808 22.8428 17.4786 22.8988C17.4786 23.0098 17.6124 23.0628 17.5933 23.1062C17.5742 23.1496 17.3591 23.1062 17.3304 23.1448C17.3018 23.1834 17.3782 23.2365 17.4643 23.3715C17.4643 23.4101 17.6363 23.6561 17.579 23.7188C17.5216 23.7815 17.5025 23.7188 17.4834 23.7188C17.3352 23.6802 17.3448 23.5018 17.1966 23.4342C17.1452 23.4142 17.0894 23.408 17.0349 23.4165C16.9804 23.425 16.929 23.4477 16.8859 23.4825C16.8336 23.5316 16.7969 23.5954 16.7808 23.6657C16.733 23.8153 16.7808 23.8732 16.7378 23.9214C16.6948 23.9696 16.6756 23.9696 16.3698 23.9214C16.1499 23.878 16.083 23.8442 16.0495 23.8828C16.0161 23.9214 16.0495 23.9455 16.1117 24.1529C16.1738 24.3603 16.2407 24.452 16.2407 24.452C16.4271 24.8378 16.4462 24.8426 16.4414 24.8957C16.4183 25.0132 16.3526 25.1179 16.2572 25.1892C16.1617 25.2605 16.0434 25.2935 15.9253 25.2816C15.7006 25.214 15.715 24.7992 15.4999 24.7606C15.3708 24.7606 15.3326 24.8764 15.194 24.8619C15.0694 24.8189 14.9648 24.7314 14.8996 24.6159C14.8345 24.5005 14.8134 24.365 14.8403 24.2349C14.8738 24.1481 14.9216 24.1288 14.9263 24.042C14.9296 23.9767 14.9104 23.9123 14.8721 23.8596C14.8338 23.8069 14.7787 23.7691 14.716 23.7526C14.6444 23.7526 14.63 23.8104 14.5201 23.8249C14.4102 23.8394 14.3289 23.8249 14.305 23.7429C14.2811 23.6609 14.3815 23.6127 14.3576 23.5403C14.3337 23.468 14.2429 23.4921 14.1138 23.3908C13.9848 23.2895 14.0565 23.304 14.0087 23.2799C13.8749 23.2124 13.7554 23.3812 13.5307 23.3571C13.4925 23.3571 13.3491 23.3571 13.2965 23.2413C13.244 23.1255 13.3539 23.0146 13.2965 22.7975C13.2965 22.6866 13.2201 22.566 13.1818 22.5708C13.1436 22.5757 13.1818 22.7107 13.1101 22.8217C13.0384 22.9326 12.8998 22.9712 12.8616 22.9326C12.8234 22.894 12.8616 22.8554 12.9237 22.6866C12.9595 22.5991 12.9805 22.5062 12.9859 22.4117C12.9859 22.2187 12.8329 22.1416 12.8759 22.0355C12.919 21.9293 12.9954 21.9727 13.0098 21.9149C13.0241 21.857 12.6417 21.6882 12.6179 21.4325C12.6179 21.3071 12.7039 21.2299 12.6513 21.1431C12.6325 21.1175 12.608 21.0968 12.5798 21.0825C12.5515 21.0683 12.5204 21.0609 12.4888 21.0611C12.3837 21.0611 12.355 21.1576 12.2928 21.1431C12.2307 21.1287 12.2451 21.0467 12.1686 20.9068C12.0921 20.7669 11.9965 20.6946 12.0204 20.6511C12.0443 20.6077 12.1112 20.627 12.1112 20.6126C12.1112 20.5981 12.0348 20.5643 11.9487 20.5595C11.7432 20.5595 11.6906 20.656 11.5281 20.6511C11.3656 20.6463 11.1936 20.4389 11.098 20.4968C11.0024 20.5547 11.0693 20.6222 11.0119 20.6511C10.9546 20.6801 10.663 20.3762 10.534 20.4341C10.4049 20.492 10.5101 20.656 10.3667 20.8007C10.3257 20.8501 10.2713 20.8864 10.2103 20.9053C10.1492 20.9241 10.084 20.9246 10.0226 20.9068C9.98511 20.8806 9.95402 20.8461 9.93167 20.806C9.90931 20.7659 9.89628 20.7212 9.89354 20.6753C9.88972 20.5405 9.93004 20.4083 10.0082 20.299C10.0752 20.1833 10.1325 20.1302 10.1086 20.0868C10.0847 20.0434 10.013 20.0338 9.96045 20.0386C9.78839 20.0386 9.75016 20.2556 9.60199 20.2605C9.45383 20.2653 9.49684 20.1881 9.40125 20.1978C9.32252 20.2129 9.25245 20.2577 9.2053 20.3232C9.14062 20.4016 9.09482 20.494 9.07147 20.5933C9.02845 20.7042 9.07147 20.7476 9.00934 20.7717C8.9472 20.7958 8.86117 20.709 8.71779 20.7235C8.62726 20.7408 8.54682 20.7926 8.49315 20.8682C8.45415 20.9195 8.43239 20.982 8.43102 21.0467C8.43102 21.1624 8.49315 21.1817 8.48359 21.2782C8.47403 21.3746 8.45491 21.3457 8.34977 21.4952C8.24462 21.6448 8.23028 21.7268 8.23506 21.7509C8.23984 21.775 8.32109 21.7991 8.39756 21.8666C8.44853 21.9183 8.48808 21.9802 8.51362 22.0484C8.53916 22.1165 8.5501 22.1894 8.54572 22.2621C8.54572 22.431 8.45969 22.4213 8.42146 22.6239C8.38322 22.8265 8.47403 22.9374 8.39278 23.1352C8.36888 23.1834 8.32587 23.2895 8.2494 23.2992C8.17292 23.3088 8.063 23.1786 8.0391 23.1979C8.0152 23.2172 8.11079 23.3233 8.10123 23.4728C8.09728 23.557 8.06134 23.6365 8.00086 23.6947C7.92917 23.7622 7.83836 23.7622 7.6663 23.767C7.55966 23.785 7.45016 23.7716 7.35085 23.7284C7.26004 23.6657 7.2696 23.5934 7.15489 23.5452C7.10153 23.5234 7.04505 23.5104 6.98761 23.5066H6.87768C6.76481 23.5304 6.65765 23.5763 6.56224 23.6416C6.47225 23.7011 6.36849 23.736 6.26113 23.7429C6.15598 23.7429 6.1273 23.685 6.05561 23.7043C5.98392 23.7236 5.917 23.849 5.89311 23.9069C5.81664 24.0998 5.89311 24.1722 5.83097 24.3892C5.79752 24.4664 5.75928 24.5195 5.78318 24.5532C5.80708 24.587 5.95046 24.5532 5.95524 24.587C5.96002 24.6208 5.82141 24.6545 5.68759 24.751C5.60817 24.8117 5.5374 24.8831 5.47729 24.9632C5.33045 25.1444 5.23616 25.3631 5.20486 25.5951C5.21162 25.7075 5.21162 25.8203 5.20486 25.9327C5.17618 26.0774 5.12839 26.0967 5.10927 26.2318C5.09015 26.3668 5.14751 26.4633 5.10927 26.526C5.05548 26.5598 4.99339 26.5777 4.93004 26.5777C4.86669 26.5777 4.8046 26.5598 4.75081 26.526C4.67912 26.4874 4.66 26.444 4.60264 26.4488C4.54529 26.4536 4.50705 26.5501 4.43058 26.5646C4.35411 26.5791 4.11992 26.3861 4.13425 26.2028C4.13425 26.0967 4.21551 26.0871 4.25852 25.9424C4.28907 25.8205 4.28907 25.6929 4.25852 25.571C4.22956 25.437 4.18794 25.3062 4.13425 25.1803C4.01955 24.8957 3.91918 24.7558 3.96697 24.6979C4.01477 24.6401 4.0769 24.6979 4.1247 24.6594C4.17249 24.6208 4.15337 24.6015 4.1247 24.3989C4.11591 24.3044 4.09336 24.2118 4.05778 24.124C3.91918 24.0323 3.81403 24.0371 3.81403 23.9696C3.81403 23.9021 3.85704 23.878 3.81403 23.8201C3.77101 23.7622 3.73756 23.7526 3.6563 23.7284C3.57505 23.7043 3.5177 23.7285 3.4699 23.6706C3.44697 23.6468 3.43086 23.6172 3.42328 23.5849C3.41571 23.5527 3.41695 23.5189 3.42689 23.4873C3.42689 23.4149 3.50336 23.4101 3.52248 23.3474C3.5416 23.2847 3.40777 23.2123 3.37431 23.0628C3.34086 22.9133 3.4699 22.8024 3.40299 22.6866C3.33608 22.5708 3.27395 22.5998 3.26917 22.5274C3.26439 22.4551 3.29784 22.4744 3.3074 22.431C3.31696 22.3876 3.20225 22.2814 3.0971 22.1126C2.99196 21.9438 3.05887 21.9052 2.94894 21.7557C2.83901 21.6062 2.83423 21.6592 2.81033 21.5821C2.78644 21.5049 2.89637 21.3361 2.83423 21.2107C2.7721 21.0852 2.73864 21.1528 2.68607 21.0467C2.67241 20.9987 2.65145 20.9531 2.62393 20.9116C2.58221 20.8732 2.52745 20.8525 2.47099 20.8537V20.8537Z" stroke="black" stroke-width="0.75" stroke-miterlimit="10"/>
</g>
</svg>
