<svg width="16" height="16" viewBox="0 0 16 16" fill="none" xmlns="http://www.w3.org/2000/svg">
<path d="M11.3272 1.95312C11.0905 1.95312 10.8458 2.08246 10.7232 2.32812C10.4318 2.90992 10.3425 3.10132 10.2232 3.28646C10.0292 3.58646 9.86984 3.70606 9.45251 3.86979C9.35784 3.90679 9.24651 3.95232 9.11917 3.99479C8.55517 4.18259 8.50451 4.95832 9.03584 5.22392C9.59851 5.50532 9.75317 5.59812 9.9105 5.70312C10.0598 5.80246 10.1445 5.88746 10.2438 6.03646C10.3492 6.19392 10.4418 6.34879 10.7232 6.91179C10.9685 7.40313 11.6858 7.40313 11.9312 6.91179C12.2125 6.34879 12.3058 6.19399 12.4105 6.03646C12.5098 5.88746 12.5952 5.80246 12.7438 5.70312C12.9012 5.59812 13.0565 5.50525 13.6192 5.22392C14.1105 4.97825 14.1105 4.26133 13.6192 4.01566C13.0565 3.73426 12.9012 3.64146 12.7438 3.53646C12.5952 3.43712 12.5098 3.35212 12.4105 3.20312C12.3058 3.04566 12.2125 2.89079 11.9312 2.32812C11.8085 2.08246 11.5638 1.95312 11.3272 1.95312ZM4.6605 3.28646C4.42384 3.28646 4.17918 3.41579 4.05651 3.66146C3.86651 4.04079 3.81717 4.15199 3.74384 4.26566C3.6405 4.42499 3.56384 4.48532 3.32717 4.57812C3.26784 4.60126 3.20051 4.63426 3.11917 4.66146C2.55517 4.84926 2.50451 5.62499 3.03584 5.89059C3.40051 6.07319 3.50384 6.11966 3.59784 6.18233C3.67318 6.23226 3.71451 6.27406 3.76451 6.34899C3.82718 6.44293 3.87384 6.54633 4.05651 6.91179C4.30184 7.40313 5.01917 7.40313 5.26451 6.91179C5.44717 6.54633 5.49384 6.44293 5.55651 6.34899C5.60651 6.27406 5.64784 6.23226 5.72318 6.18233C5.81718 6.11966 5.92051 6.07319 6.28584 5.89059C6.77717 5.64492 6.77717 4.92799 6.28584 4.68233C5.92051 4.49973 5.81718 4.45325 5.72318 4.39059C5.64784 4.34066 5.60651 4.29886 5.55651 4.22392C5.49384 4.12999 5.44717 4.02659 5.26451 3.66146C5.14184 3.41579 4.89717 3.28646 4.6605 3.28646ZM7.99384 7.28646C7.7285 7.28646 7.47051 7.44112 7.36917 7.74512C6.90184 9.14579 6.51984 9.52779 5.11917 9.99445C4.51117 10.1971 4.51117 11.0425 5.11917 11.2451C6.51984 11.7118 6.90184 12.0938 7.36917 13.4945C7.57117 14.1025 8.41651 14.1025 8.61917 13.4945C9.08584 12.0938 9.46784 11.7118 10.8692 11.2451C11.4765 11.0425 11.4765 10.1971 10.8692 9.99445C9.46784 9.52779 9.08584 9.14579 8.61917 7.74512C8.51784 7.44112 8.25917 7.28646 7.99384 7.28646Z" fill="black"/>
<path d="M11.3272 1.95312C11.0905 1.95312 10.8458 2.08246 10.7232 2.32812C10.4318 2.90992 10.3425 3.10132 10.2232 3.28646C10.0292 3.58646 9.86984 3.70606 9.45251 3.86979C9.35784 3.90679 9.24651 3.95232 9.11917 3.99479C8.55517 4.18259 8.50451 4.95832 9.03584 5.22392C9.59851 5.50532 9.75317 5.59812 9.9105 5.70312C10.0598 5.80246 10.1445 5.88746 10.2438 6.03646C10.3492 6.19392 10.4418 6.34879 10.7232 6.91179C10.9685 7.40313 11.6858 7.40313 11.9312 6.91179C12.2125 6.34879 12.3058 6.19399 12.4105 6.03646C12.5098 5.88746 12.5952 5.80246 12.7438 5.70312C12.9012 5.59812 13.0565 5.50525 13.6192 5.22392C14.1105 4.97825 14.1105 4.26133 13.6192 4.01566C13.0565 3.73426 12.9012 3.64146 12.7438 3.53646C12.5952 3.43712 12.5098 3.35212 12.4105 3.20312C12.3058 3.04566 12.2125 2.89079 11.9312 2.32812C11.8085 2.08246 11.5638 1.95312 11.3272 1.95312ZM4.6605 3.28646C4.42384 3.28646 4.17918 3.41579 4.05651 3.66146C3.86651 4.04079 3.81717 4.15199 3.74384 4.26566C3.6405 4.42499 3.56384 4.48532 3.32717 4.57812C3.26784 4.60126 3.20051 4.63426 3.11917 4.66146C2.55517 4.84926 2.50451 5.62499 3.03584 5.89059C3.40051 6.07319 3.50384 6.11966 3.59784 6.18233C3.67318 6.23226 3.71451 6.27406 3.76451 6.34899C3.82718 6.44293 3.87384 6.54633 4.05651 6.91179C4.30184 7.40313 5.01917 7.40313 5.26451 6.91179C5.44717 6.54633 5.49384 6.44293 5.55651 6.34899C5.60651 6.27406 5.64784 6.23226 5.72318 6.18233C5.81718 6.11966 5.92051 6.07319 6.28584 5.89059C6.77717 5.64492 6.77717 4.92799 6.28584 4.68233C5.92051 4.49973 5.81718 4.45325 5.72318 4.39059C5.64784 4.34066 5.60651 4.29886 5.55651 4.22392C5.49384 4.12999 5.44717 4.02659 5.26451 3.66146C5.14184 3.41579 4.89717 3.28646 4.6605 3.28646ZM7.99384 7.28646C7.7285 7.28646 7.47051 7.44112 7.36917 7.74512C6.90184 9.14579 6.51984 9.52779 5.11917 9.99445C4.51117 10.1971 4.51117 11.0425 5.11917 11.2451C6.51984 11.7118 6.90184 12.0938 7.36917 13.4945C7.57117 14.1025 8.41651 14.1025 8.61917 13.4945C9.08584 12.0938 9.46784 11.7118 10.8692 11.2451C11.4765 11.0425 11.4765 10.1971 10.8692 9.99445C9.46784 9.52779 9.08584 9.14579 8.61917 7.74512C8.51784 7.44112 8.25917 7.28646 7.99384 7.28646Z" fill="url(#paint0_linear_2452_17741)"/>
<defs>
<linearGradient id="paint0_linear_2452_17741" x1="1.01832" y1="7.83861" x2="11.8866" y2="14.2791" gradientUnits="userSpaceOnUse">
<stop stop-color="#945FCF"/>
<stop offset="1" stop-color="#C19AE0"/>
</linearGradient>
</defs>
</svg>
