<svg width="16" height="13" viewBox="0 0 16 13" fill="none" xmlns="http://www.w3.org/2000/svg">
<path d="M0.963903 5.66153C0.963903 5.66153 7.91747 2.80779 10.3291 1.80291C11.2536 1.401 14.3887 0.114756 14.3887 0.114756C14.3887 0.114756 15.8357 -0.447926 15.7151 0.918644C15.6749 1.48138 15.3533 3.45085 15.0318 5.58115C14.5494 8.59571 14.0269 11.8916 14.0269 11.8916C14.0269 11.8916 13.9465 12.8161 13.2633 12.9768C12.58 13.1376 11.4545 12.4142 11.2536 12.2533C11.0927 12.1328 8.239 10.324 7.19396 9.43976C6.91259 9.19862 6.59106 8.71632 7.23413 8.15358C8.68114 6.82717 10.4095 5.17923 11.4545 4.13419C11.9368 3.65184 12.4191 2.52642 10.4095 3.89299C7.55571 5.86252 4.74214 7.71144 4.74214 7.71144C4.74214 7.71144 4.09901 8.11336 2.89321 7.75161C1.68735 7.38991 0.280562 6.90755 0.280562 6.90755C0.280562 6.90755 -0.684037 6.30465 0.963903 5.66153Z" fill="#37AEE3"/>
</svg>
