<svg width="13" height="13" viewBox="0 0 13 13" fill="none" xmlns="http://www.w3.org/2000/svg">
<path d="M8.24946 13.0004L7.29797 12.752L7.09624 10.7596C6.89749 10.7735 6.69875 10.7799 6.5 10.7799C2.91611 10.7799 0 8.53409 0 5.77301C0 3.01192 2.91611 0.767578 6.5 0.767578C10.0839 0.767578 13 3.01341 13 5.774C13 7.29292 12.1325 8.70203 10.615 9.65552L8.24946 13.0004ZM7.49373 9.66645L8.086 10.1335L8.20077 11.2524L9.82006 8.96338L9.97657 8.8173C11.2302 8.05859 11.9496 6.95008 11.9496 5.77599C11.9496 3.59475 9.50504 1.81994 6.5 1.81994C3.49496 1.81994 1.05037 3.59475 1.05037 5.77599C1.05037 7.95723 3.49496 9.73253 6.5 9.73253C6.83235 9.73282 7.16435 9.71074 7.49373 9.66645Z" fill="#7A808A"/>
</svg>
