<svg width="22" height="22" viewBox="0 0 22 22" fill="none" xmlns="http://www.w3.org/2000/svg">
<path d="M8.81464 1.4255C10.1428 0.559173 11.8572 0.559173 13.1854 1.4255L13.4549 1.60131C13.9684 1.93629 14.5521 2.14873 15.1608 2.22222L15.4803 2.26079C17.0546 2.45084 18.3679 3.55289 18.8285 5.07023L18.9219 5.37815C19.1 5.96486 19.4106 6.50278 19.8296 6.95035L20.0496 7.18525C21.1333 8.34275 21.4311 10.0312 20.8085 11.4896L20.6822 11.7855C20.4415 12.3494 20.3336 12.9611 20.3669 13.5734L20.3844 13.8947C20.4706 15.478 19.6134 16.9628 18.1991 17.6798L17.9121 17.8253C17.3652 18.1026 16.8894 18.5018 16.5214 18.9923L16.3282 19.2497C15.3765 20.518 13.7654 21.1044 12.2211 20.7445L11.9077 20.6715C11.3106 20.5324 10.6894 20.5324 10.0923 20.6715L9.77889 20.7445C8.23457 21.1044 6.62349 20.518 5.67176 19.2497L5.47862 18.9923C5.11062 18.5018 4.63481 18.1026 4.08793 17.8253L3.80092 17.6798C2.3866 16.9628 1.52936 15.478 1.61556 13.8947L1.63305 13.5734C1.66638 12.9611 1.55852 12.3494 1.31781 11.7855L1.19147 11.4896C0.568934 10.0312 0.86665 8.34275 1.95044 7.18525L2.17038 6.95035C2.58945 6.50278 2.90001 5.96486 3.07809 5.37815L3.17155 5.07023C3.63208 3.55289 4.94545 2.45084 6.51971 2.26079L6.83919 2.22222C7.4479 2.14873 8.03158 1.93629 8.54512 1.60131L8.81464 1.4255Z" fill="#D9D9D9"/>
<path d="M8.81464 1.4255C10.1428 0.559173 11.8572 0.559173 13.1854 1.4255L13.4549 1.60131C13.9684 1.93629 14.5521 2.14873 15.1608 2.22222L15.4803 2.26079C17.0546 2.45084 18.3679 3.55289 18.8285 5.07023L18.9219 5.37815C19.1 5.96486 19.4106 6.50278 19.8296 6.95035L20.0496 7.18525C21.1333 8.34275 21.4311 10.0312 20.8085 11.4896L20.6822 11.7855C20.4415 12.3494 20.3336 12.9611 20.3669 13.5734L20.3844 13.8947C20.4706 15.478 19.6134 16.9628 18.1991 17.6798L17.9121 17.8253C17.3652 18.1026 16.8894 18.5018 16.5214 18.9923L16.3282 19.2497C15.3765 20.518 13.7654 21.1044 12.2211 20.7445L11.9077 20.6715C11.3106 20.5324 10.6894 20.5324 10.0923 20.6715L9.77889 20.7445C8.23457 21.1044 6.62349 20.518 5.67176 19.2497L5.47862 18.9923C5.11062 18.5018 4.63481 18.1026 4.08793 17.8253L3.80092 17.6798C2.3866 16.9628 1.52936 15.478 1.61556 13.8947L1.63305 13.5734C1.66638 12.9611 1.55852 12.3494 1.31781 11.7855L1.19147 11.4896C0.568934 10.0312 0.86665 8.34275 1.95044 7.18525L2.17038 6.95035C2.58945 6.50278 2.90001 5.96486 3.07809 5.37815L3.17155 5.07023C3.63208 3.55289 4.94545 2.45084 6.51971 2.26079L6.83919 2.22222C7.4479 2.14873 8.03158 1.93629 8.54512 1.60131L8.81464 1.4255Z" fill="url(#paint0_linear_29_1511)"/>
<path d="M8.08333 11.1845L9.85848 13.0827L13.9167 8.91602" stroke="white" stroke-width="1.7" stroke-linecap="round" stroke-linejoin="round"/>
<defs>
<linearGradient id="paint0_linear_29_1511" x1="22" y1="11" x2="9.44138e-09" y2="11" gradientUnits="userSpaceOnUse">
<stop stop-color="#28FD3D"/>
<stop offset="1" stop-color="#44CA05"/>
</linearGradient>
</defs>
</svg>
