<svg width="24" height="24" viewBox="0 0 24 24" fill="none" xmlns="http://www.w3.org/2000/svg">
<circle cx="12" cy="12" r="8" fill="#55D66A"/>
<circle cx="12" cy="12" r="11" stroke="#55D66A" stroke-width="2"/>
<path d="M14.3275 10C14.1575 10 13.9795 10.0555 13.8494 10.1813L11.376 12.6006C11.2047 12.767 11.0327 12.736 10.898 12.5405L10.2333 11.5728C10.0293 11.2761 9.60331 11.1935 9.29797 11.3909C8.99263 11.589 8.90729 12.0019 9.11063 12.298L9.77599 13.2657C10.376 14.1392 11.5467 14.2502 12.3114 13.5083L14.8055 11.109C15.0648 10.8567 15.0648 10.4335 14.8055 10.1813C14.6755 10.0555 14.4975 10 14.3275 10Z" fill="white"/>
</svg>
