<svg width="44" height="44" viewBox="0 0 44 44" fill="none" xmlns="http://www.w3.org/2000/svg">
<path d="M23.3016 20.6979C22.9589 20.362 22.4982 20.1738 22.0183 20.1738C21.5384 20.1738 21.0777 20.362 20.735 20.6979L15.235 26.0146C15.0404 26.1751 14.8811 26.374 14.767 26.5989C14.6528 26.8238 14.5863 27.0699 14.5716 27.3217C14.5569 27.5734 14.5943 27.8256 14.6814 28.0622C14.7686 28.2989 14.9037 28.515 15.0782 28.6971C15.2527 28.8792 15.4629 29.0234 15.6956 29.1205C15.9284 29.2177 16.1787 29.2657 16.4309 29.2617C16.683 29.2577 16.9317 29.2018 17.1612 29.0973C17.3908 28.9928 17.5963 28.8421 17.765 28.6546L20.1666 26.3262V36.6662C20.1666 37.1525 20.3598 37.6188 20.7036 37.9626C21.0474 38.3064 21.5137 38.4996 22 38.4996C22.4862 38.4996 22.9525 38.3064 23.2963 37.9626C23.6402 37.6188 23.8333 37.1525 23.8333 36.6662V26.4179L26.1983 28.8012C26.3687 28.9731 26.5715 29.1095 26.7949 29.2025C27.0183 29.2956 27.258 29.3435 27.5 29.3435C27.742 29.3435 27.9816 29.2956 28.205 29.2025C28.4284 29.1095 28.6312 28.9731 28.8016 28.8012C28.9735 28.6308 29.1099 28.428 29.2029 28.2046C29.296 27.9812 29.3439 27.7416 29.3439 27.4996C29.3439 27.2575 29.296 27.0179 29.2029 26.7945C29.1099 26.5711 28.9735 26.3683 28.8016 26.1979L23.3016 20.6979Z" fill="#EF1F49"/>
<path d="M32.3951 12.8334C31.647 10.672 30.2438 8.79751 28.3807 7.47081C26.5176 6.14411 24.2873 5.43115 22.0001 5.43115C19.7129 5.43115 17.4825 6.14411 15.6194 7.47081C13.7563 8.79751 12.3531 10.672 11.6051 12.8334C9.9579 13.054 8.4017 13.7182 7.10294 14.7551C5.80417 15.7919 4.8117 17.1623 4.23169 18.7196C3.65168 20.277 3.50595 21.9628 3.8101 23.5965C4.11424 25.2303 4.85682 26.7507 5.95839 27.995C6.09145 28.2294 6.27455 28.4316 6.49465 28.5871C6.71475 28.7427 6.96644 28.8478 7.2318 28.8949C7.49715 28.9421 7.76965 28.9302 8.02987 28.8601C8.2901 28.7899 8.53166 28.6633 8.73735 28.4891C8.94304 28.315 9.10781 28.0976 9.21991 27.8525C9.33202 27.6074 9.38871 27.3406 9.38594 27.0711C9.38318 26.8016 9.32103 26.536 9.20391 26.2933C9.0868 26.0505 8.91761 25.8366 8.70839 25.6667C7.9991 24.8737 7.53503 23.892 7.37241 22.8406C7.2098 21.7892 7.35563 20.7132 7.79222 19.743C8.22882 18.7728 8.93744 17.95 9.8322 17.3744C10.727 16.7988 11.7695 16.4951 12.8334 16.5H13.0167C13.4456 16.5087 13.864 16.3667 14.199 16.0987C14.5339 15.8307 14.7643 15.4537 14.8501 15.0334C15.1867 13.3756 16.0861 11.8852 17.3958 10.8147C18.7056 9.74417 20.3451 9.15936 22.0367 9.15936C23.7283 9.15936 25.3679 9.74417 26.6776 10.8147C27.9874 11.8852 28.8868 13.3756 29.2234 15.0334C29.3091 15.4537 29.5395 15.8307 29.8745 16.0987C30.2095 16.3667 30.6278 16.5087 31.0567 16.5H31.1667C32.2306 16.4951 33.2731 16.7988 34.1679 17.3744C35.0627 17.95 35.7713 18.7728 36.2079 19.743C36.6445 20.7132 36.7903 21.7892 36.6277 22.8406C36.4651 23.892 36.001 24.8737 35.2917 25.6667C35.1302 25.8478 35.0063 26.0592 34.9271 26.2885C34.8479 26.5179 34.815 26.7607 34.8304 27.0028C34.8457 27.245 34.909 27.4817 35.0165 27.6992C35.124 27.9168 35.2737 28.1108 35.4567 28.27C35.7909 28.5648 36.2211 28.7277 36.6667 28.7284C36.927 28.7281 37.1843 28.6723 37.4214 28.5648C37.6584 28.4573 37.8699 28.3006 38.0417 28.105C39.1738 26.8629 39.9427 25.3333 40.2641 23.6837C40.5856 22.034 40.4473 20.3277 39.8645 18.7513C39.2816 17.1749 38.2766 15.7891 36.9592 14.7454C35.6419 13.7017 34.063 13.0403 32.3951 12.8334Z" fill="#7A808A"/>
</svg>
